<?xml version="1.0" encoding="iso-8859-1"?>
<!-- Generator: Adobe Illustrator 29.7.1, SVG Export Plug-In . SVG Version: 9.03 Build 0)  -->
<svg version="1.1" id="Layer_1" xmlns="http://www.w3.org/2000/svg" xmlns:xlink="http://www.w3.org/1999/xlink" x="0px" y="0px"
	 viewBox="0 0 250 200" style="enable-background:new 0 0 250 200;" xml:space="preserve">
<g>
	<path style="fill:#FDFEFE;" d="M205.917,19.083v161.834H44.083V19.083H205.917z M154.762,178.075h40.656
		c3.651,0,7.7-4.489,7.664-8.125l0.001-139.586c-0.293-4.492-3.447-7.927-7.974-8.289L54.735,22.077
		c-4.025,0.451-7.205,3.626-7.658,7.658l0,140.531c0.012,3.603,4.097,7.81,7.663,7.81h75.707v-60.471H110.08V94.079h20.367
		c0.506-11.525-1.884-23.806,3.762-34.368c8.342-15.606,25.765-14.863,41.155-13.628c0.947,0.076,2.257,0.152,3.158,0.316
		c0.133,0.024,0.396,0.121,0.396,0.235v20.841c0,0.017-0.22,0.237-0.237,0.237h-15.157c-1.637,0-4.761,1.261-6.003,2.365
		c-1.453,1.291-2.759,4.31-2.759,6.24v17.762h23.209l-3,23.525h-20.21V178.075z"/>
	<path style="fill:#157DC2;" d="M154.762,178.075v-60.471h20.21l3-23.525h-23.209V76.317c0-1.93,1.307-4.949,2.759-6.24
		c1.242-1.104,4.367-2.365,6.003-2.365h15.157c0.017,0,0.237-0.22,0.237-0.237V46.634c0-0.115-0.264-0.211-0.396-0.235
		c-0.901-0.164-2.211-0.24-3.158-0.316c-15.39-1.234-32.813-1.977-41.155,13.628c-5.646,10.561-3.256,22.842-3.762,34.368H110.08
		v23.525h20.367v60.471H54.74c-3.566,0-7.651-4.207-7.663-7.81l0-140.531c0.452-4.032,3.633-7.207,7.658-7.658l140.374-0.001
		c4.526,0.362,7.681,3.796,7.974,8.289l-0.001,139.586c0.037,3.636-4.012,8.125-7.664,8.125H154.762z"/>
</g>
</svg>
