<?xml version="1.0" encoding="iso-8859-1"?>
<!-- Generator: Adobe Illustrator 29.7.1, SVG Export Plug-In . SVG Version: 9.03 Build 0)  -->
<svg version="1.1" id="Layer_1" xmlns="http://www.w3.org/2000/svg" xmlns:xlink="http://www.w3.org/1999/xlink" x="0px" y="0px"
	 viewBox="0 0 250 200" style="enable-background:new 0 0 250 200;" xml:space="preserve">
<g>
	
		<radialGradient id="SVGID_1_" cx="252.7996" cy="-492.1039" r="8.7764" gradientTransform="matrix(-11.7467 3.3128 2.3868 8.4629 4347.4995 3421.8948)" gradientUnits="userSpaceOnUse">
		<stop  offset="0" style="stop-color:#FF005F"/>
		<stop  offset="1" style="stop-color:#FC01D8"/>
	</radialGradient>
	<path style="fill:url(#SVGID_1_);" d="M125.027,16.178c-34.995,0-45.23,0.036-47.219,0.201c-7.182,0.597-11.65,1.728-16.519,4.153
		c-3.752,1.864-6.711,4.024-9.631,7.052C46.34,33.106,43.117,39.9,41.95,47.976c-0.567,3.921-0.732,4.72-0.766,24.746
		c-0.013,6.675,0,15.461,0,27.244c0,34.976,0.039,45.203,0.206,47.189c0.58,6.99,1.676,11.388,3.997,16.198
		c4.435,9.208,12.906,16.121,22.885,18.7c3.455,0.89,7.272,1.38,12.171,1.612c2.076,0.09,23.234,0.155,44.404,0.155
		c21.171,0,42.341-0.026,44.366-0.129c5.673-0.267,8.967-0.709,12.61-1.651c10.044-2.592,18.36-9.402,22.885-18.739
		c2.276-4.694,3.43-9.26,3.952-15.885c0.113-1.444,0.161-24.474,0.161-47.473c0-23.003-0.052-45.99-0.165-47.434
		c-0.529-6.732-1.683-11.259-4.032-16.044c-1.928-3.917-4.068-6.842-7.175-9.832c-5.545-5.298-12.327-8.522-20.409-9.688
		c-3.916-0.566-4.696-0.734-24.732-0.769L125.027,16.178z"/>
	
		<radialGradient id="SVGID_00000134214126820580547530000015328271789388522651_" cx="217.2285" cy="-365.9049" r="8.7764" gradientTransform="matrix(0 -15.2473 -16.1771 0 -5833.5576 3508.8813)" gradientUnits="userSpaceOnUse">
		<stop  offset="0" style="stop-color:#FFCC00"/>
		<stop  offset="0.1242" style="stop-color:#FFCC00"/>
		<stop  offset="0.5672" style="stop-color:#FE4A05"/>
		<stop  offset="0.6942" style="stop-color:#FF0F3F"/>
		<stop  offset="1" style="stop-color:#FE0657;stop-opacity:0"/>
	</radialGradient>
	<path style="fill:url(#SVGID_00000134214126820580547530000015328271789388522651_);" d="M125.027,16.178
		c-34.995,0-45.23,0.036-47.219,0.201c-7.182,0.597-11.65,1.728-16.519,4.153c-3.752,1.864-6.711,4.024-9.631,7.052
		C46.34,33.106,43.117,39.9,41.95,47.976c-0.567,3.921-0.732,4.72-0.766,24.746c-0.013,6.675,0,15.461,0,27.244
		c0,34.976,0.039,45.203,0.206,47.189c0.58,6.99,1.676,11.388,3.997,16.198c4.435,9.208,12.906,16.121,22.885,18.7
		c3.455,0.89,7.272,1.38,12.171,1.612c2.076,0.09,23.234,0.155,44.404,0.155c21.171,0,42.341-0.026,44.366-0.129
		c5.673-0.267,8.967-0.709,12.61-1.651c10.044-2.592,18.36-9.402,22.885-18.739c2.276-4.694,3.43-9.26,3.952-15.885
		c0.113-1.444,0.161-24.474,0.161-47.473c0-23.003-0.052-45.99-0.165-47.434c-0.529-6.732-1.683-11.259-4.032-16.044
		c-1.928-3.917-4.068-6.842-7.175-9.832c-5.545-5.298-12.327-8.522-20.409-9.688c-3.916-0.566-4.696-0.734-24.732-0.769
		L125.027,16.178z"/>
	
		<radialGradient id="SVGID_00000041979311426266171670000003449884463484800675_" cx="271.5512" cy="-286.5947" r="10.8968" gradientTransform="matrix(2.549 -4.3919 -5.7178 -3.3185 -2201.6211 423.0362)" gradientUnits="userSpaceOnUse">
		<stop  offset="0" style="stop-color:#FFCC00"/>
		<stop  offset="1" style="stop-color:#FFCC00;stop-opacity:0"/>
	</radialGradient>
	<path style="fill:url(#SVGID_00000041979311426266171670000003449884463484800675_);" d="M125.027,16.178
		c-34.995,0-45.23,0.036-47.219,0.201c-7.182,0.597-11.65,1.728-16.519,4.153c-3.752,1.864-6.711,4.024-9.631,7.052
		C46.34,33.106,43.117,39.9,41.95,47.976c-0.567,3.921-0.732,4.72-0.766,24.746c-0.013,6.675,0,15.461,0,27.244
		c0,34.976,0.039,45.203,0.206,47.189c0.58,6.99,1.676,11.388,3.997,16.198c4.435,9.208,12.906,16.121,22.885,18.7
		c3.455,0.89,7.272,1.38,12.171,1.612c2.076,0.09,23.234,0.155,44.404,0.155c21.171,0,42.341-0.026,44.366-0.129
		c5.673-0.267,8.967-0.709,12.61-1.651c10.044-2.592,18.36-9.402,22.885-18.739c2.276-4.694,3.43-9.26,3.952-15.885
		c0.113-1.444,0.161-24.474,0.161-47.473c0-23.003-0.052-45.99-0.165-47.434c-0.529-6.732-1.683-11.259-4.032-16.044
		c-1.928-3.917-4.068-6.842-7.175-9.832c-5.545-5.298-12.327-8.522-20.409-9.688c-3.916-0.566-4.696-0.734-24.732-0.769
		L125.027,16.178z"/>
	
		<radialGradient id="SVGID_00000154416249802207014020000018124388563740452766_" cx="151.9086" cy="137.905" r="11.2457" gradientTransform="matrix(-9.0667 2.553 0.8696 3.0891 1321.3138 -790.8232)" gradientUnits="userSpaceOnUse">
		<stop  offset="0" style="stop-color:#780CFF"/>
		<stop  offset="1" style="stop-color:#820BFF;stop-opacity:0"/>
	</radialGradient>
	<path style="fill:url(#SVGID_00000154416249802207014020000018124388563740452766_);" d="M125.027,16.178
		c-34.995,0-45.23,0.036-47.219,0.201c-7.182,0.597-11.65,1.728-16.519,4.153c-3.752,1.864-6.711,4.024-9.631,7.052
		C46.34,33.106,43.117,39.9,41.95,47.976c-0.567,3.921-0.732,4.72-0.766,24.746c-0.013,6.675,0,15.461,0,27.244
		c0,34.976,0.039,45.203,0.206,47.189c0.58,6.99,1.676,11.388,3.997,16.198c4.435,9.208,12.906,16.121,22.885,18.7
		c3.455,0.89,7.272,1.38,12.171,1.612c2.076,0.09,23.234,0.155,44.404,0.155c21.171,0,42.341-0.026,44.366-0.129
		c5.673-0.267,8.967-0.709,12.61-1.651c10.044-2.592,18.36-9.402,22.885-18.739c2.276-4.694,3.43-9.26,3.952-15.885
		c0.113-1.444,0.161-24.474,0.161-47.473c0-23.003-0.052-45.99-0.165-47.434c-0.529-6.732-1.683-11.259-4.032-16.044
		c-1.928-3.917-4.068-6.842-7.175-9.832c-5.545-5.298-12.327-8.522-20.409-9.688c-3.916-0.566-4.696-0.734-24.732-0.769
		L125.027,16.178z"/>
	<path style="fill:#FFFFFF;" d="M125.034,37.704c-16.928,0-19.053,0.074-25.701,0.376c-6.636,0.304-11.165,1.353-15.128,2.894
		c-4.1,1.591-7.577,3.719-11.042,7.182c-3.467,3.462-5.597,6.937-7.194,11.032c-1.545,3.962-2.597,8.489-2.896,15.117
		c-0.297,6.644-0.375,8.768-0.375,25.683c0,16.916,0.075,19.032,0.377,25.676c0.305,6.631,1.356,11.157,2.896,15.117
		c1.593,4.097,3.723,7.572,7.189,11.034c3.463,3.465,6.941,5.598,11.038,7.189c3.966,1.54,8.497,2.59,15.131,2.894
		c6.649,0.302,8.772,0.376,25.699,0.376c16.929,0,19.047-0.074,25.696-0.376c6.636-0.304,11.17-1.353,15.136-2.894
		c4.098-1.591,7.571-3.724,11.034-7.189c3.467-3.462,5.597-6.937,7.194-11.032c1.532-3.962,2.584-8.489,2.896-15.117
		c0.299-6.644,0.377-8.761,0.377-25.677c0-16.916-0.078-19.038-0.377-25.682c-0.312-6.631-1.364-11.157-2.896-15.117
		c-1.597-4.097-3.727-7.572-7.194-11.034c-3.467-3.465-6.934-5.593-11.038-7.182c-3.974-1.54-8.506-2.59-15.141-2.894
		c-6.649-0.302-8.765-0.376-25.699-0.376L125.034,37.704z M119.442,48.928c1.66-0.003,3.511,0,5.592,0
		c16.642,0,18.615,0.06,25.187,0.358c6.077,0.278,9.376,1.292,11.573,2.145c2.909,1.129,4.983,2.478,7.163,4.658
		c2.182,2.18,3.532,4.256,4.664,7.163c0.853,2.193,1.87,5.489,2.146,11.562c0.299,6.566,0.364,8.538,0.364,25.16
		c0,16.622-0.065,18.595-0.364,25.16c-0.278,6.073-1.293,9.369-2.146,11.562c-1.13,2.907-2.483,4.976-4.664,7.155
		c-2.182,2.18-4.253,3.529-7.163,4.658c-2.195,0.856-5.496,1.869-11.573,2.146c-6.571,0.298-8.545,0.363-25.187,0.363
		c-16.644,0-18.616-0.065-25.187-0.363c-6.077-0.28-9.376-1.295-11.574-2.148c-2.909-1.129-4.987-2.478-7.168-4.658
		c-2.182-2.18-3.532-4.251-4.664-7.159c-0.853-2.193-1.87-5.489-2.146-11.562c-0.299-6.566-0.358-8.538-0.358-25.171
		c0-16.633,0.06-18.595,0.358-25.16c0.278-6.073,1.293-9.369,2.146-11.564c1.13-2.907,2.483-4.983,4.664-7.163
		c2.182-2.18,4.259-3.529,7.168-4.661c2.197-0.856,5.497-1.869,11.574-2.148c5.75-0.26,7.978-0.337,19.595-0.35L119.442,48.928z
		 M158.306,59.27c-4.129,0-7.48,3.344-7.48,7.472c0,4.126,3.35,7.474,7.48,7.474c4.129,0,7.48-3.348,7.48-7.474
		c0-4.126-3.35-7.474-7.48-7.474L158.306,59.27z M125.034,68.003c-17.677,0-32.01,14.322-32.01,31.986s14.332,31.979,32.01,31.979
		s32.004-14.315,32.004-31.979s-14.328-31.986-32.006-31.986H125.034z M125.034,79.227c11.474,0,20.777,9.295,20.777,20.762
		c0,11.466-9.303,20.762-20.777,20.762c-11.475,0-20.777-9.296-20.777-20.762C104.257,88.522,113.559,79.227,125.034,79.227
		L125.034,79.227z"/>
</g>
</svg>
