<?xml version="1.0" encoding="iso-8859-1"?>
<!-- Generator: Adobe Illustrator 29.7.1, SVG Export Plug-In . SVG Version: 9.03 Build 0)  -->
<svg version="1.1" id="Layer_1" xmlns="http://www.w3.org/2000/svg" xmlns:xlink="http://www.w3.org/1999/xlink" x="0px" y="0px"
	 viewBox="0 0 250 200" style="enable-background:new 0 0 250 200;" xml:space="preserve">
<g>
	<path style="fill:#FF0000;" d="M116.987,27.539c4.797-0.038,9.611-0.03,14.408,0c1.131,0.007,2.269-0.011,3.4,0
		c15.688,0.15,31.697,0.458,47.35,1.459c17.017,1.088,36.308,1.176,42.054,20.763c3.8,12.952,4.167,32.159,4.328,45.786
		c0.036,3.015,0.035,6.053,0,9.068c-0.158,13.619-0.63,29.662-3.641,42.912c-3.339,14.693-12.616,20.319-26.896,22.161
		c-18.303,2.361-38.568,2.564-57.045,2.773c-1.67,0.019-3.348-0.012-5.019,0c-1.508,0.011-3.024-0.008-4.533,0
		c-4.205,0.021-8.422,0.021-12.627,0c-1.562-0.008-3.132,0.012-4.695,0c-1.67-0.012-3.348,0.019-5.019,0
		c-14.055-0.159-28.467-0.515-42.494-1.459c-17.381-1.17-35.619-1.613-40.96-21.695c-3.018-11.347-3.61-26.401-3.965-38.215
		l0.109-0.194l-0.109-0.129c-0.017-0.699,0.015-1.406,0-2.105c-0.024-1.089-0.17-2.151-0.162-3.238c0-0.03,0.15-0.139,0.148-0.258
		c-0.02-1.008-0.056-2.162-0.31-3.143v-3.886c0.25-0.994,0.333-2.147,0.33-3.171c-0.001-0.21-0.168-0.37-0.168-0.391
		c0.02-1.034,0.14-2.041,0.162-3.077c0.273-12.675,0.75-28.875,4.06-41.035c5.5-20.208,24.74-20.342,42.161-21.466
		C84.089,27.951,100.714,27.667,116.987,27.539z M104.359,69.153v61.855l53.587-30.848L104.359,69.153z"/>
	<path style="fill:#FFBABA;" d="M131.395,27.377v0.162c-4.797-0.03-9.611-0.038-14.408,0v-0.162H131.395z"/>
	<path style="fill:#FF4949;" d="M131.395,172.461v0.162h-12.627v-0.162C122.973,172.482,127.189,172.482,131.395,172.461z"/>
	<path style="fill:#FFBEBE;" d="M228.689,104.615h-0.162c0.035-3.015,0.036-6.053,0-9.068h0.162V104.615z"/>
	<path style="fill:#FF6969;" d="M21.311,98.138v-3.562h0.162c0,0.021,0.167,0.182,0.168,0.391
		C21.644,95.991,21.561,97.144,21.311,98.138z"/>
	<path style="fill:#FF6E6E;" d="M21.473,105.424h-0.162v-3.4c0.254,0.98,0.29,2.135,0.31,3.143
		C21.623,105.285,21.473,105.395,21.473,105.424z"/>
	<path style="fill:#FFCDCD;" d="M114.073,172.461v0.162h-5.019v-0.162C110.724,172.48,112.402,172.449,114.073,172.461z"/>
	<path style="fill:#FFCDCD;" d="M140.946,172.461v0.162h-5.019v-0.162C137.598,172.449,139.276,172.48,140.946,172.461z"/>
	<path style="fill:#FFACAC;" d="M21.635,108.663h-0.324v-3.238h0.162C21.465,106.512,21.611,107.574,21.635,108.663z"/>
	<path style="fill:#FFB2B2;" d="M21.635,91.499c-0.022,1.036-0.142,2.043-0.162,3.077h-0.162v-3.077H21.635z"/>
	<path style="fill:#FF8686;" d="M118.767,172.461v0.162h-4.695v-0.162C115.635,172.473,117.205,172.453,118.767,172.461z"/>
	<path style="fill:#FF8686;" d="M135.927,172.461v0.162h-4.533v-0.162C132.903,172.453,134.419,172.472,135.927,172.461z"/>
	<path style="fill:#FFD9D9;" d="M134.794,27.377v0.162c-1.131-0.011-2.269,0.007-3.4,0v-0.162H134.794z"/>
	<path style="fill:#FFACAC;" d="M21.635,111.092c-0.003-0.102,0.001-0.282,0-0.324l0.109,0.129L21.635,111.092z"/>
</g>
</svg>
