<?xml version="1.0" encoding="iso-8859-1"?>
<!-- Generator: Adobe Illustrator 29.7.1, SVG Export Plug-In . SVG Version: 9.03 Build 0)  -->
<svg version="1.1" id="Layer_1" xmlns="http://www.w3.org/2000/svg" xmlns:xlink="http://www.w3.org/1999/xlink" x="0px" y="0px"
	 viewBox="0 0 250 150" style="enable-background:new 0 0 250 150;" xml:space="preserve">
<g>
	<path d="M64.536,60.709v27.977h-3.592l-0.232-0.268l0.046-2.127c-0.357,0.014-1.268,1.135-1.689,1.442
		c-5.551,4.05-12.137-0.397-12.591-6.679c-0.604-8.35,8.205-13.466,14.19-6.909v-13.16l0.276-0.276H64.536z M55.476,74.925
		c-6.829,0.252-6.709,9.846-0.793,10.446C62.735,86.187,62.273,74.674,55.476,74.925z"/>
	<path d="M22.907,88.686l11.698-25.401l11.879,25.401h-4.605l-1.884-4.112c-3.104-0.054-6.557-0.344-9.636-0.13
		c-0.345,0.024-0.883-0.012-1.144,0.239c-0.614,0.59-1.121,3.323-1.98,4.002H22.907z M31.38,80.403h6.631l-3.406-7.179L31.38,80.403
		z"/>
	<path d="M70.678,85.308c-9.306-9.575,0.426-25.621,13.374-21.554c1.746,0.548,3.877,1.707,4.989,3.121l-2.703,2.84
		c-0.921-0.675-1.677-1.361-2.765-1.8c-7.475-3.019-14.823,4.258-11.759,11.75c2.41,5.893,9.927,7.263,14.524,2.96l2.794,2.932
		C84.107,90.583,75.615,90.387,70.678,85.308z"/>
	<path d="M132.688,88.686l-0.001-2.392l-2.783,2.095c-11.359,5.233-16.189-13.885-5.693-16.916c3.686-1.064,5.326,0.408,7.923,2.397
		c0.185,0.142,0.233,0.357,0.553,0.274l0.001-2.392h3.684v16.933H132.688z M123.923,84.192c5.53,4.53,12.07-3.649,6.826-8.017
		C125.264,71.605,118.765,79.966,123.923,84.192z"/>
	<path d="M190.526,81.692h-12.433c-0.065,0-0.286,0.22-0.454,0.194c0.263,1.823,2.781,3.309,4.508,3.485
		c2.239,0.229,3.954-0.237,5.711-1.61c0.401,0.451,2.489,2.203,2.491,2.625c0.003,0.582-2.505,1.843-3.09,2.073
		c-5.031,1.972-11.471-0.013-13.401-5.296c-2.906-7.958,5.963-15.427,13.118-10.347c1.443,1.025,3.55,4.07,3.55,5.84V81.692z
		 M186.474,78.563c-1.089-4.729-7.998-4.721-9.026,0H186.474z"/>
	<path d="M116.295,81.692h-12.433c-0.127,0-0.636,0.114-0.64,0.275c1.815,3.879,7.38,4.628,10.403,1.757l2.667,2.661
		c-3.768,3.543-9.791,3.879-13.814,0.554c-8.396-6.94,0.55-19.89,9.605-14.567c1.662,0.977,4.212,4.13,4.212,6.098V81.692z
		 M112.427,78.563c-1.403-4.739-7.964-4.811-9.21,0H112.427z"/>
	<polygon points="160.778,71.752 165.657,80.771 170.356,71.752 174.317,71.752 165.657,89.053 156.634,71.752 	"/>
	<polygon points="145.582,66.047 145.582,71.752 149.634,71.752 149.634,75.434 145.858,75.434 145.582,75.71 145.582,88.686 
		141.898,88.686 141.898,75.71 141.622,75.434 138.214,75.434 138.214,71.752 141.898,71.752 141.898,67.979 	"/>
	<path d="M212.814,75.618v-4.233h1.658v16.933h-1.658v-4.049c-1.711,2.168-3.785,4.32-6.726,4.598
		c-11.921,1.127-12.846-16.815-2.004-18.015C207.875,70.432,210.851,72.592,212.814,75.618z M205.041,72.541
		c-8.956,0.638-9.166,13.833-0.218,14.65C215.283,88.145,215.13,71.822,205.041,72.541z"/>
	<path d="M99.349,71.2v3.865c-1.678-0.36-3.336,0.235-4.317,1.668c-0.132,0.192-0.657,1.245-0.657,1.369v10.583h-3.684V71.752h3.684
		l0.091,1.84C95.656,72.132,97.456,71.299,99.349,71.2z"/>
	<rect x="151.476" y="71.752" width="3.684" height="16.933"/>
	<path d="M219.813,71.384v16.841c-0.392,0.481-1.102,0.224-1.658,0.276V71.384H219.813z"/>
	<path d="M151.723,64.084c2.163-2.162,5.31,1.25,3.165,3.255C152.806,69.284,149.636,66.17,151.723,64.084z"/>
	<path d="M218.479,64.617c2.225-0.574,2.712,2.776,0.647,3.05C217.354,67.902,216.652,65.088,218.479,64.617z"/>
	<path d="M193.348,86.351c1.276-1.393,3.65,0.448,2.341,2.064C194.499,89.884,191.845,87.992,193.348,86.351z"/>
	<path style="fill:#FFFFFF;" d="M55.476,74.925c6.797-0.251,7.258,11.262-0.793,10.446C48.767,84.771,48.647,75.177,55.476,74.925z"
		/>
	<polygon style="fill:#FFFFFF;" points="31.38,80.403 34.606,73.224 38.011,80.403 	"/>
	<path style="fill:#FFFFFF;" d="M123.923,84.192c-5.158-4.226,1.34-12.587,6.826-8.017
		C135.993,80.543,129.454,88.722,123.923,84.192z"/>
	<path style="fill:#FFFFFF;" d="M186.474,78.563h-9.026C178.476,73.842,185.385,73.834,186.474,78.563z"/>
	<path style="fill:#FFFFFF;" d="M112.427,78.563h-9.21C104.463,73.752,111.024,73.824,112.427,78.563z"/>
	<path style="fill:#FFFFFF;" d="M205.041,72.541c10.088-0.719,10.241,15.604-0.218,14.65
		C195.875,86.374,196.085,73.179,205.041,72.541z"/>
</g>
</svg>
