<?xml version="1.0" encoding="iso-8859-1"?>
<!-- Generator: Adobe Illustrator 29.7.1, SVG Export Plug-In . SVG Version: 9.03 Build 0)  -->
<svg version="1.1" id="Layer_1" xmlns="http://www.w3.org/2000/svg" xmlns:xlink="http://www.w3.org/1999/xlink" x="0px" y="0px"
	 viewBox="0 0 250 150" style="enable-background:new 0 0 250 150;" xml:space="preserve">
<g>
	<path style="fill:#E27301;" d="M21.268,101.819c-0.053-0.471-0.053-1.561,0-2.032c0.839-7.524,10.938-10.102,15.272-3.764
		c4.435,6.485-1.622,14.898-9.173,12.825C24.274,108,21.627,105.033,21.268,101.819z"/>
	<path style="fill:#F7AA00;" d="M72.806,39.021c5.033-0.449,9.027,3.529,9.127,8.465l0.001,52.833
		c-0.567,11.687-15.679,11.712-16.758,0.65l0.005-54.453C65.608,42.658,68.927,39.367,72.806,39.021z"/>
	<path style="fill:#E27300;" d="M50.606,65.758c5.102-0.519,9.122,3.196,9.371,8.222l0,26.582
		c-0.623,11.484-15.916,11.312-16.758,0.325l0-27.395C43.457,69.686,46.799,66.146,50.606,65.758z"/>
	<path style="fill:#747474;" d="M123.319,52.162c0.857,5.695-1.341,11.336-6.585,14.021c-8.865,4.538-20.094-1.586-21.061-11.462
		c-1.153-11.774,12.368-19.93,22.241-13.37c0.704,0.468,1.318,1.075,1.989,1.548l-2.723,2.828
		c-4.833-4.526-12.785-3.339-15.993,2.479c-2.567,4.655-1.277,10.646,3.078,13.693c5.497,3.846,14.558,1.498,15.15-5.836h-9.27
		v-3.901H123.319z"/>
	<path style="fill:#747474;" d="M178.695,51.268v-1.463h3.822l-0.001,17.838c-0.301,3.684-2.18,6.837-5.873,7.865
		c-4.505,1.254-9.153-0.63-10.951-5.007l3.366-1.439c0.205,0.018,0.478,0.71,0.627,0.924c1.544,2.221,4.386,2.975,6.788,1.614
		c1.237-0.701,2.222-2.459,2.222-3.874v-2.154c-0.142-0.035-0.163,0.059-0.244,0.121c-1.335,1.021-2.038,1.732-3.872,1.9
		c-5.737,0.526-10.309-4.676-9.624-10.269c0.608-4.961,5.463-9.149,10.556-7.87c1.407,0.353,1.875,0.877,2.941,1.693
		C178.533,51.21,178.553,51.304,178.695,51.268z M173.311,52.917c-5.745,0.686-5.892,10.597,0.394,11.101
		C180.702,64.578,180.833,52.018,173.311,52.917z"/>
	<path style="fill:#747474;" d="M117.627,103.038h-3.497l-2.477-6.751l-10.36,0.017l-2.369,6.734h-3.578l9.47-24.875
		c1.033,0.102,2.253-0.114,3.26,0.001c0.116,0.013,0.215,0.008,0.273,0.133L117.627,103.038z M110.634,93.367l-4.187-11.216
		l-4.026,11.216H110.634z"/>
	<path style="fill:#747474;" d="M133.386,49.261c6.762-0.575,11.669,5.51,9.734,12.005c-2.237,7.51-12.891,8.631-16.807,1.923
		C122.906,57.35,126.586,49.839,133.386,49.261z M133.464,52.915c-6.224,0.779-5.607,11.525,1.117,11.112
		C141.507,63.6,140.94,51.979,133.464,52.915z"/>
	<path style="fill:#747474;" d="M153.309,49.261c6.754-0.574,11.619,5.448,9.751,11.94c-2.177,7.562-12.898,8.718-16.823,1.988
		C142.832,57.351,146.513,49.839,153.309,49.261z M153.386,52.915c-6.172,0.773-5.669,11.453,1.117,11.112
		C161.383,63.681,160.927,51.97,153.386,52.915z"/>
	<path style="fill:#747474;" d="M195.284,61.184c1.228,3.042,5.279,3.706,7.726,1.666c0.237-0.198,0.563-0.537,0.772-0.772
		c0.17-0.19,0.329-0.623,0.549-0.555l2.977,1.948c0.107,0.182-0.384,0.727-0.517,0.883c-4.333,5.093-12.715,4.139-15.425-2.059
		c-2.227-5.095,0.264-11.532,5.883-12.841c5.012-1.167,8.923,2.059,10.279,6.694L195.284,61.184z M194.552,58.095l8.074-3.267
		c0.403-0.246-0.426-1.041-0.682-1.237c-1.679-1.285-4.062-0.917-5.605,0.398C195.12,55.031,194.592,56.51,194.552,58.095z"/>
	<path style="fill:#757575;" d="M152.024,103.038h-3.09v-2.357c-0.47,0.427-0.779,0.95-1.263,1.379
		c-4.226,3.754-11.932,0.377-10.555-5.673c0.968-4.251,6.758-4.953,10.29-3.973c0.531,0.147,1.001,0.404,1.527,0.546v-1.26
		c0-0.579-0.753-1.669-1.177-2.074c-2.171-2.076-5.855-1.567-7.404,0.98l-2.803-1.711c1.872-3.215,6.276-3.999,9.657-3.027
		c2.998,0.862,4.637,3.255,4.82,6.317L152.024,103.038z M144.12,94.61c-5.46,0.513-4.764,6.551,0.128,6.142
		c2.149-0.18,4.529-2.207,4.684-4.42c0.047-0.673-0.061-0.706-0.62-1.003C147.138,94.703,145.436,94.486,144.12,94.61z"/>
	<path style="fill:#757575;" d="M134.378,103.038h-3.253V91.863c0-3.262-4.402-4.425-6.707-2.558
		c-0.872,0.706-1.913,2.484-1.913,3.615v10.118h-3.253V86.052h3.09v2.357c0.152,0.034,0.158-0.05,0.231-0.135
		c0.454-0.53,0.636-0.903,1.24-1.362c4.314-3.281,10.572-0.777,10.564,4.87L134.378,103.038z"/>
	<path style="fill:#757575;" d="M226.114,90.593c-0.923-1.895-3.404-2.653-5.361-2.044c-1.17,0.364-2.503,1.56-1.562,2.826
		c0.896,1.205,5.01,1.716,6.585,2.359c5.372,2.193,4.207,8.321-1.039,9.605c-3.302,0.808-6.898-0.186-8.832-3.072
		c-0.157-0.235-0.908-1.45-0.65-1.627L218,97.586c1.074,2.427,3.321,3.713,5.969,2.953c3.11-0.892,2.441-3.44-0.323-4.351
		c-2.63-0.867-7.021-1.058-7.883-4.394c-1.682-6.511,9.105-8.45,12.602-3.492c0.19,0.27,0.762,1.022,0.454,1.237
		C228.443,89.619,226.272,90.685,226.114,90.593z"/>
	<polygon style="fill:#747474;" points="163.936,86.052 169.14,98.243 174.101,86.052 177.476,86.052 166.904,110.515 
		163.652,110.515 163.689,110.268 167.536,101.954 160.562,86.052 	"/>
	<path style="fill:#747474;" d="M213.334,90.437l-2.877,1.148c-1.434-3.628-6.051-4.284-8.589-1.349
		c-3.241,3.746-1.096,10.805,4.356,10.449c2.039-0.133,3.596-1.337,4.396-3.179l2.792,1.151c-1.661,4.969-8.179,6.285-12.332,3.588
		c-4.177-2.713-5.113-9.005-2.365-13.047C202.335,83.868,210.947,84.237,213.334,90.437z"/>
	<rect x="184.957" y="40.134" style="fill:#747474;" width="3.903" height="26.901"/>
	<path style="fill:#747474;" d="M184.631,80.851v5.201h4.147v2.926h-4.147v9.224c0,0.156,0.25,0.947,0.34,1.123
		c0.302,0.593,1.158,1.025,1.816,1.037c0.511,0.01,0.989-0.251,1.497-0.244l0.889,2.651c0.026,0.106-0.047,0.132-0.127,0.17
		c-0.675,0.313-2.562,0.404-3.32,0.345c-2.083-0.163-4.266-1.983-4.266-4.188V88.978h-3.009v-2.926h3.009v-5.201H184.631z"/>
	<rect x="155.52" y="78.25" style="fill:#747474;" width="3.171" height="24.788"/>
	<rect x="191.95" y="86.052" style="fill:#747474;" width="3.171" height="16.986"/>
	<path style="fill:#757575;" d="M193.315,77.947c3.042-0.278,3.334,4.332,0.382,4.529C190.767,82.673,190.416,78.212,193.315,77.947
		z"/>
	<path style="fill:#FDFDFD;" d="M173.311,52.917c7.522-0.899,7.392,11.661,0.394,11.101
		C167.419,63.514,167.565,53.603,173.311,52.917z"/>
	<polygon style="fill:#FDFDFD;" points="110.634,93.367 102.421,93.367 106.447,82.15 	"/>
	<path style="fill:#FDFDFD;" d="M133.464,52.915c7.476-0.936,8.043,10.686,1.117,11.112C127.856,64.44,127.24,53.694,133.464,52.915
		z"/>
	<path style="fill:#FDFDFD;" d="M153.386,52.915c7.541-0.944,7.997,10.766,1.117,11.112
		C147.717,64.368,147.214,53.688,153.386,52.915z"/>
	<path style="fill:#FDFDFD;" d="M194.552,58.095c0.04-1.585,0.568-3.065,1.788-4.105c1.542-1.316,3.926-1.684,5.605-0.398
		c0.255,0.196,1.085,0.99,0.682,1.237L194.552,58.095z"/>
	<path style="fill:#FDFDFD;" d="M144.12,94.61c1.316-0.124,3.018,0.093,4.193,0.719c0.559,0.298,0.667,0.33,0.62,1.003
		c-0.156,2.213-2.536,4.24-4.684,4.42C139.355,101.161,138.66,95.123,144.12,94.61z"/>
</g>
</svg>
