<?xml version="1.0" encoding="iso-8859-1"?>
<!-- Generator: Adobe Illustrator 29.7.1, SVG Export Plug-In . SVG Version: 9.03 Build 0)  -->
<svg version="1.1" id="Layer_1" xmlns="http://www.w3.org/2000/svg" xmlns:xlink="http://www.w3.org/1999/xlink" x="0px" y="0px"
	 viewBox="0 0 250 150" style="enable-background:new 0 0 250 150;" xml:space="preserve">
<g>
	<path style="fill:#050505;" d="M88.075,37.923c-1.534,3.835-4.521,6.976-6.101,10.804c-4.922,11.925,0.992,20.561,0.032,31.816
		c-1.323,15.519-14.686,29.248-30.261,30.795c-6.337,0.63-19.293-1.105-23.872-5.875c-0.816-0.85,0.334-0.71,0.985-1.006
		c9.171-4.18,6.97-3.043,16.293-2.285c15.712,1.277,28.684-11.097,27.615-26.833c-0.199-2.922-1.456-10.765-5.756-9.117
		L44.41,82.847l-2.891,0.433L88.075,37.923z"/>
	<path style="fill:#060606;" d="M147.278,75c0.137,14.376-4.311,24.682-20.27,25.196c-28.653,0.923-30.493-40.776-6.485-46.201
		c11.172-2.525,24.373,2.505,25.426,15.043c-1.419-0.268-7.342,0.422-7.91-0.074c-1.191-1.039-0.544-5.638-6.262-8
		c-16.491-6.811-24.631,14.308-17.22,26.412c6.73,10.993,24.173,7.19,25.404-5.755h-13.969V75H147.278z"/>
	<path style="fill:#050505;" d="M8.261,112.077l6.769-9.478c4.277-9.263-1.351-13.333-2.106-21.982
		c-2.259-25.898,23.575-44.801,47.87-35.071c1.448,0.58,7.573,2.875,5.308,4.598c-0.39,0.296-7.895,3.613-8.348,3.658
		c-3.217,0.318-8.859-1.825-13.901-1.307C26.574,54.269,16.27,75.237,25.423,90.026c0.981,1.584,3.884,3.544,3.415,5.084
		l-17.891,16.007L8.261,112.077z"/>
	<path style="fill:#050505;" d="M188.4,65.885c23.07-0.864,22.949,34.013,1.113,34.328C167.957,100.524,167.202,66.68,188.4,65.885z
		 M183.423,91.992c0.74,0.715,2.709,1.696,3.719,1.925c14.132,3.195,14.94-22.19,2.382-22.284
		C179.86,71.559,177.792,86.548,183.423,91.992z"/>
	<path d="M219.117,83.608c-0.184,0.113-1.159-0.321-1.351,0.422c-0.551,2.13,0.563,14.273,0.024,14.811l-6.655-0.003V54.473
		l6.655-0.003c0.031,9.667-0.618,18.999,1.327,28.476C219.141,83.065,219.145,83.591,219.117,83.608z"/>
	<path style="fill:#030303;" d="M171.89,67.054v5.959h-11.973V99.5h-6.652V72.02c0-0.375,5.277-4.966,5.654-4.966H171.89z"/>
	<path style="fill:#050505;" d="M219.117,82.946l13.441-15.748l8.509-0.137c0.892,0.657-12.789,13.653-12.583,14.795l13.255,17.306
		c-2.061,0.385-6.144,0.828-7.98-0.002c-2.319-1.048-9.184-13.873-10.787-14.746c-1.019-0.555-3.112,0.488-3.855-0.806
		C219.145,83.591,219.141,83.065,219.117,82.946z"/>
	<path style="fill:#F9F9F9;" d="M183.423,91.992c-5.631-5.444-3.563-20.432,6.101-20.36c12.558,0.094,11.75,25.48-2.382,22.284
		C186.132,93.688,184.163,92.707,183.423,91.992z"/>
</g>
</svg>
