<?xml version="1.0" encoding="iso-8859-1"?>
<!-- Generator: Adobe Illustrator 29.7.1, SVG Export Plug-In . SVG Version: 9.03 Build 0)  -->
<svg version="1.1" id="Layer_1" xmlns="http://www.w3.org/2000/svg" xmlns:xlink="http://www.w3.org/1999/xlink" x="0px" y="0px"
	 viewBox="0 0 250 150" style="enable-background:new 0 0 250 150;" xml:space="preserve">
<g>
	<path style="fill:#33475B;" d="M17.085,54.537h7.503v17.267h15.85V54.537H47.9c0.009,0,0.126,0.117,0.126,0.126v40.935
		c0,0.009-0.118,0.126-0.126,0.126h-7.461V79.048h-15.85v16.677h-7.503V54.537z"/>
	<path style="fill:#FE7A59;" d="M195.06,64.308l0-7.118c-0.041-0.219-0.61-0.43-0.836-0.597c-5.284-3.92-0.83-12.21,5.41-9.785
		c4.568,1.775,4.637,8.216,0.314,10.315l0.001,7.184c5.984,0.756,11.063,5.326,12.732,11.074c2.555,8.8-2.913,17.959-11.873,19.811
		c-4.56,0.943-9.15-0.168-12.861-2.913l-5.747,5.721c-0.097,0.214,0.217,1.193,0.22,1.556c0.042,4.68-5.966,6.892-9.026,3.366
		c-3.025-3.485-0.243-8.824,4.338-8.461c0.343,0.027,0.831,0.265,1.138,0.124l5.726-5.744c0.03-0.116-1.03-1.758-1.186-2.073
		c-2.066-4.176-2.139-9.166-0.252-13.422c0.345-0.777,0.821-1.482,1.183-2.249l-19.236-14.985c-0.273-0.112-0.628,0.216-0.904,0.317
		c-5.919,2.18-10.93-4.45-7.282-9.465c3.647-5.014,11.663-2.091,11.245,4.159c-0.026,0.383-0.303,0.916-0.047,1.23l19.444,15.116
		l0.158,0C189.845,65.84,192.375,64.616,195.06,64.308z M196.729,71.745c-5.109,0.39-8.564,5.3-7.191,10.251
		c1.861,6.714,10.925,7.981,14.578,2.014C207.514,78.458,203.206,71.251,196.729,71.745z"/>
	<path style="fill:#33475B;" d="M90.855,54.79v13.477c2.065-1.941,4.504-3.12,7.373-3.288c15.477-0.907,21.888,19.964,8.638,28.255
		c-10.55,6.601-22.572-0.35-23.181-12.455l0.003-25.988H90.855z M99.102,72.329c-6.112,0.081-9.95,6.651-7.027,12.027
		c2.998,5.513,11.035,5.596,14.138,0.139C109.304,79.058,105.361,72.246,99.102,72.329z"/>
	<path style="fill:#33475B;" d="M153.58,92.103v13.477h-7.082l-0.004-26.493c0.79-11.645,12.564-18.344,22.877-12.151
		c12.88,7.735,7.982,27.79-6.813,28.452c-3.989,0.178-5.748-0.91-8.725-3.158C153.749,92.165,153.728,92.066,153.58,92.103z
		 M161.151,71.829c-5.441,0.485-8.774,6.286-6.631,11.292c2.509,5.861,10.724,6.599,14.22,1.259
		C172.501,78.634,167.968,71.221,161.151,71.829z"/>
	<path style="fill:#33475B;" d="M129.366,54.562c3.731-0.209,7.837,1.256,10.6,3.763c0.215,0.195,1.243,1.228,1.293,1.41
		c0.02,0.073,0.024,0.141-0.004,0.212l-4.506,5.365c-0.227,0.069-0.836-0.705-1.042-0.881c-2.38-2.028-6.002-3.665-8.949-1.778
		c-1.642,1.051-2.386,3.861-1.408,5.555c1.112,1.926,5.565,2.851,7.617,3.593c3.968,1.434,7.165,3.39,8.429,7.667
		c3.039,10.281-5.103,17.515-15.077,16.073c-4.002-0.578-7.463-2.858-9.914-5.997l5.179-5.279c0.168-0.001,0.836,0.914,1.01,1.099
		c2.031,2.158,3.8,3.255,6.918,3.035c4.591-0.324,6.494-5.859,2.118-8.441c-5.294-3.125-12.576-2.756-14.247-10.361
		C115.535,61.179,121.064,55.027,129.366,54.562z"/>
	<path style="fill:#33475B;" d="M59.576,64.813l-0.004,17.565c0.088,5.248,6.237,8.245,10.329,4.753
		c0.941-0.803,2.152-2.743,2.152-3.998v-18.32h7.082l0.004,18.744c-1.855,16.21-24.987,16.061-26.648-0.168l0.004-18.576H59.576z"/>
	<path style="fill:#33475B;" d="M224.989,57.654v8.254h6.576v6.233h-6.576v13.182c0,0.236,0.188,0.899,0.273,1.159
		c1.019,3.11,5.067,2.672,7.653,2.548l-1.733,6.355c-0.038,0.083-0.099,0.125-0.184,0.153c-0.317,0.103-1.206,0.172-1.579,0.192
		c-6.245,0.331-11.331-2.447-11.684-9.139l0-25.679L224.989,57.654z"/>
</g>
</svg>
