<?xml version="1.0" encoding="iso-8859-1"?>
<!-- Generator: Adobe Illustrator 29.7.1, SVG Export Plug-In . SVG Version: 9.03 Build 0)  -->
<svg version="1.1" id="Layer_1" xmlns="http://www.w3.org/2000/svg" xmlns:xlink="http://www.w3.org/1999/xlink" x="0px" y="0px"
	 viewBox="0 0 250 150" style="enable-background:new 0 0 250 150;" xml:space="preserve">
<g>
	<path d="M58.175,71.243c-2.102,3.474-5.978,5.887-6.897,10.062c-1.955,8.891,7.138,16.235,15.334,11.937
		c3.817-2.002,5.666-6.31,4.356-10.456c-1.012-3.204-4.152-5.055-7.463-4.254c-2.246,0.543-3.764,2.803-3.354,5.098
		c0.135,0.752,0.531,1.194,0.23,2.017c-0.511,1.394-2.499,1.45-3.097,0.117c-1.561-3.477,0.186-8.018,3.492-9.775
		c4.877-2.592,10.994-0.114,13.024,4.883c3.395,8.356-2.828,16.602-11.526,16.994C50.216,98.41,43.381,84.423,50.859,75.078
		c1.32-1.65,2.969-3.233,4.147-5.037c2.281-3.493,3.44-7.934,2.26-12.04c-0.204-0.709-0.744-1.682-0.868-2.332
		c-0.19-0.997,0.971-4.315,1.219-5.502c0.045-0.215,0.052-0.428,0.039-0.646c-1.524,0.334-3.048,0.625-4.595,0.846
		c-0.355,0.051-0.695,0.179-1.122,0.159c-0.894-0.041-1.326-0.532-2.06-0.845c-6.157-2.625-13.542-1.137-17.583,4.343
		c-3.818,5.177-2.746,11.716,0.831,16.666c2.286,3.163,5.015,5.157,6.118,9.151c3.04,11.012-6.724,20.85-17.741,17.448
		c-6.651-2.054-10.25-9.381-7.802-15.962c2.186-5.878,9.706-8.256,14.631-4.112c2.224,1.872,3.342,6.231,1.826,8.856
		c-0.874,1.514-3.153,0.843-3.063-1.047c0.024-0.507,0.302-0.906,0.36-1.379c0.744-6.057-8.328-6.984-10.619-1.377
		c-2,4.895,0.796,10.31,5.779,11.807c9.808,2.947,17.593-7.917,11.982-16.357c-0.845-1.271-2.223-2.442-3.198-3.594
		c-4.652-5.497-6.583-13.872-2.944-20.46c4.673-8.461,15.501-10.873,23.951-6.64l7.493-1.525c1.228-0.026,1.947,0.842,1.754,2.031
		c-0.183,1.131-0.639,2.577-0.93,3.732c-0.3,1.189-1.131,3.167-0.846,4.311c0.138,0.553,0.439,1.137,0.587,1.698
		C61.658,61.812,60.577,67.274,58.175,71.243z"/>
	<path d="M110.901,68.165c-0.168-0.036-0.179,0.051-0.259,0.153c-0.193,0.247-0.503,0.844-0.675,1.154
		c-1.953,3.52-3.636,7.297-5.706,10.75c-0.146,0.243-0.635,0.956-0.864,1.056c-0.439,0.192-1.563,0.224-2.035,0.118
		c-0.512-0.115-0.891-0.611-1.153-1.041c-0.091-0.149-0.063-0.332-0.113-0.417c-2.003-3.458-3.79-7.02-5.771-10.522
		c-0.261-0.461-0.487-0.998-0.897-1.342c0.014,1.292,0.018,2.592,0.003,3.888c-0.027,2.294-0.057,4.63-0.061,6.957
		c-0.003,1.843,0.16,3.702-0.03,5.544c-0.02,0.087-0.176,0.117-0.255,0.126c-0.746,0.088-2.352,0.109-3.091,0.029
		c-0.127-0.014-0.57-0.142-0.596-0.247l0.013-23.873c0.116-0.136,2.929-0.136,3.332-0.104c0.781,0.061,1.03,0.183,1.451,0.836
		c2.391,4.444,4.882,8.833,7.319,13.251c0.237,0.429,0.443,0.891,0.615,1.35l0.257,0.006c0.266-0.874,0.859-1.615,1.291-2.413
		c1.911-3.525,3.668-7.146,5.633-10.64c0.266-0.474,0.914-1.744,1.222-2.07c0.218-0.23,0.734-0.284,1.056-0.316
		c0.407-0.041,2.951-0.056,3.155,0.044c0.151,0.074,0.168,0.215,0.187,0.362c0.165,1.281-0.022,3.218-0.013,4.573
		c0.035,5.135,0.07,10.31,0.027,15.446c-0.009,1.073,0.204,2.31-0.026,3.374c-0.151,0.7-0.496,0.317-0.953,0.319
		c-0.309,0.001-0.62,0.017-0.927,0.02c-0.681,0.007-1.555,0.222-2.138-0.149V68.165z"/>
	<path d="M189.178,62.26c0.108,0.08,0.872,0.737,0.903,0.788c0.077,0.125,0.058,0.257,0.029,0.391
		c-0.871,1.127-1.422,3.044-3.186,2.215c-1.444-0.679-2.234-1.571-4.067-1.695c-7.11-0.482-9.849,6.989-7.308,12.692
		c1.784,4.005,6.918,5.341,10.598,3.122c0.946-0.57,1.571-1.838,2.811-0.825c0.293,0.24,1.065,1.017,1.319,1.313
		c0.556,0.649,0.042,0.782-0.291,1.153c-4.077,4.536-12.572,4.358-16.657-0.122c-4.566-5.008-4.325-14.577,1.164-18.829
		C178.727,59.183,184.855,59.056,189.178,62.26z"/>
	<path d="M196.597,61.152c0.09,0.086,0.172,0.515,0.184,0.664c0.151,1.819-0.149,4.003-0.072,5.851
		c0.012,0.298,0.108,0.567,0.096,0.863l1.156-0.718c2.138-1.427,6.219-1.24,7.847,0.818c1.211,1.53,1.461,2.987,1.575,4.897
		c0.14,2.345,0.049,4.856,0.038,7.201c-0.003,0.626,0.101,3.132-0.072,3.501c-0.039,0.083-0.082,0.158-0.176,0.189
		c-0.451,0.011-3.771,0.12-3.883-0.038c-0.074-0.173-0.075-0.352-0.086-0.537c-0.183-3.274,0.206-6.649,0.001-9.872
		c-0.095-1.496-0.243-3.425-2.142-3.617c-1.914-0.193-3.922,0.827-4.325,2.817c-0.339,1.673,0.062,5.067,0.057,6.911l-0.122,4.265
		c-0.11,0.158-1.109,0.075-1.377,0.086c-0.34,0.015-0.579,0.021-0.918,0.022c-0.321,0.001-1.575,0.123-1.742-0.107
		c-0.015-1.297-0.092-2.611-0.097-3.906c-0.019-5.91-0.003-11.913,0.053-17.802c0.006-0.612-0.184-2.363,0.601-2.514
		C194.369,60.1,195.453,60.88,196.597,61.152z"/>
	<path d="M127.036,83.645c-3.059,1.888-8.277,1.863-9.139-2.408c-0.941-4.66,3.847-6.246,7.531-6.739
		c0.455-0.061,1.968-0.019,2.254-0.217c0.225-0.155,0.085-1.194,0.041-1.489c-0.06-0.396-0.117-0.801-0.304-1.159
		c-0.295-0.564-0.783-0.997-1.422-1.139c-1.083-0.241-2.29,0.014-3.265,0.487c-0.923,0.449-1.857,1.52-2.989,0.825
		c-0.352-0.216-1.212-1.668-1.16-2.037c0.053-0.378,1.802-1.508,2.212-1.728c4.198-2.249,10.213-1.314,11.034,4.12
		c0.314,2.078,0.127,5.466,0.118,7.651c-0.007,1.555,0.024,3.104-0.109,4.653c-0.031,0.119-0.112,0.131-0.216,0.15
		c-0.474,0.088-2.127,0.032-2.542-0.203c-0.506-0.287-0.667-1.494-0.846-1.534C127.843,83.149,127.44,83.396,127.036,83.645z
		 M127.718,77.412c-0.177-0.093-0.38-0.122-0.579-0.116c-1.426,0.043-3.372,0.326-4.594,1.085c-0.31,0.192-0.665,0.644-0.738,1
		c-0.481,2.366,2.192,2.658,3.837,2.006c0.48-0.19,1.932-1.114,2.069-1.589C127.696,79,127.843,78.193,127.718,77.412z"/>
	<path d="M219.677,72.689c-0.322-2.536-2.667-2.811-4.7-1.953c-1.372,0.579-2.617,2.215-3.885,0.293
		c-0.204-0.31-0.716-1.226-0.479-1.545c2.249-2.017,4.979-2.891,8.01-2.597c6.196,0.601,5.151,8.315,5.166,12.661
		c0.003,0.989,0.04,2.014,0.038,2.997c-0.001,0.343,0.112,1.606-0.123,1.845c-0.249,0.253-2.176,0.157-2.557-0.009
		c-0.694-0.302-0.611-1.091-1.058-1.576c-0.508,0.293-0.922,0.732-1.432,1.022c-3.162,1.797-8.554,1.11-8.866-3.274
		c-0.374-5.263,5.959-6.107,9.885-6.356C219.634,73.719,219.736,73.155,219.677,72.689z M218.526,80.725
		c0.31-0.213,0.983-0.696,1.109-1.04c0.097-0.265,0.154-1.39,0.137-1.698c-0.01-0.19-0.066-0.701-0.244-0.762
		c-1.292,0.013-2.767,0.118-3.986,0.564c-1.013,0.371-1.951,0.969-1.78,2.184c0.114,0.81,0.569,1.273,1.342,1.489
		C216.335,81.806,217.526,81.41,218.526,80.725z"/>
	<path d="M148.995,69.318c0.807,1.165,1.03,2.316,1.152,3.738l-0.044,11.287c-0.059,0.07-0.139,0.113-0.225,0.141
		c-0.354,0.115-2.455,0.095-2.978,0.081c-0.196-0.005-0.74-0.017-0.826-0.129c-0.247-0.499-0.068-1.017-0.078-1.494
		c-0.046-2.201-0.033-4.404-0.062-6.592c-0.029-2.226,0.613-6.004-2.695-5.997c-0.91,0.002-2.444,0.618-3.034,1.318
		c-1.305,1.549-0.355,5.889-0.68,7.874l-0.073,4.928l-4.036,0.054l0.005-9.737l-0.1-1.272c0.11-1.705-0.06-3.439-0.001-5.126
		c0.01-0.274,0.023-0.957,0.215-1.111c0.376-0.301,2.289,0.008,2.84-0.013c0.516,0.414,0.763,0.98,0.839,1.632
		c1.317-0.907,2.427-1.76,4.117-1.919C145.71,66.754,147.643,67.367,148.995,69.318z"/>
	<path d="M160.394,77.853l3.984-10.049c0.158-0.24,0.635-0.589,0.916-0.638c0.47-0.082,2.428-0.074,2.926-0.01
		c0.389,0.05,0.488,0.293,0.386,0.667c-0.279,1.024-1.139,2.579-1.579,3.633c-1.385,3.316-2.784,6.661-4.194,9.976
		c-1.174,2.759-2.285,5.585-3.638,8.247c-0.57,0.545-2.176,0.483-2.964,0.46c-0.368-0.011-1.101,0.045-1.055-0.445l2.797-6.17
		l0.02-0.761c-2.089-4.952-4.264-9.86-6.431-14.777c-0.102-0.414-0.12-0.766,0.364-0.83c0.549-0.073,3.067-0.051,3.517,0.151
		c0.166,0.074,0.339,0.224,0.469,0.354c0.938,2.223,1.912,4.434,2.853,6.655c0.422,0.997,0.788,2.188,1.245,3.143
		C160.09,77.623,160.163,77.885,160.394,77.853z"/>
	<path d="M46.353,94.447c1.811,3.387,6.177,6.231,9.915,6.956c0.885,0.172,2.19,0.107,2.917,0.467
		c0.515,0.255,0.832,0.88,0.841,1.445c0.007,0.466-0.317,0.77-0.377,1.203c-1.202,0.693-2.811,0.458-4.134,0.195
		c-3.506-0.696-7.786-3.155-10.154-5.85c-0.639-0.727-1.09-1.582-1.747-2.274c-0.54,0.596-0.945,1.305-1.462,1.919
		c-2.777,3.293-8.759,6.8-13.179,6.49c-1.085-0.076-1.881-0.888-1.622-1.994c0.237-1.014,0.957-1.272,1.901-1.371
		c1.6-0.167,2.806-0.369,4.345-0.979c3.296-1.308,7.681-5.032,8.193-8.723c0.146-1.057-0.168-2.332,1.102-2.828
		c0.908-0.355,2.213,0.13,2.394,1.154C45.593,92,45.451,92.761,46.353,94.447z"/>
	<path d="M232.22,70.643l-0.014,8.813c0.089,1.181,0.228,1.861,1.607,1.689c0.829-0.104,1.397-1.231,2.239-0.138
		c0.134,0.174,1.004,1.778,1.016,1.923c0.014,0.181-0.206,0.371-0.355,0.498c-2.198,1.889-6.637,1.943-8.118-0.912
		c-1.199-2.311-0.394-8.404-0.589-11.292c-0.012-0.183-0.058-0.354-0.091-0.532l-0.061-0.064c-0.996-0.078-2.173,0.294-2.323-1.045
		c-0.037-0.331-0.063-1.502,0.132-1.696c0.32-0.319,2.362-0.409,2.439-0.508c0.512-1.352,0.519-2.855,0.839-4.26
		c0.406-1.783,1.443-0.94,2.846-1.233c0.096,0.01,0.284,0.12,0.338,0.196c0.354,0.495-0.117,4.331,0.124,5.176l4.196,0.104
		l0.229,0.229c-0.035,0.424,0.081,0.876,0.101,1.271c0.008,0.149-0.078,0.285-0.074,0.438c0.009,0.385,0.284,0.934-0.161,1.228
		L232.22,70.643z"/>
	<path d="M41.159,71.947l5.289,0.059c1.072,0.482,0.147,1.425-0.577,1.704c-1.261,0.488-4.459,0.53-5.411-0.566
		C39.807,72.393,40.292,71.99,41.159,71.947z"/>
	<path d="M38.967,65.541c0.142,0.179,0.329,0.967,0.3,1.199c-0.016,0.127-0.429,0.791-0.523,0.881
		c-0.616,0.591-1.793,0.359-2.224-0.321c-0.782-1.236,0.516-2.842,1.899-2.171C38.475,65.157,38.941,65.509,38.967,65.541z"/>
	<path d="M49.218,64.985c1.467-0.239,2.398,1.881,1.062,2.71c-1.252,0.776-2.704-0.306-2.204-1.745
		C48.213,65.554,48.798,65.054,49.218,64.985z"/>
	<path style="fill:#FFFFFF;" d="M127.718,77.412c0.124,0.781-0.022,1.588-0.004,2.386c-0.137,0.475-1.589,1.399-2.069,1.589
		c-1.646,0.652-4.319,0.361-3.837-2.006c0.072-0.356,0.428-0.807,0.738-1c1.221-0.759,3.168-1.043,4.594-1.085
		C127.338,77.291,127.541,77.319,127.718,77.412z"/>
</g>
</svg>
