<?xml version="1.0" encoding="iso-8859-1"?>
<!-- Generator: Adobe Illustrator 29.7.1, SVG Export Plug-In . SVG Version: 9.03 Build 0)  -->
<svg version="1.1" id="Layer_1" xmlns="http://www.w3.org/2000/svg" xmlns:xlink="http://www.w3.org/1999/xlink" x="0px" y="0px"
	 viewBox="0 0 250 150" style="enable-background:new 0 0 250 150;" xml:space="preserve">
<g>
	<path style="fill:#FFFFFF;" d="M19.337,59.691c-0.674,0.721,1.104,1.69,1.585,1.993c1.004,0.634,2.182,1.227,3.257,1.737
		c0.888,0.422,2.962,1.092,3.609,1.573c0.611,0.455,0.468,1.165-0.32,1.176l-18.29-0.008c-2.427,0.272-0.469,1.97,0.426,2.784
		c3.793,3.449,9.399,6.455,13.946,8.856c0.545,0.288,2.387,1.016,2.591,1.46c0.237,0.516-0.179,0.876-0.666,0.932l-8.989,0.058
		c-0.839,0.743,0.234,1.457,0.801,1.926c7.077,5.854,22.14,10.215,31.069,7.795c8.196-2.222,13.09-10.409,11.242-18.721
		c-1.622-7.295-7.731-11.386-14.986-11.774c-8.064-0.431-16.497,0.325-24.599-0.006C19.837,59.473,19.448,59.573,19.337,59.691z
		 M89.047,66.545c-1.881-0.834-3.858-1.473-5.905-1.774c-4.462-0.656-13.415-0.589-13.888,5.586
		c-0.547,7.144,8.973,6.237,13.619,6.834c1.341,0.172,2.977,0.599,2.455,2.358c-0.341,1.151-2.844,1.53-3.869,1.596
		c-3.31,0.214-6.667-0.513-9.692-1.802l-2.322-1.211v4.616c3.952,2.339,9.143,3.259,13.684,2.516
		c3.278-0.536,6.724-2.221,6.958-5.95c0.44-6.999-8.565-6.113-13.244-6.741c-1.255-0.168-3.143-0.38-2.869-2.113
		c0.183-1.154,2.299-1.459,3.246-1.559c2.833-0.299,6.337,0.172,9.048,1.033c0.945,0.3,1.828,0.755,2.778,1.038V66.545z
		 M216.548,70.972v-4.381c-1.806-0.934-3.889-1.531-5.905-1.821c-4.628-0.667-13.831-0.521-13.865,6.061
		c-0.035,6.692,9.155,5.755,13.681,6.371c1.074,0.146,2.55,0.439,2.516,1.825c-0.029,1.213-1.376,1.686-2.36,1.887
		c-3.745,0.766-8.431-0.197-11.846-1.824c-0.576-0.274-1.12-0.712-1.727-0.864v4.475c3.966,2.518,9.555,3.353,14.155,2.469
		c3.254-0.626,6.348-2.484,6.486-6.138c0.25-6.609-8.819-5.88-13.243-6.458c-0.724-0.095-1.702-0.189-2.304-0.618
		c-0.701-0.499-0.89-1.316-0.338-2.022c1.119-1.431,6.104-1.131,7.812-0.928C212.04,69.295,214.304,70.049,216.548,70.972z
		 M111.758,65.037H93.193v19.878h18.565v-4.051H97.811v-4.051h13.758v-3.91c0-0.01-0.131-0.141-0.141-0.141H97.811v-3.674h13.947
		V65.037z M124.244,65.037h-8.528v19.878h4.618V68.617l0.291,0.055l5.406,16.249l7.298-0.016l5.288-16.288l0.281,0v16.298h4.712
		V65.037h-8.387l-5.419,16.676L124.244,65.037z M169.525,84.915l-0.049-0.564l-5.226-6.267c0.908-0.351,1.788-0.61,2.61-1.156
		c4.062-2.696,3.517-9.663-1.174-11.398c-0.447-0.165-1.618-0.493-2.051-0.493h-15.502v19.878h4.806v-6.783h5.607l5.56,6.783
		H169.525z M177.064,65.037h-4.806c0.058,3.871-0.125,7.762,0.106,11.623c1.186,12.305,21.155,11.664,21.191-0.931l0.001-10.692
		h-4.806v10.975c0,5.987-9.791,7.268-11.429,1.251c-0.06-0.219-0.256-0.995-0.256-1.157V65.037z M225.407,65.037h-4.759
		c-0.01,0-0.141,0.131-0.141,0.141v19.736h4.9v-7.819h12.062v7.819h4.523V65.037h-4.523v7.537h-12.062V65.037z"/>
	<path style="fill:#FF652E;" d="M19.337,59.691c0.111-0.118,0.501-0.218,0.677-0.217c8.103,0.331,16.535-0.425,24.599,0.006
		c7.254,0.388,13.364,4.479,14.986,11.774c1.848,8.313-3.046,16.5-11.242,18.721c-8.928,2.42-23.991-1.941-31.069-7.795
		c-0.568-0.469-1.64-1.184-0.801-1.926l8.989-0.058c0.487-0.056,0.903-0.416,0.666-0.932c-0.204-0.444-2.046-1.172-2.591-1.46
		c-4.548-2.401-10.153-5.407-13.946-8.856c-0.895-0.814-2.853-2.512-0.426-2.784l18.29,0.008c0.788-0.012,0.931-0.721,0.32-1.176
		c-0.647-0.482-2.721-1.151-3.609-1.573c-1.075-0.511-2.253-1.104-3.257-1.737C20.441,61.381,18.663,60.412,19.337,59.691z
		 M44.077,64.405c-7.869,0.362-12.757,8.756-8.793,15.707c4.105,7.198,14.723,7.137,18.63-0.221
		C57.778,72.611,52.241,64.029,44.077,64.405z"/>
	<polygon style="fill:#020202;" points="124.244,65.037 129.804,81.713 135.223,65.037 143.61,65.037 143.61,84.915 138.898,84.915 
		138.898,68.617 138.617,68.617 133.329,84.905 126.031,84.921 120.625,68.672 120.333,68.617 120.333,84.915 115.716,84.915 
		115.716,65.037 	"/>
	<path style="fill:#020202;" d="M169.525,84.915h-5.419l-5.56-6.783h-5.607v6.783h-4.806V65.037h15.502
		c0.433,0,1.604,0.328,2.051,0.493c4.691,1.735,5.236,8.702,1.174,11.398c-0.822,0.546-1.703,0.805-2.61,1.156l5.226,6.267
		L169.525,84.915z M152.939,69.182v4.899h9.942c0.33,0,1.261-0.49,1.502-0.759c0.797-0.891,0.729-2.687-0.18-3.483"/>
	<path style="fill:#020202;" d="M89.047,66.545v4.428c-0.95-0.283-1.833-0.738-2.778-1.038c-2.711-0.861-6.215-1.333-9.048-1.033
		c-0.946,0.1-3.063,0.406-3.246,1.559c-0.274,1.732,1.614,1.944,2.869,2.113c4.678,0.628,13.684-0.257,13.244,6.741
		c-0.235,3.729-3.68,5.415-6.958,5.95c-4.541,0.742-9.732-0.178-13.684-2.516v-4.616l2.322,1.211
		c3.025,1.29,6.382,2.016,9.692,1.802c1.024-0.066,3.528-0.445,3.869-1.596c0.521-1.759-1.114-2.186-2.455-2.358
		c-4.647-0.597-14.166,0.31-13.619-6.834c0.473-6.175,9.425-6.243,13.888-5.586C85.189,65.071,87.166,65.71,89.047,66.545z"/>
	<path style="fill:#020202;" d="M216.548,70.972c-2.245-0.923-4.509-1.677-6.938-1.966c-1.708-0.203-6.693-0.503-7.812,0.928
		c-0.552,0.706-0.363,1.522,0.338,2.022c0.602,0.428,1.579,0.523,2.304,0.618c4.424,0.578,13.493-0.151,13.243,6.458
		c-0.138,3.655-3.233,5.513-6.486,6.138c-4.6,0.885-10.188,0.05-14.155-2.469v-4.475c0.607,0.152,1.151,0.59,1.727,0.864
		c3.415,1.626,8.101,2.59,11.846,1.824c0.984-0.201,2.331-0.675,2.36-1.887c0.034-1.386-1.442-1.679-2.516-1.825
		c-4.526-0.615-13.715,0.321-13.681-6.371c0.034-6.582,9.238-6.728,13.865-6.061c2.016,0.291,4.099,0.888,5.905,1.821V70.972z"/>
	<path style="fill:#020202;" d="M111.758,65.037v4.051H97.811v3.674h13.617c0.01,0,0.141,0.131,0.141,0.141v3.91H97.811v4.051
		h13.947v4.051H93.193V65.037H111.758z"/>
	<path style="fill:#010101;" d="M225.407,65.037v7.537h12.062v-7.537h4.523v19.878h-4.523v-7.819h-12.062v7.819h-4.9V65.179
		c0-0.01,0.131-0.141,0.141-0.141H225.407z"/>
	<path style="fill:#020202;" d="M177.064,65.037v11.069c0,0.162,0.196,0.938,0.256,1.157c1.639,6.017,11.429,4.735,11.429-1.251
		V65.037h4.806l-0.001,10.692c-0.036,12.596-20.005,13.237-21.191,0.931c-0.231-3.861-0.048-7.752-0.106-11.623H177.064z"/>
	<path style="fill:#FF662F;" d="M44.164,66.941c2.113-0.472,5.235,1.108,6.626,2.662c1.118,1.249,2.392,3.943,2.049,5.633
		c-0.182,0.896-1.66,0.81-2.381,0.728c-1.15-0.13-0.919-1.06-1.128-1.887c-0.517-2.049-1.802-3.519-3.893-4.021
		c-0.911-0.219-1.699,0.103-1.881-1.134C43.475,68.372,43.478,67.095,44.164,66.941z"/>
</g>
</svg>
