<svg xmlns="http://www.w3.org/2000/svg" xmlns:xlink="http://www.w3.org/1999/xlink" id="Layer_1" x="0px" y="0px" viewBox="0 0 288.7 204.7" style="enable-background:new 0 0 288.7 204.7;" xml:space="preserve"><style type="text/css">	.st0{fill:#F5F9FF;}	.st1{fill:#4AD99D;}	.st2{fill:#46D192;}	.st3{fill:#FFFFFF;}	.st4{fill:#FBBC04;}	.st5{fill:#4184F3;}	.st6{fill:#34A853;}	.st7{fill:#EA4335;}	.st8{fill-rule:evenodd;clip-rule:evenodd;fill:#585F65;}	.st9{fill-rule:evenodd;clip-rule:evenodd;fill:#575E65;}</style><path class="st0" d="M239.5,196.7H49.1c-21.6,0-39.2-17.5-39.2-39.2V57.5c0-21.6,17.5-39.2,39.2-39.2h190.4 c21.6,0,39.2,17.5,39.2,39.2v100.1C278.7,179.2,261.2,196.7,239.5,196.7z"></path><path class="st1" d="M242.3,29.6H188c-6,0-10.8-4.8-10.8-10.8v0c0-6,4.8-10.8,10.8-10.8h54.2c6,0,10.8,4.8,10.8,10.8v0 C253.1,24.7,248.2,29.6,242.3,29.6z"></path><path class="st2" d="M187.9,29.4c-5.9,0-10.6-4.8-10.6-10.6c0-5.9,4.8-10.6,10.6-10.6c5.9,0,10.6,4.8,10.6,10.6 C198.5,24.7,193.7,29.4,187.9,29.4z"></path><path class="st3" d="M186.2,22.2c-0.3,0-0.6-0.1-0.8-0.4l-2.5-2.9c-0.3-0.3-0.3-0.7-0.2-1.1s0.5-0.7,0.9-0.7 c0.4-0.1,0.8,0.1,1.1,0.4l1.8,2.1l4.9-4c0.3-0.3,0.7-0.3,1.1-0.2c0.4,0.1,0.6,0.5,0.7,0.9c0.1,0.4-0.1,0.8-0.4,1l-5.8,4.7 C186.7,22.2,186.5,22.2,186.2,22.2z"></path><g>	<path class="st3" d="M206.7,21.6l1.5-4.4h1.2l-2.1,5.4H206l-2.1-5.4h1.2L206.7,21.6z"></path>	<path class="st3" d="M215.5,20.3h-4.2c0,0.5,0.2,0.8,0.5,1.1c0.3,0.3,0.6,0.4,1.1,0.4c0.6,0,1-0.3,1.3-0.8h1.2  c-0.2,0.5-0.5,0.9-0.9,1.2c-0.4,0.3-1,0.5-1.6,0.5c-0.5,0-1-0.1-1.4-0.4c-0.4-0.2-0.7-0.6-1-1c-0.2-0.4-0.4-0.9-0.4-1.5  c0-0.6,0.1-1,0.3-1.5s0.5-0.8,1-1c0.4-0.2,0.9-0.3,1.4-0.3c0.5,0,1,0.1,1.4,0.3c0.4,0.2,0.7,0.5,0.9,0.9c0.2,0.4,0.3,0.9,0.3,1.4  C215.6,20,215.6,20.1,215.5,20.3z M214.4,19.5c0-0.4-0.2-0.8-0.4-1c-0.3-0.3-0.6-0.4-1.1-0.4c-0.4,0-0.7,0.1-1,0.4  c-0.3,0.3-0.4,0.6-0.5,1H214.4z M213.9,15.8l-2.2,1.1V16l2.2-1.2V15.8z"></path>	<path class="st3" d="M218.8,17.4c0.3-0.2,0.6-0.3,1-0.3v1.2h-0.3c-0.4,0-0.8,0.1-1,0.3c-0.2,0.2-0.3,0.6-0.3,1.2v2.9H217v-5.4h1.1  v0.9C218.3,17.8,218.5,17.6,218.8,17.4z"></path>	<path class="st3" d="M221.2,16.3c-0.1-0.1-0.2-0.3-0.2-0.5c0-0.2,0.1-0.4,0.2-0.5c0.1-0.1,0.3-0.2,0.5-0.2c0.2,0,0.4,0.1,0.5,0.2  c0.1,0.1,0.2,0.3,0.2,0.5c0,0.2-0.1,0.4-0.2,0.5c-0.1,0.1-0.3,0.2-0.5,0.2C221.5,16.5,221.4,16.4,221.2,16.3z M222.3,17.2v5.4h-1.1  v-5.4H222.3z"></path>	<path class="st3" d="M226.4,18.1h-1v4.5h-1.1v-4.5h-0.6v-0.9h0.6v-0.4c0-0.6,0.2-1.1,0.5-1.4c0.3-0.3,0.9-0.4,1.6-0.4V16  c-0.3,0-0.6,0.1-0.7,0.2c-0.1,0.1-0.2,0.4-0.2,0.7v0.4h1V18.1z"></path>	<path class="st3" d="M227.8,16.3c-0.1-0.1-0.2-0.3-0.2-0.5c0-0.2,0.1-0.4,0.2-0.5c0.1-0.1,0.3-0.2,0.5-0.2c0.2,0,0.4,0.1,0.5,0.2  c0.1,0.1,0.2,0.3,0.2,0.5c0,0.2-0.1,0.4-0.2,0.5c-0.1,0.1-0.3,0.2-0.5,0.2C228.1,16.5,228,16.4,227.8,16.3z M228.9,17.2v5.4h-1.1  v-5.4H228.9z"></path>	<path class="st3" d="M235.6,20.3h-4.2c0,0.5,0.2,0.8,0.5,1.1c0.3,0.3,0.6,0.4,1.1,0.4c0.6,0,1-0.3,1.3-0.8h1.2  c-0.2,0.5-0.5,0.9-0.9,1.2c-0.4,0.3-1,0.5-1.6,0.5c-0.5,0-1-0.1-1.4-0.4c-0.4-0.2-0.7-0.6-1-1c-0.2-0.4-0.4-0.9-0.4-1.5  c0-0.6,0.1-1,0.3-1.5c0.2-0.4,0.5-0.8,1-1c0.4-0.2,0.9-0.3,1.4-0.3c0.5,0,1,0.1,1.4,0.3c0.4,0.2,0.7,0.5,0.9,0.9  c0.2,0.4,0.3,0.9,0.3,1.4C235.7,20,235.7,20.1,235.6,20.3z M234.5,19.5c0-0.4-0.2-0.8-0.4-1c-0.3-0.3-0.6-0.4-1.1-0.4  c-0.4,0-0.7,0.1-1,0.4c-0.3,0.3-0.4,0.6-0.5,1H234.5z M234,15.8l-2.2,1.1V16l2.2-1.2V15.8z"></path></g><g>	<path class="st4" d="M157.7,99.8c-3.7-3.7-3.7-9.7,0-13.4c-7.4,7.4-19.4,7.4-26.8,0c3.7,3.7,3.7,9.7,0,13.4  c-3.7,3.7-9.7,3.7-13.4,0c14.8,14.8,38.8,14.8,53.5,0C167.4,103.5,161.4,103.5,157.7,99.8L157.7,99.8z"></path>	<path class="st5" d="M171.1,46.3c-14.8-14.8-38.8-14.8-53.5,0s-14.8,38.8,0,53.5c-3.7-3.7-3.7-9.7,0-13.4c3.7-3.7,9.7-3.7,13.4,0  c-7.4-7.4-7.4-19.4,0-26.8c7.4-7.4,19.4-7.4,26.8,0c3.7,3.7,9.7,3.7,13.4,0C174.8,56,174.8,50,171.1,46.3L171.1,46.3z"></path>	<circle class="st6" cx="124.3" cy="93.1" r="9.5"></circle>	<path class="st7" d="M171.1,46.3c3.7,3.7,3.7,9.7,0,13.4c-3.7,3.7-9.7,3.7-13.4,0c7.4,7.4,7.4,19.4,0,26.8c-3.7,3.7-3.7,9.7,0,13.4  c3.7,3.7,9.7,3.7,13.4,0C185.8,85,185.8,61,171.1,46.3L171.1,46.3z"></path></g><g>	<g id="Group-30" transform="translate(0.110674, 0.431462)">		<path id="Fill-2" class="st8" d="M79.4,139.2c0-2.3-1.7-3.9-3.6-3.9c-1.9,0-3.6,1.6-3.6,3.9c0,2.3,1.7,3.9,3.6,3.9   C77.8,143.1,79.4,141.5,79.4,139.2 M82.2,139.2c0,3.7-2.8,6.4-6.3,6.4c-3.5,0-6.3-2.7-6.3-6.4s2.8-6.4,6.3-6.4   C79.3,132.9,82.2,135.5,82.2,139.2"></path>		<path id="Fill-4" class="st8" d="M93.2,139.2c0-2.3-1.7-3.9-3.6-3.9c-1.9,0-3.6,1.6-3.6,3.9c0,2.3,1.7,3.9,3.6,3.9   C91.6,143.1,93.2,141.5,93.2,139.2 M96,139.2c0,3.7-2.8,6.4-6.3,6.4c-3.5,0-6.3-2.7-6.3-6.4s2.8-6.4,6.3-6.4   C93.1,132.9,96,135.5,96,139.2"></path>		<path id="Fill-6" class="st8" d="M106.8,139.3c0-2.2-1.5-3.9-3.4-3.9c-1.9,0-3.5,1.7-3.5,3.9c0,2.2,1.6,3.9,3.5,3.9   C105.3,143.1,106.8,141.5,106.8,139.3L106.8,139.3z M109.2,133.2v11.5c0,4.7-2.7,6.6-6,6.6c-3.1,0-5-2.1-5.6-3.8l2.4-1.1   c0.4,1.1,1.5,2.3,3.2,2.3c2.1,0,3.4-1.3,3.4-3.8v-1h-0.1c-0.6,0.7-1.8,1.5-3.4,1.5c-3.2,0-6.1-2.7-6.1-6.3c0-3.6,2.9-6.4,6.1-6.4   c1.5,0,2.7,0.6,3.4,1.5h0.1v-1.1H109.2z"></path>		<g id="Group-22" transform="translate(0.000000, -0.000000)">			<polygon id="Fill-8" class="st8" points="111.1,145.3 113.9,145.3 113.9,126.5 111.1,126.5    "></polygon>			<path id="Fill-10" class="st8" d="M117.9,139.1l5.7-2.4c-0.3-0.8-1.3-1.4-2.3-1.4C119.7,135.3,117.8,136.6,117.9,139.1     M124.5,141.3l2.2,1.5c-0.7,1.1-2.3,2.8-5.3,2.8c-3.6,0-6.2-2.7-6.2-6.3c0-3.8,2.6-6.4,5.9-6.4c3.3,0,4.9,2.6,5.5,4l0.3,0.7    l-8.4,3.6c0.6,1.3,1.7,1.9,3.1,1.9C122.8,143.1,123.8,142.4,124.5,141.3"></path>			<path id="Fill-11" class="st8" d="M59.4,145.6c-5.4,0-10-4.4-10-9.9s4.5-9.9,10-9.9c2.9,0,5.2,1.2,6.7,2.7l-1.9,1.9    c-1.2-1.1-2.7-1.9-4.8-1.9c-3.9,0-7.1,3.3-7.1,7.3c0,4,3.1,7.3,7.1,7.3c2.5,0,4-1.1,5-2c0.7-0.7,1.3-1.9,1.5-3.5h-6.4v-2.7h9.1    c0.1,0.5,0.1,1.1,0.1,1.7c0,2-0.5,4.5-2.3,6.3C64.6,144.7,62.4,145.6,59.4,145.6"></path>			<path id="Fill-12" class="st9" d="M148.6,127.2c-2,3.6-4.1,7.2-6.2,10.8c-2-3.6-4.1-7.2-6.1-10.8c-0.7,0-1.6-0.1-2.3,0    c-0.1,5.9,0,11.8,0,17.7h2.3c0-4.4,0-9-0.1-13.4c1.8,3.3,3.7,6.4,5.5,9.6h1.6c1.8-3.2,3.7-6.4,5.5-9.6c-0.1,4.4,0,9-0.1,13.5h2.3    v-17.7C150.2,127.2,149.5,127.2,148.6,127.2"></path>			<path id="Fill-13" class="st9" d="M186.1,132.8h-2.9c-1.8,1.7-3.5,3.5-5.3,5.3v-10.9h-2.4v17.7h2.4c0-1.3-0.1-2.5,0-3.7    c0.4-0.7,1.2-1.3,1.8-1.9c1.3,1.9,2.5,3.8,3.8,5.6h2.8c-1.7-2.4-3.4-4.9-4.9-7.3C183,135.9,184.6,134.5,186.1,132.8"></path>			<path id="Fill-14" class="st9" d="M209.4,127.2c-1.2,0.6-1.1,2.5,0.2,3c0.6,0.1,1.4,0.1,1.8-0.3c0.5-0.5,0.5-1.5,0.2-2.1    C211.2,127,210,126.8,209.4,127.2"></path>			<path id="Fill-18" class="st9" d="M204.3,142.8c-0.3-0.6-0.6-1.3-0.5-1.9v-6h2.8v-2.1h-2.8v-3.7h-2.3v3.7h-2.1v2.1    c0.7,0,1.5,0.1,2.1,0.1v6.4c0,1.3,0.3,2.3,1.5,3.1c1.4,0.8,2.8,0.7,4.3,0.4c-0.2-0.6-0.5-1.3-0.7-2    C205.7,142.9,205.1,142.9,204.3,142.8"></path>			<path id="Fill-19" class="st9" d="M160.7,142.1c-1.2,1.2-3.4,1.5-4.5,0.4c-0.5-0.4-0.5-1.3-0.3-1.9c0.3-0.8,1.1-1.4,1.9-1.6    c1.5-0.3,2.8-0.1,4.2,0.6C161.8,140.6,161.5,141.4,160.7,142.1 M162.5,133.7c-0.8-0.7-2-1.3-3.3-1.3c-1.3-0.1-2.4,0-3.5,0.6    c-0.9,0.5-1.6,1.4-2.2,2.2c0.7,0.3,1.4,0.6,2.1,0.9c0.3-0.4,0.7-0.9,1.3-1.3c1.4-0.8,3.4-0.5,4.3,0.8c0.4,0.6,0.4,1.2,0.5,1.9    c-1.6-0.6-3.3-0.7-5-0.5c-1.3,0.2-2.5,1-3.2,2c-0.9,1.6-0.6,3.9,0.8,5.1c1.3,1.1,2.9,1.2,4.5,0.8c1.2-0.2,1.9-0.9,2.7-1.8v1.6    h2.2v-7.4C164.1,136,163.6,134.7,162.5,133.7"></path>			<path id="Fill-20" class="st9" d="M188.9,137.3c0.3-0.7,0.6-1.4,1.2-1.9c1.4-1.4,4-1.2,5.2,0.3c0.3,0.4,0.5,1.1,0.6,1.6H188.9z     M198.3,139.2c0-1.6-0.1-3.1-0.9-4.3c-1.1-1.7-2.9-2.6-5-2.5c-2.8-0.2-5.1,2-5.8,4.5c-0.4,1.7-0.3,3.7,0.6,5.3    c0.8,1.7,2.5,2.8,4.4,3c1.5,0.1,2.8,0.1,4.1-0.7c1.1-0.6,1.7-1.5,2.2-2.5c-0.6-0.3-1.4-0.5-2-0.7c-0.5,0.7-0.8,1.4-1.8,1.7    c-1.4,0.5-3.2,0.3-4.2-0.8c-0.8-0.7-1.1-1.7-1.2-2.7H198.3z"></path>			<path id="Fill-21" class="st9" d="M223.4,133.2c-1.2-0.9-2.5-0.9-4-0.7c-1.3,0.2-2,1.1-2.8,1.9c0-0.5,0.1-1.1,0.1-1.6h-2.3v12.1    h2.3V138c0-1.4,0.8-2.8,2.1-3.4c1.1-0.3,2.4-0.2,3.2,0.6c0.7,0.8,0.7,1.9,0.7,3v6.6h2.3v-7.4    C225.2,135.8,224.8,134.3,223.4,133.2"></path>			<path id="Fill-22" class="st9" d="M235.5,142.2c-1.2,1.2-3.3,1.3-4.5,0.3c-2.5-1.7-2.3-6.3,0.5-7.7c1.9-0.9,4.2,0,5,1.9    C237.1,138.5,237,140.9,235.5,142.2 M239,132.7h-2.2v1.7c-0.7-0.7-1.4-1.5-2.4-1.8c-1.8-0.5-3.9-0.3-5.3,1.1    c-2.2,1.8-2.6,4.7-1.9,7.4c0.6,1.9,2.1,3.5,4,4c1.3,0.2,2.8,0.2,3.9-0.4c0.6-0.3,1.2-0.8,1.7-1.4c0,1.2,0.1,2.3-0.5,3.4    c-0.9,1.8-3.6,2.4-5.4,1.4c-0.7-0.4-1.1-1.1-1.6-1.8c-0.7,0.3-1.4,0.5-2.1,0.8c0.6,1.5,1.8,2.7,3.3,3.3c2.3,0.7,5.2,0.2,7-1.6    c1.3-1.3,1.5-3,1.5-4.7C239,140.3,239.1,136.5,239,132.7"></path>			<path id="Fill-27" class="st9" d="M170.9,132.7c-0.9,0.3-1.6,0.9-2.1,1.8c-0.1-0.6-0.1-1.2-0.2-1.8h-2.1c-0.1,4,0,8.1,0,12.1h2.3    v-6.9c0-1.3,0.7-2.4,1.9-3c0.7-0.4,1.7-0.2,2.5-0.2c0.3-0.7,0.6-1.4,0.8-2.1C172.9,132.5,171.9,132.3,170.9,132.7"></path>			<path id="Fill-28" class="st9" d="M209.1,132.7c-0.1,4,0,8.1,0,12.1h2.2v-12.1C210.6,132.8,209.8,132.7,209.1,132.7"></path>		</g>	</g>	<g id="Group-30_1_" transform="translate(0.110674, 0.431462)">		<g id="Group-22_1_" transform="translate(0.000000, -0.000000)">			<path id="Fill-15_1_" class="st9" d="M106.8,166.2c-1.4,0.1-2.8,0-4.2,0.1v-6.1c1.4,0,2.8-0.1,4.2,0c1.4,0.1,2.4,1.4,2.6,2.6    C109.6,164.3,108.4,166,106.8,166.2 M106.3,157.9h-6.1v17.7h2.3v-7.2h4.2c1.7-0.1,3.3-1.1,4.2-2.4c1.2-1.8,1.1-4.2-0.2-5.9    C109.7,158.6,108.1,157.9,106.3,157.9"></path>			<path id="Fill-16_1_" class="st9" d="M113.7,157.9c-0.1,5.9,0,11.8,0,17.7h2.3v-17.7C115.2,157.9,114.5,157.8,113.7,157.9"></path>			<path id="Fill-17_1_" class="st9" d="M142.7,163.4c0-0.8-0.1-2.2,0.4-2.8c0.7-0.8,1.7-0.6,2.7-0.5c0.2-0.6,0.5-1.3,0.7-1.9    c-1.1-0.2-2-0.4-3.1-0.1c-1.5,0.3-2.7,1.4-3.1,2.8c-0.1,0.8-0.1,1.8-0.1,2.7h-5.6v-3.7h-2.3v3.7h-2.1v2.1c0.7,0,1.5,0.1,2.1,0.1    v6.6c0,1.2,0.5,2.3,1.6,3c1.4,0.7,2.7,0.6,4.2,0.2c-0.3-0.6-0.5-1.4-0.8-2c-0.6,0.1-1.2,0.3-1.8,0c-0.6-0.3-0.8-0.8-0.8-1.5v-6.4    c1.8-0.1,3.7-0.1,5.6,0c0.1,3.3,0,6.6,0.1,9.9h2.3v-8.1c0-0.6,0-1.3,0.1-1.9h3.2c0-0.7-0.1-1.4-0.1-2.1    C144.8,163.5,143.8,163.5,142.7,163.4"></path>			<path id="Fill-23_1_" class="st9" d="M125.3,173c-1.2,1.1-3.5,1.3-4.5-0.1c-0.7-1.1,0-2.4,1.1-2.8c1.6-0.6,3.4-0.4,4.8,0.3    C126.6,171.4,126.2,172.3,125.3,173 M128.4,165.8c-0.6-1.4-2.2-2.4-3.7-2.6c-1.5-0.1-2.8-0.2-4.1,0.6c-0.9,0.5-1.5,1.4-2.1,2.2    c0.7,0.3,1.4,0.6,2.1,0.8c0.5-0.6,0.8-1.2,1.6-1.5c1.3-0.4,2.7-0.3,3.7,0.7c0.6,0.6,0.6,1.3,0.7,2.1c-1.6-0.6-3.3-0.7-5-0.5    c-1.3,0.3-2.7,1.1-3.3,2.3c-0.4,0.7-0.3,1.6-0.3,2.4c0.1,1.2,0.9,2.2,2,2.7c1.1,0.6,2.6,0.6,3.9,0.4c1.2-0.2,1.9-1,2.7-1.8v1.6    h2.3v-6.5C128.9,167.9,128.8,166.7,128.4,165.8"></path>			<path id="Fill-24_1_" class="st9" d="M153.2,173.8c-2.2,0.3-4.1-1.4-4.4-3.6c-0.3-2.1,0.8-4.3,2.9-5c2.2-0.5,4.3,1.1,4.7,3.2    C157,170.7,155.8,173.5,153.2,173.8 M156.7,164.4c-1.6-1.4-3.7-1.6-5.7-1.2c-1.7,0.4-3.2,1.7-3.9,3.3c-0.6,1.3-0.7,2.6-0.6,4    c0.2,2.3,2,4.5,4.2,5.2c0.9,0.2,2,0.2,2.9,0.1c2.2-0.1,4.1-1.8,4.8-3.9C159.4,169.4,158.9,166.2,156.7,164.4"></path>			<path id="Fill-25_1_" class="st9" d="M165,163.5c-0.9,0.3-1.6,1.1-2.1,1.9v-1.9h-2.1c-0.1,4,0,8.1,0,12.1h2.3v-6.9    c0-1.3,0.7-2.4,1.9-3c0.7-0.4,1.7-0.2,2.5-0.2c0.3-0.7,0.5-1.5,0.8-2.1C167.1,163.2,166.1,162.9,165,163.5"></path>			<path id="Fill-26_1_" class="st9" d="M187.5,164.9c-0.5-0.9-1.6-1.7-2.6-1.8c-1.1-0.1-2.2-0.1-3.2,0.3c-0.8,0.4-1.4,1.1-2,1.7    c-0.7-1.2-1.7-2-3.1-2.1c-1.9-0.2-3.5,0.5-4.5,2.1v-1.8H170c-0.1,1.4-0.1,2.6-0.1,4v8.1h2.4v-6.6c0-1.5,0.7-3.1,2.1-3.6    c1.1-0.3,2.5-0.1,3.2,0.8c0.4,0.8,0.4,2,0.5,3v6.3h2.2v-6.3c0-1.4,0.5-2.7,1.6-3.6c1.4-0.9,3.6-0.4,3.9,1.3    c0.5,2.8,0.1,5.8,0.2,8.6h2.3v-6.9C188.2,167.5,188.1,166,187.5,164.9"></path>		</g>	</g></g></svg>