<svg xmlns="http://www.w3.org/2000/svg" xmlns:xlink="http://www.w3.org/1999/xlink" id="Layer_1" x="0px" y="0px" viewBox="0 0 288.7 204.7" style="enable-background:new 0 0 288.7 204.7;" xml:space="preserve"><style type="text/css">	.st0{fill:#F5F9FF;}	.st1{fill:#4AD99D;}	.st2{fill:#46D192;}	.st3{fill:#FFFFFF;}	.st4{fill:#1C2B33;}	.st5{fill:url(#SVGID_1_);}	.st6{fill:url(#SVGID_2_);}	.st7{fill:url(#SVGID_3_);}	.st8{fill:url(#SVGID_4_);}	.st9{fill:url(#SVGID_5_);}	.st10{fill:url(#SVGID_6_);}	.st11{fill:#0082FB;}	.st12{fill:url(#SVGID_7_);}	.st13{fill:url(#SVGID_8_);}	.st14{fill:url(#SVGID_9_);}	.st15{fill:url(#SVGID_10_);}	.st16{fill:url(#SVGID_11_);}	.st17{fill:url(#SVGID_12_);}	.st18{fill:url(#SVGID_13_);}	.st19{fill:url(#SVGID_14_);}	.st20{fill:url(#SVGID_15_);}	.st21{fill:url(#SVGID_16_);}	.st22{fill:url(#SVGID_17_);}	.st23{fill:url(#SVGID_18_);}	.st24{fill:url(#SVGID_19_);}	.st25{fill:url(#SVGID_20_);}	.st26{fill:url(#SVGID_21_);}	.st27{fill:url(#SVGID_22_);}	.st28{fill:url(#SVGID_23_);}	.st29{fill:url(#SVGID_24_);}	.st30{fill:url(#SVGID_25_);}	.st31{fill:url(#SVGID_26_);}</style><path class="st0" d="M239.5,196.7H49.1c-21.6,0-39.2-17.5-39.2-39.2V57.5c0-21.6,17.5-39.2,39.2-39.2h190.4 c21.6,0,39.2,17.5,39.2,39.2v100.1C278.7,179.2,261.2,196.7,239.5,196.7z"></path><path class="st1" d="M242.3,29.6H188c-6,0-10.8-4.8-10.8-10.8v0c0-6,4.8-10.8,10.8-10.8h54.2c6,0,10.8,4.8,10.8,10.8v0 C253.1,24.7,248.2,29.6,242.3,29.6z"></path><path class="st2" d="M187.9,29.4c-5.9,0-10.6-4.8-10.6-10.6c0-5.9,4.8-10.6,10.6-10.6c5.9,0,10.6,4.8,10.6,10.6 C198.5,24.7,193.7,29.4,187.9,29.4z"></path><path class="st3" d="M186.2,22.2c-0.3,0-0.6-0.1-0.8-0.4l-2.5-2.9c-0.3-0.3-0.3-0.7-0.2-1.1s0.5-0.7,0.9-0.7 c0.4-0.1,0.8,0.1,1.1,0.4l1.8,2.1l4.9-4c0.3-0.3,0.7-0.3,1.1-0.2c0.4,0.1,0.6,0.5,0.7,0.9c0.1,0.4-0.1,0.8-0.4,1l-5.8,4.7 C186.7,22.2,186.5,22.2,186.2,22.2z"></path><g>	<path class="st3" d="M206.7,21.6l1.5-4.4h1.2l-2.1,5.4H206l-2.1-5.4h1.2L206.7,21.6z"></path>	<path class="st3" d="M215.5,20.3h-4.2c0,0.5,0.2,0.8,0.5,1.1c0.3,0.3,0.6,0.4,1.1,0.4c0.6,0,1-0.3,1.3-0.8h1.2  c-0.2,0.5-0.5,0.9-0.9,1.2c-0.4,0.3-1,0.5-1.6,0.5c-0.5,0-1-0.1-1.4-0.4c-0.4-0.2-0.7-0.6-1-1c-0.2-0.4-0.4-0.9-0.4-1.5  c0-0.6,0.1-1,0.3-1.5s0.5-0.8,1-1c0.4-0.2,0.9-0.3,1.4-0.3c0.5,0,1,0.1,1.4,0.3c0.4,0.2,0.7,0.5,0.9,0.9c0.2,0.4,0.3,0.9,0.3,1.4  C215.6,20,215.6,20.1,215.5,20.3z M214.4,19.5c0-0.4-0.2-0.8-0.4-1c-0.3-0.3-0.6-0.4-1.1-0.4c-0.4,0-0.7,0.1-1,0.4  c-0.3,0.3-0.4,0.6-0.5,1H214.4z M213.9,15.8l-2.2,1.1V16l2.2-1.2V15.8z"></path>	<path class="st3" d="M218.8,17.4c0.3-0.2,0.6-0.3,1-0.3v1.2h-0.3c-0.4,0-0.8,0.1-1,0.3c-0.2,0.2-0.3,0.6-0.3,1.2v2.9H217v-5.4h1.1  v0.9C218.3,17.8,218.5,17.6,218.8,17.4z"></path>	<path class="st3" d="M221.2,16.3c-0.1-0.1-0.2-0.3-0.2-0.5c0-0.2,0.1-0.4,0.2-0.5c0.1-0.1,0.3-0.2,0.5-0.2c0.2,0,0.4,0.1,0.5,0.2  c0.1,0.1,0.2,0.3,0.2,0.5c0,0.2-0.1,0.4-0.2,0.5c-0.1,0.1-0.3,0.2-0.5,0.2C221.5,16.5,221.4,16.4,221.2,16.3z M222.3,17.2v5.4h-1.1  v-5.4H222.3z"></path>	<path class="st3" d="M226.4,18.1h-1v4.5h-1.1v-4.5h-0.6v-0.9h0.6v-0.4c0-0.6,0.2-1.1,0.5-1.4c0.3-0.3,0.9-0.4,1.6-0.4V16  c-0.3,0-0.6,0.1-0.7,0.2c-0.1,0.1-0.2,0.4-0.2,0.7v0.4h1V18.1z"></path>	<path class="st3" d="M227.8,16.3c-0.1-0.1-0.2-0.3-0.2-0.5c0-0.2,0.1-0.4,0.2-0.5c0.1-0.1,0.3-0.2,0.5-0.2c0.2,0,0.4,0.1,0.5,0.2  c0.1,0.1,0.2,0.3,0.2,0.5c0,0.2-0.1,0.4-0.2,0.5c-0.1,0.1-0.3,0.2-0.5,0.2C228.1,16.5,228,16.4,227.8,16.3z M228.9,17.2v5.4h-1.1  v-5.4H228.9z"></path>	<path class="st3" d="M235.6,20.3h-4.2c0,0.5,0.2,0.8,0.5,1.1c0.3,0.3,0.6,0.4,1.1,0.4c0.6,0,1-0.3,1.3-0.8h1.2  c-0.2,0.5-0.5,0.9-0.9,1.2c-0.4,0.3-1,0.5-1.6,0.5c-0.5,0-1-0.1-1.4-0.4c-0.4-0.2-0.7-0.6-1-1c-0.2-0.4-0.4-0.9-0.4-1.5  c0-0.6,0.1-1,0.3-1.5c0.2-0.4,0.5-0.8,1-1c0.4-0.2,0.9-0.3,1.4-0.3c0.5,0,1,0.1,1.4,0.3c0.4,0.2,0.7,0.5,0.9,0.9  c0.2,0.4,0.3,0.9,0.3,1.4C235.7,20,235.7,20.1,235.6,20.3z M234.5,19.5c0-0.4-0.2-0.8-0.4-1c-0.3-0.3-0.6-0.4-1.1-0.4  c-0.4,0-0.7,0.1-1,0.4c-0.3,0.3-0.4,0.6-0.5,1H234.5z M234,15.8l-2.2,1.1V16l2.2-1.2V15.8z"></path></g><g>	<path class="st4" d="M113.7,85.8h8.7l14.8,26.8l14.8-26.8h8.5v44.1h-7.1V96.1l-13,23.4h-6.7l-13-23.4v33.8h-7.1V85.8z"></path>	<path class="st4" d="M183.6,130.7c-3.3,0-6.2-0.7-8.7-2.2c-2.5-1.5-4.4-3.5-5.8-6.1c-1.4-2.6-2.1-5.5-2.1-8.9c0-3.4,0.7-6.4,2-9  c1.4-2.6,3.3-4.6,5.7-6.1c2.4-1.5,5.2-2.2,8.4-2.2c3.1,0,5.8,0.7,8.1,2.2c2.3,1.5,4,3.6,5.2,6.2c1.2,2.7,1.8,5.8,1.8,9.4v2h-24.2  c0.4,2.7,1.5,4.8,3.3,6.3c1.7,1.5,3.9,2.3,6.6,2.3c2.1,0,3.9-0.3,5.5-0.9c1.5-0.6,3-1.6,4.3-2.9l3.8,4.6  C193.7,129,189.1,130.7,183.6,130.7z M188.8,104.5c-1.5-1.5-3.4-2.3-5.9-2.3c-2.4,0-4.3,0.8-5.9,2.3c-1.6,1.6-2.6,3.6-3,6.3h17.3  C191.2,108.2,190.3,106.1,188.8,104.5z"></path>	<path class="st4" d="M206.8,102.9h-6.6v-5.8h6.6v-9.6h6.9v9.6h10v5.8h-10v14.8c0,2.5,0.4,4.2,1.3,5.3c0.8,1.1,2.3,1.6,4.3,1.6  c0.9,0,1.7,0,2.3-0.1c0.6-0.1,1.3-0.2,2.1-0.3v5.8c-0.9,0.2-1.7,0.4-2.6,0.6c-1,0.1-2,0.2-3.1,0.2c-7.4,0-11.1-4.1-11.1-12.2V102.9  z"></path>	<path class="st4" d="M259.5,129.9h-6.7v-4.6c-1.2,1.7-2.7,3.1-4.6,4c-1.8,0.9-3.9,1.4-6.3,1.4c-2.9,0-5.5-0.7-7.7-2.2  c-2.2-1.5-4-3.5-5.3-6.1c-1.3-2.6-1.9-5.6-1.9-8.9c0-3.4,0.7-6.3,2-8.9c1.3-2.6,3.1-4.6,5.4-6.1c2.3-1.5,4.9-2.2,7.9-2.2  c2.2,0,4.3,0.4,6,1.3c1.8,0.9,3.3,2.1,4.4,3.7v-4.2h6.7V129.9z M252.6,108.6c-0.7-1.9-1.9-3.3-3.5-4.4c-1.6-1.1-3.4-1.6-5.5-1.6  c-2.9,0-5.3,1-7,3c-1.7,2-2.6,4.6-2.6,8c0,3.4,0.8,6.1,2.5,8c1.7,2,4,3,6.8,3c2.1,0,4-0.5,5.7-1.6c1.7-1.1,2.9-2.6,3.6-4.4V108.6z"></path>			<linearGradient id="SVGID_1_" gradientUnits="userSpaceOnUse" x1="68.5948" y1="227.9659" x2="52.9548" y2="248.4598" gradientTransform="matrix(1 0 0 -1 0 336.0207)">		<stop offset="6.000000e-04" style="stop-color:#0867DF"></stop>		<stop offset="0.4539" style="stop-color:#0668E1"></stop>		<stop offset="0.8591" style="stop-color:#0064E0"></stop>	</linearGradient>	<path class="st5" d="M49.3,84.3C49.3,84.3,49.2,84.3,49.3,84.3l-0.2,7.6c0,0,0,0,0.1,0h0c5,0,8.9,3.9,17.3,18.1l0.5,0.9l0,0.1  l4.7-7.1l0-0.1c-1.1-1.8-2.2-3.5-3.2-5c-1.2-1.8-2.3-3.3-3.4-4.7C59.5,87,54.9,84.3,49.3,84.3z"></path>			<linearGradient id="SVGID_2_" gradientUnits="userSpaceOnUse" x1="38.1463" y1="241.2417" x2="48.8685" y2="249.3819" gradientTransform="matrix(1 0 0 -1 0 336.0207)">		<stop offset="0.1323" style="stop-color:#0064DF"></stop>		<stop offset="0.9988" style="stop-color:#0064E0"></stop>	</linearGradient>	<path class="st6" d="M49.2,84.3c-5.6,0-10.5,3.6-14.1,9.2c0,0,0,0,0,0l6.6,3.6c0,0,0,0,0,0c2.1-3.1,4.7-5.1,7.5-5.2c0,0,0,0,0.1,0  L49.2,84.3C49.3,84.3,49.2,84.3,49.2,84.3z"></path>			<linearGradient id="SVGID_3_" gradientUnits="userSpaceOnUse" x1="33.6012" y1="229.2918" x2="37.9023" y2="240.119" gradientTransform="matrix(1 0 0 -1 0 336.0207)">		<stop offset="1.470000e-02" style="stop-color:#0072EC"></stop>		<stop offset="0.6881" style="stop-color:#0064DF"></stop>	</linearGradient>	<path class="st7" d="M35.1,93.5C35.1,93.5,35.1,93.5,35.1,93.5c-2.4,3.7-4.1,8.2-5.1,13c0,0,0,0,0,0.1l7.4,1.7c0,0,0,0,0-0.1  c0.8-4.3,2.3-8.2,4.2-11.1c0,0,0,0,0,0L35.1,93.5z"></path>			<linearGradient id="SVGID_4_" gradientUnits="userSpaceOnUse" x1="33.0175" y1="221.4677" x2="33.5152" y2="228.0801" gradientTransform="matrix(1 0 0 -1 0 336.0207)">		<stop offset="7.310000e-02" style="stop-color:#007CF6"></stop>		<stop offset="0.9943" style="stop-color:#0072EC"></stop>	</linearGradient>	<path class="st8" d="M37.4,108.3l-7.4-1.7c0,0,0,0,0,0.1c-0.5,2.7-0.8,5.4-0.8,8.1c0,0,0,0,0,0.1l7.6,0.7c0,0,0,0,0-0.1  c0-0.2,0-0.3,0-0.5C36.8,112.7,37,110.5,37.4,108.3C37.4,108.3,37.4,108.3,37.4,108.3z"></path>			<linearGradient id="SVGID_5_" gradientUnits="userSpaceOnUse" x1="33.2912" y1="217.8864" x2="32.9352" y2="220.5356" gradientTransform="matrix(1 0 0 -1 0 336.0207)">		<stop offset="7.310000e-02" style="stop-color:#007FF9"></stop>		<stop offset="1" style="stop-color:#007CF6"></stop>	</linearGradient>	<path class="st9" d="M37,117.8c-0.1-0.8-0.2-1.6-0.2-2.4c0,0,0,0,0-0.1l-7.6-0.7c0,0,0,0,0,0.1v0c0,1.7,0.1,3.3,0.4,4.7  c0,0,0,0,0,0.1L37,117.8C37,117.8,37,117.8,37,117.8z"></path>			<linearGradient id="SVGID_6_" gradientUnits="userSpaceOnUse" x1="33.0821" y1="217.1812" x2="35.3006" y2="212.4757" gradientTransform="matrix(1 0 0 -1 0 336.0207)">		<stop offset="7.310000e-02" style="stop-color:#007FF9"></stop>		<stop offset="1" style="stop-color:#0082FB"></stop>	</linearGradient>	<path class="st10" d="M38.7,121.7c-0.8-0.9-1.4-2.2-1.7-3.8c0,0,0,0,0-0.1l-7.4,1.7c0,0,0,0,0,0.1c0.6,2.9,1.7,5.4,3.2,7.2  c0,0,0,0,0,0L38.7,121.7C38.8,121.7,38.7,121.7,38.7,121.7z"></path>	<path class="st11" d="M60.6,100.7c-4.4,6.8-7.1,11.1-7.1,11.1c-5.9,9.3-8,11.4-11.3,11.4c-1.4,0-2.5-0.5-3.4-1.4c0,0,0,0,0,0  l-5.9,5.1c0,0,0,0,0,0c2.2,2.5,5.2,3.9,9,3.9c5.7,0,9.8-2.7,17.1-15.5c0,0,3-5.4,5.1-9.1C62.9,104.1,61.7,102.3,60.6,100.7z"></path>			<linearGradient id="SVGID_7_" gradientUnits="userSpaceOnUse" x1="67.1806" y1="239.9486" x2="70.1136" y2="244.0051" gradientTransform="matrix(1 0 0 -1 0 336.0207)">		<stop offset="0.2799" style="stop-color:#007FF8"></stop>		<stop offset="0.9141" style="stop-color:#0082FB"></stop>	</linearGradient>	<path class="st12" d="M68.5,90C68.5,90,68.5,90,68.5,90c-1.2,1.3-2.3,2.7-3.4,4.2c1.1,1.4,2.2,3,3.4,4.7c1.4-2.2,2.7-3.9,4-5.2  c0,0,0,0,0,0L68.5,90z"></path>	<path class="st11" d="M90.1,89.3c-3.1-3.1-6.8-5-10.7-5c-4.2,0-7.7,2.3-10.8,5.6c0,0,0,0,0,0l4,3.6c0,0,0,0,0,0  c2.1-2.2,4.1-3.2,6.3-3.2h0c2.4,0,4.7,1.1,6.6,3.1c0,0,0,0,0,0L90.1,89.3C90.1,89.3,90.1,89.3,90.1,89.3z"></path>			<linearGradient id="SVGID_8_" gradientUnits="userSpaceOnUse" x1="89.4801" y1="245.2138" x2="95.6158" y2="222.643" gradientTransform="matrix(1 0 0 -1 0 336.0207)">		<stop offset="0" style="stop-color:#0082FB"></stop>		<stop offset="0.9995" style="stop-color:#0081FA"></stop>	</linearGradient>	<path class="st13" d="M99,113.7c-0.2-10.1-3.7-19-8.9-24.3c0,0,0,0,0,0l-4.6,4.1c0,0,0,0,0,0c3.9,4,6.6,11.5,6.9,20.2  c0,0,0,0,0,0.1L99,113.7C99,113.7,99,113.7,99,113.7z"></path>			<linearGradient id="SVGID_9_" gradientUnits="userSpaceOnUse" x1="97.0973" y1="221.7725" x2="93.214" y2="213.9255" gradientTransform="matrix(1 0 0 -1 0 336.0207)">		<stop offset="6.190000e-02" style="stop-color:#0081FA"></stop>		<stop offset="1" style="stop-color:#0080F9"></stop>	</linearGradient>	<path class="st14" d="M99,113.7C99,113.7,99,113.7,99,113.7l-6.7-0.1c0,0,0,0,0,0.1c0,0.4,0,0.8,0,1.2c0,2.4-0.4,4.3-1.1,5.7  c0,0,0,0,0,0.1l5,5.2c0,0,0,0,0-0.1c1.8-2.8,2.8-6.7,2.8-11.3C99,114.2,99,114,99,113.7z"></path>			<linearGradient id="SVGID_10_" gradientUnits="userSpaceOnUse" x1="90.1282" y1="209.7759" x2="93.7581" y2="212.2481" gradientTransform="matrix(1 0 0 -1 0 336.0207)">		<stop offset="0" style="stop-color:#027AF3"></stop>		<stop offset="1" style="stop-color:#0080F9"></stop>	</linearGradient>	<path class="st15" d="M91.3,120.6C91.3,120.6,91.3,120.7,91.3,120.6c-0.7,1.2-1.5,2-2.7,2.3l2.3,7.1c0.3-0.1,0.6-0.2,0.9-0.3  c0.1,0,0.2-0.1,0.3-0.1c0,0,0.1,0,0.1-0.1c1.5-0.7,2.8-1.8,3.8-3.3c0.1-0.1,0.1-0.2,0.2-0.3c0-0.1,0.1-0.1,0.1-0.2c0,0,0,0,0-0.1  L91.3,120.6z"></path>			<linearGradient id="SVGID_11_" gradientUnits="userSpaceOnUse" x1="84.4346" y1="209.2943" x2="89.4785" y2="209.2943" gradientTransform="matrix(1 0 0 -1 0 336.0207)">		<stop offset="0" style="stop-color:#0377EF"></stop>		<stop offset="0.9994" style="stop-color:#0279F1"></stop>	</linearGradient>	<path class="st16" d="M87.2,123.2c-0.8,0-1.4-0.1-2.1-0.4l-2.3,7.3c1.3,0.4,2.7,0.6,4.2,0.6c1.4,0,2.7-0.2,3.9-0.6l-2.3-7.1  C88.2,123.1,87.7,123.2,87.2,123.2L87.2,123.2z"></path>			<linearGradient id="SVGID_12_" gradientUnits="userSpaceOnUse" x1="80.0492" y1="212.0641" x2="83.6755" y2="209.9307" gradientTransform="matrix(1 0 0 -1 0 336.0207)">		<stop offset="1.900000e-03" style="stop-color:#0471E9"></stop>		<stop offset="1" style="stop-color:#0377EF"></stop>	</linearGradient>	<path class="st17" d="M82.5,120.7C82.5,120.6,82.5,120.6,82.5,120.7l-5.4,5.5c0,0,0,0,0,0c1.9,2,3.6,3.2,5.6,3.9l2.3-7.3  C84.3,122.4,83.5,121.8,82.5,120.7z"></path>			<linearGradient id="SVGID_13_" gradientUnits="userSpaceOnUse" x1="68.988" y1="227.8008" x2="80.6044" y2="213.1956" gradientTransform="matrix(1 0 0 -1 0 336.0207)">		<stop offset="0.2765" style="stop-color:#0867DF"></stop>		<stop offset="1" style="stop-color:#0471E9"></stop>	</linearGradient>	<path class="st18" d="M82.5,120.6c-1.6-1.9-3.6-5-6.7-10l-4.1-6.8l0-0.1l-4.7,7.1l0,0.1l2.9,4.8c2.8,4.7,5.1,8,7.3,10.4  c0,0,0,0,0,0L82.5,120.6C82.5,120.6,82.5,120.6,82.5,120.6z"></path></g></svg>