<?xml version="1.0" encoding="iso-8859-1"?>
<!-- Generator: Adobe Illustrator 29.7.1, SVG Export Plug-In . SVG Version: 9.03 Build 0)  -->
<svg version="1.1" id="Layer_1" xmlns="http://www.w3.org/2000/svg" xmlns:xlink="http://www.w3.org/1999/xlink" x="0px" y="0px"
	 viewBox="0 0 250 150" style="enable-background:new 0 0 250 150;" xml:space="preserve">
<g>
	<path style="fill:#21759B;" d="M127.646,11.628l12.417,1.968c46.048,11.153,64.224,68.181,32.162,103.844
		c-34.113,37.944-96.698,21.613-108.609-27.375l-1.968-12.42c0.079-1.677-0.112-3.406,0-5.078c2.24-33.48,27.466-58.7,60.922-60.939
		H127.646z M118.508,14.619c-42.983,4.006-67.575,52.932-46.239,90.49c20.951,36.881,73.223,41.59,99.925,8.352
		C206.386,70.899,172.498,9.587,118.508,14.619z"/>
	<path style="fill:#21759B;" d="M160.927,34.757c-3.455,0.088-6.566,2.101-7.995,5.268c-3.83,8.486,3.454,14.309,6.404,21.437
		c6.448,15.581-4.156,30.861-6.877,46.085l-19.079-56.282c-0.404-3.685,7.605,0.069,7.786-4.354
		c0.176-4.282-6.331-2.041-8.703-1.968c-5.32,0.163-11.077,0.122-16.409,0.004c-2.206-0.049-7.291-1.764-8.44,0.533
		c-2.017,6.083,5.852,2.781,7.483,4.662l8.061,22.698l-11.865,35.273L92.192,50.728l0.849-1.21l6.412-0.916l0.583-1.162
		c0.101-5.034-5.18-2.569-8.186-2.498c-3.855,0.091-7.736-0.11-11.587-0.029C97.124,17.889,137.862,12.45,160.927,34.757z"/>
	<path style="fill:#21759B;" d="M142.878,126.73c-10.869,2.912-21.791,3.841-32.71,0.555l16.07-46.251L142.878,126.73z"/>
	<path style="fill:#21759B;" d="M100.567,123.347c-0.371,0.398-6.171-3.498-6.944-4.051c-20.937-14.984-28.299-42.047-18.43-65.909
		L100.567,123.347z"/>
	<path style="fill:#21759B;" d="M173.338,50.562l3.673,8.457c6.806,22.226-1.431,47.043-20.417,60.278
		c-1.022,0.712-2.386,1.828-3.568,2.073l18.779-54.568c0.081-1.858,1.533-5.388,1.533-6.93V50.562z"/>
</g>
</svg>
