<?xml version="1.0" encoding="iso-8859-1"?>
<!-- Generator: Adobe Illustrator 29.7.1, SVG Export Plug-In . SVG Version: 9.03 Build 0)  -->
<svg version="1.1" id="Layer_1" xmlns="http://www.w3.org/2000/svg" xmlns:xlink="http://www.w3.org/1999/xlink" x="0px" y="0px"
	 viewBox="0 0 250 150" style="enable-background:new 0 0 250 150;" xml:space="preserve">
<g id="ZlClt2.tif">
	<g>
		<g>
			<path style="fill:#FEFEFE;" d="M41.86,40.966L8.726,74.284c-0.185,0.495,0.083,0.761,0.334,1.132
				c2.089,3.095,7.412,6.543,9.817,9.727l44.168-44.177h179.072v25.476c-4.521-1.283-9.017,0.356-11.392,4.383
				c-0.517-0.027,0.018-3.772-0.198-3.987c-0.17-0.169-4.04,0.127-4.799,0.002v28.262h4.797V78.582c0-0.497,1.078-3.125,1.426-3.755
				c2.242-4.069,6.018-4.013,10.166-3.211v37.417H7.884V40.966H41.86z M114.208,55.694H91.024v39.407h4.797V78.383h16.388v-4.777
				H95.821V60.073h18.387V55.694z M123.801,55.694h-4.797v39.407h4.797V55.694z M167.37,58.879h-5.196v7.961l-4.804,0.229
				l0.005,4.549l4.799-0.002v18.51c0,0.263,1.14,2.551,1.425,2.959c1.762,2.524,4.935,3.467,7.921,3.163
				c4.003-0.407,2.366-2.337,2.643-5.523c-0.206-0.225-3.47,2.009-5.802,0.006c-0.228-0.196-0.991-1.25-0.991-1.401V71.617h6.196
				c0.95,0,0.521-3.927,0.6-4.777h-6.795V58.879z M186.556,58.879h-4.797v7.961l-4.799-0.002l-0.005,4.151l4.804,0.229v19.306
				c0,1.627,3.018,4.432,4.518,5.054c1.824,0.756,5.598,1.076,7.241-0.032c0.594-0.401,0.049-3.902,0.23-4.821
				c-0.234-0.256-4.393,2.406-6.409-0.584c-0.173-0.256-0.784-1.828-0.784-2.006V71.218h6.795V66.84h-6.795V58.879z M222.93,81.966
				c0.668-9.661-5.83-17.36-16.009-15.744c-16.152,2.565-14.984,29.921,2.621,30.107c5.071,0.054,11.12-2.974,12.572-7.976
				c-1.024,0.015-2.983-1.7-3.729-1.556c-0.499,0.096-1.591,1.953-2.242,2.541c-6.052,5.473-16.033,0.746-15.597-7.373H222.93z
				 M133.794,66.84h-4.797v21.694c0,0.548,1.693,3.566,2.189,4.189c4.102,5.149,13.746,4.58,17.002-1.2
				c0.941,0.263,0.092,3.282,0.393,3.581c0.17,0.169,4.04-0.127,4.799-0.002V66.84h-4.797v16.519c0,2.179-2.144,5.932-4.016,7.146
				c-2.717,1.762-7.906,1.542-9.658-1.49c-0.25-0.432-1.115-2.567-1.115-2.87V66.84z M34.665,79.976
				c-3.497,3.438-7.433,6.704-10.407,10.548c0,0.925,9.002,9.169,10.407,10.548c2.502,2.457,4.782,5.2,7.395,7.563h20.985
				L45.057,90.723v-0.398l17.987-18.311H42.459C39.713,74.511,37.3,77.385,34.665,79.976z"/>
			<path style="fill:#5FC8F7;" d="M63.044,40.966L18.876,85.143c-2.405-3.184-7.728-6.632-9.817-9.727
				c-0.25-0.371-0.519-0.637-0.334-1.132L41.86,40.966H63.044z"/>
			<path style="fill:#797979;" d="M242.116,66.442v5.175c-4.148-0.802-7.924-0.858-10.166,3.211
				c-0.347,0.63-1.426,3.258-1.426,3.755v16.519h-4.797V66.84c0.759,0.125,4.629-0.171,4.799-0.002
				c0.216,0.214-0.319,3.959,0.198,3.987C233.099,66.797,237.595,65.159,242.116,66.442z"/>
			<path style="fill:#787878;" d="M222.93,81.966h-22.384c-0.436,8.118,9.546,12.845,15.597,7.373
				c0.65-0.588,1.743-2.445,2.242-2.541c0.746-0.144,2.705,1.571,3.729,1.556c-1.452,5.002-7.501,8.03-12.572,7.976
				c-17.604-0.186-18.773-27.542-2.621-30.107C217.099,64.606,223.598,72.305,222.93,81.966z M217.734,77.985
				c-1.148-10.148-15.573-9.917-16.788,0H217.734z"/>
			<polygon style="fill:#787878;" points="114.208,55.694 114.208,60.073 95.821,60.073 95.821,73.607 112.209,73.607 
				112.209,78.383 95.821,78.383 95.821,95.102 91.024,95.102 91.024,55.694 			"/>
			<path style="fill:#797979;" d="M133.794,66.84v19.306c0,0.303,0.866,2.438,1.115,2.87c1.752,3.032,6.942,3.252,9.658,1.49
				c1.872-1.214,4.016-4.967,4.016-7.146V66.84h4.797v28.262c-0.759-0.125-4.629,0.171-4.799,0.002
				c-0.301-0.299,0.549-3.318-0.393-3.581c-3.256,5.78-12.9,6.349-17.002,1.2c-0.496-0.623-2.189-3.641-2.189-4.189V66.84H133.794z"
				/>
			<path style="fill:#5EC8F7;" d="M34.665,79.976c2.635-2.591,5.048-5.465,7.794-7.961h20.585L45.057,90.325L34.665,79.976z"/>
			<path style="fill:#7B7B7B;" d="M167.37,58.879v7.961h6.795c-0.079,0.849,0.35,4.777-0.6,4.777h-6.196V89.33
				c0,0.152,0.763,1.206,0.991,1.401c2.332,2.002,5.596-0.232,5.802-0.006c-0.277,3.187,1.359,5.116-2.643,5.523
				c-2.986,0.304-6.159-0.639-7.921-3.163c-0.285-0.409-1.425-2.696-1.425-2.959v-18.51l-4.799,0.002l-0.005-4.549l4.804-0.229
				v-7.961H167.37z"/>
			<path style="fill:#777777;" d="M186.556,58.879v7.961h6.795v4.379h-6.795v16.917c0,0.178,0.611,1.75,0.784,2.006
				c2.016,2.99,6.175,0.327,6.409,0.584c-0.181,0.919,0.364,4.42-0.23,4.821c-1.643,1.108-5.417,0.788-7.241,0.032
				c-1.5-0.622-4.518-3.427-4.518-5.054V71.218l-4.804-0.229l0.005-4.151l4.799,0.002v-7.961H186.556z"/>
			<path style="fill:#085B9D;" d="M45.057,90.723l17.987,17.912H42.059c-2.613-2.363-4.893-5.106-7.395-7.563
				c0.085-0.173,0.298-0.268,0.4-0.398c1.283-0.68,8.254-2.133,7.965-3.728c-0.098-0.542-1.751-1.472-1.97-2.243
				C42.366,93.386,43.454,91.755,45.057,90.723z"/>
			<path style="fill:#32B8F4;" d="M45.057,90.325v0.398c-1.603,1.032-2.691,2.663-3.997,3.981c-1.99,2.008-4.237,3.713-5.996,5.971
				c-0.101,0.13-0.315,0.225-0.4,0.398c-1.405-1.38-10.407-9.623-10.407-10.548c2.974-3.845,6.91-7.11,10.407-10.548L45.057,90.325z
				"/>
			<rect x="119.004" y="55.694" style="fill:#777777;" width="4.797" height="39.407"/>
			<path style="fill:#FCFCFC;" d="M217.734,77.985h-16.788C202.16,68.068,216.586,67.838,217.734,77.985z"/>
			<path style="fill:#0D5198;" d="M35.064,100.675c1.759-2.257,4.006-3.963,5.996-5.971c0.218,0.771,1.872,1.701,1.97,2.243
				C43.318,98.541,36.348,99.995,35.064,100.675z"/>
		</g>
	</g>
</g>
</svg>
