<?xml version="1.0" encoding="iso-8859-1"?>
<!-- Generator: Adobe Illustrator 29.7.1, SVG Export Plug-In . SVG Version: 9.03 Build 0)  -->
<svg version="1.1" id="Layer_1" xmlns="http://www.w3.org/2000/svg" xmlns:xlink="http://www.w3.org/1999/xlink" x="0px" y="0px"
	 viewBox="0 0 250 150" style="enable-background:new 0 0 250 150;" xml:space="preserve">
<g>
	<path style="fill:#087EA4;" d="M159.548,55.217c9.409,3.27,22.136,11.638,18.974,23.342c-2.232,8.261-11.549,13.345-18.912,16.321
		c-0.2,0.29,0.402,3.811,0.45,4.524c0.421,6.17-0.181,14.271-4.334,19.208c-8.436,10.028-22.508,2.917-30.665-3.691
		c-6.554,4.815-15.234,10.403-23.78,8.202c-10.214-2.631-11.986-14.772-11.331-23.719c0.052-0.708,0.648-4.237,0.45-4.524
		c-7.485-2.986-17.273-8.446-19.103-17.015c-2.438-11.416,9.987-19.427,19.165-22.648l-0.697-7.677
		c0.021-21.222,14.279-26.518,31.152-15.394c0.596,0.393,3.761,2.891,4.008,2.915c0.155,0.015,0.299-0.012,0.43-0.097
		c5.9-4.755,14.432-9.768,22.322-8.331C160.39,28.946,161.158,45.081,159.548,55.217z M95.26,53.287
		c0.224,0.227,3.858-0.936,4.492-1.086c3.6-0.852,7.246-1.475,10.908-2.016c3.224-4.12,6.675-8.052,10.447-11.681
		c-6.968-5.616-20.493-12.458-24.916-0.309C94.436,43.01,94.786,48.273,95.26,53.287z M154.75,53.287
		c1.144-8.605,0.607-23.413-11.753-21.755c-5.117,0.686-10.054,3.95-14.093,6.972c3.788,3.615,7.208,7.573,10.447,11.681
		c2.433,0.387,4.873,0.723,7.289,1.21C149.364,51.942,152.04,52.781,154.75,53.287z M132.264,49.566
		c-2.116-2.712-4.512-5.416-7.198-7.574c-0.519-0.049-3.241,2.842-3.784,3.411c-0.278,0.292-3.757,4.001-3.536,4.163H132.264z
		 M136.647,95.021c4.448-6.252,8.403-12.89,11.468-19.942c-1.467-3.568-3.271-7.053-5.198-10.405
		c-0.729-1.268-5.774-9.545-6.529-9.759l-7.216-0.574l-8.16-0.001l-7.515,0.629c-4.665,6.111-8.398,12.908-11.594,19.9
		c2.921,7.18,6.982,13.908,11.543,20.158c5.561,0.79,11.184,0.524,16.79,0.579L136.647,95.021z M106.591,55.943l-10.193,2.469
		c-0.211,0.308,0.533,2.834,0.682,3.409c0.588,2.258,1.405,4.458,2.076,6.689L106.591,55.943z M150.852,68.51
		c0.671-2.231,1.488-4.431,2.076-6.689c0.15-0.575,0.893-3.101,0.682-3.409l-10.193-2.469L150.852,68.51z M91.54,60.19
		c-8.584,3.085-21.258,11.553-12.66,21.601c3.21,3.752,8.186,6.239,12.66,8.141c1.048-5.09,2.816-10,4.777-14.792
		C94.563,70.211,92.577,65.346,91.54,60.19z M158.47,89.931c8.046-3.136,20.7-11.033,13.274-20.975
		c-3.044-4.075-8.556-6.909-13.183-8.77c-1.261,5.099-3.055,10.032-4.868,14.952C155.656,79.934,157.407,84.843,158.47,89.931z
		 M106.591,94.001l-7.434-12.567l-2.821,10.255L106.591,94.001z M153.674,91.689c0.354-0.408-2.408-9.107-2.907-10.254
		l-7.349,12.567L153.674,91.689z M95.26,96.658c-0.467,5.227-0.88,10.937,1.207,15.877c4.749,11.244,18.053,4.364,24.639-1.094
		c-3.807-3.598-7.241-7.532-10.484-11.643C105.415,99.165,100.322,97.962,95.26,96.658z M154.749,96.658
		c-5.064,1.299-10.149,2.537-15.362,3.139c-3.243,4.111-6.677,8.045-10.484,11.643c6.586,5.458,19.891,12.338,24.639,1.094
		C155.629,107.595,155.216,101.885,154.749,96.658z M132.262,100.376c-0.207,0.086-0.376,0.172-0.614,0.181
		c-3.415,0.12-6.698,0.105-10.098-0.002c-1.268-0.04-2.551,0.088-3.807-0.089c2.13,2.82,4.698,5.365,7.325,7.686
		c2.127-2.119,4.352-4.17,6.305-6.454C131.518,101.53,132.386,100.501,132.262,100.376z"/>
	<path style="fill:#087EA4;" d="M123.726,64.842c8.192-0.933,14.166,7.584,10.339,14.94c-3.886,7.468-15.021,7.121-18.418-0.586
		C112.912,72.992,116.972,65.611,123.726,64.842z"/>
</g>
</svg>
