<?xml version="1.0" encoding="iso-8859-1"?>
<!-- Generator: Adobe Illustrator 29.7.1, SVG Export Plug-In . SVG Version: 9.03 Build 0)  -->
<svg version="1.1" id="Layer_1" xmlns="http://www.w3.org/2000/svg" xmlns:xlink="http://www.w3.org/1999/xlink" x="0px" y="0px"
	 viewBox="0 0 250 150" style="enable-background:new 0 0 250 150;" xml:space="preserve">
<g id="lJ6lki_00000004523456326772431790000018095381224714005146_">
	<g>
		<polygon style="fill:#010101;" points="213.311,42.423 213.311,51.058 195.257,51.058 195.257,106.792 185.052,106.792 
			185.052,51.058 166.997,51.058 166.993,42.419 		"/>
		<path style="fill:#050505;" d="M36.689,103.652v-3.925c2.943-6,12.656-4.928,12.65,1.963
			C49.332,108.754,39.599,109.888,36.689,103.652z"/>
		<path style="fill:#020202;" d="M69.658,106.792h-9.42V42.423h12.56l30.615,49.454V42.423h10.205v64.369h-11.382L69.666,59.385
			 M69.666,55.772"/>
		<polygon style="fill:#010101;" points="161.502,42.423 161.502,51.058 137.952,51.058 137.952,69.898 159.147,69.898 
			159.147,78.532 137.952,78.532 137.952,98.157 163.072,98.157 163.072,106.792 127.747,106.792 127.747,42.423 		"/>
	</g>
</g>
</svg>
