<?xml version="1.0" encoding="iso-8859-1"?>
<!-- Generator: Adobe Illustrator 29.7.1, SVG Export Plug-In . SVG Version: 9.03 Build 0)  -->
<svg version="1.1" id="Layer_1" xmlns="http://www.w3.org/2000/svg" xmlns:xlink="http://www.w3.org/1999/xlink" x="0px" y="0px"
	 viewBox="0 0 250 150" style="enable-background:new 0 0 250 150;" xml:space="preserve">
<g>
	<path style="fill:#17191E;" d="M31.328,95.035c-2.573-2.352-3.324-7.295-2.252-10.875c1.859,2.257,4.435,2.973,7.103,3.376
		c4.119,0.623,8.164,0.39,11.99-1.492c0.438-0.215,0.842-0.502,1.32-0.792c0.359,1.041,0.452,2.093,0.327,3.163
		c-0.305,2.606-1.602,4.62-3.665,6.146c-0.825,0.611-1.698,1.156-2.55,1.732c-2.618,1.769-3.326,3.843-2.342,6.861
		c0.023,0.073,0.044,0.147,0.097,0.326c-1.336-0.598-2.313-1.469-3.056-2.614c-0.786-1.209-1.159-2.546-1.179-3.992
		c-0.01-0.704-0.01-1.414-0.104-2.108c-0.231-1.692-1.025-2.449-2.522-2.493c-1.536-0.044-2.75,0.905-3.072,2.4
		c-0.025,0.114-0.06,0.228-0.096,0.361L31.328,95.035z"/>
	<path style="fill:#17191E;" d="M16.641,83.563c0,0,7.62-3.712,15.261-3.712l5.761-17.83c0.216-0.862,0.845-1.448,1.556-1.448
		s1.341,0.586,1.556,1.448l5.761,17.83c9.05,0,15.261,3.712,15.261,3.712S48.855,48.305,48.829,48.234
		c-0.371-1.042-0.999-1.714-1.844-1.714H31.454c-0.845,0-1.447,0.671-1.844,1.714C29.582,48.304,16.641,83.563,16.641,83.563z"/>
	<path style="fill:#17191E;" d="M96.978,72.222c0,3.124-3.886,4.99-9.267,4.99c-3.502,0-4.741-0.868-4.741-2.69
		c0-1.909,1.537-2.821,5.039-2.821c3.161,0,5.851,0.043,8.969,0.434V72.222z M97.021,68.36c-1.922-0.434-4.826-0.694-8.285-0.694
		c-10.079,0-14.819,2.387-14.819,7.941c0,5.771,3.246,7.985,10.762,7.985c6.364,0,10.676-1.606,12.257-5.555h0.256
		c-0.043,0.955-0.085,1.909-0.085,2.647c0,2.04,0.342,2.213,2.007,2.213h7.858c-0.427-1.215-0.684-4.643-0.684-7.594
		c0-3.168,0.128-5.554,0.128-8.766c0-6.553-3.928-10.718-16.228-10.718c-5.296,0-11.189,0.911-15.673,2.257
		c0.427,1.779,1.025,5.381,1.324,7.724c3.886-1.823,9.395-2.604,13.666-2.604c5.893,0,7.516,1.345,7.516,4.079V68.36z"/>
	<path style="fill:#17191E;" d="M118.582,74.044c-1.067,0.13-2.52,0.13-4.014,0.13c-1.58,0-3.032-0.043-4.015-0.174
		c0,0.347-0.043,0.738-0.043,1.085c0,5.424,3.545,8.592,16.015,8.592c11.744,0,15.545-3.124,15.545-8.635
		c0-5.207-2.519-7.768-13.666-8.332c-8.67-0.391-9.438-1.345-9.438-2.43c0-1.258,1.11-1.909,6.918-1.909
		c6.022,0,7.645,0.824,7.645,2.56v0.391c0.854-0.043,2.392-0.087,3.972-0.087c1.495,0,3.117,0.043,4.057,0.13
		c0-0.391,0.043-0.738,0.043-1.041c0-6.379-5.296-8.462-15.545-8.462c-11.531,0-15.417,2.821-15.417,8.332
		c0,4.947,3.118,8.028,14.179,8.505c8.157,0.26,9.054,1.172,9.054,2.43c0,1.345-1.324,1.953-7.046,1.953
		c-6.577,0-8.243-0.911-8.243-2.777V74.044z"/>
	<path style="fill:#17191E;" d="M156.166,51.176c-3.117,2.907-8.712,5.815-11.829,6.596c0.043,1.606,0.043,4.556,0.043,6.162
		l2.861,0.043c-0.043,3.081-0.085,6.813-0.085,9.286c0,5.771,3.032,10.111,12.47,10.111c3.972,0,6.62-0.434,9.908-1.128
		c-0.342-2.126-0.726-5.381-0.854-7.854c-1.965,0.651-4.441,0.998-7.175,0.998c-3.801,0-5.338-1.041-5.338-4.036
		c0-2.604,0-5.034,0.043-7.29c4.869,0.043,9.737,0.13,12.598,0.217c-0.043-2.257,0.043-5.511,0.171-7.681
		c-4.143,0.087-8.797,0.13-12.641,0.13c0.043-1.909,0.085-3.732,0.128-5.554H156.166z"/>
	<path style="fill:#17191E;" d="M181.673,62.632c0.043-2.257,0.085-4.166,0.128-6.032h-8.584c0.128,3.732,0.128,7.551,0.128,13.148
		c0,5.598-0.043,9.46-0.128,13.148h9.823c-0.171-2.604-0.214-6.986-0.214-10.718c0-5.902,2.392-7.594,7.815-7.594
		c2.52,0,4.314,0.304,5.894,0.868c0.043-2.213,0.47-6.509,0.726-8.418c-1.623-0.477-3.416-0.781-5.595-0.781
		c-4.655-0.043-8.071,1.866-9.651,6.422L181.673,62.632z"/>
	<path style="fill:#17191E;" d="M224.434,69.575c0,4.73-3.416,6.943-8.797,6.943c-5.338,0-8.755-2.083-8.755-6.943
		s3.459-6.683,8.755-6.683C220.974,62.892,224.434,64.845,224.434,69.575z M233.359,69.358c0-9.416-7.345-13.626-17.723-13.626
		c-10.42,0-17.51,4.209-17.51,13.626c0,9.373,6.62,14.407,17.467,14.407C226.526,83.765,233.359,78.731,233.359,69.358z"/>
</g>
</svg>
