<?xml version="1.0" encoding="iso-8859-1"?>
<!-- Generator: Adobe Illustrator 29.7.1, SVG Export Plug-In . SVG Version: 9.03 Build 0)  -->
<svg version="1.1" id="Layer_1" xmlns="http://www.w3.org/2000/svg" xmlns:xlink="http://www.w3.org/1999/xlink" x="0px" y="0px"
	 viewBox="0 0 250 150" style="enable-background:new 0 0 250 150;" xml:space="preserve">
<g>
	<path style="fill:#8412FB;" d="M47.07,71.108c13.016-1.269,16.123-17.896,16.999-28.481c0.425-5.135-0.082-10.291,0.255-15.314
		c0.516-7.683,7.223-14.271,14.989-14.337l91.502,0c7.511,0.154,14.171,6.629,14.722,14.085c0.369,4.989-0.15,10.193,0.262,15.307
		c0.86,10.664,3.892,27.397,16.992,28.747l0.016,7.588c0.021,0.175-0.036,0.175-0.165,0.23c-0.348,0.15-1.277,0.191-1.766,0.308
		c-12.654,3.022-14.984,21.996-15.342,32.797c-0.245,7.391,1.419,13.776-3.884,19.86c-2.665,3.057-6.512,4.893-10.574,5.128
		l-92.411-0.001c-3.98-0.293-7.74-2.073-10.378-5.064c-5.423-6.147-3.69-12.817-3.951-20.313
		c-0.311-8.933-2.339-23.914-9.807-29.768c-2.167-1.699-4.708-2.706-7.458-2.988V71.108z M100.927,41.979v66.041l0.448,0.201
		c9.324-0.302,18.876,0.379,28.173-0.001c10.8-0.441,21.222-5.249,21.99-17.328c0.621-9.77-5.757-16.778-15.312-17.84l2.901-0.925
		c11.645-5.153,12.226-21.299,1.079-27.51c-3.354-1.869-7.356-2.68-11.177-2.838c-9.123-0.379-18.505,0.302-27.655,0L100.927,41.979
		z"/>
	<path style="fill:#FFFFFF;" d="M47.07,71.108V12.851H202.93v124.298H47.07V78.892c2.75,0.281,5.292,1.289,7.458,2.988
		c7.468,5.854,9.495,20.835,9.807,29.768c0.261,7.495-1.472,14.165,3.951,20.313c2.638,2.99,6.398,4.771,10.378,5.064l92.411,0.001
		c4.062-0.234,7.909-2.071,10.574-5.128c5.304-6.084,3.639-12.47,3.884-19.86c0.358-10.801,2.688-29.775,15.342-32.797
		c0.489-0.117,1.419-0.158,1.766-0.308c0.129-0.056,0.186-0.055,0.165-0.23l-0.016-7.588c-13.1-1.35-16.133-18.082-16.992-28.747
		c-0.412-5.115,0.107-10.318-0.262-15.307c-0.551-7.456-7.212-13.93-14.722-14.085l-91.502,0
		c-7.766,0.066-14.473,6.654-14.989,14.337c-0.337,5.023,0.17,10.179-0.255,15.314C63.193,53.212,60.087,69.839,47.07,71.108z"/>
	<path style="fill:#8412FB;" d="M111.828,99.392V78.114l15.766,0.001c7.62,0.562,13.35,3.286,12.79,11.877
		c-0.421,6.471-6.269,9.016-12.005,9.406L111.828,99.392z"/>
	<path style="fill:#8412FB;" d="M111.828,69.94V50.608l15.513-0.005c4.793,0.391,9.134,2.422,9.907,7.611
		c1.033,6.935-3.743,10.619-10.06,11.448C122.189,70.318,116.873,69.742,111.828,69.94z"/>
</g>
</svg>
