<?xml version="1.0" encoding="iso-8859-1"?>
<!-- Generator: Adobe Illustrator 29.7.1, SVG Export Plug-In . SVG Version: 9.03 Build 0)  -->
<svg version="1.1" id="Layer_1" xmlns="http://www.w3.org/2000/svg" xmlns:xlink="http://www.w3.org/1999/xlink" x="0px" y="0px"
	 viewBox="0 0 250 150" style="enable-background:new 0 0 250 150;" xml:space="preserve">
<g>
	<path style="fill:#38BCF7;" d="M125.791,29.108c0.479,0.118,1.026,0.045,1.524,0.059c11.889,0.334,20.482,4.741,28.875,12.776
		c4.91,4.7,9.82,11.03,16.53,13.132c3.931,1.232,8.308,1.408,12.296,0.334c6.228-1.678,11.106-6.19,14.936-11.178
		c-2.485,10.476-8.064,20.3-17.782,25.506c-11.581,6.203-29.212,5.786-40.648-0.586c-7.087-3.949-11.422-9.46-17.196-14.81
		c-5.318-4.928-10.587-7.781-18.145-7.178c-7.882,0.628-14.09,5.797-18.672,11.839c2.202-9.2,6.797-18.113,14.696-23.609
		c6.037-4.201,13.116-5.92,20.42-6.224c0.478-0.02,0.962,0.013,1.441,0.002l0.142-0.061H125.791z"/>
	<path style="fill:#99DDFA;" d="M124.209,29.108l-0.142,0.061c-0.479,0.011-0.963-0.022-1.441-0.002v-0.059H124.209z"/>
	<path style="fill:#82D5FA;" d="M127.316,29.108v0.059c-0.498-0.014-1.046,0.059-1.524-0.059H127.316z"/>
	<path style="fill:#38BCF7;" d="M162.432,89.242c-2.401,10.087-7.674,19.66-16.844,24.978c-10.971,6.362-27.911,6.444-39.3,1.114
		c-4.771-2.233-8.879-5.53-12.654-9.152c-4.961-4.76-9.84-11.057-16.678-13.101c-3.847-1.15-8.148-1.297-12.031-0.247
		c-6.228,1.683-11.105,6.185-14.936,11.178c2.482-10.488,8.079-20.326,17.82-25.526c11.388-6.079,28.746-5.754,40.082,0.314
		c7.37,3.945,11.788,9.603,17.723,15.103c5.494,5.091,10.948,7.932,18.731,7.12C151.942,100.231,157.992,95.088,162.432,89.242z"/>
</g>
</svg>
