<?xml version="1.0" encoding="iso-8859-1"?>
<!-- Generator: Adobe Illustrator 29.7.1, SVG Export Plug-In . SVG Version: 9.03 Build 0)  -->
<svg version="1.1" id="Layer_1" xmlns="http://www.w3.org/2000/svg" xmlns:xlink="http://www.w3.org/1999/xlink" x="0px" y="0px"
	 viewBox="0 0 250 150" style="enable-background:new 0 0 250 150;" xml:space="preserve">
<g>
	<path style="fill:#FF2D20;" d="M64.746,27.687l25.236-14.799l25.057,14.523v50.578l19.806-10.59l0.369-26.995l25.282-14.297
		l23.933,13.71l0.825,1.939l-0.133,27.006l-22.989,13.761c-0.769,1.322,0.22,20.774-0.094,24.509
		c-0.089,1.06-0.028,2.318-0.965,3.048l-47.409,27.031l-48.918-28.169V27.687z M109.51,27.696L89.895,16.828L71.173,27.641
		l-0.346,1.144l19.062,10.475c1.077,0,16.814-8.988,18.912-10.333C109.342,28.579,109.787,28.983,109.51,27.696z M179.699,40.96
		l-19.616-10.868c-5.685,3.724-12.137,6.458-17.796,10.199c-0.581,0.384-1.412,0.579-1.279,1.485l19.068,10.746L179.699,40.96z
		 M68.615,31.557v75.452l43.108,25.151v-22.387L88.791,96.226l-0.27-53.224L68.615,31.557z M111.723,31.557L91.827,42.888v48.919
		l19.896-11.055V31.557z M158.146,77.989V56.155c-6.113-4.184-12.841-7.699-19.343-11.332v22.663L158.146,77.989z M181.911,44.823
		l-19.896,11.332v21.834c6.874-3.24,13.61-7.174,19.896-11.332V44.823z M156.484,81.313l-20.07-10.947L94.758,94.445l-0.718,1.224
		l19.524,10.39L156.484,81.313z M158.146,85.175l-43.108,24.598v21.834l2.053-0.434l41.054-24.164V85.175z"/>
</g>
</svg>
