<?xml version="1.0" encoding="iso-8859-1"?>
<!-- Generator: Adobe Illustrator 29.7.1, SVG Export Plug-In . SVG Version: 9.03 Build 0)  -->
<svg version="1.1" id="Layer_1" xmlns="http://www.w3.org/2000/svg" xmlns:xlink="http://www.w3.org/1999/xlink" x="0px" y="0px"
	 viewBox="0 0 250 150" style="enable-background:new 0 0 250 150;" xml:space="preserve">
<g id="TRi7tC_00000148640962185436039300000003526594898987388347_">
	<g>
		<path style="fill:#FEFEFE;" d="M179.188,20.812v108.377H70.812V20.812H179.188z M111.374,56.937L72.925,32.432l0.25,44.852
			l0.393,0.452l13.088,8.567V56.937l24.717,15.845l24.717-15.845v15.845c-0.496,0.144-1.032,0.471-1.461,0.758
			c-7.106,4.759-14.705,9.151-21.677,14.026c-0.436,0.305-1.105,0.615-1.369,1.061c-0.14,0.237-0.305,0.362-0.225,0.717
			l0.121,15.126l26.934,17.325c0.009,0.19-0.1,0.581,0.105,0.633l37.937-24.596c0.173-0.239,0.388-2.638,0.417-3.175
			c0.24-4.49-0.186-9.061-0.229-13.521c-0.048-4.965,0.14-9.944-0.096-14.901l-13.31,8.873l-0.214,15.631l-24.61,15.846
			l-0.432-0.727c-4.84-3.049-9.555-6.311-14.356-9.414l25.95-16.83c0.354-4.971,0.286-9.982,0.255-14.973
			c-0.003-0.55-0.227-1.068-0.23-1.671c-0.045-10.184,0.313-20.354,0.22-30.536l-0.752,0.197L111.374,56.937z M176.653,34.755
			l-13.521,8.979v15.528l13.521-8.979V34.755z"/>
		<path style="fill:#0388D0;" d="M111.374,56.937l37.696-24.309l0.752-0.197c0.093,10.182-0.265,20.352-0.22,30.536
			c0.003,0.603,0.227,1.121,0.23,1.671c0.032,4.991,0.099,10.002-0.255,14.973l-25.95,16.83c-4.011-2.592-8.217-4.954-12.042-7.817
			c0.264-0.446,0.932-0.756,1.369-1.061c6.971-4.876,14.571-9.267,21.677-14.026c0.428-0.287,0.965-0.614,1.461-0.758V56.937
			l-24.717,15.845V56.937z"/>
		<polygon style="fill:#2AB6F5;" points="111.374,56.937 111.374,72.782 86.656,56.937 86.656,86.302 73.569,77.736 73.175,77.284 
			72.925,32.432 		"/>
		<path style="fill:#0388D0;" d="M138.415,106.583l24.61-15.846l0.214-15.631l13.31-8.873c0.235,4.957,0.048,9.936,0.096,14.901
			c0.043,4.46,0.468,9.031,0.229,13.521c-0.029,0.536-0.244,2.935-0.417,3.175l-37.937,24.596c-0.204-0.052-0.095-0.443-0.105-0.633
			C138.172,116.794,138.596,111.604,138.415,106.583z"/>
		<path style="fill:#29B5F5;" d="M123.627,96.443c4.801,3.102,9.516,6.364,14.356,9.414l0.432,0.727
			c0.181,5.02-0.243,10.21,0,15.211l-26.934-17.325l-0.121-15.126c-0.08-0.355,0.085-0.481,0.225-0.717
			C115.41,91.489,119.616,93.851,123.627,96.443z"/>
		<polygon style="fill:#0489D1;" points="176.653,34.755 176.653,50.283 163.132,59.261 163.132,43.733 		"/>
	</g>
</g>
</svg>
