<?xml version="1.0" encoding="iso-8859-1"?>
<!-- Generator: Adobe Illustrator 29.7.1, SVG Export Plug-In . SVG Version: 9.03 Build 0)  -->
<svg version="1.1" id="Layer_1" xmlns="http://www.w3.org/2000/svg" xmlns:xlink="http://www.w3.org/1999/xlink" x="0px" y="0px"
	 viewBox="0 0 250 150" style="enable-background:new 0 0 250 150;" xml:space="preserve">
<g id="g4" transform="translate(-44.632 -141.55)">
	<g id="g6" transform="matrix(8.3528 0 0 8.3119 -727.13 -3759.5)">
		<path id="path8" d="M99.498,475.637h2.771c0.813,0.007,1.403,0.241,1.768,0.703c0.365,0.462,0.486,1.092,0.362,1.892
			c-0.048,0.365-0.155,0.724-0.32,1.075c-0.159,0.352-0.379,0.669-0.662,0.951c-0.345,0.358-0.713,0.586-1.106,0.682
			c-0.393,0.096-0.8,0.145-1.22,0.145h-1.241l-0.393,1.964h-1.437L99.498,475.637 M100.707,476.816l-0.62,3.102
			c0.041,0.007,0.083,0.01,0.124,0.01h0.145c0.662,0.007,1.213-0.059,1.654-0.196c0.441-0.145,0.737-0.648,0.889-1.509
			c0.124-0.724,0-1.141-0.372-1.251c-0.365-0.11-0.824-0.162-1.375-0.155c-0.083,0.007-0.162,0.01-0.238,0.01
			c-0.069,0-0.141,0-0.217,0L100.707,476.816"/>
		<path id="path10" d="M106.035,473.663h1.427l-0.403,1.975h1.282c0.703,0.014,1.227,0.159,1.571,0.434
			c0.352,0.276,0.455,0.799,0.31,1.571l-0.693,3.443h-1.447l0.662-3.288c0.069-0.345,0.048-0.589-0.062-0.734
			c-0.11-0.145-0.348-0.217-0.713-0.217l-1.148-0.01l-0.848,4.249h-1.427L106.035,473.663"/>
		<path id="path12" d="M111.755,475.637h2.771c0.813,0.007,1.403,0.241,1.768,0.703c0.365,0.462,0.486,1.092,0.362,1.892
			c-0.048,0.365-0.155,0.724-0.32,1.075c-0.159,0.352-0.379,0.669-0.662,0.951c-0.345,0.358-0.713,0.586-1.106,0.682
			s-0.8,0.145-1.22,0.145h-1.241l-0.393,1.964h-1.437L111.755,475.637 M112.964,476.816l-0.62,3.102
			c0.041,0.007,0.083,0.01,0.124,0.01h0.145c0.662,0.007,1.213-0.059,1.654-0.196c0.441-0.145,0.737-0.648,0.889-1.509
			c0.124-0.724,0-1.141-0.372-1.251c-0.365-0.11-0.824-0.162-1.375-0.155c-0.083,0.007-0.162,0.01-0.238,0.01
			c-0.069,0-0.141,0-0.217,0L112.964,476.816"/>
	</g>
</g>
</svg>
