<?xml version="1.0" encoding="iso-8859-1"?>
<!-- Generator: Adobe Illustrator 29.7.1, SVG Export Plug-In . SVG Version: 9.03 Build 0)  -->
<svg version="1.1" id="Layer_1" xmlns="http://www.w3.org/2000/svg" xmlns:xlink="http://www.w3.org/1999/xlink" x="0px" y="0px"
	 viewBox="0 0 250 150" style="enable-background:new 0 0 250 150;" xml:space="preserve">
<g>
	<path style="fill:#FEFEFE;" d="M180.885,78.378v52.517H69.105V19.105h111.78v53.389c-0.415-5.369-2.538-15.717-5.888-19.934
		c-3.889-4.895-8.19-4.675-13.94-4.69c-1.441-0.004-4.078-0.231-5.338,0c-0.181,0.033-0.545,0.174-0.545,0.327v13.511
		c0,4.062-4.712,9.853-8.062,11.876c-2.464,1.488-5.196,2.25-8.062,2.397c-2.41,0.124-4.975-0.021-7.408,0
		c-3.192,0.027-6.395-0.02-9.587,0c-3.962,0.025-8.081-0.25-11.984,0.218c-6.155,0.738-10.867,5.252-11.774,11.433
		c0.489,8.972-0.622,18.579-0.002,27.475c0.457,6.557,6.705,9.859,12.212,11.649c3.672,1.193,7.645,2.165,11.548,2.397
		c5.046,0.3,9.354-0.382,14.163-1.525c4.357-1.035,8.119-1.974,11.651-5.018c1.68-1.448,4.037-4.8,4.037-7.076v-11.44
		c-5.226-0.008-10.462,0.011-15.688,0c-3.701-0.008-7.412,0.006-11.113,0v-3.269c2.176-0.004,4.361,0.006,6.537,0
		c2.176-0.006,4.361,0.003,6.537,0c3.12-0.005,6.25,0.01,9.369,0c4.498-0.015,9.013,0.068,13.509,0
		c5.051-0.077,9.273,0.452,12.967-3.702C177.422,93.3,180.448,83.448,180.885,78.378z M112.03,21.066
		c-3.494,0.577-7.991,1.622-10.679,4.029c-4.846,4.34-2.804,13.68-3.267,19.507c4.573,0.004,9.156-0.009,13.728-0.001
		c4.427,0.007,8.864-0.006,13.292,0v3.269c-3.047,0.007-6.104-0.009-9.152,0c-3.628,0.011-7.266-0.01-10.895,0
		c-5.318,0.014-10.834-0.199-16.124,0c-5.276,0.199-9.824,1.346-13.503,5.345c-7.995,8.688-7.633,33.93-0.117,42.817
		c3.86,4.564,7.576,4.704,13.185,4.792c2.102,0.033,4.216-0.024,6.319,0V86.549c0-4.685,6.502-11.144,10.677-12.748
		c3.448-1.325,6.65-1.042,10.241-1.09c4.353-0.058,8.72,0.026,13.074,0c4.085-0.025,9.89,0.522,13.675-0.598
		c5.269-1.559,9.076-6.45,9.433-11.922c0.554-8.504-0.442-17.601-0.002-26.168c-1.355-11.625-13.027-13.437-22.669-13.829
		C123.73,19.97,117.467,20.169,112.03,21.066z"/>
	<path style="fill:#FECA3A;" d="M180.885,72.494v0.654c-0.366,1.187-0.365,2.97,0,4.14c-0.021,0.358,0.031,0.733,0,1.09
		c-0.436,5.07-3.463,14.923-6.861,18.743c-3.694,4.154-7.917,3.625-12.967,3.702V47.87c5.75,0.015,10.051-0.204,13.94,4.69
		C178.347,56.777,180.47,67.125,180.885,72.494z"/>
	<path style="fill:#FED653;" d="M180.885,77.288c-0.365-1.17-0.366-2.954,0-4.14V77.288z"/>
	<path style="fill:#366C99;" d="M128.808,72.712l0.436-52.517c9.642,0.392,21.314,2.204,22.669,13.829
		c-0.44,8.567,0.556,17.665,0.002,26.168c-0.356,5.473-4.163,10.363-9.433,11.922C138.699,73.234,132.893,72.687,128.808,72.712z"/>
	<path style="fill:#3777AC;" d="M88.933,47.87l-0.436,52.953c-5.609-0.087-9.325-0.227-13.185-4.792
		c-7.515-8.886-7.877-34.128,0.117-42.817C79.11,49.215,83.658,48.068,88.933,47.87z"/>
	<path style="fill:#366F9F;" d="M129.244,20.195l-0.436,52.517c-4.354,0.026-8.721-0.058-13.074,0l0.218-24.842
		c3.047-0.009,6.104,0.007,9.152,0v-3.269c-4.427-0.006-8.864,0.007-13.292,0l0.218-6.973c3.909-1.62,3.866-7.564,0-9.152v-7.409
		C117.467,20.169,123.73,19.97,129.244,20.195z"/>
	<path style="fill:#3674A7;" d="M105.058,47.87c-0.339,8.294-0.181,16.635-0.229,24.961l0.665,0.971
		c-4.175,1.604-10.677,8.063-10.677,12.748v14.273c-2.103-0.024-4.217,0.033-6.319,0l0.436-52.953
		C94.224,47.671,99.739,47.884,105.058,47.87z"/>
	<path style="fill:#FED44E;" d="M122.053,75.981v53.171c-3.904-0.232-7.877-1.204-11.548-2.397l-0.451-1.402l0.015-49.154
		C113.973,75.73,118.092,76.005,122.053,75.981z"/>
	<path style="fill:#FED14A;" d="M131.641,75.981v24.842c-2.176,0.006-4.361-0.004-6.537,0v3.269c3.701,0.006,7.412-0.008,11.113,0
		c0.277,1.995-0.374,5.008-0.002,6.866c0.083,0.413,0.378,0.522,0.656,0.761c-2.286,1.791-2.263,6.071,0,7.845
		c-0.278,0.239-0.573,0.348-0.656,0.761c-0.395,1.973,0.296,5.184,0.002,7.302c-4.809,1.143-9.117,1.825-14.163,1.525V75.981
		C125.246,75.961,128.449,76.008,131.641,75.981z"/>
	<path style="fill:#FECC40;" d="M161.056,47.87v52.953c-4.497,0.068-9.012-0.015-13.509,0l0.01-26.05l-0.446-1.189
		c3.35-2.023,8.062-7.815,8.062-11.876V48.197c0-0.153,0.364-0.294,0.545-0.327C156.979,47.639,159.615,47.866,161.056,47.87z"/>
	<path style="fill:#FED653;" d="M110.069,76.199l-0.015,49.154l0.451,1.402c-5.507-1.79-11.755-5.091-12.212-11.649
		c-0.62-8.896,0.491-18.503,0.002-27.475C99.202,81.451,103.914,76.937,110.069,76.199z"/>
	<path style="fill:#3671A2;" d="M115.952,47.87l-0.218,24.842c-3.591,0.048-6.793-0.236-10.241,1.09l-0.665-0.971
		c0.048-8.327-0.11-16.667,0.229-24.961C108.686,47.86,112.324,47.881,115.952,47.87z"/>
	<path style="fill:#FECE44;" d="M136.217,104.092c5.226,0.011,10.462-0.008,15.688,0v11.44c0,2.276-2.357,5.628-4.037,7.076
		c-3.532,3.044-7.294,3.983-11.651,5.018c0.294-2.118-0.397-5.329-0.002-7.302c0.083-0.413,0.378-0.522,0.656-0.761
		c3.355,2.63,8.361,0.259,8.296-4.034c-0.063-4.149-5.067-6.34-8.296-3.811c-0.278-0.239-0.573-0.348-0.656-0.761
		C135.843,109.1,136.494,106.086,136.217,104.092z"/>
	<path style="fill:#FECF44;" d="M147.547,100.823c-3.12,0.01-6.25-0.005-9.369,0c0.071-7.981-0.144-16.012,0.11-23.969l0.762-0.873
		c2.866-0.147,5.598-0.909,8.062-2.397l0.446,1.189L147.547,100.823z"/>
	<path style="fill:#3874A5;" d="M112.03,21.066v7.409c-2.393-0.983-5.458,0.04-6.625,2.418c-2.086,4.254,2.384,8.492,6.625,6.734
		l-0.218,6.973c-4.573-0.008-9.155,0.005-13.728,0.001c0.463-5.826-1.579-15.167,3.267-19.507
		C104.039,22.688,108.536,21.643,112.03,21.066z"/>
	<path style="fill:#FED047;" d="M139.049,75.981l-0.762,0.873c-0.254,7.957-0.038,15.988-0.11,23.969
		c-2.176,0.003-4.361-0.006-6.537,0V75.981C134.074,75.96,136.64,76.104,139.049,75.981z"/>
	<path style="fill:#FCFDFD;" d="M112.03,28.475c3.866,1.588,3.909,7.532,0,9.152c-4.241,1.757-8.711-2.481-6.625-6.734
		C106.572,28.516,109.637,27.493,112.03,28.475z"/>
	<path style="fill:#FEFEFE;" d="M136.87,119.563c-2.263-1.774-2.286-6.053,0-7.845c3.228-2.53,8.232-0.338,8.296,3.811
		C145.232,119.823,140.225,122.193,136.87,119.563z"/>
</g>
</svg>
