<?xml version="1.0" encoding="iso-8859-1"?>
<!-- Generator: Adobe Illustrator 29.6.1, SVG Export Plug-In . SVG Version: 9.03 Build 0)  -->
<svg version="1.1" id="Layer_1" xmlns="http://www.w3.org/2000/svg" xmlns:xlink="http://www.w3.org/1999/xlink" x="0px" y="0px"
	 viewBox="0 0 140 100" style="enable-background:new 0 0 140 100;" xml:space="preserve">
<g>
	<g>
		<path style="fill:#FFFFFF;" d="M32.216,75.33v1.081c0,0.785-0.269,1.382-0.808,1.793c-0.415,0.315-0.961,0.486-1.636,0.513v0.007
			h-1.088c-0.767,0-1.382-0.183-1.848-0.548c-0.534-0.42-0.801-1.022-0.801-1.807v-1.485l0.116-0.096l0.055-0.041l0.267-0.212
			l0.226-0.178l0.506-0.404v2.402c0,0.415,0.123,0.716,0.37,0.903c0.246,0.192,0.611,0.287,1.095,0.287h0.91
			c0.493,0,0.86-0.089,1.102-0.267c0.219-0.164,0.338-0.422,0.356-0.773h-2.416v-1.362c0-0.739,0.171-1.339,0.513-1.8
			c0.356-0.479,0.853-0.755,1.492-0.828l0.157-0.021l0.349-0.041v1.17l-0.267,0.041l-0.123,0.014
			c-0.319,0.046-0.554,0.187-0.705,0.424c-0.155,0.242-0.233,0.584-0.233,1.027v0.198H32.216z M28.438,79.231
			c0.173,0,0.322,0.062,0.445,0.185c0.123,0.123,0.185,0.272,0.185,0.445c0,0.169-0.062,0.315-0.185,0.438
			c-0.123,0.123-0.272,0.185-0.445,0.185c-0.169,0-0.315-0.062-0.438-0.185c-0.123-0.123-0.185-0.269-0.185-0.438
			c0-0.173,0.062-0.322,0.185-0.445C28.123,79.292,28.269,79.231,28.438,79.231z M29.807,79.231c0.173,0,0.322,0.062,0.445,0.185
			c0.123,0.123,0.185,0.272,0.185,0.445c0,0.169-0.062,0.315-0.185,0.438c-0.123,0.123-0.272,0.185-0.445,0.185
			c-0.173,0-0.319-0.062-0.438-0.185c-0.123-0.123-0.185-0.269-0.185-0.438c0-0.173,0.062-0.322,0.185-0.445
			C29.487,79.292,29.633,79.231,29.807,79.231z"/>
		<path style="fill:#FFFFFF;" d="M36.411,75.966v1.198H35.61c-0.119,0.438-0.322,0.785-0.609,1.04
			c-0.342,0.306-0.798,0.479-1.369,0.52c-0.173,0.014-0.31,0.02-0.411,0.02c-0.069,0-0.137-0.002-0.205-0.007l-0.13-0.007
			l-0.294-0.02v-1.17l0.335,0.02l0.151,0.014h0.13c0.077,0,0.187-0.005,0.329-0.014c0.369-0.032,0.627-0.146,0.773-0.342
			c0.16-0.214,0.24-0.573,0.24-1.074v-3.648h1.184v3.47H36.411z"/>
		<path style="fill:#FFFFFF;" d="M58.844,75.966v1.198h-3.141v-1.198h0.979v-3.162l0.007-0.308h1.177v3.47H58.844z M56.531,77.67
			c0.173,0,0.322,0.062,0.445,0.185c0.119,0.123,0.178,0.271,0.178,0.445c0,0.169-0.059,0.315-0.178,0.438
			c-0.123,0.123-0.272,0.185-0.445,0.185c-0.174,0-0.322-0.062-0.445-0.185c-0.123-0.123-0.185-0.269-0.185-0.438
			c0-0.173,0.062-0.322,0.185-0.445C56.209,77.732,56.357,77.67,56.531,77.67z M58.016,77.67c0.173,0,0.322,0.062,0.445,0.185
			c0.123,0.123,0.185,0.271,0.185,0.445c0,0.169-0.062,0.315-0.185,0.438c-0.123,0.123-0.272,0.185-0.445,0.185
			c-0.173,0-0.322-0.062-0.445-0.185c-0.119-0.123-0.178-0.269-0.178-0.438c0-0.173,0.059-0.322,0.178-0.445
			C57.694,77.732,57.842,77.67,58.016,77.67z"/>
		<path style="fill:#FFFFFF;" d="M60.712,69.622v7.542h-1.868v-1.198h0.684v-6.344H60.712z"/>
		<path style="fill:#FFFFFF;" d="M62.752,69.622v6.344h0.684v1.198h-1.868v-7.542H62.752z"/>
		<path style="fill:#FFFFFF;" d="M68.09,75.966v1.198h-4.654v-1.198h0.725v-0.821c0-0.766,0.182-1.382,0.548-1.848
			c0.42-0.534,1.022-0.801,1.807-0.801h1.129v1.17H66.53c-0.415,0-0.716,0.123-0.903,0.37c-0.187,0.246-0.281,0.611-0.281,1.095
			v0.835H68.09z M66.393,70.347c0.173,0,0.319,0.062,0.438,0.185c0.123,0.123,0.185,0.272,0.185,0.445
			c0,0.174-0.062,0.319-0.185,0.438c-0.119,0.123-0.265,0.185-0.438,0.185c-0.173,0-0.322-0.062-0.445-0.185
			c-0.123-0.119-0.185-0.264-0.185-0.438c0-0.173,0.062-0.322,0.185-0.445C66.071,70.409,66.219,70.347,66.393,70.347z"/>
		<path style="fill:#FFFFFF;" d="M78.999,77.164h-2.293v-0.315c-0.119,0.078-0.242,0.141-0.369,0.192
			c-0.228,0.087-0.465,0.13-0.712,0.13c-0.059,0-0.121-0.002-0.185-0.007c-0.123,0.406-0.315,0.737-0.575,0.992
			c-0.393,0.388-0.908,0.582-1.547,0.582c-0.789,0-1.385-0.287-1.786-0.862c-0.328-0.465-0.493-1.077-0.493-1.834V74.55l0.123-0.096
			l0.055-0.041l0.281-0.212l0.219-0.171l0.506-0.376v2.402c0,0.497,0.087,0.876,0.26,1.136c0.173,0.26,0.452,0.39,0.835,0.39
			c0.383,0,0.661-0.128,0.835-0.383c0.173-0.255,0.262-0.627,0.267-1.116V73.14h0.007v-0.636h1.184v3.456
			c0.306-0.037,0.55-0.123,0.732-0.26c0.224-0.173,0.344-0.44,0.363-0.801v-2.402h1.184v3.477h1.109v-3.477h1.17v3.47h0.712v1.198
			H80.17"/>
		<path style="fill:#FFFFFF;" d="M97.959,75.966v-6.344h1.184v6.344h0.684v1.198h-2.553v-1.198H97.959z"/>
		<path style="fill:#FFFFFF;" d="M106.876,72.496v4.668h-7.049v-1.198h0.985v-6.344h1.184v3.155
			c0.342-0.187,0.739-0.281,1.191-0.281H106.876z M105.699,73.667h-2.498c-0.415,0-0.719,0.123-0.91,0.37
			c-0.187,0.246-0.281,0.611-0.281,1.095v0.849h3.689V73.667z"/>
		<path style="fill:#FFFFFF;" d="M109.087,69.622v7.542h-1.184v-7.542H109.087z"/>
	</g>
	<rect x="80.65" y="75.966" style="fill:#FFFFFF;" width="16.624" height="1.198"/>
	<rect x="36.411" y="75.966" style="fill:#FFFFFF;" width="20.291" height="1.198"/>
	<g>
		<g>
			<path style="fill:#FFFFFF;" d="M41.727,53.287c3.947,1.142,8.099-0.149,11.296-2.581c3.554-2.703,5.895-6.626,8.141-10.403
				c0.419-0.704-0.62-1.274-1.079-0.631c-1.552,2.172-2.958,4.442-4.185,6.814c-0.762,1.474-2.341,3.769-1.623,5.53
				c0.919,2.254,3.362,0.178,4.484-0.66c2.43-1.815,4.859-3.63,7.289-5.445c-0.313-0.18-0.627-0.36-0.94-0.54
				c-0.309,2.348,2.284,4.335,4.473,3.439c0.734-0.301,0.413-1.511-0.332-1.205c-1.489,0.61-3.1-0.638-2.891-2.234
				c0.059-0.451-0.583-0.807-0.94-0.54c-1.707,1.275-3.415,2.551-5.122,3.826c-0.919,0.687-1.839,1.373-2.758,2.06
				c-0.263,0.196-0.819,0.749-1.143,0.838c-1.261,0.347-1.074-0.516-0.932-1.112c0.413-1.741,1.595-3.541,2.468-5.088
				c0.984-1.744,2.069-3.425,3.233-5.054c-0.36-0.21-0.72-0.421-1.079-0.631c-3.699,6.221-9.468,14.885-18.025,12.41
				C41.285,51.857,40.955,53.063,41.727,53.287L41.727,53.287z"/>
		</g>
	</g>
	<g>
		<g>
			<path style="fill:#FFFFFF;" d="M63.117,33.888c-0.038,0.126-0.075,0.253-0.113,0.379c-0.199,0.67,0.812,1.117,1.142,0.482
				c4.829-9.287,10.525-18.104,17.026-26.308C80.818,8.294,80.462,8.147,80.106,8c-1.234,10.17-2.826,20.319-3.241,30.568
				c-0.099,2.447-0.195,4.921,0.031,7.364c0.155,1.683,0.321,3.674,1.354,5.074c1.743,2.364,5.2,2.448,7.171,0.355
				c0.551-0.585-0.331-1.471-0.884-0.884c-1.09,1.157-2.719,1.52-4.156,0.76c-1.561-0.825-1.862-2.566-2.101-4.162
				c-0.629-4.211-0.217-8.663,0.081-12.887C78.979,25.418,80.298,16.721,81.356,8c0.063-0.519-0.742-0.852-1.067-0.442
				c-6.57,8.29-12.341,17.176-17.222,26.561c0.381,0.161,0.762,0.321,1.142,0.482c0.038-0.126,0.075-0.253,0.113-0.379
				C64.553,33.448,63.347,33.118,63.117,33.888L63.117,33.888z"/>
		</g>
	</g>
	<g>
		<path style="fill:#FFFFFF;" d="M25.973,89.442l3.048-7.473l3.048,7.473h-1.111l-0.224-0.592h-3.416l-0.234,0.592H25.973z
			 M27.686,87.893h2.671l-1.335-3.426L27.686,87.893z"/>
		<path style="fill:#FFFFFF;" d="M36.697,83.631h-0.979v5.831h-1.05v-5.831H33.68v-1.05h0.989v-1.998h1.05v1.998h0.979V83.631z"/>
		<path style="fill:#FFFFFF;" d="M38.471,80.501h1.05v8.9h-1.05V80.501z"/>
		<path style="fill:#FFFFFF;" d="M41.285,89.442l3.048-7.473l3.048,7.473H46.27l-0.224-0.592H42.63l-0.234,0.592H41.285z
			 M42.998,87.893h2.671l-1.335-3.426L42.998,87.893z"/>
		<path style="fill:#FFFFFF;" d="M53.09,85.731c0.048,0.034,0.092,0.073,0.133,0.117c0.041,0.044,0.078,0.086,0.112,0.127
			c0.156,0.197,0.278,0.413,0.367,0.647s0.133,0.481,0.133,0.739c0,0.062-0.004,0.108-0.01,0.143
			c-0.021,0.381-0.136,0.724-0.347,1.029c-0.19,0.286-0.435,0.512-0.734,0.679c-0.299,0.166-0.632,0.249-0.999,0.249h-0.673
			c-0.367,0-0.7-0.083-1-0.249c-0.299-0.167-0.543-0.393-0.734-0.679c-0.054-0.081-0.109-0.176-0.163-0.285l0.948-0.733
			c0.021,0.129,0.062,0.249,0.127,0.361c0.064,0.112,0.144,0.211,0.24,0.296c0.095,0.085,0.204,0.151,0.326,0.198
			c0.122,0.048,0.251,0.072,0.387,0.072h0.408c0.279,0,0.52-0.091,0.724-0.271c0.204-0.18,0.327-0.402,0.367-0.668
			c0-0.027,0.001-0.055,0.005-0.081c0.003-0.027,0.005-0.055,0.005-0.082c0-0.149-0.027-0.289-0.082-0.418
			c-0.055-0.129-0.129-0.243-0.224-0.342c-0.095-0.098-0.208-0.178-0.336-0.239c-0.129-0.062-0.265-0.095-0.408-0.102h-0.582h-0.041
			c-0.251-0.007-0.488-0.057-0.708-0.148c-0.221-0.092-0.42-0.216-0.596-0.372c-0.096-0.067-0.177-0.149-0.245-0.244
			c-0.156-0.197-0.278-0.413-0.367-0.647s-0.133-0.48-0.133-0.739v-0.143c0.034-0.388,0.153-0.73,0.357-1.03
			c0.19-0.285,0.435-0.511,0.734-0.678c0.299-0.166,0.632-0.249,0.999-0.249h0.663c0.367,0,0.702,0.083,1.004,0.249
			c0.302,0.167,0.549,0.393,0.739,0.678c0.021,0.034,0.042,0.072,0.066,0.112c0.024,0.041,0.046,0.078,0.066,0.112l-0.928,0.724
			c-0.061-0.244-0.19-0.448-0.387-0.611c-0.197-0.163-0.425-0.245-0.683-0.245h-0.408c-0.136,0-0.267,0.024-0.393,0.072
			c-0.126,0.047-0.236,0.113-0.331,0.198c-0.096,0.085-0.175,0.186-0.24,0.301c-0.065,0.115-0.107,0.238-0.127,0.367
			c-0.007,0.027-0.01,0.055-0.01,0.081c0,0.027,0,0.055,0,0.082c0,0.149,0.027,0.289,0.082,0.418
			c0.054,0.129,0.129,0.243,0.224,0.342s0.208,0.178,0.336,0.239c0.129,0.062,0.265,0.095,0.408,0.102h0.582h0.041
			c0.251,0.007,0.488,0.057,0.708,0.148S52.913,85.575,53.09,85.731z"/>
		<path style="fill:#FFFFFF;" d="M67.929,85.517c0.003,0.068,0.005,0.137,0.005,0.204c0,0.096-0.003,0.188-0.01,0.275
			c-0.007,0.089-0.017,0.177-0.03,0.266c-0.062,0.448-0.199,0.868-0.413,1.259c-0.214,0.391-0.482,0.729-0.805,1.014
			c-0.323,0.286-0.692,0.51-1.106,0.673s-0.856,0.245-1.325,0.245c-0.51,0-0.991-0.099-1.442-0.296
			c-0.452-0.197-0.845-0.464-1.178-0.8c-0.333-0.337-0.596-0.73-0.79-1.183c-0.193-0.452-0.291-0.937-0.291-1.453
			s0.097-1,0.291-1.452c0.194-0.452,0.457-0.847,0.79-1.183c0.333-0.337,0.726-0.604,1.178-0.801
			c0.452-0.197,0.933-0.295,1.442-0.295c0.388,0,0.756,0.056,1.106,0.168c0.35,0.112,0.671,0.27,0.963,0.474
			c0.292,0.204,0.552,0.447,0.78,0.729c0.228,0.281,0.413,0.589,0.556,0.922h-1.254c-0.225-0.38-0.525-0.687-0.902-0.917
			c-0.377-0.231-0.793-0.347-1.249-0.347c-0.354,0-0.687,0.071-0.999,0.214s-0.584,0.337-0.815,0.581
			c-0.231,0.245-0.415,0.53-0.551,0.856c-0.136,0.326-0.204,0.677-0.204,1.05c0,0.374,0.068,0.724,0.204,1.05
			c0.136,0.327,0.32,0.612,0.551,0.856c0.231,0.245,0.503,0.438,0.815,0.581c0.312,0.144,0.646,0.215,0.999,0.215
			c0.306,0,0.598-0.055,0.877-0.163c0.278-0.109,0.528-0.261,0.749-0.454s0.408-0.423,0.561-0.688
			c0.153-0.265,0.26-0.55,0.321-0.855h-2.61v-0.959h2.63h1.142C67.92,85.378,67.925,85.449,67.929,85.517z"/>
		<path style="fill:#FFFFFF;" d="M69.544,89.442l3.049-7.473l3.048,7.473h-1.111l-0.224-0.592H70.89l-0.234,0.592H69.544z
			 M71.257,87.893h2.671l-1.335-3.426L71.257,87.893z"/>
		<path style="fill:#FFFFFF;" d="M78.343,88.392h3.047v1.07h-4.139v-7.482h1.092V88.392z"/>
		<path style="fill:#FFFFFF;" d="M84.081,88.361h3.323v1.07h-4.403V81.99h4.332v1.05h-3.252v1.178v0.609v0.741h2.926v1.02h-2.926
			V88.361z"/>
		<path style="fill:#FFFFFF;" d="M94.153,85.364c-0.095,0.306-0.236,0.581-0.423,0.825c-0.188,0.245-0.417,0.452-0.688,0.622
			c-0.014,0.014-0.03,0.024-0.051,0.031s-0.037,0.017-0.051,0.03l1.314,2.589h-1.151l-1.152-2.253
			c-0.081,0.014-0.163,0.024-0.244,0.031c-0.082,0.007-0.17,0.01-0.266,0.01h-1.335v2.212h-1.091V81.97h2.426
			c0.306,0,0.593,0.039,0.861,0.117s0.516,0.185,0.739,0.321c0.551,0.346,0.921,0.832,1.111,1.457
			c0.007,0.034,0.014,0.065,0.021,0.092c0.007,0.027,0.017,0.058,0.03,0.092V84.1c0.014,0.034,0.022,0.072,0.025,0.112
			c0.004,0.041,0.009,0.082,0.016,0.123v0.01c0.007,0.041,0.01,0.081,0.01,0.122s0,0.085,0,0.133v0.01v0.021
			c0,0.041,0,0.082,0,0.123c0,0.04-0.003,0.081-0.01,0.122v0.021c-0.007,0.04-0.012,0.08-0.016,0.117
			c-0.003,0.037-0.012,0.076-0.025,0.117v0.041C94.177,85.245,94.16,85.31,94.153,85.364z M91.574,86.292
			c0.225,0,0.43-0.048,0.617-0.144c0.187-0.095,0.348-0.222,0.483-0.378c0.136-0.157,0.245-0.336,0.326-0.537
			c0.082-0.201,0.123-0.41,0.123-0.629c0-0.211-0.041-0.419-0.123-0.624c-0.081-0.204-0.19-0.383-0.326-0.536
			s-0.297-0.278-0.483-0.373c-0.188-0.096-0.393-0.144-0.617-0.144h-1.458v3.364H91.574z"/>
		<path style="fill:#FFFFFF;" d="M95.867,81.979h1.091v7.473h-1.091V81.979z"/>
		<path style="fill:#FFFFFF;" d="M99.648,88.361h3.323v1.07h-4.403V81.99h4.332v1.05h-3.252v1.178v0.609v0.741h2.926v1.02h-2.926
			V88.361z"/>
		<path style="fill:#FFFFFF;" d="M108.681,85.731c0.048,0.034,0.092,0.073,0.133,0.117s0.078,0.086,0.112,0.127
			c0.156,0.197,0.278,0.413,0.367,0.647c0.088,0.234,0.132,0.481,0.132,0.739c0,0.062-0.003,0.108-0.01,0.143
			c-0.021,0.381-0.136,0.724-0.347,1.029c-0.19,0.286-0.436,0.512-0.734,0.679c-0.299,0.166-0.632,0.249-0.999,0.249h-0.673
			c-0.367,0-0.7-0.083-0.999-0.249c-0.299-0.167-0.544-0.393-0.733-0.679c-0.055-0.081-0.109-0.176-0.163-0.285l0.947-0.733
			c0.021,0.129,0.063,0.249,0.128,0.361s0.145,0.211,0.239,0.296c0.096,0.085,0.204,0.151,0.326,0.198
			c0.123,0.048,0.252,0.072,0.388,0.072h0.408c0.278,0,0.52-0.091,0.724-0.271s0.326-0.402,0.367-0.668
			c0-0.027,0.001-0.055,0.005-0.081c0.003-0.027,0.005-0.055,0.005-0.082c0-0.149-0.027-0.289-0.082-0.418
			c-0.054-0.129-0.129-0.243-0.224-0.342c-0.096-0.098-0.208-0.178-0.337-0.239s-0.265-0.095-0.407-0.102h-0.581h-0.041
			c-0.252-0.007-0.487-0.057-0.709-0.148c-0.221-0.092-0.419-0.216-0.596-0.372c-0.096-0.067-0.177-0.149-0.245-0.244
			c-0.156-0.197-0.278-0.413-0.367-0.647c-0.088-0.234-0.132-0.48-0.132-0.739v-0.143c0.033-0.388,0.152-0.73,0.356-1.03
			c0.19-0.285,0.435-0.511,0.734-0.678c0.299-0.166,0.632-0.249,0.999-0.249h0.662c0.367,0,0.702,0.083,1.005,0.249
			c0.302,0.167,0.548,0.393,0.738,0.678c0.021,0.034,0.043,0.072,0.066,0.112c0.024,0.041,0.046,0.078,0.066,0.112l-0.928,0.724
			c-0.062-0.244-0.19-0.448-0.388-0.611s-0.425-0.245-0.683-0.245h-0.408c-0.136,0-0.267,0.024-0.392,0.072
			c-0.126,0.047-0.236,0.113-0.332,0.198c-0.095,0.085-0.175,0.186-0.239,0.301s-0.107,0.238-0.128,0.367
			c-0.007,0.027-0.01,0.055-0.01,0.081c0,0.027,0,0.055,0,0.082c0,0.149,0.027,0.289,0.082,0.418
			c0.054,0.129,0.129,0.243,0.224,0.342c0.096,0.099,0.207,0.178,0.337,0.239c0.129,0.062,0.265,0.095,0.407,0.102h0.581h0.041
			c0.251,0.007,0.487,0.057,0.709,0.148C108.306,85.451,108.504,85.575,108.681,85.731z"/>
	</g>
</g>
</svg>
