<?xml version="1.0" encoding="iso-8859-1"?>
<!-- Generator: Adobe Illustrator 29.6.1, SVG Export Plug-In . SVG Version: 9.03 Build 0)  -->
<svg version="1.1" id="Layer_1" xmlns="http://www.w3.org/2000/svg" xmlns:xlink="http://www.w3.org/1999/xlink" x="0px" y="0px"
	 viewBox="0 0 140 100" style="enable-background:new 0 0 140 100;" xml:space="preserve">
<path style="fill:#FFFFFF;" d="M113.263,15.588c0.434,0.242,1.984,1.046,2.232,1.293c0.043,0.043,0.112,0.068,0.143,0.132
	c0.168,0.436-0.041,0.908-0.05,1.325c-0.034,1.449-0.01,2.867-0.087,4.31c-1.564,29.316-18.637,57.154-43.852,71.943
	c-0.363,0.213-1.194,0.752-1.525,0.865c-0.115,0.039-0.191,0.085-0.307-0.002c-16.901-9.658-30.498-24.796-38.185-42.715
	c-4.236-9.874-6.781-20.729-7.283-31.468c-0.066-1.413,0.08-2.845-0.052-4.257c0.188-0.113,0.348-0.275,0.535-0.387
	c9.227-5.55,21.083-9.529,31.727-11.147C75.724,2.57,96.336,6.15,113.263,15.588z M111.8,17.601
	C86.284,3.663,53.582,3.545,28.117,17.624c-0.224,0.124-1.181,0.619-1.251,0.764c-0.154,1.888,0.078,3.762,0.229,5.635
	c2.11,26.325,16.15,50.657,37.975,65.454c0.575,0.39,4.645,3.051,4.939,3.026c0.069-0.006,0.523-0.233,0.634-0.291
	c1.564-0.818,3.684-2.31,5.168-3.347c21.49-15.026,35.468-39.804,37.22-66.03l0.093-4.481c-0.397-0.21-0.818-0.399-1.211-0.618
	C111.849,17.7,111.829,17.618,111.8,17.601z"/>
<path style="fill:#FFFFFF;" d="M79.709,32.099c0.152,0.088,0.349,0.077,0.512,0.177c1.865,1.138,3.563,2.614,5.069,4.19
	c4.836,0.558,9.901,1.328,14.406,3.268c1.626,0.7,3.213,1.561,4.535,2.747c-0.398-0.013-0.718-0.332-1.049-0.461
	c-5.222-2.044-11.739-2.65-17.318-3.02c-14.183-0.939-28.396,0.222-42.507,1.468l-6.459,0.731l4.345-0.922
	c10.313-2.125,20.773-3.765,31.334-4.12c2.335-0.078,4.681-0.068,7.012,0.094c0.129-0.1-0.509-0.65-0.618-0.73
	c-10.119-7.358-24.01-4.673-34.623,0.073c-1.058,0.473-2.045,1.109-3.144,1.481l0.854-0.564
	C53.257,30.081,67.613,25.109,79.709,32.099z"/>
<path style="fill:#FFFFFF;" d="M100.785,55.249c-0.63,0.708-1.218,1.037-2.188,1.157c-2.866-0.158-5.958,0.213-8.797,0.004
	c-4.863-0.358-2.822-5.869-3.249-9.119c0.257-1.439,1.369-2.399,2.794-2.611c2.94,0.26,6.479-0.344,9.348-0.002
	c4.226,0.503,2.536,5.875,2.881,8.75C101.484,54.221,101.293,54.678,100.785,55.249z M89.97,53.08
	c0.159,0.187,0.587,0.386,0.841,0.395l6.821-0.05c0.361-0.218,0.755-0.569,0.823-1.009c0.099-0.644,0.112-2.983,0.053-3.662
	c-0.041-0.478-0.584-1.111-1.099-1.144c-2.118,0.159-4.52-0.203-6.603-0.002c-0.6,0.058-1.154,0.545-1.236,1.145
	c-0.09,0.655-0.07,2.623,0.004,3.303C89.601,52.307,89.814,52.897,89.97,53.08z"/>
<path style="fill:#FFFFFF;" d="M38.455,56.407l5.693-11.712l4.799-0.022l5.814,11.733H51.51l-1.155-2.143l-0.305-0.153l-7.022,0.046
	l-0.182,0.113l-1.047,2.137H38.455z M44.364,51.918h4.672l0.101-0.19c-0.642-1.388-1.322-2.762-2.013-4.128
	c-0.142-0.281-0.139-0.692-0.472-0.808l-2.517,5.033C44.23,51.803,44.315,51.909,44.364,51.918z"/>
<path style="fill:#FFFFFF;" d="M59.068,44.68v7.466c0,0.597,0.592,1.305,1.141,1.516c0.752,0.29,3.936,0.258,4.858,0.177
	c1.374-0.12,1.956-0.694,2.062-2.061c0.177-2.288-0.132-4.793,0.001-7.099h3.023v9.573c0,0.064-0.542,0.987-0.642,1.099
	c-0.673,0.759-1.726,0.996-2.698,1.058c-2.127,0.135-5.306,0.142-7.428,0c-1.009-0.068-1.92-0.279-2.656-1.009
	c-0.127-0.126-0.685-0.993-0.685-1.056V44.68H59.068z"/>
<path style="fill:#FFFFFF;" d="M96.936,30.174c1.032,1.603,2.072,3.281,2.872,5.051c0.322,0.713,0.472,1.525,0.942,2.173
	c0.013,0.07-0.084,0.055-0.137,0.046c-0.539-0.091-1.786-0.748-2.429-0.961c-2.301-0.763-4.69-1.193-7.048-1.746
	c-0.675-1.112-1.357-2.233-2.127-3.283c-0.066-0.091-0.19-0.124-0.23-0.177l-1.678-2.26l6.717-2.917
	c0.254,0.037,1.334,1.435,1.564,1.734C95.962,28.587,96.428,29.385,96.936,30.174z"/>
<polygon style="fill:#FFFFFF;" points="84.994,44.68 84.994,47.658 84.856,47.795 80.047,47.795 80.047,56.407 76.565,56.407 
	76.565,47.795 71.618,47.795 71.71,44.68 "/>
<path style="fill:#FFFFFF;" d="M77.573,68.866c0.03-0.09-0.092-0.199-0.092-0.229v-5.13c0-0.065-0.306-0.606-0.41-0.69
	c-0.443-0.359-1.866-0.405-2.274-0.002c-0.019,0.019-0.248,0.393-0.248,0.417v5.497l-0.137,0.137h-2.015l-0.137-0.137v-5.222
	c0-1.129-2.223-1.264-2.677-0.57c-0.307,0.469-0.153,1.073-0.159,1.574c-0.016,1.45,0.074,2.921-0.096,4.355H67.13v-5.634
	c0-0.514,0.482-1.443,0.884-1.772c1.072-0.879,4.368-0.96,5.312,0.254c0.137,0.024,0.394-0.336,0.552-0.436
	c1.146-0.725,4.083-0.612,5.073,0.393c0.146,0.148,0.729,1.234,0.729,1.378v5.68l-0.137,0.137H77.573z"/>
<path style="fill:#FFFFFF;" d="M103.407,44.221c-0.952-0.417-1.902-0.886-2.911-1.165c-4.402-1.219-10.746-1.541-15.362-1.678
	c-15.326-0.454-30.915,0.219-46.172,1.107c-0.11,0.006-0.692,0.025-0.692-0.05c0.254-0.032,0.527-0.113,0.78-0.137
	c14.676-1.363,29.79-2.704,44.526-2.203c4.93,0.167,14.803,0.871,18.925,3.428C102.807,43.713,103.191,43.934,103.407,44.221z"/>
<path style="fill:#FFFFFF;" d="M85.415,19.068c2.003,0.978,4.915,3.29,6.546,4.86c0.125,0.12,0.574,0.553,0.637,0.643
	c0.055,0.078,0.127,0.092,0.09,0.23l-6.959,2.889c-1.514-1.654-3.298-3.024-5.132-4.31l4.166-4.45l0.167-0.068
	C85.087,18.941,85.258,18.991,85.415,19.068z"/>
<path style="fill:#FFFFFF;" d="M83.253,17.931l-4.259,4.49c-2.573-1.499-5.376-2.632-8.292-3.3l1.068-3.943
	c1.172,0.093,2.389,0.176,3.552,0.377c0.547,0.094,1.252,0.257,1.814,0.385C79.24,16.414,81.234,17.2,83.253,17.931z"/>
<path style="fill:#FFFFFF;" d="M94.122,67.093c-0.229,0.434-1.08,1.14-1.534,1.351c-1.185,0.55-4.712,0.541-6.087,0.425
	c-0.167-0.014-0.336-0.014-0.478-0.117c-0.103-0.143-0.103-0.311-0.117-0.478c-0.144-1.712-0.152-4.99-0.001-6.696
	c0.026-0.293,0.049-0.6,0.411-0.596c2.262,0.208,5.46-0.636,7.247,1.1C94.687,63.174,94.83,65.748,94.122,67.093z M88.2,67.217
	h2.336c0.042,0,0.668-0.213,0.752-0.256c0.937-0.485,1.09-2.612,0.647-3.433c-0.169-0.314-0.871-0.892-1.215-0.892H88.2
	c-0.024,0.067,0.092,0.11,0.092,0.137v4.306C88.292,67.099,88.154,67.184,88.2,67.217z"/>
<path style="fill:#FFFFFF;" d="M56.961,64.606c0.248-2.101,1.735-3.403,3.801-3.619c0.45-0.047,4.078-0.063,4.262,0.046
	c0.072,0.042,0.109,0.149,0.141,0.225l0.001,7.342c-0.101,0.368-1.662,0.332-2.021,0.267c-0.103-0.019-0.171-0.047-0.229-0.137V67.4
	h-3.619c-0.354,0.379,0.079,1.095-0.275,1.466h-1.97c0.03-0.09-0.092-0.199-0.092-0.229C56.961,67.423,56.825,65.755,56.961,64.606z
	 M62.915,62.636h-1.878c-0.273,0-0.978,0.428-1.181,0.651c-0.651,0.714-0.532,1.596-0.697,2.464h3.756V62.636z"/>
<path style="fill:#FFFFFF;" d="M48.991,60.987c-0.03,0.09,0.092,0.199,0.092,0.229v2.886h3.664v-2.886
	c0-0.03,0.121-0.139,0.092-0.229h2.107c-0.03,0.09,0.092,0.199,0.092,0.229v7.42c0,0.03-0.121,0.139-0.092,0.229h-2.107
	c0.03-0.09-0.092-0.199-0.092-0.229v-2.886h-3.664v3.023c-0.09-0.03-0.199,0.092-0.229,0.092h-1.97
	c0.03-0.09-0.092-0.199-0.092-0.229v-7.512l0.137-0.137H48.991z"/>
<path style="fill:#FFFFFF;" d="M70.061,15.091l-1.008,3.665c-2.811-0.658-5.723-0.775-8.611-0.733
	c0.124-0.606-0.011-1.511,0.092-2.062c0.019-0.104,0.03-0.187,0.151-0.215l4.293-0.562L70.061,15.091z"/>
<path style="fill:#FFFFFF;" d="M81.833,60.987h1.924c0.016,0,0.229,0.213,0.229,0.229v7.42c0,0.016-0.213,0.229-0.229,0.229h-1.924
	l-0.137-0.137v-7.604L81.833,60.987z"/>
<path style="fill:#FFFFFF;" d="M58.793,17.976c-0.069,0.224-0.737,0.119-0.961,0.138c-1.919,0.166-3.852,0.415-5.746,0.759
	c-1.19,0.216-2.357,0.584-3.554,0.707l0.016-0.535c3.319-1.229,6.74-2.175,10.198-2.946c0.217,0.132,0.047,0.196,0.047,0.229V17.976
	z"/>
<path style="fill:#FFFFFF;" d="M42.945,21.319l1.465-0.686l2.472-0.962l-0.087,0.508C45.469,20.414,44.237,20.971,42.945,21.319z"/>
</svg>
