<?xml version="1.0" encoding="iso-8859-1"?>
<!-- Generator: Adobe Illustrator 29.6.1, SVG Export Plug-In . SVG Version: 9.03 Build 0)  -->
<svg version="1.1" id="Layer_1" xmlns="http://www.w3.org/2000/svg" xmlns:xlink="http://www.w3.org/1999/xlink" x="0px" y="0px"
	 viewBox="0 0 140 100" style="enable-background:new 0 0 140 100;" xml:space="preserve">
<g id="srwqJJ_00000182525802989462741240000005887963157195109761_">
	<g>
		<path style="fill:#FFFFFF;" d="M123.936,30.536l-0.001,0.462l0.923-0.002l0.005,0.456l0.96,0.116
			c0.08,0.527,0.534,0.432,0.993,0.466l0,0.461l0.923-0.002l0.002,0.459c0.593-0.157,0.505,0.401,0.654,0.466
			c0.144,0.064,0.802,0.081,0.836,0.118l0.004,0.457l0.578-0.002l0.004,0.457l0.912,0.126l0.004,0.457l0.463-0.002l-0.002,0.463
			l0.463-0.002l-0.002,0.463l0.578-0.002l-0.002,1.038l0.457,0.004l0.143,0.901l0.332,0.078l0.106,2.932l1.384-0.001v28.563h-0.922
			V41.823h-1.498v-3.34l-0.46-0.001l-0.141-1.019c-0.516,0.083-0.219-0.405-0.43-0.544l-0.465-0.052l-0.002-0.459l-0.463,0.002
			l0.002-0.463l-0.463,0.002l-0.002-0.459c-0.593,0.157-0.505-0.401-0.654-0.466c-0.144-0.064-0.802-0.081-0.836-0.118l-0.004-0.457
			l-0.578,0.002l0.001-0.463l-0.923,0.002l0.001-0.577l-0.513,0.009c-0.055-0.533-0.535-0.434-0.986-0.469l0-0.461l-0.923,0.002
			l0-0.461l-1.032-0.121l-0.071-0.458l-0.972,0.001l-0.004,0.456l-0.912,0.126l-0.004,0.456l-1.039-0.002l0,0.461
			c-0.451,0.036-0.931-0.064-0.986,0.469l-0.513-0.009l-0.004,0.457l-0.912,0.126l-0.004,0.457l-0.578-0.002l-0.004,0.457
			c-0.18,0.041-0.807,0.064-0.893,0.145c-0.062,0.058-0.018,0.303-0.133,0.385c-0.25,0.178-0.587-0.21-0.466,0.514l-0.463-0.002
			l0.002,0.463l-0.463-0.002l0.002,0.463l-0.459,0.002c0.157,0.594-0.399,0.504-0.466,0.654c-0.093,0.207-0.087,0.705-0.114,0.955
			l-0.46,0.001v3.34h-1.498v8.408h-0.922v-9.329l1.377-0.006l0.113-2.925l0.331-0.079l0.143-0.901l0.455-0.006l0.121-1.031
			l0.457-0.004l-0.002-0.463l0.463,0.002l-0.002-0.463l0.463,0.002l0.004-0.457l0.912-0.126l0.004-0.457l0.578,0.002l0.004-0.457
			c0.034-0.037,0.692-0.054,0.836-0.118c0.149-0.066,0.061-0.623,0.654-0.466l0.002-0.459l0.923,0.002l0-0.461
			c0.459-0.034,0.913,0.061,0.993-0.466l0.96-0.116l0.005-0.456l1.039,0.002l-0.001-0.462H123.936z"/>
		<path style="fill:#FFFFFF;" d="M11.224,51.267l-0.001,0.462l0.923-0.002l0.003,0.458l0.558,0.191l0.014,0.849l0.462-0.001v1.958
			l-0.462-0.001L12.718,56.1l-0.523,0.111l-0.05,0.93l0.578-0.002l0.002,0.459c0.624-0.124,0.474,0.32,0.604,0.441
			c0.132,0.122,0.445-0.186,0.314,0.6l0.463-0.002l0.007,2.356l-0.358,0.137l-0.112,0.962l-0.462-0.001l0.002,0.463l-0.463-0.002
			l0.001,0.461l-1.498,0.115l0.001,0.462H5.346V51.267H11.224z M6.268,52.707c-0.16,1.034,0.118,2.436,0,3.513h4.322
			c0.144,0,0.088-0.698,0.635-0.46l-0.002-0.577l0.457-0.004c0.149-0.677,0.149-1.271,0-1.948l-0.457-0.004l0.002-0.577
			l-0.853,0.009l-0.176-0.417c-0.161-0.117-3.477-0.092-3.73,0.062C6.395,52.344,6.28,52.629,6.268,52.707z M10.705,57.601
			c-1.316-0.158-2.915,0.117-4.264,0l-0.173,0.173v4.319h5.417l-0.001-0.462l0.578,0.002l0.014-0.446
			c0.648,0.054,0.484-1.197,0.451-1.69c-0.02-0.29-0.116-0.565-0.125-0.855l-0.457-0.004l-0.004-0.457
			c-0.036-0.039-0.706-0.054-0.843-0.116C11.178,58.011,11.378,57.682,10.705,57.601z"/>
		<path style="fill:#FFFFFF;" d="M60.665,57.141l0.462,0.001l-0.002-1.383l0.463,0.001l-0.002-0.577l0.578,0.002l-0.001-0.463
			l0.923,0.002l-0.001-0.463h2.883l-0.001,0.463l0.578-0.002l-0.002,0.463L67,55.186l0.054,0.463l0.987,0.111l-0.002-0.577
			l0.463,0.002l-0.002-0.463l0.931-0.05l0.106-0.409h2.881l-0.001,0.462l1.039-0.002l-0.002,0.923l0.463-0.001l0.11,1.424
			l0.35,0.074v6.45h-1.383v-7.371l-0.457-0.003l-0.192-0.557l-0.85-0.014l0.001-0.463H70.46l0.001,0.463
			c-0.247,0.036-0.742-0.086-0.931,0.052c-0.102,0.075-0.066,0.306-0.138,0.377c-0.141,0.14-0.55-0.016-0.433,0.604l-0.459,0.002
			l0.002,1.038l-0.462-0.001v5.874h-1.037v-6.334l-0.462,0.001l0.002-1.038l-0.459-0.003l-0.192-0.557l-0.85-0.014l0.001-0.463
			l-1.384,0l0.001,0.463l-0.578-0.002l-0.002,0.458l-0.464,0.053l-0.112,0.523l-0.459,0.002l0.009,0.974l-0.362,0.126l-0.008,5.622
			l-0.173,0.173l-0.849,0.016V57.141z"/>
		<path style="fill:#FFFFFF;" d="M31.046,50.806v4.377l0.923,0.001l0-0.461c0.45-0.036,0.932,0.064,0.985-0.469
			c1.332-0.123,2.64-0.113,3.971,0.007l-0.001,0.463l0.923-0.002l-0.002,0.463l0.459,0.002l0.053,0.464l0.523,0.113l0.003,0.918
			l0.463-0.001c0.086,1.471,0.086,2.907,0,4.378l-0.463-0.001l0.002,0.577l-0.463-0.002l0.002,0.463l-0.463-0.002l0.002,0.463
			l-0.578-0.002l-0.004,0.457c-0.184,0.043-0.798,0.061-0.892,0.145c-0.055,0.049-0.066,0.436-0.197,0.436h-2.824l-0.001-0.46
			l-1.498-0.115l0.002-0.463l-0.463,0.002l0.002-0.463L31.05,62.09c0.147-0.602-0.376-0.492-0.468-0.653
			c-0.171-0.3-0.092-0.952-0.111-1.302l-0.462,0.001v-9.329H31.046z M36.349,55.182h-3.344l0.001,0.463l-0.578-0.002l0.002,0.463
			l-0.463-0.002l0.002,0.577l-0.457,0.004l-0.113,1.43l-0.362,0.126l0.022,1.311l0.314,0.018l0.138,1.021l0.457,0.004l-0.002,0.577
			l0.463-0.002l-0.002,0.463l0.463-0.002l-0.002,0.463l1.039-0.002l-0.001,0.463h1.5l-0.001-0.463l1.384,0.002l-0.001-0.463
			l0.578,0.002l-0.002-0.577l0.457-0.004l0.126-0.911l0.457-0.004l0-2.535l-0.463,0.001l-0.003-0.918l-0.523-0.113l-0.053-0.464
			l-0.459-0.002l0.002-0.463l-0.578,0.002L36.349,55.182z"/>
		<path style="fill:#FFFFFF;" d="M20.271,63.59c-0.159-0.055-0.134-0.379-0.197-0.436c-0.094-0.084-0.708-0.103-0.892-0.145
			l-0.004-0.457l-0.578,0.002l0.002-0.463l-0.463,0.002l0.002-0.463l-0.463,0.002l-0.013-0.851l-0.455-0.256
			c-0.061-1.3-0.056-2.547,0.007-3.847l0.463,0.001l-0.002-0.577l0.463,0.001l0.003-0.803l0.463-0.053l0.113-0.522l0.919-0.003
			l-0.001-0.463c1.463-0.121,2.917-0.159,4.381,0l-0.001,0.463l1.038-0.002l-0.002,0.577l0.457,0.004
			c0.066,0.362-0.038,0.877,0.446,0.814l0.141,1.018l0.455,0.005v6.45l-1.038,0.001l0.001-1.038
			c-0.527,0.039-1.351-0.176-1.455,0.466l-0.96,0.116l-0.005,0.455H20.271z M18.139,57.717v1.958l0.462-0.001l-0.002,0.923
			l0.463-0.001l-0.002,0.577c0.703-0.18,0.282,0.596,1.035,0.463l0.002,0.459l1.039-0.002l-0.001,0.463l0.856,0.001l0.066-0.464
			l1.5,0.002l-0.002-0.463c0.722,0.12,0.336-0.211,0.515-0.465c0.083-0.118,0.334-0.051,0.412-0.19
			c0.105-0.186,0.097-0.613,0.112-0.841l0.462,0l0.001-2.929l-0.464-0.066l-0.003-0.918l-0.463-0.053l-0.113-0.522l-0.919-0.003
			l0.001-0.463h-2.537l0.001,0.463l-0.923-0.002l-0.002,0.458l-0.524,0.112l-0.053,0.464l-0.459,0.002l0.002,1.038L18.139,57.717z"
			/>
		<path style="fill:#FFFFFF;" d="M48.334,62.554l-0.001-0.462l1.384,0.002l-0.001-0.463l0.578,0.002l-0.002-0.577l0.463,0.001
			l0-0.923l0.46,0l0.004,0.458l0.525,0.113l-0.069,0.927l-0.461,0l0.002,0.923l-0.923-0.002l0,0.461l-1.032,0.121l-0.005,0.456
			c-0.531-0.059-3.194,0.124-3.441-0.141c-0.055-0.059,0.046-0.263-0.092-0.325c-0.138-0.062-0.806-0.077-0.843-0.117l-0.004-0.456
			l-0.578,0.002l0.002-0.463l-0.463,0.002l0.002-0.577l-0.463,0.001l-0.11-1.309l-0.358-0.137c-0.055-0.945-0.105-1.802,0-2.747
			l0.418-0.176l0.05-0.931l0.463,0.001l-0.002-0.577l0.463,0.002l-0.002-0.463l0.463,0.002l-0.002-0.463l0.578,0.002l-0.001-0.463
			c1.44-0.114,2.869-0.164,4.311-0.007l0.256,0.455l0.852,0.013l-0.002,0.463l0.463-0.002l-0.002,0.577l0.463-0.001l-0.002,0.923
			l0.463-0.001l0.114,1.959H44.3v1.958l0.462-0.001l-0.002,0.577l0.463-0.002l-0.002,0.463l0.578-0.002l-0.001,0.463l0.923-0.002
			l-0.001,0.462H48.334z M44.3,57.717h6.454l0.001-1.037l-0.459-0.002c0.117-0.619-0.295-0.465-0.433-0.604
			c-0.139-0.139,0.015-0.55-0.604-0.433l-0.002-0.459l-2.931-0.001l-0.066,0.464l-0.919,0.003l-0.113,0.522l-0.463,0.053
			l-0.003,0.918l-0.463-0.001L44.3,57.717z"/>
		<path style="fill:#FFFFFF;" d="M110.567,63.59l-0.001-0.46l-1.032-0.121l-0.004-0.457l-0.463,0.002l0.002-0.463l-0.578,0.002
			l0.002-0.463l-0.463,0.002l0.002-1.038l-0.463,0.001v-3.917l0.463,0.001l-0.002-0.577l0.457-0.004
			c0.03-0.028,0.033-0.572,0.117-0.722c0.087-0.157,0.616-0.053,0.469-0.652l0.919-0.003l-0.001-0.463
			c1.503-0.137,2.994-0.137,4.496,0l-0.001,0.463l0.919,0.003c-0.157,0.59,0.403,0.505,0.467,0.652
			c0.179,0.411-0.116,0.665,0.56,0.912l0.013,0.852l0.462-0.001v6.45l-1.038,0.001l0.001-1.038
			c-0.054-0.053-1.157,0.044-1.309,0.112c-0.148,0.067-0.001,0.286-0.149,0.353c-0.178,0.08-0.928,0.078-0.962,0.112l-0.001,0.46
			H110.567z M113.448,55.183h-2.535l0.001,0.462l-0.923-0.002l0.002,0.463l-0.463-0.002l0.002,0.577l-0.457,0.004l-0.14,1.019
			c-0.105,0.035-0.271-0.044-0.331,0.086c-0.102,0.222-0.175,1.481-0.098,1.698l0.455,0.256c-0.218,1.023,0.212,0.74,0.425,0.997
			c0.149,0.18-0.023,0.536,0.601,0.434l0.002,0.459l0.463-0.002l-0.002,0.463l1.039-0.002l-0.001,0.463l0.757,0.007l0.352-0.455
			l1.313-0.013l0.002-0.458l0.464-0.053l0.112-0.523l0.459-0.002l-0.002-0.923l0.461,0c0.233-1.172,0.041-2.284,0.002-3.455
			l-0.463,0.002l0.002-0.463l-0.459-0.002l-0.11-0.523l-0.931-0.048L113.448,55.183z"/>
		<path style="fill:#FFFFFF;" d="M87.287,50.806v10.25l-0.455,0.005l-0.121,1.031l-0.462-0.001l0.002,0.463l-0.923-0.002
			l-0.005,0.456l-1.032,0.121l0,0.461c-0.494-0.083-2.735,0.158-2.94-0.121c-0.054-0.074-0.024-0.263-0.081-0.316
			c-0.105-0.097-0.798-0.074-0.881-0.164c-0.055-0.059,0.046-0.263-0.091-0.325c-0.138-0.062-0.806-0.077-0.843-0.117l-0.004-0.456
			l-0.578,0.002l0.002-0.923l-0.463,0.001l0.002-1.038l-0.462,0.001v-2.879l0.41-0.106l0.05-0.931l0.463,0.001l-0.002-0.577
			l0.463,0.002l-0.002-0.463l0.578,0.002l-0.002-0.463l0.463,0.002l-0.002-0.463c1.44-0.114,2.869-0.164,4.311-0.007l0.176,0.418
			l0.931,0.05l-0.001,0.463l0.577-0.001v-4.377H87.287z M84.291,55.183h-2.996l0.001,0.462l-0.923-0.002l0.002,0.577l-0.457,0.004
			l-0.126,0.911l-0.457,0.004l0.009,1.434l-0.338,0.075l-0.019,0.393l0.337,0.063c0.05,0.05-0.009,1.111,0.125,1.41
			c0.067,0.15,0.623,0.06,0.466,0.654l0.459,0.002l-0.002,0.463l0.463-0.002l-0.002,0.463l1.039-0.002l0.066,0.464l1.433-0.001
			l-0.001-0.463l1.384,0.002l-0.001-0.463l0.578,0.002l-0.002-0.463l0.462,0.001l0.121-1.031l0.457-0.005l-0.122-2.99l-0.457-0.004
			l0.002-0.923l-0.463,0.002l-0.004-0.457l-1.032-0.121L84.291,55.183z"/>
		<path style="fill:#FFFFFF;" d="M117.367,42.859v5.356c0,0.592,0.426,0.508,0.465,0.593c0.081,0.176,0.078,0.928,0.112,0.962
			l0.461,0l-0.002,0.577l0.463-0.002l-0.002,0.463l0.463-0.002l-0.002,0.463l0.578-0.002l-0.001,0.463l0.923-0.002l0,0.461
			c1.334,0.172,2.699,0.172,4.033,0l0-0.461l0.923,0.002l-0.001-0.463l0.578,0.002l-0.002-0.463l0.463,0.002l-0.002-0.577
			l0.463,0.002l-0.002-0.463l0.457-0.004l0.12-1.493l0.462,0.001v-5.413l1.384-0.001l0.007,0.974l-0.362,0.126l-0.106,5.351
			l-0.463-0.001l0.002,0.923l-0.462,0l-0.121,1.031l-0.457,0.004l0.002,0.463l-0.463-0.002l-0.002,0.459
			c-0.593-0.157-0.505,0.401-0.654,0.466c-0.144,0.064-0.802,0.081-0.836,0.118l-0.004,0.456l-1.5-0.002l0.001,0.462H121.4
			l0.001-0.462l-1.5,0.002l-0.004-0.456c-0.034-0.037-0.692-0.054-0.836-0.118c-0.147-0.065-0.066-0.324-0.189-0.411
			c-0.251-0.178-0.587,0.21-0.466-0.514l-0.463,0.002l0.002-0.463l-0.462,0.001c0.001-0.602-0.003-0.861-0.563-1.107l-0.013-0.852
			l-0.463,0.001l-0.106-5.351l-0.362-0.126l0.007-0.974L117.367,42.859z"/>
		<path style="fill:#FFFFFF;" d="M96.161,56.738c0.095-0.704,0.408-0.464,0.525-0.627c0.178-0.249-0.211-0.587,0.514-0.466
			l-0.002-0.463l0.463,0.002l-0.002-0.463l0.923,0.002l-0.001-0.463h3.459l-0.001,0.463l0.578-0.002l-0.002,0.463l0.463-0.002
			l-0.002,0.463l0.462-0.001l0.112,0.962l0.358,0.137l0.107,6.559l-0.189,0.272l-0.849,0.016v-5.874l-0.462,0.001l0.002-1.499
			l-0.459-0.003l-0.192-0.557l-1.311-0.014l0.001-0.463l-1.039,0l0.001,0.463c-0.351,0.019-1.003-0.061-1.303,0.111
			c-0.161,0.092-0.052,0.614-0.653,0.468l-0.003,1.033l-0.462-0.001v6.334h-1.037V56.738z"/>
		<path style="fill:#FFFFFF;" d="M56.747,50.806v12.611c-0.245,0.301-0.69,0.14-1.037,0.173V50.806H56.747z"/>
		<path style="fill:#FFFFFF;" d="M92.243,63.59h-1.037V54.78c0.23-0.268,0.807-0.268,1.037,0V63.59z"/>
		<polygon style="fill:#FFFFFF;" points="92.235,50.821 92.249,51.14 92.705,51.151 92.705,52.189 92.242,52.187 92.243,52.65 
			91.205,52.65 91.207,52.187 90.743,52.189 90.744,50.806 		"/>
	</g>
</g>
</svg>
