<?xml version="1.0" encoding="iso-8859-1"?>
<!-- Generator: Adobe Illustrator 29.6.1, SVG Export Plug-In . SVG Version: 9.03 Build 0)  -->
<svg version="1.1" id="Layer_1" xmlns="http://www.w3.org/2000/svg" xmlns:xlink="http://www.w3.org/1999/xlink" x="0px" y="0px"
	 viewBox="0 0 140 100" style="enable-background:new 0 0 140 100;" xml:space="preserve">
<path style="fill:#FFFFFF;" d="M106.749,22.816l-10.974-6.336c-0.307,1.256-1.537,7.309,1.195,14.639c0,0,0.646,2.122,0.61,4.402
	c-0.036,2.318-1.751,3.6-3.549,3.731c-1.798,0.13-3.679-0.891-4.049-3.18c-0.189-1.168-0.231-2.511,0.01-3.992
	c0.206-1.264,0.691-2.465,1.373-3.549c0.611-0.972,1.399-2.992,1.399-6.953c0-4.021-0.375-6.167-0.659-7.216l0,0c0,0,0,0,0,0
	l-16.939-9.78c-3.198-1.846-7.137-1.846-10.334,0L33.251,22.816c-3.198,1.846-5.167,5.258-5.167,8.95v36.468
	c0,3.692,1.97,7.104,5.167,8.95l31.582,18.234c3.198,1.846,7.137,1.846,10.334,0l31.582-18.234c3.198-1.846,5.167-5.258,5.167-8.95
	V31.766C111.916,28.074,109.946,24.662,106.749,22.816z M52.892,50.158l-2.726,1.574l2.726,1.574v3.148l-2.726,1.574l-2.727-1.574
	v-3.148l2.727-1.574l-2.727-1.574V47.01l2.727-1.574l2.726,1.574V50.158z M75.602,77.995c-1.028-6.68-5.293-10.431-10.204-15.428
	c-4.911-4.996-10.146-13.041-10.146-13.041c-0.668,8.376,6.218,13.041,6.218,13.041c3.7,2.815,7.708,7.719,7.708,7.719
	c5.447,8.119,2.826,14.132,2.826,14.132c-0.411-9.814-8.787-16.239-8.787-16.239c-4.471-3.391-7.143-7.04-7.811-8.787
	c-0.668-1.747-1.131-4.368-1.182-9.558c-0.051-5.19,1.028-5.961,1.028-5.961c1.079,2.929,8.839,12.076,8.839,12.076
	s2.826,3.289,9.352,10.123c0.861,0.902,1.528,1.772,2.045,2.605c-0.196-3.084-1.421-6.024-3.494-8.343
	c-3.635-4.067-9.792-10.497-10.959-12.31c-4.668-7.25-4.326-12.058-3.393-16.792c0.334-1.696,1.143-3.604,1.876-4.651
	c1.619-2.313,3.619-3.747,6.389-4.437c2.108-0.525,5.362,0.499,7.184,1.822c2.703,1.962,3.891,4.077,4.392,7.649
	c0.501,3.571-1.966,5.55-1.966,5.55l0.051-0.482c-0.455-8.098-3.393-9.456-6.107-10.77c-2.663-1.289-7.417-0.198-8.993,4.779
	c-1.499,4.735-0.085,8.072,1.572,12.196c1.657,4.124,12.792,15.079,12.792,15.079c3.16,3.88,3.261,5.19,3.261,5.19
	c2.367,7.823-1.616,13.667-2.372,14.68C75.648,77.94,75.602,77.995,75.602,77.995z M80.562,69.556
	c0.09-1.449,0.135-2.693,0.146-3.761c0.038-3.453-1.223-6.792-3.524-9.366c-3.635-4.067-9.543-10.684-10.959-12.31
	c-2.081-2.39,0.421-4.856,0.421-4.856c1.114,1.773,9.791,10.397,13.377,14.799c1.535,1.884,2.347,3.161,2.777,3.977
	c-0.142-3.177-1.379-6.216-3.509-8.599c-3.635-4.067-9.543-10.684-10.959-12.31c-2.081-2.39,0.421-4.856,0.421-4.856
	c1.114,1.773,9.791,10.397,13.377,14.799c3.16,3.88,3.261,5.19,3.261,5.19c1.373,4.965-0.403,7.956-1.665,9.352
	C84.253,67.179,80.562,69.556,80.562,69.556z M91.976,60.994l-2.726,1.574l-2.726-1.574v-3.148l2.726-1.574l2.726,1.574V60.994z"/>
</svg>
