<?xml version="1.0" encoding="iso-8859-1"?>
<!-- Generator: Adobe Illustrator 29.6.1, SVG Export Plug-In . SVG Version: 9.03 Build 0)  -->
<svg version="1.1" id="Layer_1" xmlns="http://www.w3.org/2000/svg" xmlns:xlink="http://www.w3.org/1999/xlink" x="0px" y="0px"
	 viewBox="0 0 140 100" style="enable-background:new 0 0 140 100;" xml:space="preserve">
<g>
	<path style="fill:#FFFFFF;" d="M134.124,51.485c2.509-1.337,3.795-6.573,0.291-6.668c-3.885-0.105-11.275-0.146-16.784,0v1.781
		h15.877l1.361,2.672h-17.238l0.005,6.23c3.36,0.974,1.139-3.793,1.805-4.454c3.414,0.466,8.777-0.868,11.782,0.467
		c1.103,0.49,4.22,5.181,5.46,3.983L134.124,51.485z"/>
	<g>
		<path style="fill:#FFFFFF;" d="M66.414,44.775c-9.206-1.197-19.547-0.876-13.65,10.73h15.423
			C70.221,55.505,73.414,45.686,66.414,44.775z M68.641,53.723H53.217v-7.126h15.423V53.723z"/>
	</g>
	<path style="fill:#FFFFFF;" d="M31.897,44.816c-0.158,0-1.429,1.203-1.361,1.781H47.32l1.343,1.336L47.32,49.27H30.536l0.005,6.23
		l1.805,0l0.005-4.449H47.32c0.329,0,1.467-0.904,2.118-1.042v-4.152c-0.701-0.163-1.626-0.96-2.118-1.042
		C43.401,44.163,36.29,44.816,31.897,44.816z"/>
	<path style="fill:#FFFFFF;" d="M82.687,46.6c2.689,0.337,5.87-0.251,8.635,0.007l-5.897,6.209
		c-1.746-0.565-7.126-9.396-8.614-7.995l8.613,10.668l9.527-10.673H81.342C81.222,46.902,81.031,46.392,82.687,46.6z"/>
	<rect x="3.319" y="44.816" style="fill:#FFFFFF;" width="19.052" height="1.781"/>
	<rect x="96.765" y="44.816" style="fill:#FFFFFF;" width="19.052" height="1.781"/>
	<rect x="96.765" y="53.723" style="fill:#FFFFFF;" width="19.052" height="1.781"/>
	<path style="fill:#FFFFFF;" d="M3.319,55.505h19.052v-1.781H4.68C4.522,53.723,3.25,54.927,3.319,55.505z"/>
	<rect x="96.765" y="49.27" style="fill:#FFFFFF;" width="18.145" height="1.781"/>
	<path style="fill:#FFFFFF;" d="M21.464,49.27H4.68c-0.158,0-1.429,1.203-1.361,1.781h18.145V49.27z"/>
	<path style="fill:#FFFFFF;" d="M71.367,44.821l7.385,9.219l3.498,1.456C80.849,54.392,72.774,43.507,71.367,44.821z"/>
</g>
</svg>
