<?xml version="1.0" encoding="iso-8859-1"?>
<!-- Generator: Adobe Illustrator 29.6.1, SVG Export Plug-In . SVG Version: 9.03 Build 0)  -->
<svg version="1.1" id="Layer_1" xmlns="http://www.w3.org/2000/svg" xmlns:xlink="http://www.w3.org/1999/xlink" x="0px" y="0px"
	 viewBox="0 0 140 100" style="enable-background:new 0 0 140 100;" xml:space="preserve">
<g>
	<path style="fill:#FFFFFF;" d="M21.92,31.569c15.387-0.92,25.529,15.657,17.362,28.827c-7.944,12.81-27.151,11.454-33.31-2.273
		C0.629,46.215,8.899,32.348,21.92,31.569z M12.951,43.944c-1.56,0.175-3.033,1.465-3.472,2.959
		c-0.35,1.193-0.308,4.417-0.209,5.738c0.161,2.143,1.782,3.871,3.944,4.06c2.477,0.216,5.224-0.145,7.729,0.011
		c0.769,0.062,0.919-1.002,0.187-1.149l-8.055-0.023c-1.38-0.208-2.512-1.358-2.642-2.763c-0.113-1.23-0.119-3.764-0.001-4.989
		c0.127-1.318,1.213-2.453,2.504-2.695c2.54-0.198,5.437,0.245,7.934-0.007c0.957-0.097,0.963-1.073,0.208-1.163
		C18.486,44.12,15.499,43.657,12.951,43.944z M23.216,44.006c-0.184,0.041-0.466,0.296-0.464,0.496
		c0.019,3.111-0.029,6.244,0.173,9.339c0.865,3.074,5.191,3.71,7.007,1.114c1.219-1.743,0.375-5.201,0.557-7.307
		c0.19-2.21,3.039-3.029,4.547-1.529c1.008,1.003,0.503,2.196,0.729,3.443c0.151,1.586-0.214,3.588,0.003,5.124
		c0.117,0.828,1.194,0.862,1.296,0.008c0.101-0.845-0.064-1.759-0.073-2.597c-0.017-1.586,0.273-4.495-0.382-5.84
		c-1.583-3.247-7.068-2.424-7.353,1.185c-0.114,1.44-0.014,3.246,0,4.723c0.003,0.289,0.095,0.544,0.07,0.885
		c-0.202,2.707-4.028,3.185-5.03,0.924c-0.492-1.11-0.208-5.136-0.237-6.601c-0.003-0.162-0.07-0.311-0.074-0.473
		c-0.017-0.708,0.102-1.741-0.001-2.392C23.928,44.155,23.565,43.929,23.216,44.006z M12.196,49.752
		c-0.755,0.136-0.547,1.146,0.189,1.146l8.011,0.002c0.64-0.042,0.811-0.775,0.289-1.112L12.196,49.752z"/>
	<path style="fill:#FFFFFF;" d="M58.169,56.415c-0.32-0.293-0.15-0.872,0.291-0.931c2.588-0.175,5.453,0.219,8.008-0.002
		c2.591-0.224,2.739-4.132-0.137-4.381c-1.678-0.145-4.742,0.358-6.154-0.281c-3.011-1.362-2.214-5.931,1.224-6.211
		c2.09-0.17,4.393,0.128,6.505-0.004c0.737,0.001,0.807,1.012,0.059,1.091c-2.138,0.159-4.53-0.189-6.637,0.003
		c-2.554,0.234-2.695,4.16,0.274,4.381c1.586,0.119,4.737-0.329,6.04,0.258c3.017,1.36,2.258,5.946-1.178,6.234
		c-2.501,0.21-5.276-0.158-7.806,0.005C58.506,56.575,58.278,56.515,58.169,56.415z"/>
	<path style="fill:#FFFFFF;" d="M118.319,45.839c1.271-1.278,3.058-2.015,4.874-1.621c1.975,0.429,3.143,2.381,2.366,4.305
		c-0.806,1.995-3.613,2.921-5.597,3.06l5.516,4.096c0.296,0.332-0.087,0.907-0.486,0.9l-6.672-4.86v4.478
		c0,0.362-0.927,0.585-1.025,0.067l0.062-12.037c0.205-0.288,0.963-0.171,0.963,0.073V45.839z M118.319,50.625
		c2.036,0.233,6.482-0.733,6.44-3.385c-0.04-2.505-3.143-2.479-4.791-1.429c-0.401,0.255-1.649,1.461-1.649,1.908V50.625z"/>
	<path style="fill:#FFFFFF;" d="M92.101,54.317v-9.948c0-0.207,0.749-0.376,0.963-0.073l0.066,11.768l-0.087,0.357
		c-0.415,0.188-0.792,0.125-1.039-0.263l-6.646-9.771l0.035,9.879c-0.064,0.346-0.768,0.337-0.994,0.104l-0.104-3.246
		c0.209-2.736-0.268-5.863-0.001-8.553c0.061-0.611,0.725-0.529,1.029-0.131L92.101,54.317z"/>
	<path style="fill:#FFFFFF;" d="M115.889,55.479c0.542,0.092,0.483,1.012,0.067,1.093l-7.669-0.063l-0.31-0.169l-0.066-11.632
		c-0.016-0.309,0.193-0.564,0.515-0.579c2.373,0.191,5.139-0.251,7.464,0.002c0.102,0.011,0.206,0.022,0.291,0.084
		c0.193,0.33,0.175,0.654-0.087,0.941h-7.051l-0.103,0.103v4.307l0.103,0.103h5.956c0.3,0.148,0.164,1.026-0.068,1.026h-5.887
		l-0.103,0.103v4.683H115.889z"/>
	<path style="fill:#FFFFFF;" d="M127.927,49.438c-0.363-0.364-0.665-1.073-0.708-1.583c-0.308-3.684,5.057-5.153,7.322-2.595
		c0.417,0.471,1.465,2.263,0.546,2.594c-0.733,0.264-0.816-1.001-1.105-1.488c-1.546-2.601-5.961-1.301-5.668,1.423
		c0.188,1.754,2.629,1.388,3.867,1.539c1.393,0.169,2.823,0.752,3.287,2.187c1.569,4.855-6.2,7.218-8.164,2.616
		c-0.152-0.357-0.538-1.393-0.069-1.608c0.784-0.36,0.833,0.597,1.027,1.061c1.433,3.432,6.671,2.199,6.282-1.283
		C134.21,49.315,129.458,50.97,127.927,49.438z"/>
	<path style="fill:#FFFFFF;" d="M56.551,44.767c0.344,0.315,0.086,0.899-0.359,0.931c-2.367,0.181-5.06-0.227-7.388,0.005
		c-1.354,0.135-2.427,1.312-2.559,2.64c-0.113,1.125-0.091,3.158-0.011,4.302c0.102,1.458,1.128,2.706,2.636,2.837
		c2.358,0.204,5.004-0.161,7.392,0.001c0.721,0.22,0.516,1.099-0.198,1.094c-3.282-0.366-10.455,1.538-10.856-3.522
		c-0.09-1.132-0.138-4.572,0.12-5.56c1.153-4.419,7.449-2.447,10.736-2.89C56.214,44.606,56.441,44.667,56.551,44.767z"/>
	<path style="fill:#FFFFFF;" d="M74.693,44.145c0.282-0.066,0.707-0.048,0.771,0.294c0.061,2.398-0.128,4.854,0.147,7.237
		c0.209,1.808,0.924,3.675,3.035,3.805c2.145,0.132,3.128-1.677,3.382-3.532c0.332-2.417,0.173-5.001,0.15-7.439
		c0.002-0.483,0.906-0.492,1.057-0.175l0.037,5.507c0.015,2.973-0.84,6.929-4.626,6.734c-4.02-0.207-4.18-4.504-4.278-7.555
		c-0.04-1.241-0.137-3.271,0.002-4.448C74.395,44.353,74.462,44.199,74.693,44.145z"/>
	<path style="fill:#FFFFFF;" d="M96.296,44.286c0.156-0.157,0.646-0.237,0.806-0.039l4.617,10.96l4.196-10.92
		c0.279-0.568,1.151-0.196,0.996,0.375l-4.438,11.434c-0.268,0.577-0.941,0.643-1.367,0.202l-4.954-11.706
		C96.199,44.505,96.232,44.35,96.296,44.286z"/>
	<path style="fill:#FFFFFF;" d="M94.477,44.144c0.317-0.073,0.485,0.011,0.668,0.26l0.039,11.728
		c-0.067,0.518-0.806,0.539-1.063,0.166l-0.037-11.657C94.09,44.413,94.251,44.196,94.477,44.144z"/>
	<path style="fill:#FFFFFF;" d="M47.791,50.093l7.859-0.016c0.617,0.021,0.612,1.01,0,1.028h-7.738
		C47.358,51.124,47.293,50.207,47.791,50.093z"/>
</g>
</svg>
