<?xml version="1.0" encoding="iso-8859-1"?>
<!-- Generator: Adobe Illustrator 29.6.1, SVG Export Plug-In . SVG Version: 9.03 Build 0)  -->
<svg version="1.1" xmlns="http://www.w3.org/2000/svg" xmlns:xlink="http://www.w3.org/1999/xlink" x="0px" y="0px"
	 viewBox="0 0 140 100" style="enable-background:new 0 0 140 100;" xml:space="preserve">
<g id="Layer_2">
</g>
<g id="Layer_1">
	<g>
		<path style="fill:#FFFFFF;" d="M12.548,51.973c0.891-1.064,2.485-1.541,3.813-1.747l-1.481-0.869
			c-2.52-1.73-2.749-4.665-0.36-6.652c2.481-2.064,5.213-1.24,7.315,0.857c-0.045-0.939,0.146-1.906,0.526-2.765
			c2.262-5.107,11.326-1.513,8.159,4.22c-0.309,0.559-0.842,1.083-1.087,1.649c-0.969,2.237,0.799,3.629,0.422,5.635
			c-0.323,1.719-2.087,2.974-3.726,3.286c-1.352,0.257-2.526-0.035-3.91,0.453c-1.722,0.607-2.428,2.095-4.004,2.752
			C14.021,60.539,9.648,55.437,12.548,51.973z M27.801,39.475c-1.424,0.314-0.56,4.083,0.902,3.816
			C30.206,43.016,29.403,39.122,27.801,39.475z M24.894,39.736c-0.909,0.234-0.534,1.839,0.625,1.478
			C26.419,40.934,26.091,39.428,24.894,39.736z M27.645,49.364c0.061-0.843-1.097-1.071-1.75-1.021
			c-0.498,0.039-1.997,0.557-2,1.156c-0.004,0.899,1.143,0.017,1.448-0.084C26.187,49.137,26.843,49.6,27.645,49.364z M21.58,50.312
			v1.838c0,1.222,1.54,2.863,2.78,2.863h1.497l-1.541-0.554c-1.133-0.612-1.88-1.721-2.312-2.904
			C21.862,51.167,21.846,50.613,21.58,50.312z M12.341,53.688c-0.075,0.293,0,1.239,0,1.624c0,1.228,1.528,2.949,2.78,2.949h1.583
			l-1.512-0.498c-1.517-0.855-2.492-2.491-2.68-4.203C12.457,53.557,12.348,53.659,12.341,53.688z"/>
		<path style="fill:#FFFFFF;" d="M28.936,61.124c-0.048,0.378-0.357,1.068-0.554,1.412c-1.422,2.482-4.869,3.17-7.175,1.46
			c-1.648,1.833-3.621,2.717-6.015,1.63c-2.562-1.163-3.401-3.86-2.079-6.339c0.721,0.355,1.497,0.755,2.29,0.915
			c1.118,0.225,2.385,0.234,3.463-0.165c1.525-0.565,2.303-2.078,3.889-2.695c1.683-0.655,3.603,0.028,5.47-0.774
			c1.911-0.821,3.241-2.81,3.186-4.916c-0.024-0.918-0.743-1.859-0.769-2.834c-0.047-1.749,1.386-2.769,1.736-4.383
			c4.336-1.716,8.755,3.105,5.636,7.019c1.397,0.965,1.779,3.095,0.589,4.37c-0.173,0.186-0.753,0.52-0.813,0.641
			c-0.117,0.238-0.015,0.902-0.051,1.231c-0.151,1.372-1.277,2.791-2.47,3.429c-2.375,1.269-4.691,0.255-6.375-1.582
			c-0.14,0.064,0.043,0.199,0.043,0.213C28.936,60.174,28.986,60.732,28.936,61.124z M34.132,44.692
			c-1.242,0.208-1.466,1.33-0.208,1.876c0.82,0.356,3.574,0.446,3.295-0.894C37.016,44.698,34.904,44.563,34.132,44.692z
			 M38.688,53.389c-0.135-1.3-1.153-2.207-2.48-2.05l1.494,0.942L38.688,53.389z M22.349,63.987
			c0.105,0.183,0.486,0.256,0.682,0.301c1.844,0.431,3.49-0.258,4.607-1.726c0.189-0.248,0.419-0.59,0.527-0.883
			c-0.883,0.824-1.892,1.564-3.06,1.941c-0.276,0.089-1.288,0.366-1.516,0.366H22.349z"/>
		<path style="fill:#FFFFFF;" d="M130.82,67.492c0.02,0.149-0.194,0.08-0.298,0.085c-1.109,0.046-2.23-0.023-3.341-0.004
			c-3.414,0.061-6.84,0.062-10.265,0.085c-31.55,0.217-63.142,0.216-94.691,0c-4.669-0.032-9.333,0.056-13.991-0.125
			c0.864-0.098,1.744-0.017,2.614-0.039c0.202-0.005,0.389-0.089,0.592-0.093c2.794-0.054,5.595,0.029,8.39,0.007
			c33.135-0.264,66.34-0.265,99.481,0c2.795,0.022,5.597-0.063,8.39-0.007c0.202,0.004,0.389,0.087,0.592,0.093
			C129.134,67.516,129.98,67.471,130.82,67.492z"/>
		<path style="fill:#FFFFFF;" d="M50.494,54.5c-0.309-0.041-1.176,0.128-1.312-0.19c-0.205-0.481-0.035-0.861,0.497-0.923
			c0.532-0.061,1.819-0.174,1.921,0.477c0.124,0.784-0.018,1.978,0.002,2.819c0.051,2.15,0.15,4.323,0.083,6.486
			c-0.118,0.752-1.107,0.466-1.107,0.091V59.03c-0.336,0.062-0.502,0.523-0.726,0.77c-2.221,2.451-4.304,2.62-5.39-0.856
			c-1.265-4.049-1-14.378,2.273-17.471c1.745-1.65,4.129-0.977,3.932,1.621c-0.043,0.567-0.344,1.668-1.064,1.575
			c-0.955-0.123-0.144-1.083-0.071-1.513c0.278-1.643-1.056-1.832-2.078-0.795c-2.777,2.817-3.421,14.161-1.425,17.412
			c0.45,0.733,0.759,0.885,1.559,0.5c0.94-0.453,2.905-2.919,2.905-3.935V54.5z"/>
		<path style="fill:#FFFFFF;" d="M73.591,60.996c-0.157,0.148-0.586,0.32-0.69,0.464c-0.234,0.324,0.16,1.073-0.655,1.224
			c-0.813,0.151-1.163-0.238-1.606-0.832c-0.767,0.821-1.657,0.625-2.139-0.343c-1.638,2.356-1.561-0.689-1.069-1.88l-0.631,0.01
			l-0.398,0.97l-1.452,0.216c-0.05,0.044,0.506,0.872,0.574,1.007c0.295,0.59,1.03,2.319,0.158,2.674
			c-0.369,0.151-0.589-0.02-0.817-0.306c-0.835-1.047-0.908-5.049-0.761-6.401c0.022-0.2,0.114-0.402,0.153-0.6l0.351-0.05
			c0.008,0.893-0.328,2.083-0.171,2.949c0.083,0.455,1.409,0.425,1.781,0.284c0.012-0.215,0.217-0.598,0.173-0.78
			c-0.032-0.134-0.278-0.261-0.364-0.408c-0.618-1.057,1.341-1.627,0.806,0.006c0.486,0.184,0.836-0.513,1.158-0.083
			c-0.228,0.953-0.607,1.903-0.474,2.904c0.894-0.277,0.875-1.568,1.285-2.263c0.261-0.443,1.001-1.101,1.454-0.602
			c0.627,0.69-0.78,1.626-1.334,1.839c0.139,1.299,1.069,1.132,1.758,0.298c0.083-0.101,0.476-0.699,0.482-0.767
			c0.01-0.114-0.136-0.316-0.139-0.512c-0.011-0.87,0.883-1.758,1.761-1.332c0.404,0.286,0.191,1.697-0.342,1.539
			c-0.282-0.083,0.076-0.547,0.104-0.743c0.107-0.746-0.632-0.513-0.912,0.032c-0.506,0.987,0.452,1.024,0.985,1.642
			c1.301-0.382,0.954-1.399,1.068-2.411c0.081-0.717,0.466-2.286,1.27-2.493c0.415-0.107,0.857,0.095,0.926,0.539
			c0.171,1.107-1.865,2.626-1.865,2.798v1.496l0.689-1.32c0.643-0.406,0.957,0.079,1.013,0.689c0.045,0.492-0.165,0.885-0.039,1.405
			c0.254,1.052,0.966-0.76,1.037-1.111c0.108-0.535-0.049-1.095,0.132-1.62l0.419-0.009l-0.043,2.136
			c0.191-0.468,0.974-3.129,1.818-2.37c0.533,0.479-0.229,2.879,0.328,3.051c0.564,0.174,0.87-1.634,1.02-1.963
			c0.214-0.469,1-1.345,1.541-0.856c0.752,0.68-0.792,1.65-1.317,1.933c0.243,1.486,1.449,0.868,1.992-0.059
			c0.434-0.743-0.148-1.196,0.562-2.003c0.406-0.462,1.343-0.667,1.506,0.04c0.091,0.396-0.088,1.599-0.648,1.071
			c0.071-0.219,0.45-0.945,0.115-1.056c-0.338-0.075-0.671,0.146-0.817,0.442c-0.482,0.976,0.491,1.08,1.014,1.672
			c0.159,0.031,0.864-0.524,0.931-0.674c0.092-0.207-0.044-0.344-0.024-0.53c0.101-0.926,0.78-1.638,1.738-1.268
			c0.387,0.274,0.194,1.686-0.347,1.543c-0.211-0.18,0.081-0.578,0.109-0.834c0.072-0.67-0.725-0.353-0.956,0.161
			c-0.423,0.942,0.53,1.016,1.029,1.601c0.439,0.023,0.814-0.698,1.056-0.799c0.065-0.027,0.289,0.002,0.247,0.159
			c-0.135,0.51-0.944,0.761-1.064,0.997c-0.075,0.147,0.047,0.299,0.031,0.45c-0.1,0.916-1.227,0.943-1.826,0.408
			c-0.325-0.29-0.433-0.497-0.157-0.864c0.163,0.033,1.234-0.057,1.228-0.208l-0.812-0.535c-0.163,0.278-0.77,0.516-0.903,0.7
			c-0.234,0.325,0.16,1.073-0.655,1.224c-0.78,0.145-1.197-0.229-1.606-0.832c-0.591,0.712-1.742,0.721-2.012-0.258
			c-0.143-0.134-0.354,0.441-0.514,0.553c-0.507,0.356-0.916,0-1.004-0.531c-0.118-0.706,0.129-1.407,0.066-2.117
			c-0.008-0.086-0.041-0.457-0.213-0.383c-0.59,0.253-1.24,2.498-1.337,3.152l-0.406-0.003c-0.177-0.175,0.052-0.736-0.268-0.671
			c-0.107,0.499-0.27,1.056-0.896,0.939c-0.903-0.169-0.147-2.466-0.687-2.542c-0.578,0.091-0.951,2.365-1.082,2.447l-0.416,0.011
			V60.996z M74.019,59.115c0.15,0.03,0.211-0.077,0.3-0.169c0.31-0.32,1.746-2.015,1.068-2.354
			C74.481,56.131,73.911,58.999,74.019,59.115z M69.997,59.372c-0.44-0.125-1.198,1.048-1.025,1.282
			C69.435,60.351,70.078,60.029,69.997,59.372z M81.717,59.372c-0.596,0.056-1.013,0.719-1.025,1.282
			C81.158,60.334,81.764,60.032,81.717,59.372z M71.025,61.508c0.166,0.013,1.116-0.071,1.11-0.213
			c-0.146-0.103-0.704-0.569-0.85-0.467L71.025,61.508z M82.744,61.508c0.166,0.013,1.116-0.071,1.11-0.213
			c-0.146-0.103-0.704-0.569-0.85-0.467L82.744,61.508z M64.524,60.91c-0.094,0.465,0.323,3.438,0.943,3.299
			c0.137-0.031,0.228-0.132,0.254-0.264C65.904,63.008,65.115,61.609,64.524,60.91z M72.393,61.68l-1.11,0.299
			C71.705,62.421,72.506,62.47,72.393,61.68z M84.112,61.68l-1.11,0.299C83.389,62.446,84.244,62.448,84.112,61.68z M86.593,61.679
			l-1.11,0.299C85.883,62.439,86.783,62.427,86.593,61.679z"/>
		<path style="fill:#FFFFFF;" d="M96.689,47.577c1.133-1.506,3.302-3.276,5.302-2.52c3.208,1.213,0.738,7.111-1.982,7.846
			c-1.163,0.315-2.26,0.033-3.321-0.454c0.172,0.409,0.171,1.141-0.382,1.201c-0.644,0.07-0.68-0.266-0.729-0.819
			c-0.177-2.007-0.111-4.715-0.001-6.749c0.072-1.319,0.17-3.344,0.447-4.596c0.177-0.801,1.014-0.639,1.096-0.025
			C96.958,43.5,96.652,45.527,96.689,47.577z M100.851,45.987c-1.386,0.006-3.074,1.839-3.64,3.012
			c-0.266,0.55-0.776,1.708-0.309,2.168c0.796,0.784,2.288,0.97,3.267,0.446C101.896,50.688,103.733,45.975,100.851,45.987z"/>
		<path style="fill:#FFFFFF;" d="M80.157,53.54c-0.215,0.214-0.894,0.147-0.988-0.212l-0.105-3.101
			c-0.97,1.172-1.821,2.635-3.305,3.235c-1.166,0.472-2.384,0.275-2.763-1.061c-0.598-2.112,0.619-5.605,2.795-6.428
			c1.231-0.466,2.202-0.156,3.359,0.322c0.07-1.498,0.075-3.176,0.354-4.646c0.223-1.178,1.155-0.641,1.175-0.101
			c0.015,0.417-0.2,1.235-0.245,1.715c-0.26,2.808-0.313,5.641-0.261,8.464C80.181,52.108,80.427,53.271,80.157,53.54z
			 M76.562,46.914c-1.341,0.227-2.335,2.247-2.532,3.453c-0.534,3.263,1.497,2.331,2.941,0.716c0.873-0.976,1.585-2.27,1.968-3.509
			C78.266,47.067,77.419,46.769,76.562,46.914z"/>
		<path style="fill:#FFFFFF;" d="M62.213,51.423c-0.149-0.037-0.171,0.061-0.257,0.128c-1.424,1.095-2.645,2.092-4.578,2.179
			c-2.334,0.106-2.499-2.17-1.189-3.583c1.577-1.701,4.176-1.495,6.195-0.861c0.034-1.359,0.891-3.684-1.24-3.682
			c-0.564,0-1.963,0.796-2.099-0.126c-0.118-0.802,1.879-1.017,2.431-0.967c3.292,0.299,1.974,4.147,1.846,6.267
			c-0.043,0.706,0.12,1.76,0.001,2.394c-0.075,0.401-0.665,0.522-0.917,0.279c-0.015-0.014-0.192-0.342-0.192-0.363V51.423z
			 M61.614,50.228c-1.843-0.561-5.028-0.41-5.119,2.079c0.041,0.12,0.189,0.184,0.305,0.209
			C58.33,52.844,60.766,51.49,61.614,50.228z"/>
		<path style="fill:#FFFFFF;" d="M83.492,44.008c3.625-0.623,2.209,6.727-0.916,5.23l-0.171,0.09c0.311,1.43,0.653,3.367,2.525,3.21
			c1.422-0.12,2.409-1.56,2.865-2.777c0.151-0.403,0.17-1.412,0.79-1.315c1.116,0.175-0.002,2.423-0.33,2.971
			c-0.61,1.021-1.59,1.898-2.771,2.189C80.285,54.885,80.262,44.564,83.492,44.008z M83.834,45.116
			c-0.807,0.161-1.619,2.064-1.265,2.68c0.091,0.159,0.568,0.509,0.752,0.536c0.56,0.084,1.068-1.124,1.127-1.574
			C84.512,46.268,84.588,44.965,83.834,45.116z"/>
		<path style="fill:#FFFFFF;" d="M105.329,49.201c-0.068,0.961,0.58,2.947,1.562,3.267c1.501,0.49,2.86-0.814,3.474-2.039
			c0.201-0.4,0.483-1.667,0.649-1.83c0.369-0.364,0.963,0.003,0.977,0.47c0.016,0.566-0.771,2.219-1.116,2.723
			c-0.657,0.96-2.081,1.943-3.279,1.944c-4.482,0.005-4.297-9.03-1.327-9.708C109.966,43.186,108.574,50.916,105.329,49.201z
			 M106.673,45.114c-0.797,0.171-1.621,2.059-1.264,2.682c0.091,0.159,0.568,0.509,0.752,0.536c0.58,0.087,1.02-1.052,1.111-1.504
			C107.372,46.324,107.469,44.943,106.673,45.114z"/>
		<path style="fill:#FFFFFF;" d="M71.858,53.539c-0.336,0.365-0.949,0.117-1.004-0.371c0.292-1.797,0.706-6.823-1.082-7.885
			c-0.58-0.345-1.068-0.064-1.525,0.332c-1.304,1.13-2.205,4.389-2.57,6.064c-0.121,0.554-0.088,2.008-0.775,2.051
			c-1.013,0.064-0.43-1.423-0.38-1.923c0.127-1.272,0.108-2.656,0-3.929c-0.05-0.588-0.599-1.913,0.308-2.009
			c0.634-0.067,0.639,0.674,0.708,1.164c0.014,0.1-0.057,0.942,0.181,0.715c0.541-1.551,1.821-3.978,3.786-3.738
			c2.229,0.272,2.635,3.369,2.72,5.145C72.257,49.803,72.193,53.176,71.858,53.539z"/>
		<path style="fill:#FFFFFF;" d="M44.078,39.97c-1.312,0.606-2.24,1.82-3.481,2.548c-1.585,0.93-3.701,1.398-5.518,1.017
			c-0.481-0.101-1.161-0.311-1.437-0.743l4.448-1.626c0.188-0.186-0.955-0.088-1.059-0.075c-1.33,0.171-2.699,0.742-3.988,1.1
			c2.48-2.828,6.674-3.221,10.182-2.522C43.489,39.723,43.932,39.738,44.078,39.97z"/>
		<path style="fill:#FFFFFF;" d="M127.685,49.77c0.044,0.042,0.38,0.304,0.397,0.286c0.427-1.368,1.062-2.744,1.783-3.989
			c0.217-0.376,0.864-1.622,1.26-1.649c0.38-0.025,0.689,0.236,0.636,0.63c-2.425,3.867-3.859,8.176-4.385,12.719
			c-0.223,0.501-1.09,0.537-1.096-0.232c-0.003-0.442,0.205-1.448,0.289-1.941c0.252-1.478,0.651-2.938,1.072-4.373
			c-1.485-1.161-2.478-2.864-3.04-4.65c-0.124-0.396-0.472-1.591-0.449-1.937c0.035-0.508,0.725-0.78,1.029-0.351
			c0.139,0.196,0.334,1.414,0.446,1.777C125.999,47.263,126.773,48.888,127.685,49.77z"/>
		<path style="fill:#FFFFFF;" d="M33.556,38.561c-0.025-0.306-0.185-1.223-0.322-1.472c-0.054-0.099,0.003-0.145-0.191-0.109
			l-0.172,3.674c-1.103-0.436-1.759-2.105-1.871-3.215c-0.223-2.217,0.809-3.292,1.445-5.246c0.198-0.049,0.141,0.04,0.195,0.108
			c0.27,0.34,0.574,0.879,0.778,1.27c1.192,2.285,1.827,5.214,0.139,7.425C33.509,40.204,33.62,39.345,33.556,38.561z"/>
		<path style="fill:#FFFFFF;" d="M117.732,59.115l0.428,0c0.072,0.465-0.326,2.791,0.308,2.902c0.451,0.079,1.063-2.389,1.064-2.812
			l0.424-0.004c-0.016,0.874-0.184,1.681,0.058,2.549c0.043,0.154,0.129,0.44,0.321,0.439c0.254-0.055,0.826-1.266,0.871-1.533
			c0.05-0.303-0.132-0.438-0.118-0.706c0.021-0.404,0.347-1.06,0.718-1.251c0.071-0.037,0.798-0.32,0.863-0.335
			c0.373-0.088,0.755,0.135,1.137,0.069l0.167-1.673l0.433,0.05l-0.221,1.626c0.244,0.333,1.149-0.306,0.991,0.253l-1.023,0.09
			c-0.105,0.101-0.118,2.131-0.092,2.435c0.17,2.009,1.306,0.108,1.327-0.817c0.359-0.207,0.12,0.58,0.07,0.754
			c-0.485,1.701-1.623,1.679-1.78-0.155l-0.774,0.515c0.237,1.453-1.31,1.558-2.048,0.599c-1.006,1.058-1.276-0.499-1.369-1.284
			c-0.28,0.984-1.056,2.532-1.668,0.741l-0.17-0.056c-0.211,0.845-1.285,1.379-1.339,0.114c-0.027-0.632,0.196-1.372,0.31-1.994
			l-0.628-0.004c-0.227,0.054-0.437,2.554-1.23,2.722c-0.529,0.112-0.65-0.1-0.797-0.535c-0.296-0.878-0.185-2.127-0.082-3.037
			c-0.299,0.001-0.601-0.005-0.901-0.001c-0.317,0.004-0.262,0.217-0.469-0.297c0.424-0.296,0.912-0.006,1.371-0.044l0.172-1.71
			l0.421,0.139l-0.165,1.656c0.206-0.001,0.417,0.019,0.622-0.021c0.374-0.071,0.463-0.389,0.871-0.322
			c0.464,0.076,0.304,0.706,0.219,1.025c0.359,0.057,0.615-0.075,0.913-0.242l0.245,0.16c0.095,0.204-0.119,0.462-0.176,0.68
			c-0.115,0.444-0.459,1.776-0.258,2.14c0.101,0.145,0.306-0.047,0.388-0.13c0.111-0.114,0.598-1.023,0.598-1.111V59.115z
			 M115.576,59.474c-0.024-0.04-0.223-0.076-0.317-0.239c-0.085-0.147-0.078-0.435-0.175-0.511l-0.86,0.049
			c-0.023,0.805-0.16,1.626-0.084,2.435c0.115,1.212,0.626,1.176,1.066,0.128C115.31,61.088,115.675,59.639,115.576,59.474z
			 M123.72,58.773l-0.77,0.001c0.175,0.495,0.067,0.964-0.168,1.417l-0.431-0.051l0.257-1.11c-0.493-0.043-0.711,0.049-0.93,0.481
			c-0.491,0.969,0.462,1.047,0.985,1.642c0.222,0.055,1.057-0.731,1.057-0.798V58.773z M121.24,61.508
			c0.16-0.02,0.939-0.073,0.939-0.213l-0.723-0.471C121.319,60.854,121.214,61.361,121.24,61.508z M121.43,62.09
			c0.09,0.16,0.583,0.226,0.775,0.169c0.26-0.076,0.527-0.579,0.08-0.524c-0.276,0.034-0.562,0.184-0.875,0.115
			C121.416,61.929,121.388,62.016,121.43,62.09z"/>
		<path style="fill:#FFFFFF;" d="M53.489,47.663l0.819-1.531c0.422-0.755,1.66-2.106,2.568-2.14
			c0.322-0.012,0.653,0.302,0.632,0.631c-0.032,0.494-0.591,0.503-0.934,0.695c-1.274,0.711-2.3,3.267-2.632,4.635
			c-0.276,1.135-0.322,2.297-0.385,3.462c-0.078,0.267-0.48,0.274-0.708,0.229c-0.562-0.112-0.36-1.135-0.388-1.578
			c-0.087-1.404-0.091-2.788-0.081-4.185c0.007-0.969-0.122-2.335,0.004-3.243c0.1-0.716,0.83-0.88,1.151-0.226L53.489,47.663z"/>
		<path style="fill:#FFFFFF;" d="M90.872,47.663l1.247-2.129c0.375-0.498,2.039-2.073,2.642-1.372
			c0.647,0.752-0.621,1.046-1.043,1.345c-1.489,1.053-2.531,4.536-2.678,6.298c-0.055,0.66,0.319,1.882-0.637,1.844
			c-0.53-0.021-0.523-0.547-0.556-0.987c-0.182-2.375-0.253-5.772-0.001-8.119c0.071-0.665,0.918-0.689,1.074-0.217
			C91.196,45.159,90.717,46.746,90.872,47.663z"/>
		<path style="fill:#FFFFFF;" d="M113.712,47.663c0.277-0.244,0.366-0.689,0.553-1.027c0.5-0.905,1.394-2.105,2.382-2.491
			c0.505-0.198,1.14-0.263,1.092,0.485c-0.029,0.459-0.668,0.55-1.027,0.776c-1.684,1.057-2.677,4.687-2.834,6.57
			c-0.055,0.66,0.318,1.709-0.636,1.673c-0.529-0.02-0.523-0.548-0.556-0.987c-0.205-2.666-0.029-5.444-0.006-8.122
			c0.074-0.56,0.82-0.753,1.079-0.215L113.712,47.663z"/>
		<path style="fill:#FFFFFF;" d="M119.529,47.663l0.956-1.735c0.439-0.612,0.853-1.175,1.521-1.558
			c0.418-0.239,1.138-0.649,1.461-0.087c0.405,0.703-0.465,0.818-0.854,1.036c-1.665,0.93-2.702,4.536-2.913,6.32
			c-0.056,0.477,0.021,1.343-0.104,1.777c-0.092,0.321-0.728,0.308-0.929,0.107c-0.29-0.289-0.141-1.355-0.163-1.803
			c-0.094-1.969-0.171-4.002-0.093-5.982c0.013-0.332,0.037-1.082,0.092-1.363c0.089-0.451,0.921-0.504,1.072-0.05L119.529,47.663z"
			/>
		<path style="fill:#FFFFFF;" d="M108.322,61.252l0.87-1.994c0.266-0.355,0.645-0.725,1.013-0.271
			c0.41,0.505,0.003,1.797,0.083,2.481c0.03,0.255,0.124,0.573,0.431,0.429c0.172-0.093,0.472-0.775,0.552-0.988
			c0.117-0.31,0.055-0.869,0.46-0.471c-0.179,0.586-0.526,2.21-1.44,1.796c-0.734-0.332-0.044-2.481-0.344-3.118
			c-0.329-0.224-0.938,1.253-1.028,1.494c-0.104,0.279-0.406,1.604-0.566,1.657c-0.112,0.037-0.254,0.006-0.373,0.012
			c-0.033-0.031,0.094-1.061-0.17-0.77c-0.923,2.257-1.747,0.012-1.541-1.282c-0.223-0.04-0.133,0.031-0.178,0.122
			c-0.335,0.662-0.838,2.01-1.748,1.162l-0.125-0.001c-1.116,1.898-3.11,0.434-2.215-1.486c0.19-0.407,1.07-1.328,1.509-0.887
			c0.283,0.285,0.008,1.148-0.133,0.688c-0.046-0.151,0.028-0.344-0.148-0.453c-0.784,0.289-1.12,1.177-0.945,1.972
			c0.178,0.809,0.941,0.723,1.46,0.25c0.527-0.48,0.561-1.037,0.882-1.597c0.428-0.747,1.11-1.279,2.015-0.971
			c0.138,0.077-0.205,2.337,0.155,2.938c0.366,0.611,1.001-0.849,1.06-1.134c0.122-0.585-0.055-1.215,0.124-1.8l0.427,0.087
			c0.048,0.118-0.086,0.256-0.086,0.299V61.252z M106.269,59.202c-0.947,0.012-1.597,1.283-1.539,2.135
			c0.134,0.025,0.198-0.014,0.303-0.081C105.528,60.937,105.943,59.717,106.269,59.202z"/>
		<path style="fill:#FFFFFF;" d="M56.396,61.081l0.64-1.283c1.62-0.884,0.631,2.021,1.153,2.355c0.268,0.171,0.421-0.27,0.533-0.5
			c0.309-0.637,0.343-1.335,0.718-1.932c0.274-0.437,1.014-1.115,1.445-0.518c0.53,0.734-0.799,1.56-1.373,1.792
			c0.33,2.03,2.012,0.352,2.356-0.729l0.257,0.087c-0.319,1.311-2.114,3.119-2.948,1.155c-0.295,0.133-0.163,1.083-0.942,1.033
			c-0.978-0.062-0.307-1.92-0.65-2.434c-0.274-0.41-0.607,0.463-0.716,0.718c-0.133,0.312-0.41,1.529-0.613,1.609
			c-0.083,0.033-0.194,0.009-0.286,0.013c0.076-1.609-0.275-4.423,0.77-5.769c0.327-0.421,1.08-0.719,1.394-0.191
			c0.662,1.111-1.737,2.909-1.737,3.097V61.081z M56.566,59.115c0.295-0.523,1.459-1.617,1.373-2.259
			c-0.039-0.294-0.349-0.376-0.599-0.261c-0.625,0.289-0.903,1.851-0.943,2.477L56.566,59.115z M60.588,59.372
			c-0.598,0.125-0.985,0.699-1.025,1.282C60.032,60.366,60.688,60.024,60.588,59.372z"/>
		<path style="fill:#FFFFFF;" d="M90.186,59.03l0.427,0c-0.116,0.429-0.243,2.988,0.3,2.989c0.417-0.418,0.629-1.045,0.788-1.604
			c0.115-0.405,0.153-1.014,0.281-1.343c0.13-0.332,0.246-0.248,0.406,0.01l-0.15,3.707c0.189-0.036,0.355-0.099,0.555-0.093
			c1.218,0.036,3.719,0.238,4.817,0.665c0.385,0.15,0.355,0.37,0.006,0.324c-0.668-0.088-1.457-0.361-2.182-0.458
			c-1.069-0.143-2.152-0.197-3.23-0.187c-0.278,1.135-0.775,2.439-1.876,3.012c-1.288,0.67-2.734,0.015-2.152-1.552
			c0.465-1.251,2.306-1.634,3.492-1.724l0.129-0.127l0.096-1.655c-0.362,0.37-0.572,1.842-1.326,1.197
			c-0.125-0.107-0.384-0.586-0.384-0.727V59.03z M91.726,63.133c-0.866,0.059-1.916,0.223-2.607,0.771
			c-1.327,1.052-0.631,2.683,1.027,1.795C91.021,65.23,91.589,64.091,91.726,63.133z"/>
		<path style="fill:#FFFFFF;" d="M95.234,61.166c0.272-0.034,0.688-0.282,0.79-0.534c0.148-0.368-0.068-1.416,0.203-1.506
			l0.289-0.01c0.184,0.176-0.373,2.607,0.309,2.902c0.219,0.038,0.541-0.732,0.612-0.913c0.232-0.593,0.358-1.269,0.452-1.898
			l0.424-0.005c0,0.989-0.302,2.116,0.301,2.992c0.351,0.08,1.056-1.539,0.982-1.881l0.256,0.001
			c-0.232,1.863-1.688,3.463-2.01,0.511c-0.087-0.003-0.41,1.407-0.787,1.523c-0.701,0.216-0.936-0.77-1.009-1.266
			c-0.129,0.281-0.874,0.356-0.965,0.446c-0.223,0.22-0.145,1.009-0.915,1.097c-1.222,0.139-1.165-1.233-1.249-2.007
			c-0.022-0.206-0.165-0.386-0.166-0.605c-0.005-1.127,1.508-1.449,2.179-0.551C95.304,59.964,95.239,60.577,95.234,61.166z
			 M94.794,61.154c0.608-1.004-0.898-2.697-1.602-1.472c-0.409,0.712,0.254,0.253,0.327,0.508l-0.131,0.463
			C93.737,61.027,94.278,61.234,94.794,61.154z M94.635,61.509c-0.456,0.009-0.914-0.164-1.283-0.428
			C93.248,62.138,94.395,62.775,94.635,61.509z"/>
		<path style="fill:#FFFFFF;" d="M54.6,62.363l0.461-0.081l0.05,0.293l-1.426,0.459c-0.176,0.063-0.167-0.254-0.203-0.361
			c0.842-0.217,0.889-0.538,1.093-1.317c0.399-1.522,0.386-3.183,0.355-4.749l-0.128-0.128c-0.847-0.109-1.646,0.266-2.469,0.33
			c-0.207-0.389,0.668-0.601,0.962-0.663c0.93-0.195,1.807-0.144,2.719-0.19c0.829-0.042,1.635-0.391,2.305-0.857l0.089,0.258
			c-0.607,0.585-1.431,0.868-2.25,1c-0.225,0.037-0.737-0.033-0.837,0.107C55.48,58.458,55.358,60.5,54.6,62.363z"/>
		<path style="fill:#FFFFFF;" d="M72.393,61.68"/>
		<path style="fill:#FFFFFF;" d="M93.352,61.081"/>
	</g>
</g>
</svg>
