<?xml version="1.0" encoding="iso-8859-1"?>
<!-- Generator: Adobe Illustrator 29.7.1, SVG Export Plug-In . SVG Version: 9.03 Build 0)  -->
<svg version="1.1" id="Layer_1" xmlns="http://www.w3.org/2000/svg" xmlns:xlink="http://www.w3.org/1999/xlink" x="0px" y="0px"
	 viewBox="0 0 140 100" style="enable-background:new 0 0 140 100;" xml:space="preserve">
<g>
	<path style="fill:#FFFFFF;" d="M15.4,43.768h12.8v-12.8c2.016,0.294,3.289-0.449,4.8-1.6v30.667c0,0.272,1.593,1.209,1.6,1.861
		c-1.183,0.072-6.4,0.362-6.4-1.328V44.835H15.4v15.733c0,0.509,1.778,0.516,1.597,1.328c-2.306-0.204-6.263,0.962-6.801-1.965
		c0.562-8.425-1.192-18.953-0.157-27.124c0.34-2.686,3.416-1.768,5.361-3.439V43.768z"/>
	<path style="fill:#FFFFFF;" d="M50.066,71.235c0.089,0.331,1.105,0.745,1.067,1.328c-1.381-0.227-5.272,0.719-5.792-0.869
		l-0.013-28.4l4.466-1.689l0.517,1.098c20.393-6.968,20.152,25.121-0.245,18.132C50.556,63.639,49.402,68.778,50.066,71.235z
		 M53.673,42.276c-1.77,0.24-3.414,0.932-3.636,2.796c-0.201,1.691-0.24,13.311,0.116,14.344c0.16,0.466,0.411,0.583,0.758,0.837
		c4.779,3.501,9.453-4.803,9.333-9.285C60.153,47.551,57.682,41.732,53.673,42.276z"/>
	<path style="fill:#FFFFFF;" d="M127.929,61.375c0.144,0.88-0.717,0.487-1.317,0.524c-3.055,0.185-4.309-0.915-5.855-1.014
		c-0.971-0.062-2.595,0.831-3.813,0.959c-9.152,0.962-9.283-8.386-1.643-11.24c1.262-0.472,5.298-0.865,5.628-1.837
		c0.507-1.497,0.323-6.433-1.81-6.634c-3.685,0.497-2.096,5.397-6.114,6.436c-0.496-5.892,5.742-9.71,10.628-6.1
		c4.022,2.972,1.439,11.726,2.203,16.464C126.042,60.214,126.507,61.224,127.929,61.375z M121,50.168
		c-6.65,0.587-8.198,13.232,0,10.133V50.168z"/>
	<path style="fill:#FFFFFF;" d="M85.799,46.96l-12.265,5.882c-0.671,0.903,6.78,10.206,9.838,5.829
		c1.666-2.384-0.654-4.859,3.489-5.837C84.329,67.375,65.87,63.55,68.232,48.867C69.684,39.844,82.688,38.091,85.799,46.96z
		 M79.743,45.025c-6.255-6.383-10.159,0.865-6.767,7.054c0.566,0.398,8.026-3.593,8.311-4.027
		C81.782,47.296,80.268,45.56,79.743,45.025z"/>
	<path style="fill:#FFFFFF;" d="M106.599,46.431l-3.954,1.101c-6.416-9.488-13.121-4.196-8.011,5.802
		c1.428,2.793,5.924,8.211,9.478,5.941c1.546-0.936,0.554-6.114,0.885-6.443l3.194,0.261c-3.708,15.729-23.855,8.312-18.232-5.965
		C92.974,39.475,103.275,38.907,106.599,46.431z"/>
	<path style="fill:#FFFFFF;" d="M41,60.035c0.251,0.908,2.09,0.948,2.131,1.861c-2.18-0.321-5.815,1.125-6.691-1.568
		c-1.311-4.03,0.502-12.265-0.271-16.788L41,41.635V60.035z"/>
	<path style="fill:#FFFFFF;" d="M38.682,32.687c3.294-0.306,3.575,6.216-1.06,4.597C35.427,36.517,36.356,32.903,38.682,32.687z"/>
</g>
</svg>
