<?xml version="1.0" encoding="iso-8859-1"?>
<!-- Generator: Adobe Illustrator 29.6.1, SVG Export Plug-In . SVG Version: 9.03 Build 0)  -->
<svg version="1.1" id="Layer_1" xmlns="http://www.w3.org/2000/svg" xmlns:xlink="http://www.w3.org/1999/xlink" x="0px" y="0px"
	 viewBox="0 0 140 100" style="enable-background:new 0 0 140 100;" xml:space="preserve">
<g id="Co1GxQ_00000145780860345643749190000001350135990060866999_">
	<g>
		<path style="fill:#FFFFFF;" d="M21.93,38.344c0.514,0.494-0.253,0.984-0.351,1.485c-0.147,0.755,0.029,1.951,0.425,2.621
			c0.208,0.352,0.859,0.268,0.589,1.136l0.981-0.954c0.486-0.827-0.171-3.432,1.457-1.768c-0.829,1.028-1.304,1.984-1.008,3.333
			c0.385,0.032,0.325-0.757,0.408-0.815c0.042-0.029,0.484,0.287,1.026,0.125c1.089-0.326,1.962-2.029,2.023-3.092
			c0.97-0.236,1.506,0.111,1.206,1.105c-1.226,0.34-1.873,1.47-2.175,2.634c-0.077,0.295,0.137,0.648,0.055,0.869
			c-0.092,0.247-0.63,0.365-0.501,0.803c1.443-0.061,2.376-0.774,2.979-2.024c0.542,0.042,0.845,0.355,0.895,0.89
			c-0.067,0.315-1.499,0.471-1.943,0.922c-0.136,0.138-0.975,1.763-0.909,1.841c0.98-0.95,1.552-0.034,2.912-0.253
			c1.071-0.173,1.471-1.006,1.928-1.139c1.016-0.297,1.129,0.993,0.684,1.307c-0.172,0.121-1.167-0.134-1.809,0.021
			c-1.643,0.397-1.629,1.808-3.104,1.696c0.15,0.454,0.709,0.429,1.083,0.611c0.303,0.148,0.058,0.608,1.255,0.392
			c0.602-0.108,2.142-1.081,1.557,0.535l-0.486,0.258c-0.572-0.353-1.377-0.521-2.038-0.367c-0.151,0.035-0.159,0.324-0.301,0.384
			c-0.43,0.18-1.219,0.024-1.069,0.626c1.139-0.284,1.353,0.652,2.053,1.111c0.825,0.541,1.802,0.668,2.732,0.339
			c0.641,0.149,0.374,1.777-0.581,1.62c-0.56-1.207-2.069-1.356-3.278-1.227c-0.274,0.029-0.525,0.35-0.623,0.35
			c-0.232-0.001-0.475-0.709-0.914-0.561c-0.081,0.081,0.852,1.589,1.008,1.742c0.633,0.624,2.497,0.373,1.662,1.426
			c-0.772,0.974-1.047-0.391-1.356-0.713c-0.59-0.617-1.479-0.959-2.336-0.826l0.817,0.407c-1.035,1.148,0.336,3.606,1.817,3.682
			c0.355,0.845-0.579,1.781-1.207,1.108c-0.301-0.323-0.162-1.409-1.022-2.245c-0.846-0.822-1.652-0.611-2.447-1.326
			c0.259,0.58-0.075,1.142,0.03,1.682c0.128,0.661,1.158,1.108,0.989,1.672l-1.225,0.312c-0.01-0.634,0.114-2.131-0.407-2.536
			c-0.043-0.033-0.554,0.051-0.817-0.518c-0.507,1.414-1.391,2.008-0.981,3.725c0.106,0.444,1.18,1.434-0.151,1.571
			c-1.818,0.187-0.285-1.479-0.282-2.343c0.005-1.424-1.264-2.075-0.837-3.361c-1.279,0.833-1.844,1.969-1.429,3.46
			c-2.83,0.152,0.813-2.184-0.41-3.867c-0.454,0.036-0.339,0.727-0.418,0.809c-0.025,0.027-0.332-0.185-0.739-0.054
			c-1.108,0.357-2.26,1.909-2.134,3.087c-0.309,0.17-1,0.183-1.217-0.107c-0.713-0.956,0.401-0.995,0.842-1.384
			c0.983-0.868,1.766-2.207,0.808-3.366l0.816-0.408c-0.938-0.016-1.752,0.313-2.343,1.025c-0.323,0.389-0.117,0.966-0.818,0.811
			c-0.228-0.051-0.415-0.077-0.498-0.332c-0.338-1.031,0.66-0.773,1.195-1.011c0.859-0.382,1.156-1.007,1.237-1.921
			c-0.622,0.643-0.665,0.038-1.314-0.012c-0.538-0.041-1.238-0.025-1.763,0.099c-0.809,0.192-1.295,1.138-1.722,1.14
			c-0.835,0.005-0.975-1.448-0.181-1.588c0.469-0.083,0.911,0.29,1.861-0.004c1.117-0.345,1.346-1.172,1.745-1.415
			c0.251-0.153,0.747,0.027,0.963-0.359c-1.07-0.999-2.335-0.855-3.563-0.306c-0.52-0.285-0.365-1.13,0.094-1.333
			c0.223-0.099,0.587,0.391,0.963,0.478c0.765,0.177,2.061-0.075,2.51-0.771c-1.208,0.034-1.264-1.12-2.339-1.641
			c-0.998-0.484-2.438-0.135-2.544-0.211c-0.278-0.2-0.296-1.055,0.186-1.306c0.922-0.48,0.765,0.296,1.229,0.603
			c0.525,0.348,1.882,0.622,2.506,0.476c0.357-0.084,0.781-0.538,0.863-0.538c0.203-0.001,0.485,0.732,0.918,0.577
			c-0.785-1.094-1.214-2.465-2.862-2.238c0.458-2.535,0.97-0.576,1.581,0.01c0.476,0.457,1.629,0.833,2.302,0.803l-0.797-0.631
			c0.528-1.087-0.101-2.482-0.935-3.239c-0.261-0.237-0.843-0.246-1.038-0.602c-0.367-0.669,0.553-1.282,1.152-0.936
			c0.304,1.382,0.754,2.375,2.086,3.016c0.665,0.319,1.006-0.116,1.268,0.97c0.726-0.313,0.213-2.915-0.691-3.177
			c-0.256-0.763,0.47-1.218,1.114-0.697c-0.034,0.936-0.291,2.734,1.112,2.448l0.201,0.815c0.005-1.202,1.003-1.862,1.03-3.164
			c0.018-0.868-0.468-1.24-0.608-1.997C20.825,38.17,21.531,37.961,21.93,38.344z"/>
		<path style="fill:#FFFFFF;" d="M22.795,31.168v5.701h-2.86v-2.85c-7.644,0.425-14.083,6.854-14.72,14.444l-2.647,0.012
			c0.372-7.552,5.968-14.307,13.121-16.55c0.607-0.19,2.625-0.757,3.123-0.757H22.795z"/>
		<path style="fill:#FFFFFF;" d="M40.366,51.527h-5.721v-2.85h2.86c-0.594-6.476-5.321-12.368-11.646-14.048v-3.054
			c6.547,1.523,12.065,6.699,13.835,13.19c0.19,0.696,0.671,2.595,0.671,3.199V51.527z"/>
		<path style="fill:#FFFFFF;" d="M39.753,54.377c-1.101,5.749-5.712,10.885-11.098,13.067c-0.993,0.402-4.001,1.388-4.94,1.388
			h-3.78v-5.497h2.86v2.85c6.569-0.69,12.519-5.344,14.097-11.808H39.753z"/>
		<path style="fill:#FFFFFF;" d="M8.085,51.527v2.85c-0.62,0.058-1.347-0.082-1.946-0.001c-0.288,0.039-0.349-0.115-0.297,0.298
			c0.081,0.653,0.785,2.122,1.116,2.76c1.414,2.732,3.756,5.113,6.436,6.616c1.118,0.628,2.408,1.033,3.449,1.653l0.026,2.721
			c-7.737-1.984-13.948-8.792-14.3-16.898H8.085z"/>
		<polygon style="fill:#FFFFFF;" points="94.304,48.677 94.304,41.347 95.53,41.347 95.53,51.12 94.391,50.931 88.583,43.79 
			88.583,51.12 87.153,51.12 87.153,41.347 88.496,41.536 		"/>
		<path style="fill:#FFFFFF;" d="M123.27,41.2c6.71-0.178,6.998,9.127,1.153,9.903C116.745,52.121,116.151,41.388,123.27,41.2z
			 M122.445,42.414c-3.503,0.597-4.139,6.214-0.4,7.426C128.527,51.943,129.374,41.233,122.445,42.414z"/>
		<polygon style="fill:#FFFFFF;" points="105.541,41.347 105.541,42.365 100.025,42.365 100.025,45.623 104.928,45.623 
			104.928,46.641 100.025,46.641 100.025,49.898 105.745,49.898 105.745,51.12 98.594,51.12 98.594,41.347 		"/>
		<polygon style="fill:#FFFFFF;" points="84.701,41.347 84.701,42.365 79.287,42.365 78.981,42.671 78.981,45.623 84.088,45.623 
			84.088,46.641 78.981,46.641 78.981,49.898 84.701,49.898 84.701,51.12 77.755,51.12 77.755,41.347 		"/>
		<polygon style="fill:#FFFFFF;" points="43.635,41.347 43.635,45.623 49.356,45.623 49.356,41.347 50.581,41.347 50.581,51.12 
			49.356,51.12 49.356,46.641 43.635,46.641 43.635,51.12 42.409,51.12 42.409,41.347 		"/>
		<path style="fill:#FFFFFF;" d="M69.378,49.491v-3.258h1.226v3.563c0,0.526-1.945,1.154-2.441,1.232
			c-8.128,1.281-8.482-9.574-1.477-9.837c1.152-0.043,3.333,0.396,3.824,1.58l-0.797,0.596c-2.138-2.08-6.336-0.91-6.669,2.152
			C62.622,49.413,66.099,51.035,69.378,49.491z"/>
		<path style="fill:#FFFFFF;" d="M114.939,49.491v-3.258h1.226v3.868c-4.089,2.451-9.369,0.497-8.786-4.785
			c0.435-3.943,6.174-5.462,8.779-2.646l-0.707,0.664c-2.549-1.983-6.651-0.97-6.857,2.587
			C108.394,49.401,112.048,51.007,114.939,49.491z"/>
		<path style="fill:#FFFFFF;" d="M137.004,41.962l-0.506,0.985c-1.235-0.841-5.016-1.143-5.02,0.944
			c-0.005,2.577,6.152,0.979,5.95,4.689c-0.17,3.114-5.443,3.16-7.169,1.621c-0.383-0.341,0.109-1.078,0.306-1.093
			c0.115-0.009,1.532,0.849,2.096,0.945c1.44,0.246,4.363-0.121,3.421-2.187c-0.681-1.494-6.15-0.633-5.828-4.178
			C130.524,40.714,135.057,40.883,137.004,41.962z"/>
		<path style="fill:#FFFFFF;" d="M56.098,47.557l-3.677-6.209c0.488,0.004,0.924-0.125,1.325,0.204
			c0.546,0.448,2.698,4.866,3.066,4.88l3.062-4.885l1.331-0.199c0.304,0.221-3.882,5.991-3.882,6.411v3.359h-1.226V47.557z"/>
		<rect x="73.464" y="41.347" style="fill:#FFFFFF;" width="1.226" height="9.773"/>
		<path style="fill:#FFFFFF;" d="M63.862,54.988c0.716-0.744,2.528,3.458,3.063,3.665c-0.121-1.078-0.341-2.275-0.203-3.363
			c0.047-0.372-0.069-0.329,0.409-0.302v4.275c-0.326,0.066-0.423-0.098-0.614-0.304c-0.795-0.858-1.261-2.575-2.246-3.36v3.665
			h-0.409V54.988z"/>
		<path style="fill:#FFFFFF;" d="M122.703,54.988c0.277-0.006,0.398-0.071,0.624,0.134c0.759,0.692,1.336,2.806,2.237,3.531v-3.665
			h0.409v4.275c-0.358,0.052-0.449,0.012-0.708-0.211c-0.536-0.462-1.622-2.705-1.951-3.453c-0.823-0.119-0.201,0.524-0.201,0.712
			v2.952h-0.409V54.988z"/>
		<path style="fill:#FFFFFF;" d="M54.41,54.827c2.344-0.185,2.792,3.359,1.15,4.207C52.238,60.748,51.475,55.059,54.41,54.827z
			 M53.997,55.231c-1.493,0.442-1.422,4.281,0.929,3.793C56.772,58.641,56.396,54.52,53.997,55.231z"/>
		<path style="fill:#FFFFFF;" d="M136.8,54.99c-0.275,0.596-1.016,0.095-1.693,0.243c-2.35,0.513-1.422,4.617,1.285,3.828
			l0.001-1.631c-0.133-0.13-1.017,0.319-0.818-0.405l1.226-0.002v2.242c-1.111-0.059-2.336,0.333-3.038-0.741
			C132.36,56.375,134.47,54.145,136.8,54.99z"/>
		<path style="fill:#FFFFFF;" d="M85.11,54.988v2.952c0,0.844,1.323,1.509,1.992,0.862c0.037-0.036,0.46-0.813,0.46-0.862v-2.952
			h0.409v2.952c0,1.171-1.794,1.73-2.724,1.136c-0.087-0.056-0.545-0.879-0.545-0.933v-3.156H85.11z"/>
		<path style="fill:#FFFFFF;" d="M45.473,54.991l-0.001,0.404c-2.909-1.395-3.795,3.39-1.101,3.664
			c0.52,0.053,1.252-0.549,1.102,0.203C41.005,60.212,41.356,53.931,45.473,54.991z"/>
		<path style="fill:#FFFFFF;" d="M76.937,54.991l-0.001,0.404c-0.697-0.35-1.634-0.379-1.843,0.509
			c0.582,1.457,2.833,0.918,1.86,3.02c-0.318,0.502-1.713,0.306-2.262,0.338c-0.14-0.749,0.495-0.198,0.928-0.191
			c0.648,0.01,1.134-0.192,1.134-0.929c0-1.014-1.598-0.917-1.966-1.734C74.233,55.174,75.949,54.473,76.937,54.991z"/>
		<path style="fill:#FFFFFF;" d="M95.938,54.988v3.868c0.132-0.02,2.755-0.133,2.042,0.406l-2.451,0.001v-4.275H95.938z"/>
		<polygon style="fill:#FFFFFF;" points="107.38,54.988 107.379,55.19 105.95,55.497 105.95,59.264 105.541,59.264 105.541,55.192 
			104.112,55.19 104.111,54.988 		"/>
		<rect x="114.531" y="54.988" style="fill:#FFFFFF;" width="0.409" height="4.275"/>
		<path style="fill:#FFFFFF;" d="M122.046,49.841"/>
	</g>
</g>
</svg>
