<?xml version="1.0" encoding="iso-8859-1"?>
<!-- Generator: Adobe Illustrator 29.6.1, SVG Export Plug-In . SVG Version: 9.03 Build 0)  -->
<svg version="1.1" id="Layer_1" xmlns="http://www.w3.org/2000/svg" xmlns:xlink="http://www.w3.org/1999/xlink" x="0px" y="0px"
	 viewBox="0 0 140 100" style="enable-background:new 0 0 140 100;" xml:space="preserve">
<g id="_x30_liAgp_00000053524138648885458590000004729039749978105518_">
	<g>
		<path style="fill:#FFFFFF;" d="M56.209,59.432c-0.34-6.587,0.462-13.626,0.016-20.16c-0.066-0.97-0.318-3.072-0.63-3.918
			c-0.849-2.305-4.924-2.234-6.996-2.282l0-1.209l15.844,0.141l0,0.927c-1.295,0.331-3.564,0.266-4.562,1.217
			c-0.934,0.89-1.174,5.192-1.246,6.637c-0.454,9.027,0.372,18.132,0.32,27.132l-2.606-0.288L29.572,39.736
			c-0.029,6.267-0.492,12.684-0.168,18.951c0.078,1.513,0.269,4.849,0.972,6.001c1.159,1.9,4.33,1.921,6.35,2.016l-0.003,1.209
			l-15.837-0.145l-0.004-0.923c5.439-0.218,5.818-2.072,6.111-6.947c0.342-5.68,0.485-15.003-0.052-20.576
			c-0.333-3.45-1.992-5.584-5.597-5.944c-1.584-0.158-5.967-0.31-6.991,0.914c-0.426,0.51-0.694,1.884-0.767,2.57
			c-0.742,6.959-0.838,18.529,0.001,25.442c0.193,1.588,0.442,3.307,2.122,3.948c0.664,0.253,3.519,0.249,3.353,1.202L2.928,67.914
			l0.304-1.058c4.009-0.543,4.873-0.625,5.189-4.835c0.626-8.354-0.427-17.549-0.093-25.989c-0.212-2.885-2.99-2.713-5.238-2.957
			c-0.659-2.102,2.46-0.936,3.631-0.898c5.287,0.169,10.578-0.09,15.834,0c2.365,0.04,4.73-0.109,7.081-0.098
			C38.125,41.531,47.149,50.519,56.209,59.432z"/>
		<path style="fill:#FFFFFF;" d="M100.057,67.914l-0.001-0.907c5.307,0.117,5.526-1.941,5.8-6.502
			c0.369-6.135,0.371-14.797,0-20.931c-0.298-4.931-0.575-5.865-5.797-6.505c0.17-1.711,2.612-0.628,3.792-0.59
			c9.403,0.297,19.221-3.064,27.103,3.632c12.223,10.384,4.876,30.619-10.992,32.067L100.057,67.914z M114.612,33.465
			c-0.621,0.062-2.648,0.352-3.075,0.576c-0.921,0.481-0.442,3.003-0.519,4.028c-0.558,7.471-0.758,17.087,0.007,24.541
			c0.326,3.176,1.681,3.881,4.72,4.089C137.446,68.18,136.872,31.226,114.612,33.465z"/>
		<path style="fill:#FFFFFF;" d="M60.475,67.916c-0.793-0.629,2.443-1.216,2.745-1.359c2.371-1.118,4.829-6.257,5.923-8.649
			c2.772-6.059,5.318-13.037,7.698-19.306c0.363-0.956,2.024-6.72,2.665-6.734c0.738,0.574,0.951,1.521,1.292,2.344
			c3.108,7.5,5.524,15.344,8.76,22.793c1.228,2.826,3.531,8.838,6.536,9.857c0.776,0.263,2.606-0.073,2.442,1.055H85.139
			c-0.12-1.254,2.024-0.642,2.749-1.354c0.288-0.283,0.315-0.524,0.317-0.907c0.011-2.5-3.395-8.127-3.947-10.884l-11.615-0.048
			c-0.803,2.023-1.93,4.112-2.656,6.143c-0.431,1.206-1.933,4.745-0.992,5.694c0.782,0.79,3.124-0.009,3.052,1.355H60.475z
			 M83.312,53.07l-5.173-11.815L73.568,53.07H83.312z"/>
	</g>
</g>
</svg>
