<?xml version="1.0" encoding="iso-8859-1"?>
<!-- Generator: Adobe Illustrator 29.6.1, SVG Export Plug-In . SVG Version: 9.03 Build 0)  -->
<svg version="1.1" id="Layer_1" xmlns="http://www.w3.org/2000/svg" xmlns:xlink="http://www.w3.org/1999/xlink" x="0px" y="0px"
	 viewBox="0 0 140 100" style="enable-background:new 0 0 140 100;" xml:space="preserve">
<g>
	<path style="fill:#FFFFFF;" d="M133.439,71.442c-1.552-18.751-20.817-27.727-37.59-28.862l4.87-3.635
		c5.078-4.664,9.409-10.529,10.816-17.4l0.947,2.962c6.314,16.071,32.759,22.378,23.166,43.881
		C135.522,68.671,133.934,72.043,133.439,71.442z"/>
	<path style="fill:#FFFFFF;" d="M129.651,78.455l-9.892-0.521c1.221-14.15-6.062-24.581-19.852-27.937l-6.763-1.208
		C111.236,48.812,127.449,59.752,129.651,78.455z"/>
	<path style="fill:#FFFFFF;" d="M79.351,54.451v9.98l2.165,0.001c-0.194-2.933,0.436-5.763,3.925-5.684
		c3.419,0.077,3.522,2.976,3.646,5.682h5.679c0.217-3.08,0.165-5.275-3.513-3.775l-0.426-2.163c1.608-1.047,4.012-1.183,5.4,0.3
		c0.223,0.238,0.973,1.516,0.973,1.727v3.911h2.163v-9.575c0.576-0.705,1.618-0.329,2.434-0.405v12.408H88.681
		c-0.206,0-1.469,1.903-3.519,1.89c-1.792-0.011-3.049-1.89-3.242-1.89h-5.003V54.451H79.351z M84.67,61.231
		c-1.085,0.357-1.278,5.145,0.722,5.027C87.202,66.106,87.229,60.389,84.67,61.231z"/>
	<path style="fill:#FFFFFF;" d="M15.259,58.227v6.204l2.165,0.001c-0.095-3.223,0.604-6.105,4.468-5.671
		c4.446,0.5,4.3,9.958-0.544,9.987c-2.05,0.013-3.313-1.89-3.519-1.89h-5.003v-6.473c-0.462-0.212-1.893,0.655-1.893,0.944v7.418
		c-1.934,0.417-6.386,0.539-7.696-1.09c-0.314-0.391-0.958-2.138-0.958-2.551v-4.181l2.435-0.001
		c-0.082,3.219-0.488,6.111,3.785,5.396v-5.529c0-0.857,1.71-2.562,2.569-2.562H15.259z M20.856,61.24
		c-1.451,0.441-1.529,4.981,0.446,5.019C23.104,66.092,23.31,60.494,20.856,61.24z"/>
	<path style="fill:#FFFFFF;" d="M34.459,53.372v10.115c0,1.098,1.916,1.03,2.704,0.944v-5.125h2.434v5.125
		c0.653,0.12,2.163-0.12,2.163-0.944v-4.181h2.434v4.451c0,1.294,2.434,1.033,2.434-0.27v-5.26h2.434v6.069
		c0,1.419-1.935,2.856-3.381,2.853c-1.629-0.003-2.807-1.359-2.974-1.359c-0.079,0-0.661,0.713-1.015,0.865
		c-0.692,0.297-5.68,0.363-6.551,0.197c-0.749-0.143-1.028-0.984-1.396-1.047c-0.281-0.049-1.385,0.919-2.143,1.036
		c-1.552,0.241-3.494-0.151-5.099,0.034l-0.427-2.444h5.003c0.213,0,0.947-1.268,0.947-1.484v-9.575H34.459z"/>
	<path style="fill:#FFFFFF;" d="M74.754,54.451v14.161c-0.38,0.619-0.89,0.077-1.483,0.109c-1.735,0.091-4.017,0.459-5.285-1.18
		c-0.233-0.301-0.804-1.622-0.804-1.895v-6.339h2.434v5.529c0,1.301,1.605,1.748,2.704,1.484V54.451H74.754z"/>
	<path style="fill:#FFFFFF;" d="M58.528,53.372v10.654c0,0.328-0.75,1.592-1.069,1.901c-1.69,1.633-4.902,0.685-7.045,0.933
		l-0.269-2.429h5.273c0.062,0,0.676-0.842,0.676-0.944V53.372H58.528z"/>
	<rect x="60.691" y="54.451" style="fill:#FFFFFF;" width="2.434" height="12.408"/>
	<rect x="103.961" y="54.451" style="fill:#FFFFFF;" width="2.434" height="12.408"/>
	<rect x="27.428" y="55.799" style="fill:#FFFFFF;" width="2.434" height="7.822"/>
	<rect x="51.497" y="55.799" style="fill:#FFFFFF;" width="2.434" height="7.822"/>
	<path style="fill:#FFFFFF;" d="M5.984,70.413c2.202-0.659,2.202,2.99,0,2.331C4.97,72.44,4.97,70.716,5.984,70.413z"/>
	<path style="fill:#FFFFFF;" d="M95.239,70.565c-0.939,1.078-2.946-0.338-1.85-1.709C94.465,67.51,96.279,69.369,95.239,70.565z"/>
	<path style="fill:#FFFFFF;" d="M8.959,70.414c1.647-0.488,1.768,1.129,1.181,2.262C8.354,73.582,7.437,70.864,8.959,70.414z"/>
	<path style="fill:#FFFFFF;" d="M20.856,61.24"/>
</g>
</svg>
