<?xml version="1.0" encoding="iso-8859-1"?>
<!-- Generator: Adobe Illustrator 29.6.1, SVG Export Plug-In . SVG Version: 9.03 Build 0)  -->
<svg version="1.1" id="Layer_1" xmlns="http://www.w3.org/2000/svg" xmlns:xlink="http://www.w3.org/1999/xlink" x="0px" y="0px"
	 viewBox="0 0 140 100" style="enable-background:new 0 0 140 100;" xml:space="preserve">
<g>
	<g>
		<path style="fill:#FFFFFF;" d="M35.969,91.183h0.59l-1.448-2.974l-0.244,0.063v2.91h0.589v0.23h-3.679v-0.23h0.705V82.03h-0.756
			V81.8h3.14v6.217l0.205-0.077l2.884-2.396h-1.205v-0.231h2.525v0.231h-0.897l-1.525,1.294l2.217,4.346h0.461v0.23h-3.563V91.183z"
			/>
		<path style="fill:#FFFFFF;" d="M42.818,81.8v4.691c0.218-0.641,0.641-1.308,1.91-1.308c1.192,0,1.987,0.59,1.987,2.141v3.858
			h0.718v0.23h-3.627v-0.23h0.525v-4.166c0-1.09-0.154-1.218-0.474-1.218c-0.538,0-1.038,0.808-1.038,1.846v3.538h0.551v0.23h-3.64
			v-0.23h0.705V82.03h-0.705V81.8H42.818z"/>
		<path style="fill:#FFFFFF;" d="M51.076,88.401v-0.987c0-1.628-0.141-2.051-0.654-2.051c-0.23,0-0.603,0.103-0.603,0.513
			c0,0.103,0.026,0.23,0.077,0.372h0.32c0.064,0.166,0.103,0.333,0.103,0.576c0,0.603-0.487,1-1.128,1
			c-0.795,0-1.103-0.436-1.103-1.063c0-1.077,0.936-1.577,2.679-1.577c2.012,0,2.691,0.564,2.691,2.423v2.602
			c0,0.525,0.154,0.667,0.372,0.667c0.231,0,0.449-0.244,0.513-1.32l0.192,0.013c-0.064,1.538-0.538,1.974-1.641,1.974
			c-1.038,0-1.615-0.32-1.769-0.948c-0.205,0.615-0.577,0.948-1.474,0.948s-1.897-0.269-1.897-1.551
			c0-1.294,1.115-1.589,2.948-1.589H51.076z M51.076,89.798v-1.191h-0.09c-0.539,0-0.794,0.384-0.794,1.166v0.205
			c0,0.923,0.089,1.051,0.333,1.051S51.076,90.618,51.076,89.798z"/>
		<path style="fill:#FFFFFF;" d="M57.206,88.067v0.667c0,1.641,0.295,2.371,1.294,2.371c1.167,0,1.667-0.987,1.808-1.679l0.23,0.025
			c-0.167,0.795-0.59,2.089-2.73,2.089c-1.974,0-3.076-1.103-3.076-3.102c0-2.153,1.307-3.256,3.422-3.256
			c1.563,0,2.345,0.667,2.345,1.628c0,0.795-0.423,1.205-1.064,1.205c-0.666,0-1.141-0.346-1.141-1.064
			c0-0.115,0.013-0.281,0.064-0.461h0.423c0.064-0.18,0.09-0.333,0.09-0.461c0-0.437-0.257-0.615-0.615-0.615
			C57.514,85.415,57.206,86.158,57.206,88.067z"/>
		<path style="fill:#FFFFFF;" d="M63.951,81.8v4.691c0.218-0.641,0.641-1.308,1.91-1.308c1.192,0,1.986,0.59,1.986,2.141v3.858
			h0.718v0.23h-3.627v-0.23h0.525v-4.166c0-1.09-0.154-1.218-0.474-1.218c-0.539,0-1.038,0.808-1.038,1.846v3.538h0.551v0.23h-3.641
			v-0.23h0.705V82.03h-0.705V81.8H63.951z"/>
	</g>
	<g>
		<path style="fill:#FFFFFF;" d="M77.002,84.375h3.814v0.267h-0.605l1.33,4.982l1.316-4.982h-1.021v-0.267h1.996v0.267h-0.619
			l-1.775,6.771h-2.025l-1.287-4.539l-1.389,4.539h-1.982l-2.188-6.771H71.9v-0.267h4.48v0.267h-0.887l1.359,5.026l1.064-3.46
			l-0.369-1.566h-0.547V84.375z"/>
		<path style="fill:#FFFFFF;" d="M88.221,84.228c2.484,0,3.666,1.168,3.666,3.563c0,2.425-1.123,3.77-3.756,3.77
			c-2.484,0-3.74-1.33-3.74-3.637C84.391,85.499,85.84,84.228,88.221,84.228z M89.049,87.243c0-1.597-0.045-2.75-0.873-2.75
			c-0.902,0-0.945,1.153-0.945,2.824v1.153c0,1.715,0.029,2.824,0.93,2.824c0.844,0,0.889-0.872,0.889-2.795V87.243z"/>
		<path style="fill:#FFFFFF;" d="M96.246,84.228c2.484,0,3.666,1.168,3.666,3.563c0,2.425-1.123,3.77-3.756,3.77
			c-2.484,0-3.74-1.33-3.74-3.637C92.416,85.499,93.865,84.228,96.246,84.228z M97.074,87.243c0-1.597-0.045-2.75-0.873-2.75
			c-0.902,0-0.945,1.153-0.945,2.824v1.153c0,1.715,0.029,2.824,0.93,2.824c0.844,0,0.889-0.872,0.889-2.795V87.243z"/>
		<path style="fill:#FFFFFF;" d="M105.189,90.378c-0.311,0.739-0.889,1.183-2.041,1.183c-1.641,0-2.676-1.168-2.676-3.651
			c0-2.499,1.035-3.682,2.928-3.682c0.916,0,1.447,0.266,1.715,0.725V80.59h-0.902v-0.266h3.697v10.822h0.723v0.267h-3.281
			L105.189,90.378z M105.158,89.402v-3.224c0-0.798-0.311-1.522-0.961-1.522c-0.725,0-0.871,0.872-0.871,2.928v0.769
			c0,2.085,0.178,2.572,0.812,2.572C104.568,90.925,105.158,90.511,105.158,89.402z"/>
	</g>
	<g>
		
			<rect x="70.108" y="10.367" transform="matrix(0.5955 0.8033 -0.8033 0.5955 53.5184 -49.2503)" style="fill:#FFFFFF;" width="11.12" height="36.309"/>
		
			<rect x="71.864" y="36.272" transform="matrix(-0.6783 0.7348 -0.7348 -0.6783 169.9339 34.4557)" style="fill:#FFFFFF;" width="11.12" height="36.309"/>
		<path style="fill:#FFFFFF;" d="M64.292,4.286v11.653l6.65-4.891l1.865,1.168c-0.851,1.59-2.007,3-2.869,4.585
			c-8.667,15.931-4.734,35.82-5.645,53.26h-11.12c-0.155-10.34-2.442-20.622-8.507-29.095l1.783-1.349l6.724,5.844V4.286H64.292z"/>
	</g>
</g>
</svg>
