<?xml version="1.0" encoding="iso-8859-1"?>
<!-- Generator: Adobe Illustrator 29.6.1, SVG Export Plug-In . SVG Version: 9.03 Build 0)  -->
<svg version="1.1" id="Layer_1" xmlns="http://www.w3.org/2000/svg" xmlns:xlink="http://www.w3.org/1999/xlink" x="0px" y="0px"
	 viewBox="0 0 140 100" style="enable-background:new 0 0 140 100;" xml:space="preserve">
<g>
	<path style="fill:#FFFFFF;" d="M53.297,4.246c0.164-0.536,1.125-0.389,1.537-0.134c0.514,0.317,1.61,3.069,2.234,2.934
		c0.707-0.402,0.7-1.285,1.097-1.835c0.05-0.069,1.151-1.158,1.227-1.197c2.502-1.295,3.103,3.086,4.508,3.039
		c0.864-2.145,2.564-4.793,4.621-1.938c0.495,0.687,0.464,1.705,1.482,1.716c0.555,0.006,1.043-1.462,1.334-1.866
		c0.153-0.213,0.505-0.235,0.671-0.434c0.12-0.144,0.014-0.543,0.087-0.613c0.695-0.665,2.433,0.686,2.907,1.296
		c0.312,0.401,0.61,1.624,1.09,1.612c1.104-0.028,1.761-2.948,3.166-2.968c2.069-0.03,2.782,3.193,3.662,3.194
		c0.481-0.687,1.721-3.424,2.652-3.156c1.092,0.314,0.366,3.245,0.767,4.126c0.514,1.129,5.842,3.048-0.126,2.927l-0.241,5.606
		c1.106-0.107,1.094-1.689,1.449-2.327c1.389-2.495,3.86,0.773,3.673,2.572c1.927-0.009,1.079-3.165,3.069-3.416
		c2.127-0.268,2.082,3.035,2.906,3.414c0.426,0.196,0.372-0.286,0.479-0.479c0.656-1.183,0.954-3.397,2.817-2.831
		c1.378,0.419,1.245,2.535,2.309,3.308c1.265-0.764,0.871-3.055,2.497-3.372c1.899-0.37,2.208,3.375,2.867,3.372
		c1.39-0.787,0.969-3.532,2.909-3.406c1.569,0.102,1.347,1.483,1.74,2.176c0.334,0.588,1.078,1.175,1.374,1.795
		c0.991,2.075,0.215,4.716,0.186,6.863c-0.137,9.997,0.113,20.006,0.022,30.004l-0.378,0.841h-4.999
		c0.079-0.239-0.244-0.529-0.244-0.609V40.688c0-0.04-0.562,0.022-0.698-0.391c-0.46-1.394,0.268-2.459-0.961-4.409
		c-3.53-5.6-12.601-4.964-15.288,1.144c-0.509,1.156-0.381,2.216-0.671,3.23c-0.101,0.351-0.67,0.898-0.67,1.037v13.772h-8.291
		V30.328c0-5.813-6.751-10.867-12.288-10.822c-5.85,0.047-12.097,5.535-12.097,11.554v24.01h-8.413l-0.366-0.366v-13.65
		c0-0.068-0.654-0.593-0.832-1.069c-0.704-1.883,0.219-2.939-1.726-5.149c-4.459-5.07-13.521-2.94-14.973,3.806
		c-0.111,0.514,0.075,1.113-0.074,1.633c-0.099,0.345-0.683,0.712-0.683,0.779v13.65l-0.366,0.366h-4.877l-0.366-0.366V17.653
		c0-0.083,0.692-0.588,0.835-0.872c0.625-1.24,0.562-3.167,2.456-3.178c1.843-0.011,1.69,2.386,2.683,3.435
		c1.02-0.974,0.934-3.2,2.46-3.4c2.117-0.278,1.958,2.515,3.266,3.405c0.903-1.366,0.834-3.783,3.039-3.414
		c1.207,0.202,1.346,2.685,2.452,3.41c0.854-0.712,0.842-3.215,1.956-3.417c2.537-0.458,2.823,3.425,3.408,3.417
		c0.126-0.563,0.983-1.177,1.088-1.406c0.326-0.714-0.101-1.677,1.164-1.953c2.156-0.47,2.13,1.152,2.631,2.633
		c0.087,0.256,0.017,0.952,0.478,0.728c0.739-0.358,0.238-4.738,0.335-5.692l-0.365-0.367l-1.636-0.071l-0.414-0.572
		c0.01-0.769,2.449-2.04,2.449-2.437V4.246z M55.98,13.143c0.049-0.715-0.014-1.928-0.975-1.949l-0.246,1.949L55.98,13.143z
		 M58.66,13.144c-0.044-0.654,0.245-1.471-0.364-1.946c-0.72,0.479-0.66,1.167-0.608,1.946L58.66,13.144z M61.586,13.143
		c0.047-0.695,0.01-1.607-0.727-1.949l-0.246,1.95L61.586,13.143z M64.513,13.143c0.06-0.713-0.021-1.458-0.608-1.945
		c-0.609,0.475-0.32,1.292-0.364,1.946L64.513,13.143z M67.189,11.195l-0.724-0.003l0,1.95l0.741-0.11l0.214-0.29L67.189,11.195z
		 M70.343,13.117c0.243-0.376-0.493-1.967-0.585-1.922c-0.496,0.38-1.037,2.198-0.045,2.158
		C69.775,13.35,70.325,13.145,70.343,13.117z M72.801,11.194l-0.547,0.301l-0.18,1.649h0.973L72.801,11.194z M75.365,11.198
		c-0.784,0.278-0.498,2.349,0.24,2.188C76.286,13.237,75.953,11.497,75.365,11.198z M78.653,11.193
		c-0.793-0.649-1.462,1.747-0.361,2.189C79.081,13.215,78.862,11.365,78.653,11.193z M80.854,11.194
		c-0.227,0.464-0.514,2.118,0.359,1.948C81.754,13.037,81.873,11.015,80.854,11.194z M84.262,11.194
		c-0.537-0.529-0.75,1.102-0.746,1.348c0.002,0.147-0.012,0.294,0.004,0.44l0.629,0.339C85.11,12.875,84.344,11.992,84.262,11.194z
		 M62.255,18.198l0.195-0.902l-0.975-0.741C60.391,17.421,60.931,19.001,62.255,18.198z M77.568,16.556
		c-0.757,0.175-0.742,1.984,0.431,1.679C79.293,17.899,78.095,16.434,77.568,16.556z M98.287,26.306h3.78
		c-0.155-1.835,0.906-4.866-1.288-5.657c-1.343-0.484-2.761,0.28-3.045,1.691C97.58,23.104,97.429,26.066,98.287,26.306z
		 M38.351,20.752c-2.135,0.488-2.083,5.317-0.782,5.554c1.172,0.213,3.842,0.397,4.035-1.086
		C41.919,22.787,41.421,20.05,38.351,20.752z"/>
	<path style="fill:#FFFFFF;" d="M59.637,30.328c0.863-7.279,9.331-11.069,15.526-7.476c7.237,4.198,4.707,13.107,5.199,20.029
		c-1.594-1.608-1.556-4.722-2.387-6.752c-2.866-7.005-14.764-5.843-16.353,1.546c-0.323,1.504-0.356,2.964-0.949,4.414
		c-0.134,0.328-0.793,0.853-0.793,0.914v11.822h-0.244V30.328z"/>
	<path style="fill:#FFFFFF;" d="M90.971,63.844c1.641,0.326,2.441,2.807,1.265,4.068c-0.335,0.359-1.611,0.513-1.385,0.926
		c0.136,0.25,0.688,0.395,0.94,0.768c0.582,0.861,0.875,1.991,1.476,2.859c-2.865,2.905-3.041-3.44-4.003-3.497
		c-0.6-0.036-0.122,0.574-0.122,0.604v3.534h-2.438v-9.263C87.969,64.016,89.791,63.61,90.971,63.844z M89.145,67.988
		c1.883-0.266,2.032-2.832-0.001-2.682L89.145,67.988z"/>
	<path style="fill:#FFFFFF;" d="M77.316,63.844c1.743,0.376,2.062,3.35,0.367,4.021c1.699,0.894,2.214,2.532,0.939,4.109
		c-0.185,0.229-1.408,1.133-1.549,1.133h-4.023v-9.263C74.29,64.024,76.173,63.598,77.316,63.844z M75.244,67.5
		c0.902,0.088,1.775-0.839,1.344-1.704c-0.274-0.491-1.086-0.785-1.306-0.084L75.244,67.5z M76.89,68.779
		c-0.294-0.294-1.262-0.477-1.538-0.072l-0.107,2.937C76.578,71.924,77.758,69.646,76.89,68.779z"/>
	<path style="fill:#FFFFFF;" d="M50.737,63.844c1,0.222,1.885,1.501,1.847,2.554c-0.055,1.517-1.399,1.661-2.212,2.562
		c1.626,0.191,1.594,2.462,2.683,3.53c-0.593,0.702-1.718,0.861-2.433,0.243c-1.045-0.903-0.295-3.481-1.957-3.771v4.144h-2.195
		v-9.263C47.702,64.027,49.607,63.594,50.737,63.844z M50.067,65.61l-1.402-0.304c0.038,0.472-0.204,2.657,0.363,2.676
		C50.045,67.81,50.826,66.356,50.067,65.61z"/>
	<path style="fill:#FFFFFF;" d="M25.498,63.844l2.438,0.002c-0.335,0.762-0.316,1.732-0.243,2.562
		c0.032,0.362-0.195,0.7,0.362,0.606c1.093-1.985,0.847-3.731,3.781-3.169c0.171,0.153-1.577,3.828-2.436,3.776
		c1.697,0.633,1.523,2.483,2.317,3.538c0.476,0.632,1.363,0.307,0.548,1.645c-3.538,1.711-2.856-3.808-4.084-4.698l-0.489,0.248
		v4.753h-2.195V63.844z"/>
	<path style="fill:#FFFFFF;" d="M100.847,63.844l2.196-0.001c0.048,0.845-0.071,1.72-0.001,2.565
		c0.03,0.363-0.192,0.701,0.363,0.607c1.004-2.022,0.904-3.716,3.781-3.169c-0.724,1.388-0.944,2.993-2.433,3.777
		c1.601,0.675,1.481,2.413,2.319,3.532c0.479,0.64,1.354,0.32,0.543,1.65c-1.473,0.788-2.466-0.013-2.982-1.41
		c-0.405-1.097-0.242-3.087-1.591-3.406v5.119h-2.195V63.844z"/>
	<path style="fill:#FFFFFF;" d="M45.186,66.707c-0.232,0.247-1.68,0.731-1.886,0.548c0.895-1.489-1.07-2.669-1.207-1.099
		c-0.131,1.496,5.288,2.491,3.268,5.721c-1.358,2.171-5.654,1.742-5.498-1.084c0.067-1.22,1.082-1.769,2.217-1.584
		c-1.136,1.836,1.457,2.996,1.694,1.553c0.176-1.071-5.448-3.065-3.4-6.065C42.255,61.94,47.131,64.635,45.186,66.707z"/>
	<path style="fill:#FFFFFF;" d="M112.519,63.876l2.47,9.229l-2.185-0.007l-0.235-1.105h-2.229l-0.235,1.105l-2.185,0.007
		l2.462-9.236L112.519,63.876z M112.066,70.181c0.085-0.08-0.299-2.116-0.73-2.191l-0.488,2.436L112.066,70.181z"/>
	<path style="fill:#FFFFFF;" d="M37.179,63.869l2.462,9.236c-1.525,0.093-1.904,0.222-2.589-1.187l-2.071,0.111l-0.243,1.051
		l-2.167,0.025l2.462-9.236L37.179,63.869z M36.717,70.181c0.085-0.08-0.299-2.116-0.731-2.191l-0.488,2.436L36.717,70.181z"/>
	<path style="fill:#FFFFFF;" d="M97.887,63.879l2.472,9.227l-1.968-0.103l-0.235-1.105l-2.458,0.132l-0.243,1.051l-2.168,0.024
		l2.462-9.236L97.887,63.879z M97.434,70.181c0.097-0.092-0.167-2.124-0.73-2.193l-0.488,2.437L97.434,70.181z"/>
	<path style="fill:#FFFFFF;" d="M64.026,73.105l-2.168-0.024l-0.243-1.051l-2.316-0.156l-0.427,1.202l-1.917,0.03l2.423-9.153
		l2.091,0.132L64.026,73.105z M60.611,67.987c-0.63-0.066-0.389-0.002-0.493,0.357c-0.194,0.668-0.287,1.408-0.48,2.08l1.433-0.601
		L60.611,67.987z"/>
	<path style="fill:#FFFFFF;" d="M86.46,73.105l-2.168-0.024l-0.243-1.051l-2.316-0.156l-0.427,1.202l-1.919,0.03l2.425-9.154
		l2.091,0.132L86.46,73.105z M83.045,67.987c-0.63-0.066-0.389-0.002-0.493,0.357c-0.194,0.668-0.287,1.408-0.48,2.08l1.433-0.601
		L83.045,67.987z"/>
	<path style="fill:#FFFFFF;" d="M77.196,90.901c0.432-0.748-0.297-1.21-0.974-1.354c-2.427-0.514-5.065,6.478-6.797,3.151
		c-0.629-1.207,0.064-2.508,0.821-3.502c-0.015,1.135-1.207,2.122-0.383,3.306c3.227,0.556,4.182-6.159,7.925-3.311
		c1.344-3.057,5.659-4.209,5.141,0.25c0.724-0.333,2.953-0.67,3.287-1.347c0.42-0.849-2.473-0.151-2.569-0.847
		c-0.447-0.718,0.395-1.812,1.022-2.159c1.62,0.38,2.619,2.508,1.443,3.878c-0.76,0.885-3.51,1.545-4.678,1.661
		C79.988,90.771,78.32,90.287,77.196,90.901z M82.558,88.948c-0.85-2.539-3.368-1.199-4.384,0.369
		C79.472,90.315,81.19,89.258,82.558,88.948z"/>
	<path style="fill:#FFFFFF;" d="M66.709,63.844v7.678c0,0.166-0.551,0.609,0.241,0.853c-0.114-1.136,1.055-1.193,1.952-1.219
		l0.001,1.95H64.27v-9.263H66.709z"/>
	<path style="fill:#FFFFFF;" d="M67.436,80.421c0.076,0.645,0.561,1.25,0.731,1.833c0.219,0.754-0.579-0.259-0.476,0.471
		c0.301,2.139,1.5,6.282,1.103,8.19c-0.474,2.279-3.02,2.729-3.685,0.244c-0.181-0.678,0.133-1.665-0.593-1.964
		c0.178,0.857-0.683,0.897-0.927,1.391c-0.374,0.757-0.105,1.734-0.969,2.512c-0.573,0.517-3.363,2.11-4.135,2.38
		c-1.313,0.46-2.836,0.591-4.212,0.783l6.1-2.795c0.371-0.206,2.547-1.505,2.625-1.639c0.534-0.915-1.091-2.125-0.433-3.118
		c0.412-0.054,0.226,0.594,0.633,0.718c1.268,0.385,1.308-1.682,1.681-1.69c0.901,1.099,0.136,3.736,1.946,3.912
		c1.734,0.169,1.429-0.926,1.314-2.302c-0.136-1.624-1.656-7.673-1.254-8.618C67.034,80.379,66.948,80.353,67.436,80.421z"/>
	<path style="fill:#FFFFFF;" d="M62.79,77.757c0.282,0.398-0.92,2.91-1.326,3.392c-0.549-0.577,1.429-2.541,0.484-2.68
		c-0.464-0.068-7.178,2.895-7.184,3.291c0.136,0.417,1.096,0.773,1.179,0.905c0.086,0.135-0.207,0.434,0.01,0.808
		c0.917,1.574,4.979,3.539,3.067,6.204c-1.223,1.705-2.919,0.344-4.03-0.629c-1.438,0.351-1.318,3.209-2.543,3.305
		c-1.456,0.115-1.587-2.642-1.344-3.644l0.351,1.962c1.513,2.888,2.105-2.314,3.476-2.667c0.965-0.249,1.452,2.21,3.552,1.136
		c1.06-0.543,0.504-1.233-0.066-2.015c-1.218-1.669-5.064-3.723-3.668-6.107c0.488-0.834,3.855-2.281,4.892-2.665
		C60.194,78.147,62.411,77.223,62.79,77.757z"/>
	<path style="fill:#FFFFFF;" d="M70.119,77.983l0.75,2.066l-0.511,0.264c0.52,3.193,1.675,6.626,0.981,9.856l-1.772-11.876
		L70.119,77.983z"/>
	<path style="fill:#FFFFFF;" d="M53.787,85.295c0.937,0.735,1.075,0.247,2.019,0.024l0.656,0.585
		c-0.502,0.869-0.932,0.329-1.519,0.419c-0.457,0.07-0.762,0.958-1.353-0.212L53.787,85.295z"/>
	<path style="fill:#FFFFFF;" d="M84.995,83.831c-0.404,0.106-0.649-0.405-0.897-0.448c-0.107-0.019-1.941,1.096-1.537-0.401
		c0.225-0.834,1.373,0.175,1.455,0.119c0.062-0.042,0.074-0.851,0.612-0.73l0.561,0.644L84.995,83.831z"/>
</g>
</svg>
