<?xml version="1.0" encoding="iso-8859-1"?>
<!-- Generator: Adobe Illustrator 29.6.1, SVG Export Plug-In . SVG Version: 9.03 Build 0)  -->
<svg version="1.1" id="Layer_1" xmlns="http://www.w3.org/2000/svg" xmlns:xlink="http://www.w3.org/1999/xlink" x="0px" y="0px"
	 viewBox="0 0 140 100" style="enable-background:new 0 0 140 100;" xml:space="preserve">
<g>
	<path style="fill:#FFFFFF;" d="M54.995,33.743l3.958-8.342l25.775-0.331l4.466,8.324c-0.331,1.685-8.451,0.967-10.388,1.04
		c-3.942,0.15-6.227,0.044-10.038-0.035C64.18,34.305,59.427,34.983,54.995,33.743z"/>
	<path style="fill:#FFFFFF;" d="M74.022,59.076l5.294,0.074l2.083,10.743V59.076h2.682v15.549l-5.367,0.004
		c-0.147-2.583-0.308-5.784-0.847-8.28c-0.143-0.664-0.236-2.024-1.162-1.864v10.141h-2.682V59.076z"/>
	<path style="fill:#FFFFFF;" d="M44.516,74.625l-3.357,0.006l0.008-2.716l-2.969-0.008l-0.391,2.724l-2.68-0.006V60.766
		c0-2.377,9.388-2.377,9.388,0V74.625z M41.166,61.777h-3.36v6.767h3.36V61.777z"/>
	<path style="fill:#FFFFFF;" d="M14.808,59.213c1.901-0.565,6.757-0.667,7.443,1.689c0.392,1.348,0.403,9.795,0.116,11.338
		c-0.673,3.622-8.464,3.206-9.234,0.559C12.501,70.63,12.28,59.965,14.808,59.213z M19.703,61.78H16.35v10.141h3.353V61.78z"/>
	<path style="fill:#FFFFFF;" d="M64.433,59.213c1.901-0.565,6.757-0.667,7.443,1.689c0.392,1.348,0.403,9.795,0.116,11.338
		c-0.673,3.622-8.464,3.206-9.234,0.559C62.126,70.63,61.905,59.965,64.433,59.213z M65.304,61.78v10.141
		c6.408,1.226,3.382-6.009,4.027-10.144L65.304,61.78z"/>
	<path style="fill:#FFFFFF;" d="M83.829,44.567c-0.745,1.087-2.685,3.576-3.826,3.918c-1.525,0.457-13.466,0.398-15.123-0.026
		c-1.095-0.28-4.096-2.364-3.852-3.891H83.829z"/>
	<path style="fill:#FFFFFF;" d="M27.75,71.921l5.369,0.341l-0.001,2.36c-9.714,1.565-9.488-2.935-8.753-11.183
		c0.565-6.334,3.729-4.022,8.753-4.36l0,2.698L27.75,61.78V71.921z"/>
	<path style="fill:#FFFFFF;" d="M135.721,59.079l0,2.698l-5.38,0.392l0.008,3.671l4.031-0.001v2.022l-4.031-0.001l0,4.064
		l5.371-0.001l0,2.698l-6.712-0.332c-1.906-0.937-1.807-12.204-1.006-13.866C129.082,58.185,133.621,59.309,135.721,59.079z"/>
	<polygon style="fill:#FFFFFF;" points="55.916,59.076 55.919,61.777 52.563,61.78 52.563,74.625 49.21,74.625 49.21,61.78 
		45.853,61.777 45.857,59.076 	"/>
	<path style="fill:#FFFFFF;" d="M100.843,59.079l-0.295,2.063l-5.741,0.638l0.294,3.423l3.738,0.635v2.024l-3.403,0.295
		l-0.629,3.764l6.042,0.003l0,2.698l-6.712-0.332c-2.38-1.17-1.371-12.167-0.743-14.821L100.843,59.079z"/>
	<path style="fill:#FFFFFF;" d="M126.329,59.076c0.509,2.852-1.728,2.915-4.024,2.704v12.845h-2.682V61.78l-3.357-0.003l0.004-2.701
		H126.329z"/>
	<path style="fill:#FFFFFF;" d="M6.962,59.076v12.845l4.71,0.323l0.652,2.378c-1.486,0.084-8.045,0.457-8.045-1.687V59.076H6.962z"
		/>
	<path style="fill:#FFFFFF;" d="M105.541,59.076v12.845l4.697,0.003l0,2.697c-1.458,0.169-7.379,0.311-7.379-1.686V59.076H105.541z"
		/>
	<rect x="57.257" y="59.076" style="fill:#FFFFFF;" width="3.353" height="15.549"/>
	<path style="fill:#FFFFFF;" d="M101.265,39.835l-3.018,4.056H87.853l0.006-1.005c0.586-0.458,2.769-3.051,3.012-3.051H101.265z"/>
	<path style="fill:#FFFFFF;" d="M56.335,43.891h-9.724c-1.027,0-3.172-2.819-3.018-4.056h10.394
		C54.228,39.835,56.654,43.169,56.335,43.891z"/>
	<rect x="111.576" y="59.076" style="fill:#FFFFFF;" width="2.682" height="15.549"/>
</g>
</svg>
