<?xml version="1.0" encoding="iso-8859-1"?>
<!-- Generator: Adobe Illustrator 29.6.1, SVG Export Plug-In . SVG Version: 9.03 Build 0)  -->
<svg version="1.1" xmlns="http://www.w3.org/2000/svg" xmlns:xlink="http://www.w3.org/1999/xlink" x="0px" y="0px"
	 viewBox="0 0 140 100" style="enable-background:new 0 0 140 100;" xml:space="preserve">
<g id="Layer_2">
</g>
<g id="Layer_1">
	<g>
		<path style="fill:#FFFFFF;" d="M124.009,42.504h-2.687c2.044-4.381,3.674-10.254,0.004-14.245
			c-4.359-4.741-13.65-3.352-19.21-1.826c-14.029,3.849-31.268,15.791-38.909,28.266c-8.742,14.273-2.113,22.827,14.081,19.813
			c9.548-1.777,19.878-7.451,27.539-13.304c0.664-0.508,4.284-3.836,4.583-3.836h3.493c-9.111,8.846-21.416,16.62-34.002,19.291
			c-21.974,4.663-28.18-8.984-16.047-26.078C71.32,38.658,87.264,27.7,101.4,23.925c6.045-1.614,14.347-2.669,19.907,0.771
			C127.685,28.641,126.675,36.538,124.009,42.504z"/>
		<path style="fill:#FFFFFF;" d="M80.103,45.745l0.196,2.132c-2.088-0.84-5.742-1.703-7.826-0.572
			c-1.382,0.75-0.381,1.604,0.795,1.783c2.085,0.318,7.767-0.383,7.767,2.999c0,3.877-8.191,3.29-10.505,2.068l-0.259-2.158
			c2.128,1.136,5.86,1.827,8.101,0.844c0.628-0.276,0.843-0.401,0.643-1.172c-2.156-1.176-9.276,0.321-9.06-3.657
			C70.158,44.262,77.663,44.727,80.103,45.745z"/>
		<polygon style="fill:#FFFFFF;" points="59.162,47.161 51.46,47.161 51.46,49.132 57.192,49.132 56.834,50.923 51.46,50.923 
			51.46,53.073 59.162,53.073 58.535,54.864 49.668,54.864 49.668,45.459 49.937,45.191 58.535,45.191 		"/>
		<path style="fill:#FFFFFF;" d="M126.875,45.191l0.537,1.791h-7.613c-0.525,0.52-0.176,1.459-0.269,2.15h5.911l-0.537,1.791h-5.374
			c0.093,0.691-0.257,1.63,0.269,2.15h7.613l-0.537,1.791h-9.136v-9.673H126.875z"/>
		<path style="fill:#FFFFFF;" d="M84.42,51.46v3.404h-1.791v-9.673h8.151c0.06,0,0.961,0.455,1.076,0.536
			c1.774,1.241,1.84,3.956-0.03,5.168c-0.157,0.102-1.146,0.566-1.225,0.566H84.42z M84.714,47.007c-0.519,0.17-0.285,2-0.216,2.494
			l0.216,0.143c1.352-0.156,5.303,0.44,6.25-0.328c0.821-0.666,0.439-2.068-0.581-2.296C89.896,46.912,85.073,46.89,84.714,47.007z"
			/>
		<path style="fill:#FFFFFF;" d="M35.875,54.864l4.645-4.722l-4.558-4.41l-0.265-0.539c0.705,0.102,1.882-0.19,2.504,0.092
			c0.639,0.29,3.194,3.382,3.7,3.47c0.811-0.105,3.651-3.563,3.917-3.563h2.597l-5.003,4.951l4.645,4.722h-2.597
			c-0.247,0-3.167-3.485-3.566-3.398l-3.421,3.398H35.875z"/>
		<path style="fill:#FFFFFF;" d="M104.662,54.863l-1.941-0.028l-1.005-1.692l-5.713,0.138l-0.863,1.554l-1.941,0.028l4.693-9.634
			l2.205,0.139L104.662,54.863z M97.228,51.281c0.802-0.11,2.003,0,2.866,0c0.228,0,0.574,0.118,0.804,0.179
			c0.16-0.219-1.423-3.282-1.702-3.766c-0.098-0.17-0.006-0.465-0.354-0.355c-0.217,0.069-1.779,3.604-1.881,4.121
			C97.029,51.55,97.178,51.288,97.228,51.281z"/>
		<path style="fill:#FFFFFF;" d="M24.768,45.191v5.464c0,0.076,0.466,1.075,0.566,1.225c1.139,1.7,5.044,1.654,6.317,0.105
			c0.145-0.176,0.641-1.005,0.641-1.151v-5.643h1.791v6.001c0,0.11-0.56,1.258-0.682,1.466c-1.818,3.108-7.919,3.122-9.745,0.004
			c-0.151-0.259-0.679-1.628-0.679-1.828v-5.643H24.768z"/>
		<path style="fill:#FFFFFF;" d="M115.568,45.572l0.2,1.947c-2-0.51-3.626-1.053-5.695-0.411c-3.505,1.087-3.796,4.877-0.037,5.876
			c2.165,0.575,3.72,0.174,5.732-0.627l-0.353,2.063c-3.926,1.586-10.433,0.319-9.857-5.021
			C106.026,45.06,112.252,44.289,115.568,45.572z"/>
		<polygon style="fill:#FFFFFF;" points="14.379,45.012 14.379,52.714 22.081,52.714 21.723,54.506 12.587,54.506 12.587,45.012 		
			"/>
	</g>
</g>
</svg>
