<?xml version="1.0" encoding="iso-8859-1"?>
<!-- Generator: Adobe Illustrator 29.6.1, SVG Export Plug-In . SVG Version: 9.03 Build 0)  -->
<svg version="1.1" id="Layer_1" xmlns="http://www.w3.org/2000/svg" xmlns:xlink="http://www.w3.org/1999/xlink" x="0px" y="0px"
	 viewBox="0 0 140 100" style="enable-background:new 0 0 140 100;" xml:space="preserve">
<g>
	<path style="fill:none;" d="M47.769,35.573c-0.095,0.396-0.241,0.788-0.386,1.18c0.273-0.379,0.588-0.77,0.988-1.18H47.769z"/>
	<path style="fill:none;" d="M46.44,38.764c0.001,0.004-0.001,0.006,0,0.01c0.001-0.005,0.002-0.01,0.003-0.016
		C46.442,38.761,46.441,38.763,46.44,38.764z"/>
	<path style="fill:none;" d="M100.314,69.372c-0.483-0.003-0.97-0.001-1.453-0.004c0.276,0.234,0.559,0.413,0.845,0.441l0.238,0
		C100.093,69.745,100.21,69.583,100.314,69.372z"/>
	<path style="fill:none;" d="M42.948,39.18c0.367,0.308,0.721,0.522,1.067,0.672c-0.105-0.118-0.18-0.263-0.253-0.407
		C43.664,39.564,43.393,39.492,42.948,39.18z"/>
	<path style="fill:none;" d="M65.849,42.185c5.588-1.608,11.285-1.602,16.874,0c2.498,0.022,5.021,0.084,7.545,0.151l6.246-0.679
		c-1.557,0.087-3.193-0.367-1.136-1.275c-0.176-0.409-0.438-0.789-0.603-1.202c-0.193-0.483-0.409-0.801-0.603-1.202
		c0.262,0.918,0.215,1.167-0.603,0.601c2.35,2.55-2.686,3.012-4.426,1.678L75.789,16.483c-0.524-0.363-2.023,3.049-2.068,3.974
		c4.062,6.314,7.632,12.84,10.709,19.58c-4.335,4.119-7.414-1.918-9.266-5.856c-1.261,2.425-2.826,4.365-4.694,5.82
		c-2.03-1.365-3.704-3.368-5.021-6.008c-0.743,2.68-5.884,10.315-8.794,7.038c-0.385-0.434-0.473-1.024-0.45-1.587
		c3.151-6.554,6.736-12.927,10.753-19.119l-1.735-3.719l-13.3,23.34c-2.877,1.721-5.154,1.287-5.489-0.309
		c-0.137,0.622-0.593,0.855-1.097,0.843l0.022,0.501l-0.029,0.889c-2.36,0.428-4.761,0.532-7.203,0.313
		c1.113,0.009,3.474,0.593,5.424,0.601C51.246,42.937,58.678,42.737,65.849,42.185z"/>
	<path style="fill:#FFFFFF;" d="M100.802,18.744c-0.367,2.114-1.461,4.19-1.744,6.375c-0.556,4.294,0.243,10.056-1.871,13.792
		c-0.46,0.813-0.573,1.742-1.809,1.471c-2.057,0.908-0.421,1.362,1.136,1.275l0.672-0.073c0.398-0.028,0.809,0.034,1.205,0
		c1.066-0.092,3.021-0.326,3.616,0.601c0.603,0.008,1.206-0.007,1.808,0c1.137,0.014,2.96-0.407,3.616,0.601
		c0.827-0.067,2.249-0.124,3.013,0c0.812,0.132,1.66,0.24,1.808,1.196c-0.959,0.461-2.059-0.567-2.411-0.595
		c-1.191-0.094-2.424,0.091-3.616,0c-1.413-0.108-3.551-0.571-4.219-0.601c-5.287-0.24-10.673,0.066-15.979,0.01l4.24-0.461
		c-2.525-0.067-5.047-0.129-7.545-0.151c-5.589-1.602-11.286-1.608-16.874,0c-7.17,0.552-14.603,0.752-22.298,0.601
		c-1.19,1.089-3.724,0.588-5.424,0.601c0.337,1.937-0.983,1.031-2.11,1.174c-1.6,0.203-9.343,1.775-8.736-0.866
		c0.147-0.642,4.397-3.3-0.437-4.381c-7.338-1.64-7.855,6.481-4.052,11.253c0.739,0.928,2.315,1.405,2.586,2.229
		c1.05,3.196-0.313,11.559,2.066,13.867c3.226,3.13,7.393,0.404,10.864,1.484c2.506,0.78-0.092,1.167,3.74,0.793
		c4.599-0.448,9.16,0.277,13.757,0.07c13.359-0.6,25.968-0.656,39.3,0.247c1.032,0.07,2.114-0.6,2.896-0.46
		c0.272,0.049,0.562,0.317,0.86,0.57c0.483,0.003,0.97,0.001,1.453,0.004c0.251-0.507,0.444-1.251,0.91-1.367
		c3.297-0.82,7.653,2.351,11.034-1.472c3.636-4.112,0.475-9.922,2.111-13.522c0.455-1.001,2.155-1.709,3.03-2.408
		c1.035-0.827,0.888-3.512,2.687-0.605c1.986-2.993,2.461-5.061,1.046-8.557c-0.504-1.247-3.316-4.023-2.853-4.658
		c6.524-0.531-0.023-11.023-2.15-13.792c-4.796-6.241-7.174-4.764-13.519-6.652l-1.808,1.803
		C100.782,18.341,100.836,18.552,100.802,18.744z M96.584,63.823c0.005,0.084,0.537,0.313,0.611,0.589
		c-2.452-0.299-5.711,0.749-7.843-0.589c-13.449,0-26.928,0-40.377,0c-2.132,1.338-5.39,0.29-7.843,0.589
		c0.074-0.28,0.602-0.498,0.611-0.589c0.027-0.265-0.006-0.52-0.303-0.596l-2.104-0.6c19.627-0.916,39.432-0.98,59.053,0
		C98.619,63.801,96.518,62.774,96.584,63.823z M96.229,54.151l-2.658-0.546c-1.539,0.19-3.146,0.39-4.821,0.601
		c-12.624,0.22-25.338,0.058-37.967,0c-2.805-0.013-5.633,0.038-8.437,0c-2.402-0.032-4.827,0.026-7.229-0.003
		c-0.97-0.738,0.003-1.089,0.888-1.2c1.451-0.182,3.599-0.056,5.135,0.001c1,0.038,2.017-0.063,3.013,0
		c2.1-0.114,4.251,0.163,6.351,0.022c0.779-0.052,1.576-0.623,1.784-0.623h33.748c0.203,0,1.013,0.563,1.785,0.624
		c1.854,0.147,4.404-0.635,5.748,0.578c1.495-0.142,3.118-1.002,4.818-0.595C98.497,53.887,96.812,54.088,96.229,54.151z
		 M106.829,38.579c1.723-4.281,6.137-5.001,10.24-3.599l-6.562,2.157c-1.467,0.6-2.116,1.562-3.076,2.644
		c-0.321,0.361-0.467,1.23-1.199,1.202C105.895,39.871,106.525,39.335,106.829,38.579z"/>
	<path style="fill:#FFFFFF;" d="M120.087,49.999c-2.257,0.745-5.383,3.118-5.26,5.842c1.127,11.007-1.956,15.054-13.059,13.184
		l-0.367,0.351c-0.361-0.003-0.726-0.001-1.087-0.003c-0.104,0.211-0.221,0.373-0.37,0.436l4.153,0.001
		c0.683,0.121-0.022,2.092,0.887,2.766c2.476,1.836,1.991-2.204,2.538-2.655c0.366-0.302,4.368-0.34,5.505-0.818
		c3.813-1.603,2.124-11.623,2.965-14.473C116.298,53.591,119.122,51.452,120.087,49.999z"/>
	<path style="fill:#FFFFFF;" d="M99.886,69.841c0.021-0.005,0.038-0.024,0.058-0.032l-0.238,0
		C99.766,69.815,99.825,69.854,99.886,69.841z"/>
	<path style="fill:#FFFFFF;" d="M40.08,69.442l-3.461-0.6c-5.021,0.721-11.069,1.043-11.341-5.503
		c0.166-3.584-0.173-7.002-1.019-10.256c-6.195-2.988-7.194-15.14,1.146-15.177c4.118-0.018,6.62,2.637,3.347,5.987
		c0.17,0.407,7.312,0.226,8.608,0.127c-0.494-0.151-0.238-0.363,0.767-0.633c-1.002,0.008-2.012,0.024-3.013,0
		c-1.4-0.034-2.816,0.031-4.216-0.006v-0.589c0.982-0.1,2.036,0.117,3.01-0.006c0.131-0.016,0.472-0.535,0.991-0.572
		c0.883-0.065,2.274-0.037,3.227-0.029c2.442,0.219,4.843,0.115,7.203-0.313l0.029-0.889l-0.022-0.501
		c-0.463-0.011-0.963-0.226-1.321-0.63c-0.346-0.15-0.701-0.363-1.067-0.672c-3.102-4.351-1.026-13.656-3.616-19.835
		c-1.493-3.562-3.614-3.031-7.27-2.142c-5.141,1.25-9.592,7.14-11.738,11.734c-1.331,2.85-3.11,7.454,1.533,7.844
		c-0.32,2.018-2.708,3.032-3.332,5.384c-0.83,3.123-0.111,6.482,1.856,9.003c1.09,1.397,3.102,2.037,3.622,3.6
		c1.103,3.318-1.05,11.978,2.704,14.131c2.473,1.419,5.073-0.571,4.191,3.937c2.907,0.931,2.085-2.922,2.747-3.039l66.06,0.011
		c-0.286-0.028-0.569-0.207-0.845-0.441C79.379,69.245,59.79,69.263,40.08,69.442z M23.667,35.577
		c4.606-0.562,9.674,0.747,10.236,6.007c-2.859-2.992-4.876-3.748-8.763-4.803C24.168,36.518,23.36,37.422,23.667,35.577z"/>
	<path style="fill:#FFFFFF;" d="M95.106,69.258c-13.332-0.903-25.941-0.847-39.3-0.247c-4.597,0.207-9.158-0.518-13.757-0.07
		c-3.832,0.374-1.234-0.014-3.74-0.793c-3.472-1.08-7.638,1.646-10.864-1.484c-2.379-2.308-1.017-10.671-2.066-13.867
		c-0.271-0.824-1.846-1.302-2.586-2.229c-3.803-4.772-3.286-12.894,4.052-11.253c4.834,1.081,0.585,3.739,0.437,4.381
		c-0.607,2.642,7.136,1.069,8.736,0.866c1.127-0.143,2.447,0.763,2.11-1.174c-1.005,0.271-1.261,0.482-0.767,0.633
		c-1.296,0.099-8.438,0.28-8.608-0.127c3.273-3.35,0.771-6.005-3.347-5.987c-8.34,0.037-7.34,12.189-1.146,15.177
		c0.846,3.254,1.186,6.673,1.019,10.256c0.272,6.545,6.32,6.223,11.341,5.503l3.461,0.6c19.71-0.179,39.299-0.197,58.781-0.074
		c-0.298-0.253-0.588-0.521-0.86-0.57C97.22,68.658,96.137,69.328,95.106,69.258z"/>
	<path style="fill:#FFFFFF;" d="M117.4,50.604c-0.876,0.7-2.576,1.407-3.03,2.408c-1.636,3.599,1.525,9.409-2.111,13.522
		c-3.381,3.823-7.738,0.652-11.034,1.472c-0.466,0.116-0.659,0.86-0.91,1.367c0.361,0.002,0.726,0.001,1.087,0.003l0.367-0.351
		c11.103,1.871,14.186-2.177,13.059-13.184c-0.123-2.724,3.003-5.097,5.26-5.842C118.288,47.091,118.435,49.777,117.4,50.604z"/>
	<path style="fill:#FFFFFF;" d="M49.621,35.195c-0.43,0.705-1.212,0.323-1.249,0.379c-0.401,0.409-0.715,0.8-0.988,1.18
		c-0.249,0.674-0.544,1.344-0.941,2.006c-0.001,0.005-0.002,0.01-0.003,0.016c0.051,0.342,0.045,0.629-0.007,0.864
		c0.334,1.595,2.612,2.03,5.489,0.309l13.3-23.34l1.735,3.719c-4.018,6.192-7.602,12.565-10.753,19.119
		c-0.023,0.563,0.065,1.153,0.45,1.587c2.91,3.276,8.051-4.359,8.794-7.038c1.317,2.64,2.991,4.643,5.021,6.008
		c1.868-1.455,3.433-3.395,4.694-5.82c1.852,3.938,4.931,9.975,9.266,5.856c-3.077-6.74-6.647-13.266-10.709-19.58
		c0.045-0.925,1.544-4.337,2.068-3.974l13.355,23.773c1.74,1.334,6.777,0.872,4.426-1.678c-4.661-6.71-8.556-13.981-12.656-21.037
		c-0.779-1.341-4.411-8.721-4.832-9.012c-1.498-1.035-4.377,6.935-5.714,7.798l-5.427-8.4c-0.325,0.912-1.07,1.635-1.504,2.401
		c-1.622,2.868-2.965,6.073-5.424,8.415C57.746,20.849,51.167,32.663,49.621,35.195z M70.371,23.555
		c3.209,4.116,2.833,5.324,0.291,9.613C66.79,29.982,67.033,26.986,70.371,23.555z"/>
	<path style="fill:#FFFFFF;" d="M43.551,38.579c0.241,0.45,0.308,0.749,0.212,0.866c0.073,0.145,0.149,0.289,0.253,0.407
		c0.451,0.195,0.886,0.27,1.301,0.196l0.019,0.434c0.504,0.012,0.959-0.222,1.097-0.843c-0.054-0.258-0.047-0.549,0.007-0.864
		c-0.001-0.004,0.001-0.006,0-0.01c0.001-0.002,0.002-0.003,0.003-0.005c0.103-0.588,0.406-1.264,0.941-2.006
		c0.144-0.392,0.291-0.784,0.386-1.18c3.522-5.932,6.634-12.118,10.245-18.031c1.067-1.747,1.662-3.81,3.013-5.409
		c-7.613-1.843-15.525,0.154-22.041,4.193c-0.306,0.508,0.656,1.866,0.948,2.419c3.663,6.924,2.683,7.813,2.989,15.348
		C42.983,35.557,43.753,37.288,43.551,38.579z"/>
	<path style="fill:#FFFFFF;" d="M44.016,39.852c0.357,0.404,0.857,0.619,1.321,0.63l-0.019-0.434
		C44.901,40.122,44.466,40.046,44.016,39.852z"/>
	<path style="fill:#FFFFFF;" d="M46.443,38.759c0.397-0.662,0.692-1.332,0.941-2.006C46.849,37.495,46.546,38.172,46.443,38.759z"/>
	<path style="fill:#FFFFFF;" d="M46.433,39.638c0.052-0.234,0.058-0.522,0.007-0.864C46.387,39.089,46.379,39.381,46.433,39.638z"/>
	<path style="fill:#FFFFFF;" d="M95.92,35.86c0.021-0.031,0.046-0.057,0.067-0.087c0.188-2.103-0.298-4.557-0.042-6.573
		c0.112-0.88,0.611-1.304,0.637-1.44c0.481-2.476,1.478-8.325,4.219-9.016c-0.52-0.147-0.506-0.348,0-0.601
		c0.031-0.309-0.512-1.697,0-2.404c-3.13-0.981-8.751-4.207-11.752-4.207H79.71c-0.073,1.77,1.026,3.311,1.808,4.808
		c3.452,6.608,8.688,13.128,12.053,19.234L95.92,35.86z"/>
	<path style="fill:#FFFFFF;" d="M100.802,18.143c-0.506,0.253-0.52,0.454,0,0.601C100.836,18.552,100.782,18.341,100.802,18.143z"/>
	<path style="fill:#FFFFFF;" d="M99.309,89.681c-0.585,0.573-1.146,0.778-0.914,1.787c5.369-0.869,15.348,3.719,13.554-5.403
		c1.02,0.288,1.955,6.73,3.321,5.717c0.479-0.355,2.143-2.983,1.805-3.313c-0.164-0.16-1.402,0.397-1.838-0.388
		c-1.409-2.533-2.269-8.825-1.178-11.631 M110.961,88.042c-0.59,2.557-5.831,1.657-7.746,1.018
		c-0.294-0.394,4.777-5.002,7.138-3.508C110.666,85.75,111.085,87.503,110.961,88.042z M109.242,83.654
		c-0.37-0.324,1.605-4.02,2.405-2.999l0.001,3.005L109.242,83.654z"/>
	<path style="fill:#FFFFFF;" d="M10.425,89.383c-8.65,2.279-10.437-9.256-2.255-7.401c2.696,0.611,3.263,3.858,6.275,1.827
		c0.563-0.38,1.094,0.068,0.782-1.35c-2.8,0.887-3.81-1.802-5.85-2.278c-14.189-3.315-8.222,19.999,5.439,8.177
		c0.795-0.688,1.663-0.946,1.616-2.295c-0.213-0.182-0.385-0.421-0.603-0.601C15.26,86.311,11.541,89.089,10.425,89.383z"/>
	<path style="fill:#FFFFFF;" d="M126.471,82.42c-0.503-2.622-5.792-1.579-7.889-1.77c-0.883,0.192,0.299,0.57,0.299,0.604
		c1.012,2.243,1.013,6.644,0,9.016c-0.706,1.45,3.069,1.232,2.411,0l0.897-3.602c1.891,1.928,2.303,5.434,5.73,4.801
		c0.714-0.623-3.007-3.743-3.005-5.107C124.915,85.076,126.856,84.427,126.471,82.42z M123.539,85.297
		c-0.344,0.359-1.982,1.044-2.244,0.762l0-4.803C123.651,80.699,125.004,83.77,123.539,85.297z"/>
	<path style="fill:#FFFFFF;" d="M77.902,81.253c-0.286-0.822-1.518-0.811-1.808-0.595c-0.269,0.201,1.653,5.269,0.304,6.603
		c-1.635-1.153-6.682-8.087-8.741-6.603c1.113,3.32,0.795,7.397,0.002,10.809l3.009-0.901c-2.407-0.758-0.751-4.656-1.197-6.909
		c2.647,1.866,4.592,4.429,6.73,6.806c0.608,0.676,0.331,1.291,1.098,0.406C77.639,87.81,76.541,83.967,77.902,81.253z"/>
	<path style="fill:#FFFFFF;" d="M21.855,85.461c-0.225,0.251-2.299,1.91-2.404,1.803c-1.674-3.521,0.89-5.166,1.211-8.113
		c0.127-1.172,0.485-2.173-0.925-2.122c-3.917,0.142-2.458,6.264-3.907,8.432c0.882-0.781,1.21-0.432,0.603,0.601
		c1.882,1.606,0.948,1.847,1.214,3.909c0.073,0.57-0.469,1.918,0.888,1.504c0.454-0.138,3.158-5.08,4.526-5.413
		C22.881,85.352,22.437,85.417,21.855,85.461z"/>
	<path style="fill:#FFFFFF;" d="M15.829,85.461c0.218,0.18,0.389,0.419,0.603,0.601C17.04,85.028,16.711,84.679,15.829,85.461z"/>
	<path style="fill:#FFFFFF;" d="M24.874,89.668c-0.593-1.113,1.704-10.061,3.923-10.227c0.269-0.02,0.163,2.179,1.508,0.923
		c0.42-0.393,1.46-3.065,1.19-3.315c-5.049,0.068-6.882,5.329-9.64,8.411c1.454-1.31,1.965-1.28,1.205,0.601
		c0.373,1.474-1.142,4.219-0.596,6.01c0.927-0.784,3.351-1.051,3.92-1.8C27.403,88.935,24.918,89.751,24.874,89.668z"/>
	<path style="fill:#FFFFFF;" d="M21.855,85.461c0.582-0.044,1.026-0.109,1.205,0.601C23.821,84.181,23.31,84.151,21.855,85.461z"/>
	<path style="fill:#FFFFFF;" d="M43.551,38.579c-0.012,0.326,0.081,0.608,0.212,0.866C43.859,39.328,43.792,39.029,43.551,38.579z"
		/>
	<path style="fill:#FFFFFF;" d="M89.343,89.926l0.009-8.675l3.616,0.603v-0.601c-2.222-0.488-4.18-0.916-6.629-0.595
		c1.112,3.32,0.794,7.397,0.002,10.809c2.743,0.224,4.764-0.011,7.23-1.198l-0.603-0.601C92.264,90.184,89.453,90.752,89.343,89.926
		z"/>
	<path style="fill:#FFFFFF;" d="M94.173,37.978c-0.316-0.656-0.285-1.828-0.603-2.404c-0.512-0.052-0.957-0.154-1.164-0.432
		c-0.434-0.581-0.868-1.191-1.301-1.806c0.91,1.725,1.746,3.472,2.465,5.243C94.388,39.145,94.435,38.896,94.173,37.978z"/>
	<path style="fill:#FFFFFF;" d="M81.518,16.34l-0.603,1.202c1.3,1.826,2.621,3.696,3.922,5.599
		C83.588,20.822,82.455,18.513,81.518,16.34z"/>
	<path style="fill:#FFFFFF;" d="M91.105,33.335c-2.209-3.141-4.375-6.676-6.269-10.194c-1.3-1.903-2.622-3.773-3.922-5.599
		c4.099,7.056,7.995,14.327,12.656,21.037C92.851,36.807,92.015,35.06,91.105,33.335z"/>
	<path style="fill:#FFFFFF;" d="M91.105,33.335c0.433,0.616,0.867,1.225,1.301,1.806c0.208,0.278,0.652,0.38,1.164,0.432
		c-3.365-6.106-8.601-12.625-12.053-19.234c0.937,2.173,2.071,4.482,3.319,6.801C87.085,26.433,89.258,29.833,91.105,33.335z"/>
	<path style="fill:#FFFFFF;" d="M91.105,33.335c-1.847-3.502-4.02-6.903-6.269-10.194C86.73,26.66,88.896,30.194,91.105,33.335z"/>
	<path style="fill:#FFFFFF;" d="M42.346,80.652l-3.623,0.301c1.96,0.505,1.37,5.663,1.214,7.815c-0.144,1.99-1.836,3.678,2.034,2.63
		c1.496-0.405,0.375-1.297,0.375-1.429V80.652z"/>
	<path style="fill:#FFFFFF;" d="M57.412,81.854l-0.603-0.601c-6.228,3.446-2.221,12.059,4.821,9.617v-0.601
		C56.859,92.19,54.361,84.505,57.412,81.854z"/>
	<path style="fill:#FFFFFF;" d="M50.489,85.453c-1.586-1.337-4.567-1.259-2.719-4.2v-0.601c-1.717,0.654-2.768,0.91-2.428,3.27
		c0.46,3.195,6.224,2.596,4.236,6.346c0.278,0.037,0.543,0.312,0.603,0.601C52.777,89.492,52.608,87.24,50.489,85.453z"/>
	<path style="fill:#FFFFFF;" d="M61.63,80.652c-0.466-0.037-0.973,0.555-1.205,0.601c3.535,1.672,2.899,6.242,1.205,9.016
		c0.518,0.171,0.51,0.372,0,0.601C66.602,89.146,67.451,82.341,61.63,80.652z"/>
	<path style="fill:#FFFFFF;" d="M61.63,90.269v0.601C62.14,90.641,62.148,90.44,61.63,90.269z"/>
	<path style="fill:#FFFFFF;" d="M36.922,90.269c-1.3-2.338-2.74-7.606-3.917-9.017c-0.76-0.912-0.945-0.42-1.449,0.385
		c-0.989,1.583-0.042,1.909-0.059,2.021c0.199,1.825,0.802,2.827,1.808,3.005c-1.254,0.624-2.46,0.423-3.616-0.601
		c-0.293,0.714-0.297,1.711-0.603,2.404c0.089,0.244,0.606,0.553,0.603,0.601c1.509-2.16,4.828-1.996,4.821,1.202
		C34.706,91.168,36.672,91.205,36.922,90.269z"/>
	<path style="fill:#FFFFFF;" d="M135.153,80.652c-0.797-0.033-1.613-0.015-2.411,0v0.601c-0.232,2.613,0.306,5.617,0.052,8.16
		c-0.128,1.286-2.187,0.604-0.949,2.065l3.908-0.912c0.197-0.514-1.106,0.175-1.257-1.151c-0.252-2.206-0.202-6.203,0.657-8.162
		V80.652z"/>
	<path style="fill:#FFFFFF;" d="M92.968,81.253c0.526,0.171,0.519,0.371,0,0.601c1.98,1.904,2.256,6.16,0,7.814
		c0.847-0.797,1.157-0.461,0.603,0.601c3.098-1.492,4.939-5.733,2.258-8.261C95.076,81.299,93.88,81.454,92.968,81.253z"/>
	<path style="fill:#FFFFFF;" d="M92.968,89.668l0.603,0.601C94.125,89.207,93.815,88.871,92.968,89.668z"/>
	<path style="fill:#FFFFFF;" d="M92.968,81.253v0.601C93.486,81.625,93.494,81.424,92.968,81.253z"/>
	<path style="fill:#FFFFFF;" d="M63.438,10.329c-0.635,0.566-1.929,1.233-2.411,1.803c0.058,0.502-0.089,1.141-0.342,1.802
		C61.522,12.677,62.432,11.469,63.438,10.329z"/>
	<path style="fill:#FFFFFF;" d="M58.014,18.744c0.326-0.724,0.68-1.429,1.051-2.121c-0.348,0.393-0.708,0.719-1.051,0.919
		C57.981,17.936,58.064,18.354,58.014,18.744z"/>
	<path style="fill:#FFFFFF;" d="M59.066,16.623c-0.372,0.692-0.725,1.397-1.051,2.121c2.459-2.342,3.801-5.547,5.424-8.415
		c-1.006,1.14-1.916,2.347-2.752,3.605C60.323,14.885,59.723,15.881,59.066,16.623z"/>
	<path style="fill:#FFFFFF;" d="M59.066,16.623c0.497-0.926,1.042-1.819,1.62-2.689c0.253-0.661,0.399-1.3,0.342-1.802
		c-1.351,1.6-1.946,3.662-3.013,5.409C58.357,17.342,58.717,17.017,59.066,16.623z"/>
	<path style="fill:#FFFFFF;" d="M59.066,16.623c0.658-0.743,1.257-1.738,1.62-2.689C60.108,14.804,59.563,15.697,59.066,16.623z"/>
	<path style="fill:#FFFFFF;" d="M49.577,90.269c-0.779-0.105-1.54,0.225-2.39-0.3c-0.71-0.439-0.811-1.944-1.821-2.103
		c-1.644,3.293,2.094,4.448,4.814,3.004C49.416,91.018,49.179,90.987,49.577,90.269z"/>
	<path style="fill:#FFFFFF;" d="M49.577,90.269c-0.398,0.718-0.161,0.749,0.603,0.601C50.121,90.582,49.856,90.306,49.577,90.269z"
		/>
	<path style="fill:#FFFFFF;" d="M77.299,90.87c0.745-0.859,0.973-8.553,0.603-9.617L77.299,90.87z"/>
	<path style="fill:#FFFFFF;" d="M77.299,90.87l0.603-9.617C76.541,83.967,77.639,87.81,77.299,90.87z"/>
	<path style="fill:#FFFFFF;" d="M29.087,88.466c-0.656,1.488-1.807,1.599-1.805,3.002h3.007c0.651-1.539-1.155-1.062-1.136-1.483
		c0.014-0.321,0.522-0.7,0.536-0.918C28.836,89.89,28.513,89.557,29.087,88.466z"/>
	<path style="fill:#FFFFFF;" d="M29.087,88.466c-0.575,1.091-0.251,1.425,0.603,0.601C29.693,89.019,29.177,88.71,29.087,88.466z"/>
	<path style="fill:#FFFFFF;" d="M57.412,81.854c0.863-0.75,2.109-0.42,3.013-0.601c-0.779-0.873,0.27-0.86,1.205-0.601
		c-0.569-0.165-0.629-0.708-2.01-0.598c-1.27,0.101-1.849,0.667-2.811,1.199C57.796,80.835,57.972,80.893,57.412,81.854z"/>
	<path style="fill:#FFFFFF;" d="M56.809,81.253l0.603,0.601C57.972,80.893,57.796,80.835,56.809,81.253z"/>
	<path style="fill:#FFFFFF;" d="M60.425,81.253c0.232-0.046,0.74-0.638,1.205-0.601C60.695,80.393,59.646,80.38,60.425,81.253z"/>
	<path style="fill:#FFFFFF;" d="M135.153,81.253l3.613,1.199l0.007-1.798c-1.201-0.048-2.418,0.048-3.619-0.003
		C135.679,80.823,135.672,81.024,135.153,81.253z"/>
	<path style="fill:#FFFFFF;" d="M135.153,80.652v0.601C135.672,81.024,135.679,80.823,135.153,80.652z"/>
	<path style="fill:#FFFFFF;" d="M132.742,80.652c-0.853,0.016-4.641-0.625-4.222,0.895c0.191,0.692,3.334-0.792,4.222-0.294
		C132.216,81.083,132.224,80.882,132.742,80.652z"/>
	<path style="fill:#FFFFFF;" d="M132.742,81.253v-0.601C132.224,80.882,132.216,81.083,132.742,81.253z"/>
	<path style="fill:#FFFFFF;" d="M51.986,80.654c-0.122-0.149-0.906,0.115-1.203-0.002c-0.468-0.041-0.977,0.555-1.205,0.601
		C51.512,84.969,52.325,81.067,51.986,80.654z"/>
	<path style="fill:#FFFFFF;" d="M47.769,81.253c0.574-0.071,1.28,0.106,1.808,0c-0.793-0.876,0.284-0.944,1.205-0.601
		c-0.413-0.161-0.623-0.659-1.511-0.665c-0.937-0.007-1.124,0.521-1.502,0.665C48.296,80.823,48.288,81.024,47.769,81.253z"/>
	<path style="fill:#FFFFFF;" d="M47.769,80.652v0.601C48.288,81.024,48.296,80.823,47.769,80.652z"/>
	<path style="fill:#FFFFFF;" d="M49.577,81.253c0.228-0.046,0.737-0.642,1.205-0.601C49.862,80.309,48.784,80.378,49.577,81.253z"/>
	<path style="fill:#FFFFFF;" d="M36.922,90.269c0.781,1.314-3.004,1.414-2.411,0c0,0.062-1.191,0.927-0.299,1.205l3.31-0.006
		C37.852,90.342,37.021,90.448,36.922,90.269z"/>
	<path style="fill:#FFFFFF;" d="M36.922,90.269c-0.25,0.936-2.216,0.899-2.411,0C33.917,91.683,37.703,91.583,36.922,90.269z"/>
	<path style="fill:#FFFFFF;" d="M101.464,16.513c0.259-0.172,0.596-0.264,1.146-0.173c-0.622-0.185-1.203-0.412-1.808-0.601
		C101.238,15.867,101.453,16.128,101.464,16.513z"/>
	<path style="fill:#FFFFFF;" d="M100.802,18.143l1.808-1.803c-0.55-0.091-0.887,0.001-1.146,0.173
		C101.475,16.916,101.259,17.457,100.802,18.143z"/>
	<path style="fill:#FFFFFF;" d="M100.802,18.143c0.084-0.795,0.24-1.35,0.662-1.63c-0.01-0.385-0.226-0.646-0.662-0.774
		C100.29,16.446,100.833,17.834,100.802,18.143z"/>
	<path style="fill:#FFFFFF;" d="M101.464,16.513c-0.422,0.28-0.578,0.835-0.662,1.63C101.259,17.457,101.475,16.916,101.464,16.513z
		"/>
	<path style="fill:#FFFFFF;" d="M97.719,27.798c0.641,4.932-0.139,9.126-2.341,12.583c1.236,0.271,1.349-0.658,1.809-1.471
		c2.114-3.736,1.315-9.498,1.871-13.792c0.283-2.185,1.376-4.261,1.744-6.375c-1.013,1.59-1.791,3.268-2.386,5.015
		C98.079,25.09,97.871,26.462,97.719,27.798z"/>
	<path style="fill:#FFFFFF;" d="M95.988,35.773c-0.022,0.03-0.046,0.056-0.067,0.087l0.065,0.008
		C95.988,35.837,95.985,35.804,95.988,35.773z"/>
	<path style="fill:#FFFFFF;" d="M100.802,18.744"/>
	<path style="fill:#FFFFFF;" d="M102.007,42.786l1.808-0.601c-0.665,0.228-1.268,0.228-1.808,0c-1.137-0.014-2.96,0.408-3.616-0.601
		c-0.189,0.886-0.727,0.791-1.205,0c-0.214,0.037-0.442,0.06-0.672,0.073l-6.246,0.679C94.153,42.439,98.059,42.576,102.007,42.786z
		"/>
	<path style="fill:#FFFFFF;" d="M96.514,41.657c0.23-0.013,0.458-0.036,0.672-0.073L96.514,41.657z"/>
	<path style="fill:#FFFFFF;" d="M98.392,41.584c-0.397,0.034-0.807-0.028-1.205,0C97.664,42.375,98.202,42.47,98.392,41.584z"/>
	<path style="fill:#FFFFFF;" d="M103.815,42.185c-0.603-0.007-1.206,0.008-1.808,0C102.548,42.413,103.151,42.413,103.815,42.185z"
		/>
	<path style="fill:#FFFFFF;" d="M86.029,42.797c5.306,0.055,10.692-0.251,15.979-0.01c-3.948-0.21-7.854-0.348-11.739-0.45
		L86.029,42.797z"/>
	<path style="fill:#FFFFFF;" d="M36.005,53.003c-0.885,0.111-1.858,0.463-0.888,1.2c2.402,0.029,4.827-0.029,7.229,0.003
		l-1.205-1.202C39.603,52.946,37.456,52.82,36.005,53.003z"/>
	<path style="fill:#FFFFFF;" d="M93.57,53.605l2.658,0.546c0.583-0.062,2.268-0.264,2.16-1.141
		C96.688,52.603,95.065,53.463,93.57,53.605z"/>
	<path style="fill:#FFFFFF;" d="M43.551,42.786c-1.949-0.008-4.311-0.592-5.424-0.601c-0.426,0.255-0.916,0.42-1.44,0.537
		c0.522,0.018,1.04,0.231,1.44,0.665l0.246-0.594C40.127,43.11,41.853,43.107,43.551,42.786z"/>
	<path style="fill:#FFFFFF;" d="M33.908,42.786l1.205,0.601c0.259-0.28,0.571-0.443,0.897-0.549
		C35.37,42.905,34.676,42.897,33.908,42.786z"/>
	<path style="fill:#FFFFFF;" d="M43.551,42.786c-1.698,0.321-3.424,0.324-5.178,0.008l-0.246,0.594
		C39.827,43.374,42.361,43.875,43.551,42.786z"/>
	<path style="fill:#FFFFFF;" d="M36.011,42.838c-0.326,0.107-0.638,0.27-0.897,0.549c1.002,0.024,2.011,0.008,3.013,0
		c-0.401-0.435-0.919-0.647-1.44-0.665C36.468,42.771,36.246,42.813,36.011,42.838z"/>
	<path style="fill:#FFFFFF;" d="M36.011,42.838c0.222-0.073,0.446-0.123,0.676-0.116c0.525-0.117,1.014-0.282,1.44-0.537
		c-0.953-0.008-2.344-0.036-3.227,0.029c-0.519,0.038-0.861,0.556-0.991,0.572C34.676,42.897,35.37,42.905,36.011,42.838z"/>
	<path style="fill:#FFFFFF;" d="M36.011,42.838c0.235-0.025,0.458-0.067,0.676-0.116C36.457,42.714,36.233,42.765,36.011,42.838z"/>
	<path style="fill:#FFFFFF;" d="M44.153,53.004c-0.997-0.063-2.013,0.038-3.013,0c1.335,0.217,1.736,0.618,1.205,1.202
		c2.804,0.038,5.632-0.013,8.437,0c-2.192-0.248-4.408-0.419-6.646-0.511L44.153,53.004z"/>
	<path style="fill:#FFFFFF;" d="M45.61,53.632c-0.766-0.07-1.374-0.623-1.456-0.628l-0.016,0.691
		c2.238,0.093,4.453,0.263,6.646,0.511C49.628,52.999,47.275,53.784,45.61,53.632z"/>
	<path style="fill:#FFFFFF;" d="M41.14,53.004l1.205,1.202C42.877,53.622,42.475,53.221,41.14,53.004z"/>
	<path style="fill:#FFFFFF;" d="M103.633,42.573c1.087-0.03,1.963,0.226,2.593,0.815c0.161-0.587,0.695-0.56,1.205-0.601
		c-1.492,0.116-2.698-0.085-3.616-0.601C103.851,42.352,103.769,42.473,103.633,42.573z"/>
	<path style="fill:#FFFFFF;" d="M102.007,42.786c0.668,0.03,2.805,0.493,4.219,0.601c-0.63-0.589-1.506-0.845-2.593-0.815
		C103.379,42.758,102.859,42.837,102.007,42.786z"/>
	<path style="fill:#FFFFFF;" d="M103.815,42.185c0.918,0.516,2.124,0.717,3.616,0.601C106.776,41.778,104.952,42.199,103.815,42.185
		z"/>
	<path style="fill:#FFFFFF;" d="M103.633,42.573c0.136-0.099,0.218-0.22,0.182-0.388l-1.808,0.601
		C102.603,42.642,103.134,42.586,103.633,42.573z"/>
	<path style="fill:#FFFFFF;" d="M103.633,42.573c-0.499,0.014-1.03,0.069-1.626,0.214C102.859,42.837,103.379,42.758,103.633,42.573
		z"/>
	<path style="fill:#FFFFFF;" d="M41.743,63.823c-0.009,0.092-0.537,0.309-0.611,0.589c2.452-0.299,5.711,0.749,7.843-0.589
		C46.643,64.3,43.971,64.374,41.743,63.823z"/>
	<path style="fill:#FFFFFF;" d="M48.975,63.823h-7.232C43.971,64.374,46.643,64.3,48.975,63.823z"/>
	<path style="fill:#FFFFFF;" d="M89.352,63.823c2.132,1.338,5.391,0.29,7.843,0.589c-0.074-0.276-0.606-0.505-0.611-0.589
		C94.415,64.387,91.681,64.29,89.352,63.823z"/>
	<path style="fill:#FFFFFF;" d="M96.584,63.823h-7.232C91.681,64.29,94.415,64.387,96.584,63.823z"/>
	<path style="fill:#FFFFFF;" d="M108.045,43.014c-0.221-0.05-0.433-0.119-0.613-0.228c-0.137,0.268-0.539,0.468-1.205,0.601
		C106.748,43.202,107.403,43.049,108.045,43.014z"/>
	<path style="fill:#FFFFFF;" d="M109.842,43.387l0.603-0.601c-0.418,0.156-0.909,0.257-1.394,0.29
		C109.342,43.136,109.613,43.234,109.842,43.387z"/>
	<path style="fill:#FFFFFF;" d="M108.045,43.014c-0.642,0.036-1.296,0.188-1.819,0.374c1.192,0.091,2.425-0.094,3.616,0
		c-0.229-0.154-0.5-0.251-0.791-0.311C108.701,43.1,108.36,43.085,108.045,43.014z"/>
	<path style="fill:#FFFFFF;" d="M109.051,43.076c-0.318-0.065-0.659-0.082-1.006-0.062C108.36,43.085,108.701,43.1,109.051,43.076z"
		/>
	<path style="fill:#FFFFFF;" d="M109.051,43.076c0.485-0.033,0.976-0.134,1.394-0.29c-0.764-0.124-2.186-0.067-3.013,0
		c0.18,0.108,0.392,0.177,0.613,0.228C108.392,42.994,108.733,43.011,109.051,43.076z"/>
	<path style="fill:#FFFFFF;" d="M106.226,43.387c0.666-0.133,1.068-0.333,1.205-0.601C106.921,42.827,106.387,42.8,106.226,43.387z"
		/>
	<path style="fill:#FFFFFF;" d="M98.392,41.584l3.616,0.601C101.412,41.258,99.458,41.492,98.392,41.584z"/>
	<path style="fill:#FFFFFF;" d="M102.007,42.185l-3.616-0.601C99.047,42.593,100.87,42.171,102.007,42.185z"/>
	<path style="fill:#FFFFFF;" d="M109.842,43.387c0.351,0.028,1.452,1.056,2.411,0.595c-0.148-0.956-0.996-1.064-1.808-1.196
		C111.244,43.573,110.918,43.654,109.842,43.387z"/>
	<path style="fill:#FFFFFF;" d="M110.445,42.786l-0.603,0.601C110.499,43.248,110.7,43.047,110.445,42.786z"/>
	<path style="fill:#FFFFFF;" d="M109.842,43.387c1.076,0.267,1.403,0.185,0.603-0.601C110.7,43.047,110.499,43.248,109.842,43.387z"
		/>
	<path style="fill:#FFFFFF;" d="M107.431,39.781c-0.702,0.56-0.903,0.159-0.603-1.202c-0.304,0.756-0.933,1.292-0.596,2.404
		C106.964,41.011,107.111,40.142,107.431,39.781z"/>
	<path style="fill:#FFFFFF;" d="M107.431,39.781l-0.603-1.202C106.528,39.94,106.729,40.341,107.431,39.781z"/>
	<path style="fill:#FFFFFF;" d="M33.908,42.786c-2.36,0.267-1.958,0.467,1.205,0.601C34.46,43.364,34.058,43.164,33.908,42.786z"/>
	<path style="fill:#FFFFFF;" d="M33.908,42.786c-0.975,0.123-2.028-0.094-3.01,0.006v0.589c1.4,0.037,2.815-0.028,4.216,0.006
		C31.951,43.253,31.549,43.053,33.908,42.786z"/>
	<path style="fill:#FFFFFF;" d="M35.114,43.387l-1.205-0.601C34.058,43.164,34.46,43.364,35.114,43.387z"/>
	<path style="fill:#FFFFFF;" d="M58.014,18.744c-0.279-0.292-0.279-0.692,0-1.202c-0.775,2.014-1.658,3.951-2.593,5.851
		C56.287,21.846,57.157,20.322,58.014,18.744z"/>
	<path style="fill:#FFFFFF;" d="M50.927,31.233c-0.996,1.487-2.045,2.937-3.158,4.34h0.603
		C49.231,34.154,50.076,32.681,50.927,31.233z"/>
	<path style="fill:#FFFFFF;" d="M50.927,31.233c-0.851,1.448-1.696,2.921-2.555,4.34c0.037-0.056,0.819,0.326,1.249-0.379
		c1.546-2.532,8.125-14.346,8.393-16.451c-0.857,1.578-1.728,3.101-2.593,4.649C54.08,26.119,52.596,28.742,50.927,31.233z"/>
	<path style="fill:#FFFFFF;" d="M55.422,23.393c0.935-1.9,1.817-3.837,2.593-5.851c-3.611,5.914-6.723,12.099-10.245,18.031
		c1.113-1.403,2.162-2.853,3.158-4.34C52.437,28.665,53.936,26.052,55.422,23.393z"/>
	<path style="fill:#FFFFFF;" d="M50.927,31.233c1.669-2.491,3.153-5.114,4.494-7.84C53.936,26.052,52.437,28.665,50.927,31.233z"/>
	<path style="fill:#FFFFFF;" d="M58.014,18.744c0.05-0.39-0.033-0.808,0-1.202C57.735,18.052,57.735,18.453,58.014,18.744z"/>
	<path style="fill:#FFFFFF;" d="M96.246,32.293c-0.049,1.065-0.053,2.144-0.058,3.221c0.052-0.06,0.094-0.135,0.148-0.191
		C96.243,34.304,96.239,33.298,96.246,32.293z"/>
	<path style="fill:#FFFFFF;" d="M95.102,36.965c-0.078,0.321-0.368,0.665-0.929,1.012c0.193,0.401,0.41,0.719,0.603,1.202
		c0.109-0.835,0.291-1.564,0.539-2.194C95.238,36.994,95.175,36.968,95.102,36.965z"/>
	<path style="fill:#FFFFFF;" d="M96.246,32.293c0.011-1.525,0.097-3.04,0.338-4.533c-0.026,0.135-0.525,0.56-0.637,1.44
		c-0.257,2.016,0.229,4.47,0.042,6.573c0.065-0.089,0.13-0.177,0.2-0.258C96.193,34.437,96.197,33.358,96.246,32.293z"/>
	<path style="fill:#FFFFFF;" d="M95.102,36.965c0.073,0.003,0.135,0.029,0.213,0.021c0.168-0.426,0.374-0.794,0.605-1.126
		l-2.35-0.287C94.664,35.874,95.244,36.381,95.102,36.965z"/>
	<path style="fill:#FFFFFF;" d="M95.102,36.965c-0.679-0.026-1.161-0.484-1.532-1.392c0.318,0.577,0.287,1.749,0.603,2.404
		C94.735,37.631,95.024,37.287,95.102,36.965z"/>
	<path style="fill:#FFFFFF;" d="M95.102,36.965c0.142-0.584-0.439-1.092-1.532-1.392C93.942,36.482,94.423,36.94,95.102,36.965z"/>
	<path style="fill:#FFFFFF;" d="M96.336,35.323c-0.054,0.057-0.096,0.131-0.148,0.191c-0.002,0.409-0.026,0.812-0.022,1.223
		c-0.316,0.145-0.595,0.222-0.85,0.248c-0.248,0.63-0.43,1.359-0.539,2.194c1.489,0.334,1.621-1.138,1.747-2.147
		c0.369-2.966-0.134-6.263,0.061-9.273c-0.157,1.498-0.268,3.01-0.338,4.533C96.239,33.298,96.243,34.304,96.336,35.323z"/>
	<path style="fill:#FFFFFF;" d="M96.165,36.737c-0.004-0.411,0.02-0.814,0.022-1.223c-0.07,0.082-0.135,0.17-0.2,0.258
		c-0.003,0.031,0,0.065-0.003,0.095L95.92,35.86c-0.231,0.332-0.438,0.7-0.605,1.126C95.57,36.96,95.849,36.882,96.165,36.737z"/>
	<path style="fill:#FFFFFF;" d="M57.905,83.07l-0.494-1.216c-3.05,2.651-0.553,10.336,4.219,8.415
		C58.332,89.06,56.084,86.755,57.905,83.07z"/>
	<path style="fill:#FFFFFF;" d="M60.425,81.253c-0.905,0.181-2.151-0.149-3.013,0.601C58.378,82.891,60.515,83.027,60.425,81.253z"
		/>
</g>
</svg>
