<?xml version="1.0" encoding="iso-8859-1"?>
<!-- Generator: Adobe Illustrator 29.6.1, SVG Export Plug-In . SVG Version: 9.03 Build 0)  -->
<svg version="1.1" id="Layer_1" xmlns="http://www.w3.org/2000/svg" xmlns:xlink="http://www.w3.org/1999/xlink" x="0px" y="0px"
	 viewBox="0 0 140 100" style="enable-background:new 0 0 140 100;" xml:space="preserve">
<g>
	<path style="fill:#FFFFFF;" d="M133.67,41.829c-0.548,0.469-0.911,1.185-1.477,1.632c-0.352,0.277-1.019,0.758-1.416,0.334
		c-0.051-0.054-0.051-0.148-0.093-0.209c-0.032-0.047-0.103-0.052-0.137-0.108c-0.077-0.126-0.209-0.731-0.468-0.71
		c-0.594,0.425-1.231,1.034-1.86,1.389c-0.079,0.045-0.128,0.109-0.235,0.084c0.017-0.264-0.029-0.551,0.004-0.812
		c0.083-0.668,0.26-1.388,0.354-2.06c0.013-0.092,0.055-0.456-0.108-0.392c-0.46,0.182-1.444,0.992-1.79,1.37
		c-0.058,0.063-0.055,0.163-0.094,0.208c-0.362,0.419-1.453,2.043-1.794,2.206c-0.082,0.04-0.176,0.053-0.267,0.047
		c-0.069-0.381-0.118-0.746-0.323-1.069l-1.738,0.501v-1.774c-1.161,0.26-2.488,0.056-3.507,0.648
		c-0.848,0.493-2.041,1.577-3.063,1.405c-0.054-0.009-0.486-0.186-0.503-0.207c-0.045-0.057-0.228-0.935-0.229-1.051
		c-0.003-0.294,0.15-1.172,0.201-1.535c0.02-0.143,0.309-0.65-0.041-0.539l-2.283,2.118c-0.218,0.169-0.49,0.313-0.711,0.465
		c-0.066,0.046-0.397,0.425-0.524,0.327c0.179-1.098,0.894-1.867,1.493-2.734c1.296-1.874,2.644-3.855,4.052-5.673
		c0.421-0.544,1.711-2.109,2.379-2.169c0.108-0.01,0.509,0.006,0.536,0.121c-0.009,0.128,0.023,0.279-0.005,0.4
		c-0.012,0.051-0.107,0.052-0.133,0.106c-0.965,2.019-2.697,3.435-4.127,5.111c-0.216,0.254-0.411,0.57-0.626,0.831l0.839,0.991
		l-0.072,2.663c0.043,0.045,0.878-0.374,1.011-0.444c0.955-0.505,2.033-1.251,2.84-1.97c0.756-0.673,1.381-1.586,2.145-2.241
		c0.269-0.23,0.62-0.398,0.875-0.655l1.378,0.953l-1.071,3.648c1.059-0.695,2.26-1.241,3.056-2.25
		c0.613-0.944,0.987-2.496,2.169-2.929c0.169-0.065,0.034,0.284,0.027,0.297c-0.233,0.436-0.63,1.086-0.698,1.589
		c-0.014,0.102-0.016,0.208-0.002,0.309c0.273,0.082,0.98,0.28,1.181,0.453c0.203,0.174,0.339,0.74,0.456,0.985
		c0.049,0.102,0.225,0.234,0.219,0.47l1.26,0.093c0.05,0.342,0.514,0.524,0.682,0.84l2.24-1.49V41.829z M123.293,39.274
		l-0.522,0.368c-0.702,0.727-1.436,1.407-1.894,2.327c0.151,0.115,0.94-0.383,1.081-0.496c0.552-0.442,0.751-1.082,1.116-1.616
		L123.293,39.274z"/>
	<path style="fill:#FFFFFF;" d="M18.748,29.623c-0.012,0.222,0.02,0.451-0.001,0.673c-0.052,0.549-0.461,1.287-0.71,1.76
		c-0.047,0.088-0.288,0.219-0.212,0.476l2.642-1.087c1.105-0.209,2.284-0.731,3.421-0.473c0.052,0.012,0.04,0.121,0.099,0.137
		c0.321,0.088,0.603,0.099,0.923,0.271c0.675,0.364,0.934,0.657,0.728,1.454c-0.311,1.204-1.439,2.873-2.126,4.05
		c-0.039,0.066-0.166,0.027-0.144,0.082c0.076,0.118,0.113,0.079,0.212,0.077c0.432-0.009,1.192-0.238,1.525-0.18
		c0.054,0.009,0.663,0.195,0.695,0.211c0.183,0.092,0.371,0.492,0.548,0.621c0.702,2.288-0.022,4.938,0.227,7.352
		c0.044,0.427,0.455,0.94,0.896,1.021c0.17,0.031,0.67,0.051,0.822,0.015c0.05-0.012,0.039-0.112,0.103-0.135
		c2.418-0.858,3.681-2.137,5.474-3.908c0.725-0.716,0.75-1.101,1.228-1.933c0.049-0.085,0.643-0.809,0.692-0.832
		c1.023-0.281,2.023-0.655,3.055-0.905c0.551-0.134,1.168-0.198,1.721-0.374c-0.065,0.156-0.036,0.385-0.074,0.516
		c-0.255,0.877-0.598,1.823-0.927,2.692c-0.036,0.096-0.305,0.287-0.206,0.553l1.466-1.69c0.145-0.084,0.892-0.567,1.02-0.439
		l-0.213,3.157c0.013,0.096,0.208,0.006,0.265-0.02c0.822-0.373,1.421-1.198,1.91-1.857c2.112-2.841,4.244-5.863,6.711-8.534
		c0.582-0.63,1.288-1.336,2.233-1.188c0.106,0.017,0.29,0.129,0.399,0.182c0.033,0.117-0.037,0.69-0.081,0.823
		c-0.384,1.162-1.966,2.641-2.812,3.561c-0.626,0.681-1.616,2.145-2.583,2.285c-0.167,0.024-0.27-0.028-0.427-0.044
		c0.263-0.164,0.355-0.488,0.523-0.685c1.325-1.549,2.51-2.565,3.649-4.262c0.08-0.119,0.584-0.559,0.27-0.587l-4.938,5.643l0,0.138
		c0.225,0.145,0.499,0.566,0.424,0.837c-0.028,0.1-1.297,1.241-1.492,1.456c-0.783,0.861-1.692,2.047-2.128,3.05
		c-0.263,0.605-0.447,1.267-0.645,1.932c0.546-0.042,0.962-0.429,1.407-0.703c2.272-1.399,4.169-3.628,6.962-4.104
		c0.374-0.064,0.767-0.007,1.154-0.16c0.042,0.044-0.173,0.887-0.204,1.037c-0.052,0.255-0.127,0.412-0.149,0.502
		c-0.027,0.111-0.106,0.977-0.073,1.015l3.908-1.915c-0.199,0.534-0.285,1.11-0.431,1.649c-0.011,0.039-0.287,0.171-0.102,0.408
		l1.143-0.806c0.838-0.687,1.812-1.519,2.821-2.035c0.043-0.022,0.043-0.126,0.101-0.139c0.225-0.05,0.876-0.032,1.021,0.171
		c0.104,0.146,0.041,0.659-0.009,0.84c-0.035,0.126-0.257,0.668-0.374,0.776c0.048,0.196-0.525,1.216-0.474,1.263
		c0.105,0.015,0.133,0.01,0.215-0.051c0.536-0.401,1.037-0.864,1.614-1.21c0.309-0.186,1.024-0.581,1.367-0.692
		c0.072-0.023,0.242-0.08,0.286,0.001c-0.307,0.456-0.657,0.906-1.075,1.266c-1.634,1.409-2.911,2.113-4.252,4.004
		c-1.571,2.215-3.642,5.476-6.242,6.612c-0.355,0.155-0.923,0.331-1.303,0.257c-0.034-0.007-0.516-0.258-0.54-0.276
		c-0.089-0.067-0.428-0.553-0.459-0.641c-0.076-0.213-0.071-0.41-0.041-0.631c0.068-0.491,1.107-1.425,1.474-1.81
		c1.381-1.447,2.882-2.574,4.504-3.75c1.168-0.847,2.598-1.455,3.246-2.812c0.482-0.655,0.811-1.456,1.205-2.182
		c-0.09-0.067-1.087,0.556-1.252,0.666c-0.868,0.581-1.705,1.395-2.664,1.846c-0.943,0.443-1.01-0.067-1.592-0.604
		c-0.852,0.19-1.681,0.607-2.578,0.387l-0.094-0.07c0.023-0.249-0.169-0.357-0.219-0.476c-0.056-0.132-0.024-0.31-0.065-0.417
		c-0.03-0.077-0.28-0.24-0.208-0.48l-0.165,0.012l-2.085,1.676c-1.084,0.092-1.802,0.357-2.718,0.908
		c-0.76,0.457-1.759,1.311-2.631,1.488c-0.188,0.038-0.476,0.078-0.644-0.008c-0.03-0.015-0.417-0.477-0.424-0.509
		c-0.095-0.43,0.126-1.664-0.068-1.96c-0.21-0.14-0.529-0.221-0.739-0.346c-0.043-0.026-0.445-0.351-0.474-0.391
		c-0.048-0.065-0.042-0.171-0.078-0.247c-0.025-0.053-0.11-0.049-0.131-0.111c-0.128-0.386,0.034-0.83-0.221-1.151
		c-0.02-0.017-0.196,0.177-0.208,0.195c-0.333,0.494-0.793,1.276-1.267,1.648c-0.49,0.385-0.935,0.587-1.579,0.497
		c-0.116-0.265,0.134-0.375,0.141-0.404c0.094-0.39,0.061-0.523,0.21-0.927c0.375-1.019,0.904-1.956,1.361-2.943
		c0.047-0.101,0.332-0.296,0.174-0.551l-1.729,0.544c-0.548,0.22-0.456,0.208-0.658,0.677c-0.232,0.539-0.312,1.076-0.499,1.632
		c-0.146,0.433-0.332,0.781-0.562,1.171c-0.059,0.1-0.033,0.213-0.122,0.309c-0.536,0.576-1.409-0.427-2.025-0.14
		c-0.345,0.275-0.706,0.724-1.032,0.991c-0.932,0.764-2.187,1.685-3.272,2.192c-1.274,0.596-3.119,0.783-3.549-0.904
		c-0.165-0.648-0.322-2.171-0.24-2.822c0.017-0.136,0.136-0.068,0.153-0.203c0.104-0.821,0.12-2.431,0.068-3.272
		c-0.024-0.4-0.063-0.858-0.29-1.184c-0.541-0.776-1.336-0.406-2.009-0.039c-2.517,1.372-3.607,4.646-5.309,6.706
		c-0.046,0.056-0.043,0.199-0.079,0.223c-0.071,0.047-0.836,0.045-0.774-0.168c0.016-0.055,0.123-0.015,0.143-0.084
		c0.236-0.819,0.206-0.771,0.636-1.498c1.73-2.922,3.893-5.557,5.687-8.517c0.291-0.48,0.56-1.007,0.719-1.522
		c0.018-0.06,0.122-0.049,0.135-0.103c0.019-0.079,0.06-0.465,0.059-0.553c-0.006-0.415-0.399-0.81-0.806-0.883
		c-0.567-0.102-1.061,0.064-1.563,0.134c-3.397,0.477-5.131,1.687-7.047,4.455c-2.761,3.988-5.322,8.261-8.051,12.318
		c-0.18,0.016-0.18,0.401-0.32,0.333c-0.043-0.021-0.65-0.651-0.67-0.694c-0.1-0.216-0.071-0.732-0.002-0.957
		c1.097-3.612,2.837-6.701,5.399-9.576c0.734-0.823,1.586-1.558,2.337-2.372c1.287-1.396,2.021-2.867,3.035-4.381
		C17.599,30.284,17.801,29.67,18.748,29.623z M13.276,37.216c-0.091-0.09-0.176,0.044-0.223,0.079
		c-0.68,0.507-1.472,1.648-1.98,2.352c-1.479,2.048-2.783,4.179-3.487,6.683c-0.031,0.112-0.094,0.159-0.137,0.252
		c0.055,0.054,0.284-0.186,0.33-0.237c0.505-0.56,0.865-1.303,1.239-1.906c1.355-2.18,2.762-4.424,4.04-6.64
		C13,37.657,13.357,37.298,13.276,37.216z M35.855,41.739c0.038-0.091,0.124-1.002,0.092-1.046c-0.076,0.03-0.164,0.058-0.217,0.123
		c-0.131,0.156-0.583,0.976-0.629,1.139c-0.079,0.284-0.08,0.643-0.076,0.939c0.431-0.179,0.555-0.681,0.715-1.082
		C35.758,41.765,35.847,41.758,35.855,41.739z M57.269,46.016c-0.121-0.097-1.078,0.587-1.255,0.699
		c-1.776,1.127-4.121,2.868-5.383,4.594c-0.235,0.321-0.211,0.155-0.403,0.613c-0.041,0.097-0.229,0.042-0.119,0.426
		c0.135,0.467,0.63,0.43,0.997,0.265c0.613-0.275,1.545-1.388,2.064-1.889c1.351-1.305,2.731-2.572,3.785-4.17
		C57.061,46.397,57.155,46.18,57.269,46.016z"/>
	<path style="fill:#FFFFFF;" d="M59.167,54.839c3.436,0.872,6.462,4.194,6.982,7.822c1.004,7.003-5.513,12.414-12.305,10.796
		c-3.176-0.756-6.185-3.438-7.019-6.559c-0.061-0.228-0.127-0.514-0.179-0.727c-0.013-0.056-0.026-0.139-0.037-0.191
		c-0.148-0.649-0.112-2.192-0.075-2.9c0.125-2.37,1.651-4.996,3.532-6.483C52.561,54.625,55.953,54.023,59.167,54.839z
		 M57.979,57.693c-0.652-0.178-3.071-0.03-3.71,0.181c-0.289,0.095-1.061,0.473-1.353,0.635c-1.003,0.558-2.164,1.867-2.607,2.89
		c-0.486,1.123-0.717,3.041-0.43,4.224c0.013,0.054,0.071,0.303,0.091,0.361c0.121,0.352,0.151,0.407,0.302,0.748
		c2.248,5.071,9.551,5.267,11.928,0.351c1.299-2.687,0.712-5.912-1.519-7.885C59.677,58.31,59.363,58.071,57.979,57.693z"/>
	<path style="fill:#FFFFFF;" d="M11.499,54.212c0.009-0.067,0.107-0.176,0.072-0.281l0.143-0.004
		c0.315,0.465,0.61,0.951,0.934,1.412c1.596,2.268,3.072,4.617,4.626,6.943c0.44,0.659,0.924,1.283,1.379,1.923
		c0.068,0.095,0.097,0.558,0.254,0.24c0.626-1.269,1.587-2.415,2.375-3.621c1.438-2.202,2.638-4.486,4.33-6.465
		c0.064-0.074,0.19-0.293,0.244-0.395l0.218,0.456l0,18.531c0,0.333-0.008,0.433-0.024,0.738l-2.967,0.074
		c0.034-0.547-0.014-1.065-0.144-1.595l0.002-8.057c-0.276,0.051-0.214,0.281-0.34,0.476c-0.207,0.321-0.449,0.662-0.655,0.963
		c-0.997,1.452-2.026,2.897-2.982,4.365c-0.055,0.084-0.073,0.526-0.223,0.198c-0.111-0.243-0.449-0.648-0.644-0.919
		c-0.877-1.217-1.745-2.578-2.613-3.861c-0.194-0.287-0.57-0.777-0.698-1.059c-0.044-0.096-0.003-0.116-0.159-0.092l-0.071,9.509
		c-1.009-0.086-2.117,0.294-3.056-0.107V54.212z"/>
	<path style="fill:#FFFFFF;" d="M28.999,53.81l7.268,10.585c0.119-0.184,0.343-0.384,0.46-0.553c2.269-3.28,4.24-6.681,6.595-9.925
		c0.041-0.057-0.015-0.138,0.158-0.095l0.001,19.941l-2.985-0.071v-9.58c-0.255-0.028-0.219,0.281-0.31,0.402
		c-1.079,1.441-2.114,2.895-3.098,4.408c-0.217,0.334-0.352,0.811-0.625,1.083c-0.044,0.044-0.206,0.137-0.266,0.141l-4.017-5.963
		v9.59c-0.07-0.023-0.154-0.01-0.178-0.01h-3.026c-0.017-0.464,0,0,0-1.379"/>
	<path style="fill:#FFFFFF;" d="M75.087,54.839c0.016,0.004,0.024,0.096,0.076,0.112c0.371,0.114,0.327,0.025,0.666,0.244
		c2.283,1.475,2.855,3.337,1.801,5.936c-0.099,0.243-0.463,0.712-0.395,0.953c0.071,0.084,0.209,0.049,0.311,0.111
		c0.771,0.472,2.011,1.557,2.523,2.321c1.54,2.298,1.108,5.284-0.627,7.345c-1.317,1.564-3.039,1.814-5.01,1.901
		c-1.743,0.077-3.486-0.078-5.223-0.07l0.077-18.942c0.294,0.014,0.52-0.126,0.809-0.151C71.377,54.491,73.866,54.531,75.087,54.839
		z M73.97,57.654c-0.072-0.046-1.463,0-1.706,0l0,3.194c0.15-0.016,0.324,0.024,0.467,0.005c0.131-0.017,0.093-0.132,0.15-0.146
		c0.356-0.083,0.892,0.062,1.318-0.078c0.061-0.02,0.059-0.104,0.111-0.131c0.087-0.044,0.182-0.026,0.278-0.1
		c0.211-0.165,0.208-0.302,0.306-0.494c0.024-0.048,0.12-0.033,0.14-0.101c0.157-0.534,0.069-1.094-0.239-1.552
		c-0.247-0.367-0.432-0.349-0.775-0.456C73.939,57.769,73.977,57.658,73.97,57.654z M75.001,64.396h-2.736
		c0.007,1.174-0.079,2.34-0.074,3.516c0.002,0.434,0.096,0.873,0.077,1.348c-0.014,0.36-0.146,0.861-0.149,1.207
		c-0.001,0.079,0.037,0.245,0.11,0.245h2.985c0.477,0,1.315-0.422,1.695-0.723c1.406-1.114,1.39-3.568,0.108-4.765
		c-0.625-0.584-1.009-0.567-1.802-0.688C75.086,64.515,75.019,64.399,75.001,64.396z"/>
	<path style="fill:#FFFFFF;" d="M126.117,54.838c0.737,0.311,1.491,0.582,2.181,1.05c0.688,0.467,1.307,1.155,1.768,1.857
		c1.136,1.729,1.537,4.319,1.038,6.466c-0.317,1.364-1.377,2.403-2.126,3.535c-0.054,0.081-0.36,0.357-0.363,0.446
		c0.094,0.252,0.136,0.6,0.227,0.833c0.019,0.048,0.109,0.06,0.131,0.11c0.639,1.447,1.363,2.825,2,4.292
		c0.031,0.072,0.208,0.051,0.138,0.265c-0.561-0.066-2.95,0.258-3.295,0.007c-0.077-0.056-0.104-0.361-0.167-0.486
		c-0.474-0.94-1.115-2.536-1.725-3.373c-0.375-0.515-1.099-0.203-1.605-0.127c-0.182,0.027-0.622-0.054-0.71,0.072l-0.106,3.904
		c-0.608-0.005-1.201,0.105-1.812,0.078c-0.211-0.009-1.122-0.075-1.17-0.266c0.049-0.292-0.058-0.561-0.073-0.834
		c-0.302-5.412,0.235-11.1,0-16.541l0.074-1.736c0.554,0.026,1.119-0.033,1.673-0.002C122.953,54.429,125.55,54.599,126.117,54.838z
		 M123.507,57.37v9.332c0.071,0.132,0.463,0.068,0.588,0.031c0.55-0.162,1.2-0.381,1.742-0.629c1.27-0.581,1.613-1.203,2.153-2.506
		c0.147-0.355,0.115-0.463,0.211-0.784c0.019-0.065,0.127-0.024,0.144-0.153c0.29-2.213-1.34-4.359-3.259-5.002
		c-0.138-0.046-0.629-0.197-0.707-0.215C124.268,57.419,123.538,57.339,123.507,57.37z"/>
	<path style="fill:#FFFFFF;" d="M117.537,73.692l-8.955,0l0-18.948l1.313-0.144l7.643,0.002l-0.072,2.98l-5.827,0.072v6.706
		c0,0.026,0.073,0.115,0.083,0.166l5.816,0.082v2.803l-0.12,0.093c-0.128-0.038-0.347,0.084-0.413,0.084h-5.366v3.051
		c0.419-0.062,0.846,0.058,1.241,0.074c1.409,0.058,2.906-0.154,4.273,0.133c0.121,0.025,0.261-0.001,0.385,0.006V73.692z"/>
	<path style="fill:#FFFFFF;" d="M82.615,29.083c0.175,0.085,0.696,0.428,0.81,0.573c0.368,0.464,0.368,0.836,0.142,1.353
		c-0.238,0.546-0.957,1.295-1.409,1.664c-0.85,0.694-1.885,1.132-2.785,1.74c0.056,0.068,0.125,0.117,0.209,0.144
		c0.773,0.254,1.685,0.294,2.477,0.578c5.761,2.069,0.481,8.787-2.316,11.164c-0.955,0.812-2.048,1.576-3.2,2.11
		c-3.898,1.806-10.052,1.795-12.382-2.414c-1.79-3.233,0.229-7.91,4.02-8.49c0.635-0.097,1.236,0.431,1.808,0.635l-0.533,0.14
		c-2.283-0.2-3.659,0.859-4.589,2.784c-1.221,2.529-0.651,4.45,1.421,6.2c0.118,0.1,0.291,0.449,0.46,0.377
		c0.371-0.47,0.661-0.991,0.97-1.501c1.787-2.939,3.398-6.224,4.832-9.299c0.024-0.051,0.333-0.098,0.015-0.247
		c-0.369-0.173-0.839-0.238-1.226-0.373c-0.056-0.057,0.282-0.372,0.341-0.424c0.363-0.324,0.844-0.648,1.225-0.963L72.906,34.7
		c-0.207-0.1-0.247-0.345-0.398-0.529c-0.824-1.003-2.253-1.126-3.477-1.212c-0.338-0.024-1.088,0.071-1.338-0.012
		c-0.186-0.062-0.252-0.549-0.174-0.684c0.053-0.092,0.789-0.385,0.893-0.576c1.982-0.804,3.894-1.435,6.028-1.985
		C76.563,29.154,80.505,28.056,82.615,29.083z M81.485,29.504c-0.075-0.035-1.446-0.098-1.649-0.094
		c-0.369,0.009-0.655,0.106-0.894,0.386c-0.616,0.722-1.55,2.343-2.046,3.209c-0.192,0.335-0.366,0.737-0.553,1.08
		c-0.085,0.155-0.489,0.665-0.382,0.789c1.083-0.344,2.178-0.684,3.214-1.154c1.144-0.519,2.564-1.365,3.323-2.379
		c0.247-0.331,0.547-0.724,0.427-1.17c-0.009-0.033-0.453-0.459-0.484-0.473c-0.271-0.121-0.648-0.021-0.889-0.076
		C81.502,29.61,81.504,29.512,81.485,29.504z M78.163,29.623c-0.021-0.021-0.505,0.058-0.596,0.078
		c-2.228,0.471-4.51,1.02-6.665,1.789c-0.393,0.14-0.973,0.351-1.266,0.615c0.104-0.031,0.143,0.027,0.207,0.055
		c0.539,0.241,1.408,0.308,2.013,0.59c0.875,0.407,1.401,1.146,1.787,2.027l0.42,0.44c0.775-0.383,1.359-1.072,1.856-1.77
		c0.678-0.953,1.631-2.54,2.177-3.575C78.139,29.788,78.192,29.74,78.163,29.623z M82.686,36.038
		c-1.104-0.48-5.067-0.645-6.333-0.524c-1.257,0.121-1.642,1.159-2.243,2.074c-0.927,1.41-1.78,2.869-2.668,4.306
		c-1.175,1.901-2.481,3.806-3.509,5.736c-0.097,0.182-0.188,0.368-0.287,0.548c0.011,0.048,0.447,0.217,0.538,0.245
		c1.164,0.36,3.118,0.535,4.331,0.431c4.608-0.394,9.939-4.945,11.229-9.368c0.295-1.01,0.373-2.207-0.416-3.027
		C83.141,36.266,82.853,36.223,82.686,36.038z"/>
	<path style="fill:#FFFFFF;" d="M100.338,42.893c1.506-0.694,2.969-1.464,4.2-2.583c0.468-0.321,1.065-0.415,1.627-0.397
		l-0.923,2.057c1.312-0.484,2.642-1.259,3.76-2.099c2.59-1.945,4.3-4.727,6.879-6.58c0.05-0.036,0.262-0.436,0.238-0.01
		c-0.023,0.413-0.407,1.166-0.666,1.501c-0.041,0.053-0.167,0.08-0.23,0.159c-2.003,2.5-4.105,4.32-5.441,7.328
		c-0.396,0.891-1.025,2.447-1.197,3.432c-0.107,0.612,0.185,1.122,0.354,1.69c-0.315,0.382-0.628,0.611-1.201,0.389
		c-0.015-0.223-0.075-0.436-0.084-0.661c-0.102-2.428,1.251-4.095,1.961-6.21c0.032-0.095,0.042-0.188,0.032-0.287
		c-0.088-0.098-2.088,1.184-2.296,1.29c-0.539,0.275-1.492,0.719-2.072,0.77c-0.759,0.068-1.586-0.175-2.342-0.067
		c-0.847,0.121-2.364,1.295-2.77,2.06c-0.303,0.572-0.542,1.731-1.047,2.074c-0.343,0.233-1.086,0.31-1.385,0.023
		c-1.335-1.286,1.23-2.22,1.622-3.261c0.259-0.69,0.188-1.656,0.269-2.392c-0.124-0.128-0.596,0.353-0.699,0.418
		c-1.601,1.014-3.208,1.804-4.564,3.161c-0.466,0.467-0.744,1.145-1.485,1.213c-0.283,0.026-0.514-0.099-0.659-0.341
		c-0.221-0.368,0.029-0.351,0.204-0.577c0.416-0.534,1.153-1.206,1.489-1.703c0.054-0.081,0.123-0.145,0.099-0.256
		c-0.509,0.095-1.224,0.713-1.723,0.622c-0.87-0.158-0.906-1.22-1.12-1.9c-0.062-0.049-0.36,0.271-0.412,0.329
		c-0.584,0.656-1.287,1.992-2.327,1.874c-0.097-0.011-0.193-0.001-0.236-0.115c0.153-1.702,1.248-3.086,1.839-4.642
		c-0.095-0.067-0.842,0.178-1.011,0.232c-0.248,0.079-1.067,0.35-1.232,0.473c-0.156,0.116-0.443,0.896-0.511,1.122
		c-0.229,0.764-0.282,1.944-0.989,2.42c-0.076,0.052-0.176,0.05-0.253,0.087c-0.054,0.026-0.055,0.121-0.106,0.133
		c-0.499,0.118-0.958-0.253-1.017-0.74c-0.137-1.126,0.782-2.757,1.356-3.688c1.581-0.546,3.238-1.007,4.9-1.174
		c0.144,0.145-1.15,3.235-1.279,3.689c0.179-0.03,0.344-0.286,0.462-0.425c0.567-0.661,1.115-1.637,2.096-1.633l-0.213,3.194
		c0.081,0.079,0.583-0.176,0.685-0.239c1.542-0.947,1.287-2.746,2.002-4.139c0.528-1.029,1.917-0.631,1.866,0.44
		c-0.046,0.967-0.895,0.805-1.484,1.218c-0.173,0.948-0.479,1.886-0.476,2.86c0.525-0.293,0.999-0.665,1.504-0.984
		c1.284-0.812,2.45-1.42,3.376-2.731c0.658-0.932,1.124-1.8,2.476-1.607c-0.226,0.411-0.381,0.858-0.613,1.267
		c-0.244,0.429-0.848,1.076-0.981,1.505c-0.041,0.132-0.253,1.227-0.253,1.308V42.893z M86.621,40.339l-0.579,0.736
		c-0.185,0.571-0.389,1.13-0.344,1.747l0.651-0.948C86.408,41.349,86.694,40.88,86.621,40.339z"/>
	<path style="fill:#FFFFFF;" d="M92.875,54.602v15.932l0.107,0.106h6.183c0.038,0,0.164,0.08,0.231,0.089
		c-0.004,0.116,0.16,0.396,0.16,0.443v2.484l-9.595,0.036l-0.005-18.844l0.017-0.092c0.084-0.004,0.284-0.153,0.308-0.153H92.875z"
		/>
	<path style="fill:#FFFFFF;" d="M105.668,54.531v18.699c0,0.085-0.161,0.33-0.256,0.383c-0.059,0.033-0.513,0.149-0.561,0.149
		h-2.132l-0.107-0.106V54.709c0-0.023,0.094-0.108,0.071-0.177H105.668z"/>
	<path style="fill:#FFFFFF;" d="M86.87,54.531l0.11,0.245c0,3.55-0.003,7.115-0.007,10.645l-0.008,8.258
		c-0.051,0.01-0.141,0.083-0.166,0.083h-2.701c-0.101-0.062-0.098-0.141-0.11-0.245c-0.147-1.251,0.024-3.014,0.007-4.335
		c-0.002-0.185-0.075-0.359-0.077-0.561c-0.052-4.698,0.138-9.393,0.074-14.09H86.87z"/>
	<path style="fill:#FFFFFF;" d="M8.514,54.602v19.16H5.707c-0.024,0-0.108-0.094-0.178-0.071V54.78c0-0.013,0.165-0.177,0.178-0.177
		H8.514z"/>
</g>
</svg>
