<?xml version="1.0" encoding="iso-8859-1"?>
<!-- Generator: Adobe Illustrator 29.6.1, SVG Export Plug-In . SVG Version: 9.03 Build 0)  -->
<svg version="1.1" id="Layer_1" xmlns="http://www.w3.org/2000/svg" xmlns:xlink="http://www.w3.org/1999/xlink" x="0px" y="0px"
	 viewBox="0 0 140 100" style="enable-background:new 0 0 140 100;" xml:space="preserve">
<g>
	<path style="fill:#FFFFFF;" d="M96.92,41.155c4.892,0.651,6.997,5.717,2.947,8.942c3.259,0.63,3.464,5.428,1.553,7.564
		c-0.416,0.465-2.774,1.694-3.259,1.694h-9.459V41.618l0.465-0.463C91.602,41.386,94.562,40.841,96.92,41.155z M92.732,48.56
		c7.042,1.385,7.103-5.409,0.292-4.186L92.732,48.56z M92.734,51.335v4.936h4.497c0.303,0,1.227-0.955,1.324-1.447
		C99.319,50.943,95.484,51.274,92.734,51.335z"/>
	<path style="fill:#FFFFFF;" d="M54.899,41.155c2.595,0.231,5.689-0.314,8.218,0c5.171,0.641,7.65,6.456,2.947,9.407
		c3.194,1.611,2.093,3.838,2.499,6.46c0.14,0.9,0.87,1.451,0.911,2.333h-4.342c-0.715-1.548-0.19-5.088-1.062-6.193
		c-0.947-1.2-4.26-1.281-5.451-0.439v6.632h-3.721 M58.621,44.24v4.936C66.718,50.534,66.477,42.944,58.621,44.24z"/>
	<path style="fill:#FFFFFF;" d="M72.997,43.116c4.016-4.013,12.375-2.235,13.197,3.773c0.204,1.493,0.199,5.234,0.001,6.733
		c-0.901,6.826-10.991,8.318-14.179,2.434C70.355,52.988,70.405,45.707,72.997,43.116z M76.092,55.549
		c1.94,2.02,4.981,1.017,5.939-1.442c0.759-1.95,0.729-6.465-0.33-8.302c-1.41-2.446-5.602-2.079-6.439,0.644
		C74.72,48.215,74.746,54.148,76.092,55.549z"/>
	<path style="fill:#FFFFFF;" d="M123.125,41.155v13.11c0,0.101,0.87,1.541,1.074,1.708c0.908,0.746,3.055,0.801,4.118,0.372
		c0.434-0.175,1.631-1.422,1.631-1.771V41.155c0.878,0.168,3.673-0.451,3.988,0.506c-0.707,6.318,3.112,17.195-6.301,18.015
		c-11.53,1.004-8.068-10.613-8.499-18.015C119.452,40.704,122.247,41.322,123.125,41.155z"/>
	<path style="fill:#FFFFFF;" d="M42.184,59.355h-3.721v-18.2h8.528c0.619,0,3.005,0.957,3.544,1.411
		c2.691,2.264,2.638,7.513-0.487,9.342c-0.264,0.154-2.305,0.97-2.436,0.97H42.65l-0.465,0.463V59.355z M42.184,49.792h4.497
		c1.09,0,2.188-2.31,1.889-3.397c-0.776-2.828-4.131-2.094-6.386-2.156V49.792z"/>
	<path style="fill:#FFFFFF;" d="M108.86,53.031c-0.529-2.543-4.551-7.726-5.649-10.73c-0.141-0.385-0.334-0.708-0.242-1.145
		c1.096,0.17,3.414-0.383,4.19,0.303c0.424,0.375,3.392,8.083,3.869,7.715l3.415-8.02h4.342c-0.195,0.934-0.752,2.131-1.184,2.987
		c-0.631,1.247-5.018,8.38-5.018,8.89v6.324h-3.721C108.598,57.508,109.216,54.744,108.86,53.031z"/>
	<path style="fill:#FFFFFF;" d="M30.723,34.422V55.09H12.271c-1.962,1.63-3.56,3.685-5.411,5.406
		c-0.307,0.285-0.447,0.562-0.946,0.456v-9.1l6.047-6.324h12.56v-1.542h-12.25l-6.357,6.17v-9.409l6.357-6.324H30.723z"/>
	<path style="fill:#FFFFFF;" d="M12.116,65.578H5.913c0.102-0.948-0.238-2.205,0.161-3.079c0.586-1.284,4.922-4.51,6.042-5.867
		V65.578z"/>
</g>
</svg>
