<?xml version="1.0" encoding="iso-8859-1"?>
<!-- Generator: Adobe Illustrator 29.6.1, SVG Export Plug-In . SVG Version: 9.03 Build 0)  -->
<svg version="1.1" id="Layer_1" xmlns="http://www.w3.org/2000/svg" xmlns:xlink="http://www.w3.org/1999/xlink" x="0px" y="0px"
	 viewBox="0 0 140 100" style="enable-background:new 0 0 140 100;" xml:space="preserve">
<g>
	<path style="fill:#FFFFFF;" d="M38.347,45.16v-0.313h3.383c0.629,0,1.249-0.012,1.861-0.033c0.613-0.023,1.232-0.035,1.86-0.035
		c0.582,0,1.199,0.06,1.85,0.179c0.649,0.119,1.243,0.325,1.781,0.616c0.538,0.291,0.982,0.684,1.334,1.177
		c0.35,0.492,0.527,1.112,0.527,1.859c0,0.599-0.135,1.11-0.403,1.535c-0.27,0.426-0.617,0.773-1.042,1.041
		c-0.426,0.271-0.901,0.475-1.423,0.618c-0.523,0.141-1.04,0.234-1.547,0.279v0.113c0.733,0.134,1.386,0.269,1.961,0.403
		c0.575,0.135,1.072,0.337,1.49,0.606c0.419,0.268,0.751,0.642,0.998,1.121c0.247,0.477,0.399,1.121,0.459,1.927
		c0.075,0.942,0.135,1.696,0.179,2.265c0.045,0.567,0.109,1.008,0.191,1.321c0.082,0.313,0.193,0.523,0.337,0.627
		c0.142,0.106,0.347,0.157,0.615,0.157c0.299,0,0.545-0.086,0.74-0.257c0.195-0.173,0.365-0.333,0.516-0.482l0.224,0.202
		c-0.149,0.149-0.295,0.287-0.437,0.415c-0.143,0.126-0.306,0.235-0.493,0.324c-0.187,0.091-0.415,0.161-0.684,0.213
		c-0.269,0.053-0.606,0.079-1.009,0.079c-0.823,0-1.465-0.131-1.928-0.392c-0.463-0.261-0.807-0.585-1.031-0.974
		c-0.225-0.389-0.362-0.812-0.415-1.267c-0.052-0.455-0.086-0.885-0.101-1.288c-0.029-0.613-0.07-1.206-0.122-1.782
		s-0.176-1.087-0.369-1.535c-0.195-0.447-0.486-0.807-0.875-1.076c-0.389-0.268-0.933-0.403-1.637-0.403h-1.479v8.091h2.062v0.313
		h-7.372V60.49h2.062V45.16H38.347z M44.577,52.085c0.672,0,1.203-0.089,1.59-0.268c0.39-0.179,0.68-0.422,0.875-0.728
		c0.194-0.307,0.317-0.654,0.369-1.042c0.053-0.39,0.079-0.785,0.079-1.189c0-0.657-0.045-1.22-0.135-1.691
		c-0.09-0.471-0.238-0.858-0.448-1.165c-0.208-0.307-0.497-0.534-0.862-0.684c-0.366-0.149-0.833-0.225-1.401-0.225
		c-0.165,0-0.329,0.009-0.493,0.022c-0.165,0.015-0.329,0.031-0.494,0.045v6.925H44.577z"/>
	<polygon style="fill:#FFFFFF;" points="60.265,44.847 64.143,56.007 64.187,56.007 68.132,44.847 73.734,44.847 73.734,45.16 
		71.674,45.16 71.674,60.491 73.734,60.491 73.734,60.804 66.383,60.804 66.383,60.491 68.423,60.491 68.423,45.16 68.378,45.16 
		62.865,60.804 62.506,60.804 56.97,45.16 56.926,45.16 56.926,60.491 58.988,60.491 58.988,60.804 54.505,60.804 54.505,60.491 
		56.567,60.491 56.567,45.16 54.505,45.16 54.505,44.847 	"/>
	<path style="fill:#FFFFFF;" d="M75.821,60.49l6.678-16.271h0.604l7.061,16.271h1.926v0.313h-7.53V60.49h2.084l-2.599-6.007h-5.379
		l-2.486,6.007h1.993v0.313h-4.235V60.49H75.821z M78.778,54.17h5.155l-2.646-6.119L78.778,54.17z"/>
	<rect x="95.442" y="44.183" style="fill:#FFFFFF;" width="0.497" height="16.621"/>
	<path style="fill:#FFFFFF;" d="M101.709,45.301c0,0.577-0.34,0.876-0.705,0.985l0.768,1.554h-0.385l-0.717-1.485h-0.967v1.485
		h-0.334v-3.571h1.231C101.342,44.268,101.709,44.738,101.709,45.301 M100.542,46.05c0.531,0,0.825-0.269,0.825-0.729
		c0-0.484-0.316-0.748-0.81-0.748h-0.853v1.477H100.542z"/>
	<path style="fill:#FFFFFF;" d="M102.488,45.778c0-0.986,0.539-1.588,1.394-1.588c0.856,0,1.391,0.606,1.391,1.591v0.577
		c0,0.983-0.54,1.561-1.399,1.561c-0.856,0-1.386-0.579-1.386-1.561V45.778z M102.821,46.362c0,0.816,0.436,1.254,1.058,1.254
		c0.627,0,1.061-0.438,1.061-1.254v-0.589c0-0.816-0.437-1.279-1.061-1.279c-0.622,0-1.058,0.463-1.058,1.279V46.362z"/>
	<polygon style="fill:#FFFFFF;" points="106.883,47.84 106.883,46.263 105.672,44.269 106.057,44.269 107.037,45.93 107.059,45.93 
		108.038,44.269 108.423,44.269 107.216,46.259 107.216,47.84 	"/>
	<path style="fill:#FFFFFF;" d="M108.372,47.839l1.281-3.571h0.334l1.281,3.571h-0.359l-0.392-1.142h-1.409l-0.392,1.142H108.372z
		 M109.804,44.68l-0.602,1.744h1.218l-0.6-1.744H109.804z"/>
	<polygon style="fill:#FFFFFF;" points="114.001,47.84 111.95,47.84 111.95,44.269 112.285,44.269 112.285,47.537 114.001,47.537 	
		"/>
	<polygon style="fill:#FFFFFF;" points="116.774,47.84 114.688,47.84 114.688,44.269 116.774,44.269 116.774,44.574 115.023,44.574 
		115.023,45.862 116.68,45.862 116.68,46.164 115.023,46.164 115.023,47.537 116.774,47.537 	"/>
	<polygon style="fill:#FFFFFF;" points="99.379,54.281 99.379,50.709 99.701,50.709 100.967,53.651 100.98,53.651 102.241,50.709 
		102.566,50.709 102.566,54.281 102.26,54.281 102.26,51.441 102.241,51.441 101.126,54.006 100.822,54.006 99.701,51.441 
		99.683,51.441 99.683,54.281 	"/>
	<path style="fill:#FFFFFF;" d="M103.259,54.281l1.28-3.571h0.335l1.281,3.571h-0.359l-0.393-1.142h-1.408l-0.392,1.142H103.259z
		 M104.691,51.121l-0.602,1.744h1.218l-0.6-1.744H104.691z"/>
	<path style="fill:#FFFFFF;" d="M109.176,51.743c0,0.576-0.34,0.875-0.705,0.985l0.768,1.554h-0.385l-0.719-1.486h-0.964v1.486
		h-0.335V50.71h1.232C108.81,50.71,109.176,51.18,109.176,51.743 M108.009,52.492c0.528,0,0.823-0.27,0.823-0.729
		c0-0.484-0.314-0.749-0.808-0.749h-0.853v1.478H108.009z"/>
	<path style="fill:#FFFFFF;" d="M109.954,52.219c0-0.986,0.54-1.588,1.394-1.588c0.856,0,1.392,0.606,1.392,1.59v0.578
		c0,0.983-0.539,1.561-1.4,1.561c-0.855,0-1.386-0.579-1.386-1.561V52.219z M110.288,52.804c0,0.816,0.434,1.254,1.059,1.254
		c0.626,0,1.061-0.438,1.061-1.254v-0.589c0-0.816-0.437-1.28-1.061-1.28c-0.625,0-1.059,0.464-1.059,1.28V52.804z"/>
	<path style="fill:#FFFFFF;" d="M113.854,52.795c0,0.793,0.375,1.262,1.049,1.262c0.6,0,0.94-0.375,0.94-0.808h0.331v0.003
		c0,0.511-0.418,1.108-1.285,1.108c-0.879,0-1.367-0.595-1.367-1.57v-0.574c0-0.957,0.5-1.585,1.365-1.585
		c0.855,0,1.277,0.616,1.277,1.152v0.003h-0.33c0-0.395-0.331-0.853-0.947-0.853c-0.65,0-1.033,0.494-1.033,1.28V52.795z"/>
	<path style="fill:#FFFFFF;" d="M116.681,54.281l1.28-3.571h0.335l1.281,3.571h-0.359l-0.393-1.142h-1.408l-0.392,1.142H116.681z
		 M118.113,51.121l-0.602,1.744h1.218l-0.6-1.744H118.113z"/>
	<rect x="120.277" y="50.709" style="fill:#FFFFFF;" width="0.333" height="3.572"/>
	<polygon style="fill:#FFFFFF;" points="121.681,54.281 121.681,50.709 122.019,50.709 123.937,53.705 123.956,53.705 
		123.956,50.709 124.289,50.709 124.289,54.281 123.954,54.281 122.033,51.287 122.017,51.287 122.017,54.281 	"/>
	<polygon style="fill:#FFFFFF;" points="127.43,54.281 125.345,54.281 125.345,50.709 127.43,50.709 127.43,51.016 125.68,51.016 
		125.68,52.303 127.336,52.303 127.336,52.604 125.68,52.604 125.68,53.978 127.43,53.978 	"/>
	<path style="fill:#FFFFFF;" d="M100.424,57.151c1.146,0,1.579,0.734,1.579,1.788c0,1.035-0.412,1.784-1.579,1.784h-1.056v-3.572
		H100.424z M99.703,60.42h0.711c0.874,0,1.245-0.554,1.245-1.481c0-0.909-0.362-1.483-1.245-1.483h-0.711V60.42z"/>
	<polygon style="fill:#FFFFFF;" points="102.736,58.451 102.993,57.15 103.397,57.15 103.018,58.451 	"/>
	<path style="fill:#FFFFFF;" d="M103.468,60.723l1.283-3.572h0.332l1.283,3.572h-0.359l-0.395-1.142h-1.406l-0.392,1.142H103.468z
		 M104.902,57.562l-0.604,1.743h1.22l-0.6-1.743H104.902z"/>
	<path style="fill:#FFFFFF;" d="M107.116,59.787c0.026,0.346,0.314,0.708,0.952,0.708c0.546,0,0.904-0.277,0.904-0.702
		c0-0.361-0.23-0.537-0.689-0.661l-0.571-0.15c-0.444-0.121-0.821-0.384-0.821-0.919c0-0.633,0.543-0.999,1.189-0.999
		c0.632,0,1.171,0.343,1.185,0.967h-0.338c-0.026-0.343-0.287-0.661-0.854-0.661c-0.5,0-0.841,0.252-0.841,0.67
		c0,0.32,0.194,0.514,0.582,0.617l0.554,0.15c0.58,0.158,0.944,0.394,0.944,0.96c0,0.669-0.561,1.034-1.285,1.034
		c-0.921,0-1.239-0.577-1.25-1.015H107.116z"/>
	<path style="fill:#FFFFFF;" d="M110.246,59.787c0.026,0.346,0.314,0.708,0.95,0.708c0.546,0,0.906-0.277,0.906-0.702
		c0-0.361-0.23-0.537-0.69-0.661l-0.571-0.15c-0.442-0.121-0.82-0.384-0.82-0.919c0-0.633,0.542-0.999,1.19-0.999
		c0.632,0,1.171,0.343,1.184,0.967h-0.338c-0.026-0.343-0.289-0.661-0.854-0.661c-0.5,0-0.841,0.252-0.841,0.67
		c0,0.32,0.194,0.514,0.581,0.617l0.554,0.15c0.58,0.158,0.944,0.394,0.944,0.96c0,0.669-0.561,1.034-1.284,1.034
		c-0.923,0-1.24-0.577-1.251-1.015H110.246z"/>
	<path style="fill:#FFFFFF;" d="M113.567,59.486c0,0.611,0.366,1.009,0.981,1.009c0.616,0,0.983-0.395,0.983-1.009v-2.335h0.332
		v2.335c0,0.791-0.516,1.315-1.314,1.315c-0.798,0-1.312-0.532-1.312-1.324v-2.326h0.332V59.486z"/>
	<path style="fill:#FFFFFF;" d="M119.209,58.184c0,0.576-0.34,0.875-0.705,0.985l0.768,1.554h-0.385l-0.717-1.486h-0.965v1.486
		h-0.336v-3.571h1.232C118.843,57.151,119.209,57.621,119.209,58.184 M118.043,58.933c0.529,0,0.824-0.271,0.824-0.729
		c0-0.485-0.315-0.749-0.811-0.749h-0.852v1.478H118.043z"/>
	<path style="fill:#FFFFFF;" d="M119.764,60.723l1.282-3.572h0.333l1.283,3.572h-0.359l-0.393-1.142h-1.408l-0.392,1.142H119.764z
		 M121.198,57.562l-0.602,1.743h1.218l-0.6-1.743H121.198z"/>
	<polygon style="fill:#FFFFFF;" points="123.342,60.723 123.342,57.151 123.68,57.151 125.598,60.146 125.617,60.146 
		125.617,57.151 125.951,57.151 125.951,60.723 125.615,60.723 123.694,57.729 123.678,57.729 123.678,60.723 	"/>
	<path style="fill:#FFFFFF;" d="M127.198,59.237c0,0.792,0.373,1.261,1.048,1.261c0.6,0,0.94-0.375,0.94-0.807h0.33v0.002
		c0,0.512-0.415,1.109-1.285,1.109c-0.879,0-1.367-0.595-1.367-1.57v-0.575c0-0.956,0.5-1.584,1.366-1.584
		c0.855,0,1.277,0.616,1.277,1.152v0.003h-0.331c0-0.396-0.33-0.853-0.946-0.853c-0.65,0-1.032,0.494-1.032,1.28V59.237z"/>
	<polygon style="fill:#FFFFFF;" points="132.482,60.723 130.396,60.723 130.396,57.151 132.482,57.151 132.482,57.457 
		130.73,57.457 130.73,58.745 132.387,58.745 132.387,59.046 130.73,59.046 130.73,60.42 132.482,60.42 	"/>
	<path style="fill:#FFFFFF;" d="M21.186,38.509c-7.535,0-13.668,6.132-13.668,13.668c0,7.537,6.132,13.669,13.668,13.669
		c7.536,0,13.668-6.131,13.668-13.669C34.854,44.641,28.723,38.509,21.186,38.509 M21.186,63.832
		c-6.426,0-11.655-5.23-11.655-11.656s5.229-11.655,11.655-11.655S32.84,45.75,32.84,52.176S27.613,63.832,21.186,63.832"/>
	<path style="fill:#FFFFFF;" d="M21.126,41.341c-5.974,0-10.835,4.861-10.835,10.835c0,5.975,4.861,10.836,10.835,10.836
		s10.835-4.861,10.835-10.836C31.962,46.202,27.101,41.341,21.126,41.341 M21.126,62.833c-5.875,0-10.655-4.781-10.655-10.657
		c0-5.875,4.78-10.655,10.655-10.655s10.655,4.78,10.655,10.655C31.781,58.052,27.001,62.833,21.126,62.833"/>
	<path style="fill:#FFFFFF;" d="M16.834,45.102c1.202-1.868,3.485-2.049,3.485-2.049c-2.114-0.667-4.317,1.153-4.317,1.153
		L16.834,45.102z"/>
	<path style="fill:#FFFFFF;" d="M15.415,54.278l-0.404-1.791c-1.308,0.138-2.666,2.45-2.666,2.45
		c-0.56-1.181-0.022-3.336-0.022-3.336c-0.566,0.905-0.911,1.816-1.1,2.698c0.228,1.088,0.63,2.109,1.174,3.04
		c0.386-3.179,2.174-4.125,2.174-4.125c-2.444,3.228-0.355,6.355-0.355,6.355C13.624,57.033,15.415,54.278,15.415,54.278"/>
	<path style="fill:#FFFFFF;" d="M12.757,53.42c0,0,1.87-1.396,2.41-1.396c0,0-1.308-0.295-1.996,0.325c0,0-0.079-0.522,0.668-2.293
		C13.839,50.055,12.501,51.589,12.757,53.42"/>
	<path style="fill:#FFFFFF;" d="M14.552,51.196c0,0,0.163-1.479,1.118-2.513c0,0-1.489,0.562-2.008,2.888
		c0,0,1.418-0.177,1.732,0.096C15.394,51.668,15.07,51.107,14.552,51.196"/>
	<path style="fill:#FFFFFF;" d="M15.052,46.373c-3.391,2.209-2.484,5.859-2.484,5.859c0.303-2.587,2.991-4.414,2.991-4.414
		l0.169-0.123c0,0,2.118-1.238,2.113-2.98c0,0-0.609,1.375-2.126,1.122c-1.459-0.301-3.338,1.403-3.338,1.403
		c-0.003-0.037-0.005-0.073-0.008-0.11c-0.615,1.066-1.046,2.25-1.241,3.514C12.548,46.727,15.052,46.373,15.052,46.373"/>
	<path style="fill:#FFFFFF;" d="M26.649,45.837c-1.516,0.255-2.125-1.122-2.125-1.122c-0.005,1.743,2.112,2.98,2.112,2.98
		l0.17,0.123c0,0,2.689,1.826,2.991,4.414c0,0,0.906-3.65-2.484-5.859c0,0,2.503,0.355,3.924,4.27
		c-0.196-1.263-0.626-2.449-1.241-3.514c-0.002,0.038-0.005,0.074-0.008,0.111C29.987,47.24,28.109,45.536,26.649,45.837"/>
	<path style="fill:#FFFFFF;" d="M15.894,45.336c0,0-0.967-0.614-1.791-0.429c-0.289,0.279-0.562,0.575-0.818,0.889
		C13.773,45.653,15.46,45.18,15.894,45.336"/>
	<path style="fill:#FFFFFF;" d="M15.404,44.334c0,0,0.203-0.503,1.43-1.1c0,0-0.407,0.045-0.906,0.264
		c-0.346,0.152-0.736,0.385-1.066,0.744c-0.05,0.054-0.1,0.112-0.147,0.173c0,0,1.06,0.458,1.857,1.02
		C16.573,45.435,16.004,44.423,15.404,44.334"/>
	<path style="fill:#FFFFFF;" d="M26.019,59.758c0.177-2.124-1.047-3.475-1.047-3.475c0.043,0.885-0.413,1.58-0.413,1.58
		c0.738,1.429-0.053,2.634-0.088,2.686c0.249-0.562-0.104-1.49-0.104-1.49c-0.782,1.564-2.026,1.584-2.026,1.584
		s-1.182,1.45-2.317,0c0,0-1.244-0.02-2.026-1.584c0,0-0.354,0.928-0.104,1.49c-0.035-0.052-0.825-1.257-0.09-2.686
		c0,0-0.455-0.694-0.41-1.58c0,0-1.226,1.35-1.048,3.475c0,0-1.202-2.243-0.473-4.368c0,0-1.349,2.363-0.446,5.21
		c0.419,0.289,0.861,0.546,1.323,0.771c-0.04-0.702,0.023-1.485,0.324-2.204c0,0-0.203,1.051,0.501,2.558
		c0.3,0.114,0.607,0.214,0.92,0.298c-0.051-0.319-0.072-0.606-0.025-0.771c0.086-0.301,0.61,0.265,1.006,0.987
		c0.454,0.077,0.919,0.123,1.393,0.138c-0.076-0.123-0.135-0.268-0.135-0.417l0.448,0.196l0.449-0.196
		c0,0.149-0.06,0.293-0.135,0.417c0.473-0.014,0.938-0.061,1.392-0.138c0.396-0.722,0.92-1.288,1.006-0.987
		c0.048,0.166,0.027,0.452-0.025,0.771c0.314-0.084,0.62-0.184,0.921-0.298c0.703-1.507,0.501-2.558,0.501-2.558
		c0.301,0.718,0.364,1.501,0.324,2.204c0.462-0.225,0.904-0.481,1.323-0.771c0.903-2.848-0.446-5.21-0.446-5.21
		C27.219,57.515,26.019,59.758,26.019,59.758"/>
	<path style="fill:#FFFFFF;" d="M21.182,59.04c-0.15,0.522-0.764,0.954-0.764,0.954c0.374,0.118,0.764,1.023,0.764,1.023
		s0.389-0.906,0.764-1.023C21.946,59.994,21.333,59.562,21.182,59.04"/>
	<path style="fill:#FFFFFF;" d="M30.018,54.938c0,0-1.358-2.312-2.666-2.45l-0.403,1.791c0,0,1.791,2.755,1.201,5.293
		c0,0,2.088-3.127-0.355-6.355c0,0,1.788,0.945,2.174,4.125c0.544-0.932,0.946-1.952,1.174-3.041
		c-0.189-0.881-0.534-1.793-1.1-2.698C30.042,51.602,30.58,53.756,30.018,54.938"/>
	<path style="fill:#FFFFFF;" d="M29.077,45.796c-0.255-0.312-0.527-0.61-0.817-0.888c-0.824-0.185-1.791,0.428-1.791,0.428
		C26.904,45.18,28.591,45.653,29.077,45.796"/>
	<path style="fill:#FFFFFF;" d="M11.127,51.528c-0.163,0.683,0,1.986,0,1.986c0.236-1.632,1.281-4.076,1.281-4.076
		C11.504,50.102,11.127,51.528,11.127,51.528"/>
	<path style="fill:#FFFFFF;" d="M31.193,51.528c0,0-0.376-1.426-1.28-2.091c0,0,1.044,2.445,1.28,4.076
		C31.193,53.514,31.357,52.211,31.193,51.528"/>
	<path style="fill:#FFFFFF;" d="M28.419,49.901c0.747,1.77,0.669,2.291,0.669,2.291c-0.689-0.619-1.997-0.324-1.997-0.324
		c0.542,0,2.411,1.397,2.411,1.397C29.756,51.436,28.419,49.901,28.419,49.901"/>
	<path style="fill:#FFFFFF;" d="M28.596,51.415c-0.518-2.324-2.007-2.886-2.007-2.886c0.955,1.032,1.117,2.513,1.117,2.513
		c-0.517-0.089-0.842,0.473-0.842,0.473C27.18,51.238,28.596,51.415,28.596,51.415"/>
	<path style="fill:#FFFFFF;" d="M21.182,47.562c0,0,1.64-2.26,0-4.787C19.542,45.302,21.182,47.562,21.182,47.562"/>
	<path style="fill:#FFFFFF;" d="M25.539,45.102l0.833-0.896c0,0-2.204-1.821-4.319-1.153C22.053,43.053,24.337,43.234,25.539,45.102
		"/>
	<path style="fill:#FFFFFF;" d="M26.97,44.334c-0.601,0.09-1.17,1.101-1.17,1.101c0.798-0.562,1.857-1.02,1.857-1.02
		c-0.046-0.061-0.095-0.119-0.147-0.173c-0.328-0.36-0.719-0.592-1.066-0.744c-0.5-0.219-0.906-0.264-0.906-0.264
		C26.767,43.83,26.97,44.334,26.97,44.334"/>
	<path style="fill:#FFFFFF;" d="M17.81,46.476c1.245-0.254,2.447,1.096,2.447,1.096c-0.718-2.473,0-3.959,0-3.959
		C18.196,44.916,17.81,46.476,17.81,46.476"/>
	<path style="fill:#FFFFFF;" d="M24.527,46.476c0,0-0.386-1.56-2.447-2.863c0,0,0.718,1.486,0,3.959
		C22.08,47.572,23.282,46.222,24.527,46.476"/>
	<path style="fill:#FFFFFF;" d="M22.7,57.783c0.002,0.022,0.004,0.044,0.006,0.068c0.203,0.026,0.405,0.052,0.611,0.077
		c-0.147,0.566-0.543,0.601-1.947,0.195c-0.014-0.5,0.216-0.897,0.563-1.234c0.348-0.339,0.511-0.472,0.747-0.671
		c0.337-0.288-0.036-0.327-0.13-0.327h-1.386h-0.008h-1.386c-0.095,0-0.467,0.039-0.13,0.327c0.235,0.2,0.398,0.332,0.747,0.671
		c0.347,0.338,0.578,0.734,0.563,1.234c-1.404,0.406-1.8,0.371-1.948-0.195c0.207-0.025,0.41-0.051,0.612-0.077
		c0.002-0.023,0.004-0.045,0.006-0.068c-0.35-0.105-0.7-0.209-1.1-0.33c0.061,1.104,0.46,1.429,1.439,1.221
		c0.43-0.092,0.87-0.249,1.204,0.243c0.336-0.492,0.767-0.335,1.197-0.243c0.979,0.208,1.377-0.117,1.439-1.221
		C23.4,57.574,23.05,57.678,22.7,57.783 M21.262,57c-0.033,0.062-0.067,0.074-0.097,0.067l-0.005-0.001
		C21.115,57.053,21.082,57,21.082,57s-0.188-0.312-0.685-0.702c-0.089-0.069,0-0.095,0-0.095h0.761h0.007h0.754
		c0,0,0.174,0.006,0.021,0.115C21.787,56.427,21.41,56.719,21.262,57"/>
	<path style="fill:#FFFFFF;" d="M16.904,49.62c0.255-0.293,0.552-0.551,0.793-0.854c0.382-0.482,0.835-0.772,1.474-0.734
		c0.17,0.01,0.344-0.044,0.57-0.079c-0.295-0.481-0.635-0.749-1.112-0.852c-0.866-0.186-1.502,0.155-2.07,1.092
		c-0.404,0.667-0.837,1.317-1.247,1.96C15.843,50.181,16.443,50.153,16.904,49.62"/>
	<path style="fill:#FFFFFF;" d="M27.003,50.149c-0.426-0.7-0.846-1.403-1.283-2.096c-0.151-0.241-0.337-0.461-0.524-0.679
		c-0.526-0.609-2.328-0.4-2.493,0.592c0.921-0.253,1.526,0.213,2.045,0.876c0.124,0.159,0.282,0.292,0.4,0.455
		C25.62,49.938,26.26,50.191,27.003,50.149"/>
	<path style="fill:#FFFFFF;" d="M18.004,56.113c0.119,0.542,0.619,0.944,1.305,0.972c-1.275-0.664-1.039-1.742-0.838-2.852
		c-0.609,0.267-0.843-0.083-1.059-0.505c-0.596-1.166-0.619-2.395-0.521-3.674c-0.065,0.202-0.146,0.401-0.194,0.608
		c-0.296,1.265-0.022,2.316,0.473,3.468C17.436,54.746,17.946,54.718,18.004,56.113"/>
	<path style="fill:#FFFFFF;" d="M24.325,56.113c0.058-1.395,0.568-1.366,0.834-1.984c0.496-1.151,0.769-2.203,0.473-3.468
		c-0.048-0.206-0.128-0.405-0.194-0.608c0.098,1.28,0.075,2.508-0.521,3.674c-0.216,0.422-0.45,0.772-1.058,0.505
		c0.2,1.11,0.436,2.188-0.838,2.852C23.706,57.057,24.206,56.655,24.325,56.113"/>
	<path style="fill:#FFFFFF;" d="M19.641,51.668c0.026-0.029,0.032-0.064-0.104-0.158c-0.378-0.263-1.229-0.826-1.628-1.049
		c0,0-0.13-0.069-0.062,0.005c0.366,0.396,0.775,0.947,0.775,0.947c-0.303,0-0.628-0.003-0.874-0.003c0,0-0.266-0.018-0.063,0.139
		c0.352,0.273,0.703,0.813,1.13,0.794c0.511-0.024,0.49,0.419,0.521,0.801c0.045,0.562,0.082,1.125,0.122,1.688
		c0.057-0.004,0.113-0.008,0.169-0.012c-0.079-0.901-0.164-1.8-0.23-2.701c-0.012-0.149,0.041-0.245,0.071-0.397
		C19.469,51.721,19.608,51.705,19.641,51.668"/>
	<path style="fill:#FFFFFF;" d="M24.42,50.461c-0.399,0.224-1.25,0.785-1.628,1.049c-0.136,0.095-0.131,0.129-0.104,0.158
		c0.033,0.037,0.172,0.053,0.172,0.053c0.031,0.152,0.084,0.249,0.073,0.397c-0.068,0.901-0.153,1.8-0.232,2.702
		c0.057,0.003,0.114,0.007,0.17,0.011c0.041-0.562,0.075-1.125,0.122-1.688c0.031-0.382,0.009-0.826,0.521-0.801
		c0.427,0.019,0.778-0.521,1.131-0.794c0.203-0.157-0.064-0.139-0.064-0.139c-0.246,0-0.571,0.003-0.874,0.003
		c0,0,0.408-0.551,0.775-0.947C24.549,50.392,24.42,50.461,24.42,50.461"/>
	<path style="fill:#FFFFFF;" d="M20.108,49.339c0.144,0.64,0.903,1.037,1.057,1.716c0.152-0.679,0.911-1.075,1.055-1.716
		c-0.181,0.15-0.672,0.265-1.055,0.337C20.78,49.604,20.291,49.489,20.108,49.339"/>
</g>
</svg>
