<?xml version="1.0" encoding="iso-8859-1"?>
<!-- Generator: Adobe Illustrator 29.6.1, SVG Export Plug-In . SVG Version: 9.03 Build 0)  -->
<svg version="1.1" id="Layer_1" xmlns="http://www.w3.org/2000/svg" xmlns:xlink="http://www.w3.org/1999/xlink" x="0px" y="0px"
	 viewBox="0 0 140 100" style="enable-background:new 0 0 140 100;" xml:space="preserve">
<g>
	<g>
		<g>
			<polygon style="fill:#FFFFFF;" points="116.391,7.523 113.417,7.523 90.947,38.159 90.947,7.523 83.536,7.523 83.536,54.729 
				90.947,54.729 90.947,42.125 97.273,33.533 113.417,54.729 116.344,54.729 98.736,31.551 			"/>
			<rect x="78.201" y="7.523" style="fill:#FFFFFF;" width="2.36" height="47.206"/>
			<path style="fill:#FFFFFF;" d="M70.744,7.523v23.65c0,3.934-0.968,7.561-2.903,10.881c-1.935,3.321-4.563,5.956-7.883,7.907
				c-3.321,1.952-6.947,2.927-10.881,2.927c-4.091,0-7.883-1.069-11.377-3.21V7.523h-7.411v38.742
				c1.853,2.302,4.088,4.219,6.703,5.75c3.682,2.156,7.71,3.234,12.085,3.234c4.343,0,8.356-1.078,12.038-3.234
				c3.682-2.155,6.601-5.082,8.757-8.78c2.155-3.698,3.234-7.718,3.234-12.061V7.523H70.744z"/>
			<path style="fill:#FFFFFF;" d="M24.953,7.523v23.65c0,3.723,0.787,7.196,2.36,10.417V7.523H24.953z"/>
		</g>
		<g>
			<g>
				<path style="fill:#FFFFFF;" d="M29.861,90.798c-1.913-1.119-3.433-2.636-4.561-4.548c-1.128-1.913-1.692-4.005-1.692-6.277
					c0-2.256,0.564-4.34,1.692-6.253c1.128-1.912,2.652-3.433,4.573-4.561c1.921-1.128,4.009-1.692,6.265-1.692
					c1.929,0,3.739,0.417,5.431,1.251c1.692,0.834,3.126,1.978,4.303,3.433l-0.907,0.834c-1.063-1.34-2.358-2.391-3.886-3.151
					c-1.529-0.76-3.175-1.14-4.941-1.14c-1.635,0-3.196,0.335-4.683,1.005v20.548c1.487,0.67,3.049,1.005,4.683,1.005
					c1.765,0,3.412-0.384,4.941-1.152c1.528-0.768,2.824-1.814,3.886-3.139l0.907,0.834c-1.177,1.455-2.611,2.599-4.303,3.433
					s-3.503,1.251-5.431,1.251C33.866,92.477,31.774,91.918,29.861,90.798z"/>
				<path style="fill:#FFFFFF;" d="M59.972,67.443l11.671,24.765h-7.307l-2.011-4.242H51.659l-1.986,4.242h-1.349L59.972,67.443z
					 M61.762,86.74l-4.757-10.102L52.248,86.74H61.762z"/>
				<path style="fill:#FFFFFF;" d="M76.179,67.688h17.654v1.226H82.799v15.129h6.13v1.226h-6.13v6.939h-6.62V67.688z"/>
				<path style="fill:#FFFFFF;" d="M98.001,67.688h18.39v1.226h-11.77v15.129h6.13v1.226h-6.13v5.713h11.77v1.226h-18.39V67.688z"/>
			</g>
			<path style="fill:#FFFFFF;" d="M104.842,65.236l3.384-4.168h4.462C112.689,61.068,109.054,65.236,104.842,65.236z"/>
		</g>
	</g>
</g>
</svg>
