<?xml version="1.0" encoding="iso-8859-1"?>
<!-- Generator: Adobe Illustrator 29.6.1, SVG Export Plug-In . SVG Version: 9.03 Build 0)  -->
<svg version="1.1" xmlns="http://www.w3.org/2000/svg" xmlns:xlink="http://www.w3.org/1999/xlink" x="0px" y="0px"
	 viewBox="0 0 140 100" style="enable-background:new 0 0 140 100;" xml:space="preserve">
<g id="Layer_2">
</g>
<g id="Layer_1">
	<polygon style="fill:#FFFFFF;" points="51.726,42.965 54.128,50.506 56.504,43.079 56.56,42.997 59.647,42.968 62.016,50.505 
		64.383,42.965 67.333,42.965 63.687,53.786 60.411,53.788 58.004,46.461 55.732,53.788 52.684,53.8 48.81,42.965 	"/>
	<path style="fill:#FFFFFF;" d="M133.192,42.965v2.193h-5.797c-0.145,0-0.697,0.17-0.838,0.26c-0.695,0.446-0.46,1.626,0.495,1.728
		c2.58,0.276,6.978-0.812,6.76,3.396c-0.061,1.179-1.068,3.253-2.438,3.253h-7.924v-2.193l6.07-0.001
		c0.717-0.063,1.542-0.24,1.531-1.131c-0.009-0.757-0.671-1.013-1.322-1.064c-1.544-0.122-4.46,0.381-5.663-0.648
		c-1.123-0.961-1.046-3.524-0.173-4.629c0.446-0.564,1.62-1.163,2.334-1.163H133.192z"/>
	<path style="fill:#FFFFFF;" d="M77.418,42.965v2.193h-4.425c-0.083,0-0.542,0.075-0.656,0.099
		c-0.985,0.208-1.476,1.053-1.437,2.026h6.517v2.159l-0.103,0.103H70.9c-0.044,0.756,0.245,1.564,0.992,1.854
		c0.245,0.095,0.918,0.202,1.169,0.202h4.356v2.193c-3.013-0.196-7.013,0.868-8.879-2.199c-1.218-2.003-1.151-5.63,0.645-7.296
		C71.395,42.251,74.668,43.173,77.418,42.965z"/>
	<path style="fill:#FFFFFF;" d="M99.851,42.965v6.957c0,0.085,0.132,0.605,0.173,0.718c0.081,0.224,0.283,0.49,0.494,0.603
		c0.109,0.058,0.705,0.222,0.807,0.222h2.778v-8.5h2.813v10.83h-6.346c-1.789,0-3.533-1.476-3.533-3.324v-7.506H99.851z"/>
	<path style="fill:#FFFFFF;" d="M85.924,38.99v2.125c-0.676-0.077-2.208-0.249-2.598,0.455c-0.177,0.32-0.237,1.091-0.044,1.396
		h2.641v2.125h-2.641l-0.103,0.103v8.602h-2.95V45.09h-2.058v-2.125h2.058V41.08c0-0.392,0.291-1.191,0.584-1.473
		c0.265-0.256,1.293-0.617,1.646-0.617H85.924z"/>
	<path style="fill:#FFFFFF;" d="M118.854,38.99v3.976h3.019v2.125h-3.019v5.107c0,0.608,0.645,1.262,1.231,1.375
		c0.14,0.027,0.613,0.099,0.724,0.099h1.063v2.125h-3.259c-1.269,0-2.641-1.538-2.641-2.776V45.09h-1.989v-2.125h1.989V38.99
		H118.854z"/>
	<path style="fill:#FFFFFF;" d="M95.254,47.489H92.51V45.81c0-0.101-0.143-0.471-0.23-0.558c-0.099-0.101-0.501-0.23-0.627-0.23
		h-1.406v8.774h-2.881v-10.83h5.728c0.168,0,0.917,0.248,1.1,0.341c0.95,0.485,1.007,1.547,1.061,2.505
		C95.285,46.367,95.232,46.933,95.254,47.489z"/>
	<rect x="109.592" y="42.965" style="fill:#FFFFFF;" width="2.95" height="10.83"/>
	<rect x="109.592" y="38.99" style="fill:#FFFFFF;" width="2.95" height="2.673"/>
	<path style="fill:#FFFFFF;" d="M114.807,60.101l0.194-0.114l1.481-2.428l0.932-0.062l-2.846,4.455
		c-0.545,0.616-1.478,0.608-2.231,0.479l0.073-0.407c1.141,0.141,1.597-0.194,2.032-1.203l-2.173-3.324l0.994,0.069L114.807,60.101z
		"/>
	<path style="fill:#FFFFFF;" d="M87.228,57.497v2.228c0,0.201,0.338,0.496,0.529,0.568c0.507,0.191,1.621,0.118,2.045-0.259
		c0.091-0.081,0.376-0.558,0.376-0.652v-1.885h0.823v3.05c0,0.035,0.109,0.144,0.068,0.24l-0.823,0.001
		c-0.047-0.047,0.101-0.634-0.102-0.548c-0.631,0.803-2.831,0.818-3.466,0.103c-0.042-0.047-0.273-0.453-0.273-0.481v-2.365H87.228z
		"/>
	<path style="fill:#FFFFFF;" d="M93.73,57.447c0.8-0.095,1.788-0.06,2.415,0.495l-0.71,0.294c-0.547-0.498-1.827-0.586-2.228,0.105
		c0.054,0.212,0.186,0.252,0.364,0.323c0.67,0.267,2.737,0.142,2.777,1.134c0.041,1.015-1.868,1.11-2.571,1.059
		c-0.516-0.037-1.184-0.181-1.54-0.585c0-0.06,0.569-0.306,0.638-0.294c0.14,0.024,0.494,0.332,0.783,0.381
		c0.376,0.063,2.104,0.072,1.752-0.651c-0.286-0.589-2.462-0.245-2.929-1.052C92.059,57.924,93.185,57.512,93.73,57.447z"/>
	<path style="fill:#FFFFFF;" d="M84.484,55.783v3.804c0,0.111-0.193,0.505-0.275,0.616c-0.585,0.794-2.469,0.841-3.312,0.5
		c-0.323-0.13-0.808-0.495-0.803-0.876l0.847-0.074c0.24,0.782,1.86,0.799,2.344,0.349c0.1-0.093,0.307-0.542,0.307-0.653v-3.667
		H84.484z"/>
	<path style="fill:#FFFFFF;" d="M98.959,56.537v0.96h1.578v0.411h-1.578v2.159c0,0.017,0.201,0.207,0.249,0.231
		c0.338,0.174,0.954,0.062,1.329,0.009l0.001,0.48c-0.503,0.106-2.401,0.202-2.401-0.583v-2.296h-1.166v-0.411h1.063
		c0.218-0.12,0.038-0.895,0.103-0.96L98.959,56.537z"/>
	<path style="fill:#FFFFFF;" d="M106.162,56.537v0.96h1.578v0.411h-1.578v2.091c0,0.49,1.256,0.424,1.577,0.308l0.041,0.414
		c-0.488,0.208-1.881,0.225-2.238-0.171c-0.044-0.049-0.203-0.378-0.203-0.414v-2.228h-1.166v-0.411h1.166v-0.96H106.162z"/>
	<path style="fill:#FFFFFF;" d="M125.714,56.537v0.96h1.578v0.411h-1.578v2.091c0,0.501,1.25,0.406,1.577,0.309l0.001,0.48
		c-0.585,0.043-1.626,0.205-2.126-0.173c-0.066-0.05-0.276-0.366-0.276-0.41v-2.296h-1.166v-0.411h1.166v-0.96H125.714z"/>
	<path style="fill:#FFFFFF;" d="M111.856,57.428l-0.072,0.476c-0.594,0.001-1.422-0.057-1.81,0.488
		c-0.049,0.069-0.245,0.465-0.245,0.509v1.885h-0.823v-3.29l0.755,0l0.034,0.548c0.217-0.211,0.886-0.617,1.167-0.617H111.856z"/>
	<rect x="131.888" y="55.783" style="fill:#FFFFFF;" width="0.892" height="3.564"/>
	<rect x="121.735" y="57.497" style="fill:#FFFFFF;" width="0.823" height="3.29"/>
	<path style="fill:#FFFFFF;" d="M132.074,60.048c0.359-0.082,1.125,0.027,0.878,0.534c-0.169,0.347-1.278,0.295-1.262-0.226
		C131.77,60.222,131.921,60.083,132.074,60.048z"/>
	<path style="fill:#FFFFFF;" d="M121.617,55.938c0.252-0.274,1.309-0.231,1.138,0.348c-0.31,0.353-0.901,0.342-1.194-0.026
		C121.508,56.162,121.544,56.017,121.617,55.938z"/>
	<path style="fill:#FFFFFF;" d="M30.767,37.619l-0.685,2.399C30.668,39.39,30.897,38.453,30.767,37.619z"/>
	<path style="fill:#FFFFFF;" d="M25.078,30.61c-11.331,0-20.517,9.186-20.517,20.517s9.186,20.517,20.517,20.517
		s20.517-9.186,20.517-20.517S36.409,30.61,25.078,30.61z M27.885,51.719c-0.117,1.157-0.265,2.322-0.341,3.483
		c-0.296,4.485-0.178,9.028,0.255,13.495c-0.262,0.65-0.912,0.438-1.005-0.204c-0.489-3.389-0.4-7.536-0.281-10.962
		c0.066-1.888,0.136-3.783,0.412-5.654c-0.426-0.036-0.922,0.049-1.338,0c-0.943-0.112-1.998-0.8-2.607-1.507
		c-0.347,0.975-0.627,1.977-1.051,2.924c-0.584,1.3-1.726,3.301-3.446,2.94c-1.855-0.389-2.114-3.182-2.192-4.699l-1.085,2.582
		c-0.509,1.437-2.497,2.895-3.608,1.182c-0.886-1.366-0.802-5.691-0.657-7.363c0.069-0.799,0.248-2.415,0.498-3.135
		c0.155-0.448,0.786-0.436,0.912-0.057c0.108,0.326-0.311,2.073-0.372,2.583c-0.187,1.548-0.396,6.31,0.482,7.521
		c0.406,0.56,1.022,0.132,1.36-0.265c1.006-1.183,2.336-5.601,2.659-7.213c0.164-0.815,0.189-1.663,0.407-2.472
		c0.056-0.209,0.056-0.451,0.292-0.53c0.381-0.128,0.674,0.009,0.697,0.413c0.053,0.931-0.46,2.519-0.554,3.567
		c-0.131,1.454-0.178,5.308,0.655,6.472c0.4,0.559,0.952,0.649,1.533,0.307c1.209-0.712,2.683-4.809,2.732-6.182
		c0.009-0.267-0.119-0.624-0.119-0.872c0.001-0.388,0.209-1.581,0.72-1.58c0.953,0.002,0.313,1.782,0.378,2.327
		c0.016,0.133,0.186,0.436,0.262,0.567c0.672,1.157,2.181,1.855,3.493,1.514c0.467-3.214,0.965-6.428,1.77-9.575
		c-0.358-0.474-0.644-0.79-0.384-1.412c0.195-0.464,0.529-0.497,0.926-0.719l1.136-3.663c0.72-0.381,0.859,0.278,1.028,0.819
		c0.481,1.538,0.368,3.867-1.144,4.823c-0.156,0.099-0.607,0.204-0.629,0.229c-0.071,0.081-0.409,1.817-0.471,2.1
		c-0.228,1.042-0.433,2.102-0.617,3.153c-0.147,0.841-0.644,3.179-0.573,3.884c0.008,0.084-0.022,0.138,0.102,0.101
		c0.295-0.087,0.872-0.396,1.156-0.559c2.844-1.629,4.889-4.934,5.446-8.131c0.229-1.317,0.175-2.609,0.105-3.94
		c0.129-0.336,0.59-0.312,0.811-0.086c0.137,0.141,0.191,0.73,0.206,0.96C36.194,44.227,33.128,50.007,27.885,51.719z"/>
	<path style="fill:#FFFFFF;" d="M30.767,37.619c0.13,0.834-0.099,1.771-0.685,2.399L30.767,37.619z"/>
</g>
</svg>
